<?xml version="1.0" encoding="UTF-8" standalone="no"?>
<!DOCTYPE svg PUBLIC "-//W3C//DTD SVG 1.1//EN"
 "http://www.w3.org/Graphics/SVG/1.1/DTD/svg11.dtd">
<!-- Generated by graphviz version 2.26.3 (20100126.1600)
 -->
<!-- Title: data.h Pages: 1 -->
<svg width="390pt" height="158pt"
 viewBox="0.00 0.00 389.96 158.00" xmlns="http://www.w3.org/2000/svg" xmlns:xlink="http://www.w3.org/1999/xlink">
<g id="graph1" class="graph" transform="scale(1 1) rotate(0) translate(4 154)">
<title>data.h</title>
<polygon fill="white" stroke="white" points="-4,5 -4,-154 386.963,-154 386.963,5 -4,5"/>
<!-- Node1 -->
<g id="node1" class="node"><title>Node1</title>
<polygon fill="#bfbfbf" stroke="black" points="158.963,-125 158.963,-149 208.963,-149 208.963,-125 158.963,-125"/>
<text text-anchor="middle" x="183.963" y="-134.2" font-family="Helvetica,sans-Serif" font-size="12.00">data.h</text>
</g>
<!-- Node2 -->
<g id="node3" class="node"><title>Node2</title>
<polygon fill="white" stroke="#bfbfbf" points="36.4633,-1 36.4633,-25 83.4633,-25 83.4633,-1 36.4633,-1"/>
<text text-anchor="middle" x="59.9633" y="-10.2" font-family="Helvetica,sans-Serif" font-size="12.00">QtGui</text>
</g>
<!-- Node1&#45;&gt;Node2 -->
<g id="edge2" class="edge"><title>Node1&#45;&gt;Node2</title>
<path fill="none" stroke="midnightblue" d="M158.814,-133.858C114.083,-127.698 23.6288,-112.462 4.96329,-88 -9.75779,-68.7075 11.7627,-46.2177 32.045,-30.9342"/>
<polygon fill="midnightblue" stroke="midnightblue" points="34.1651,-33.7209 40.2599,-25.0546 30.091,-28.0286 34.1651,-33.7209"/>
</g>
<!-- Node3 -->
<g id="node5" class="node"><title>Node3</title>
<polygon fill="white" stroke="#bfbfbf" points="156.463,-1 156.463,-25 211.463,-25 211.463,-1 156.463,-1"/>
<text text-anchor="middle" x="183.963" y="-10.2" font-family="Helvetica,sans-Serif" font-size="12.00">QtCore</text>
</g>
<!-- Node1&#45;&gt;Node3 -->
<g id="edge4" class="edge"><title>Node1&#45;&gt;Node3</title>
<path fill="none" stroke="midnightblue" d="M209.26,-129.679C228.862,-122.524 254.685,-109.507 266.963,-88 272.692,-77.9647 272.692,-72.0353 266.963,-62 257.023,-44.5888 238.207,-32.7421 221,-25.0651"/>
<polygon fill="midnightblue" stroke="midnightblue" points="222.253,-21.7956 211.673,-21.2203 219.585,-28.2673 222.253,-21.7956"/>
</g>
<!-- Node4 -->
<g id="node7" class="node"><title>Node4</title>
<a xlink:href="a00024.html" target="_top" xlink:title="element.h">
<polygon fill="white" stroke="red" points="313.463,-63 313.463,-87 382.463,-87 382.463,-63 313.463,-63"/>
<text text-anchor="middle" x="347.963" y="-72.2" font-family="Helvetica,sans-Serif" font-size="12.00">element.h</text>
</a>
</g>
<!-- Node1&#45;&gt;Node4 -->
<g id="edge6" class="edge"><title>Node1&#45;&gt;Node4</title>
<path fill="none" stroke="midnightblue" d="M209.229,-127.448C235.173,-117.64 275.979,-102.213 306.633,-90.625"/>
<polygon fill="midnightblue" stroke="midnightblue" points="308.08,-93.8195 316.197,-87.0093 305.605,-87.2718 308.08,-93.8195"/>
</g>
<!-- Node5 -->
<g id="node9" class="node"><title>Node5</title>
<a xlink:href="a00036.html" target="_top" xlink:title="solution.h">
<polygon fill="white" stroke="black" points="13.9633,-63 13.9633,-87 81.9633,-87 81.9633,-63 13.9633,-63"/>
<text text-anchor="middle" x="47.9633" y="-72.2" font-family="Helvetica,sans-Serif" font-size="12.00">solution.h</text>
</a>
</g>
<!-- Node1&#45;&gt;Node5 -->
<g id="edge8" class="edge"><title>Node1&#45;&gt;Node5</title>
<path fill="none" stroke="midnightblue" d="M158.701,-125.484C137.637,-115.881 107.371,-102.083 83.8019,-91.3382"/>
<polygon fill="midnightblue" stroke="midnightblue" points="85.034,-88.0534 74.483,-87.0899 82.1303,-94.4227 85.034,-88.0534"/>
</g>
<!-- Node6 -->
<g id="node13" class="node"><title>Node6</title>
<a xlink:href="a00020.html" target="_top" xlink:title="displaying.h">
<polygon fill="white" stroke="red" points="99.4633,-63 99.4633,-87 180.463,-87 180.463,-63 99.4633,-63"/>
<text text-anchor="middle" x="139.963" y="-72.2" font-family="Helvetica,sans-Serif" font-size="12.00">displaying.h</text>
</a>
</g>
<!-- Node1&#45;&gt;Node6 -->
<g id="edge14" class="edge"><title>Node1&#45;&gt;Node6</title>
<path fill="none" stroke="midnightblue" d="M169.767,-124.751C162.661,-116.514 154.503,-105.448 148.338,-95.8437"/>
<polygon fill="midnightblue" stroke="midnightblue" points="151.301,-93.9784 143.138,-87.2238 145.307,-97.5943 151.301,-93.9784"/>
</g>
<!-- Node7 -->
<g id="node18" class="node"><title>Node7</title>
<a xlink:href="a00027.html" target="_top" xlink:title="parser.h">
<polygon fill="white" stroke="red" points="197.963,-63 197.963,-87 257.963,-87 257.963,-63 197.963,-63"/>
<text text-anchor="middle" x="227.963" y="-72.2" font-family="Helvetica,sans-Serif" font-size="12.00">parser.h</text>
</a>
</g>
<!-- Node1&#45;&gt;Node7 -->
<g id="edge22" class="edge"><title>Node1&#45;&gt;Node7</title>
<path fill="none" stroke="midnightblue" d="M187.153,-124.751C191.88,-116.259 199.757,-104.76 207.446,-94.9569"/>
<polygon fill="midnightblue" stroke="midnightblue" points="210.153,-97.1755 213.789,-87.2238 204.741,-92.7365 210.153,-97.1755"/>
</g>
<!-- Node5&#45;&gt;Node2 -->
<g id="edge12" class="edge"><title>Node5&#45;&gt;Node2</title>
<path fill="none" stroke="midnightblue" d="M50.3341,-62.7508C51.8462,-54.9384 53.8508,-44.581 55.6394,-35.3399"/>
<polygon fill="midnightblue" stroke="midnightblue" points="59.1333,-35.7067 57.5974,-25.2238 52.2609,-34.3765 59.1333,-35.7067"/>
</g>
<!-- Node5&#45;&gt;Node3 -->
<g id="edge10" class="edge"><title>Node5&#45;&gt;Node3</title>
<path fill="none" stroke="midnightblue" d="M74.5083,-62.8986C95.57,-53.2969 125.212,-39.7838 148.337,-29.2413"/>
<polygon fill="midnightblue" stroke="midnightblue" points="149.838,-32.4037 157.485,-25.0709 146.934,-26.0344 149.838,-32.4037"/>
</g>
<!-- Node6&#45;&gt;Node1 -->
<g id="edge20" class="edge"><title>Node6&#45;&gt;Node1</title>
<path fill="none" stroke="midnightblue" d="M154.138,-87.2238C161.242,-95.4549 169.401,-106.52 175.569,-116.127"/>
<polygon fill="midnightblue" stroke="midnightblue" points="172.61,-117.998 180.774,-124.751 178.603,-114.381 172.61,-117.998"/>
</g>
<!-- Node6&#45;&gt;Node2 -->
<g id="edge16" class="edge"><title>Node6&#45;&gt;Node2</title>
<path fill="none" stroke="midnightblue" d="M124.158,-62.7508C112.578,-53.7766 96.6653,-41.4441 83.5802,-31.3031"/>
<polygon fill="midnightblue" stroke="midnightblue" points="85.5119,-28.3721 75.4637,-25.0128 81.2238,-33.905 85.5119,-28.3721"/>
</g>
<!-- Node6&#45;&gt;Node3 -->
<g id="edge18" class="edge"><title>Node6&#45;&gt;Node3</title>
<path fill="none" stroke="midnightblue" d="M148.656,-62.7508C154.562,-54.4289 162.517,-43.2192 169.381,-33.5471"/>
<polygon fill="midnightblue" stroke="midnightblue" points="172.355,-35.4045 175.288,-25.2238 166.647,-31.3532 172.355,-35.4045"/>
</g>
<!-- Node7&#45;&gt;Node1 -->
<g id="edge24" class="edge"><title>Node7&#45;&gt;Node1</title>
<path fill="none" stroke="midnightblue" d="M224.788,-87.2238C220.067,-95.7095 212.193,-107.207 204.503,-117.014"/>
<polygon fill="midnightblue" stroke="midnightblue" points="201.794,-114.798 198.16,-124.751 207.207,-119.237 201.794,-114.798"/>
</g>
<!-- Node7&#45;&gt;Node2 -->
<g id="edge26" class="edge"><title>Node7&#45;&gt;Node2</title>
<path fill="none" stroke="midnightblue" d="M197.928,-63.9156C168.504,-53.0569 123.761,-36.5444 93.2634,-25.2893"/>
<polygon fill="midnightblue" stroke="midnightblue" points="94.1029,-21.8684 83.5096,-21.6897 91.6793,-28.4355 94.1029,-21.8684"/>
</g>
<!-- Node7&#45;&gt;Node3 -->
<g id="edge28" class="edge"><title>Node7&#45;&gt;Node3</title>
<path fill="none" stroke="midnightblue" d="M219.27,-62.7508C213.364,-54.4289 205.409,-43.2192 198.545,-33.5471"/>
<polygon fill="midnightblue" stroke="midnightblue" points="201.28,-31.3532 192.638,-25.2238 195.571,-35.4045 201.28,-31.3532"/>
</g>
</g>
</svg>
