<?xml version="1.0" encoding="UTF-8" standalone="no"?>
<!DOCTYPE svg PUBLIC "-//W3C//DTD SVG 1.1//EN"
 "http://www.w3.org/Graphics/SVG/1.1/DTD/svg11.dtd">
<!-- Generated by graphviz version 2.26.3 (20100126.1600)
 -->
<!-- Title: Application::onISChoice Pages: 1 -->
<svg width="512pt" height="87pt"
 viewBox="0.00 0.00 512.00 87.06" xmlns="http://www.w3.org/2000/svg" xmlns:xlink="http://www.w3.org/1999/xlink">
<g id="graph1" class="graph" transform="scale(1 1) rotate(0) translate(4 83.0589)">
<title>Application::onISChoice</title>
<polygon fill="white" stroke="white" points="-4,5 -4,-83.0589 509,-83.0589 509,5 -4,5"/>
<!-- Node1 -->
<g id="node1" class="node"><title>Node1</title>
<polygon fill="#bfbfbf" stroke="black" points="0,-42 0,-66 146,-66 146,-42 0,-42"/>
<text text-anchor="middle" x="73" y="-51.2" font-family="Helvetica,sans-Serif" font-size="12.00">Application::onISChoice</text>
</g>
<!-- Node2 -->
<g id="node3" class="node"><title>Node2</title>
<a xlink:href="a00001.html#a934cebb73a90017ac0ffb8ba9b0f251b" target="_top" xlink:title="Creation of HCI actions.">
<polygon fill="white" stroke="red" points="348.5,-42 348.5,-66 503.5,-66 503.5,-42 348.5,-42"/>
<text text-anchor="middle" x="426" y="-51.2" font-family="Helvetica,sans-Serif" font-size="12.00">Application::createActions</text>
</a>
</g>
<!-- Node1&#45;&gt;Node2 -->
<g id="edge2" class="edge"><title>Node1&#45;&gt;Node2</title>
<path fill="none" stroke="midnightblue" d="M134.498,-67.9655C149.924,-70.8827 166.499,-73.5204 182,-75 239.516,-80.4901 254.462,-80.2554 312,-75 331.741,-73.197 353.167,-69.6725 372.06,-66.0182"/>
<polygon fill="midnightblue" stroke="midnightblue" points="135.036,-64.5044 124.549,-66.0174 133.69,-71.3739 135.036,-64.5044"/>
</g>
<!-- Node3 -->
<g id="node5" class="node"><title>Node3</title>
<a xlink:href="a00001.html#a68965449404743bf1add056784d6cf81" target="_top" xlink:title="Slot of clicking on proceed button.">
<polygon fill="white" stroke="black" points="197,-42 197,-66 297,-66 297,-42 197,-42"/>
<text text-anchor="middle" x="247" y="-51.2" font-family="Helvetica,sans-Serif" font-size="12.00">Application::run</text>
</a>
</g>
<!-- Node1&#45;&gt;Node3 -->
<g id="edge4" class="edge"><title>Node1&#45;&gt;Node3</title>
<path fill="none" stroke="midnightblue" d="M156.126,-54C170.045,-54 184.096,-54 196.851,-54"/>
<polygon fill="midnightblue" stroke="midnightblue" points="156.035,-50.5001 146.035,-54 156.035,-57.5001 156.035,-50.5001"/>
</g>
<!-- Node4 -->
<g id="node8" class="node"><title>Node4</title>
<a xlink:href="a00001.html#ab7f9356b1eaa23c179500675d92a49d5" target="_top" xlink:title="Slot of clicking on open data file button.">
<polygon fill="white" stroke="black" points="182,-0 182,-24 312,-24 312,-0 182,-0"/>
<text text-anchor="middle" x="247" y="-9.2" font-family="Helvetica,sans-Serif" font-size="12.00">Application::openFile</text>
</a>
</g>
<!-- Node1&#45;&gt;Node4 -->
<g id="edge8" class="edge"><title>Node1&#45;&gt;Node4</title>
<path fill="none" stroke="midnightblue" d="M132.64,-39.6041C153.645,-34.5341 177.018,-28.8923 197.131,-24.0373"/>
<polygon fill="midnightblue" stroke="midnightblue" points="131.761,-36.2157 122.861,-41.9645 133.404,-43.0203 131.761,-36.2157"/>
</g>
<!-- Node3&#45;&gt;Node2 -->
<g id="edge6" class="edge"><title>Node3&#45;&gt;Node2</title>
<path fill="none" stroke="midnightblue" d="M307.596,-54C320.665,-54 334.655,-54 348.274,-54"/>
<polygon fill="midnightblue" stroke="midnightblue" points="307.338,-50.5001 297.338,-54 307.338,-57.5001 307.338,-50.5001"/>
</g>
<!-- Node4&#45;&gt;Node2 -->
<g id="edge10" class="edge"><title>Node4&#45;&gt;Node2</title>
<path fill="none" stroke="midnightblue" d="M308.061,-26.3271C329.744,-31.4149 353.913,-37.0857 374.698,-41.9627"/>
<polygon fill="midnightblue" stroke="midnightblue" points="308.829,-22.9125 298.294,-24.0355 307.23,-29.7274 308.829,-22.9125"/>
</g>
</g>
</svg>
