<?xml version="1.0" encoding="UTF-8" standalone="no"?>
<!DOCTYPE svg PUBLIC "-//W3C//DTD SVG 1.1//EN"
 "http://www.w3.org/Graphics/SVG/1.1/DTD/svg11.dtd">
<!-- Generated by graphviz version 2.26.3 (20100126.1600)
 -->
<!-- Title: Processing::subtructBlank Pages: 1 -->
<svg width="314pt" height="242pt"
 viewBox="0.00 0.00 314.00 242.00" xmlns="http://www.w3.org/2000/svg" xmlns:xlink="http://www.w3.org/1999/xlink">
<g id="graph1" class="graph" transform="scale(1 1) rotate(0) translate(4 238)">
<title>Processing::subtructBlank</title>
<polygon fill="white" stroke="white" points="-4,5 -4,-238 311,-238 311,5 -4,5"/>
<!-- Node1 -->
<g id="node1" class="node"><title>Node1</title>
<polygon fill="#bfbfbf" stroke="black" points="0.5,-105 0.5,-129 155.5,-129 155.5,-105 0.5,-105"/>
<text text-anchor="middle" x="78" y="-114.2" font-family="Helvetica,sans-Serif" font-size="12.00">Processing::subtructBlank</text>
</g>
<!-- Node2 -->
<g id="node3" class="node"><title>Node2</title>
<a xlink:href="a00002.html#acd1f2adc01b25ef7bded9b6d2b331278" target="_top" xlink:title="Gets the Number of elements.">
<polygon fill="white" stroke="black" points="205,-210 205,-234 293,-234 293,-210 205,-210"/>
<text text-anchor="middle" x="249" y="-219.2" font-family="Helvetica,sans-Serif" font-size="12.00">Data::isoSize</text>
</a>
</g>
<!-- Node1&#45;&gt;Node2 -->
<g id="edge2" class="edge"><title>Node1&#45;&gt;Node2</title>
<path fill="none" stroke="midnightblue" d="M91.8751,-129.266C112.507,-147.013 153.039,-180.018 192,-201 195.256,-202.753 198.689,-204.42 202.19,-205.992"/>
<polygon fill="midnightblue" stroke="midnightblue" points="200.964,-209.273 211.539,-209.922 203.677,-202.82 200.964,-209.273"/>
</g>
<!-- Node3 -->
<g id="node5" class="node"><title>Node3</title>
<a xlink:href="a00002.html#a7b1a07606090591e7fffb48be72bd734" target="_top" xlink:title="Gets a solution identified by its Id.">
<polygon fill="white" stroke="black" points="194.5,-168 194.5,-192 303.5,-192 303.5,-168 194.5,-168"/>
<text text-anchor="middle" x="249" y="-177.2" font-family="Helvetica,sans-Serif" font-size="12.00">Data::getSolution</text>
</a>
</g>
<!-- Node1&#45;&gt;Node3 -->
<g id="edge4" class="edge"><title>Node1&#45;&gt;Node3</title>
<path fill="none" stroke="midnightblue" d="M110.971,-129.147C138.263,-139.202 177.213,-153.552 206.783,-164.446"/>
<polygon fill="midnightblue" stroke="midnightblue" points="205.828,-167.824 216.421,-167.997 208.248,-161.256 205.828,-167.824"/>
</g>
<!-- Node4 -->
<g id="node7" class="node"><title>Node4</title>
<a xlink:href="a00013.html#a6cb75c8a1aa020796506362920216816" target="_top" xlink:title="Gets Intensity.">
<polygon fill="white" stroke="black" points="196.5,-126 196.5,-150 301.5,-150 301.5,-126 196.5,-126"/>
<text text-anchor="middle" x="249" y="-135.2" font-family="Helvetica,sans-Serif" font-size="12.00">Solution::getCps</text>
</a>
</g>
<!-- Node1&#45;&gt;Node4 -->
<g id="edge6" class="edge"><title>Node1&#45;&gt;Node4</title>
<path fill="none" stroke="midnightblue" d="M155.994,-126.578C166.062,-127.815 176.27,-129.068 186.053,-130.27"/>
<polygon fill="midnightblue" stroke="midnightblue" points="185.719,-133.755 196.071,-131.5 186.572,-126.807 185.719,-133.755"/>
</g>
<!-- Node5 -->
<g id="node9" class="node"><title>Node5</title>
<a xlink:href="a00002.html#a84179b0c71fb3e69cfa177e92004ee79" target="_top" xlink:title="Gets the Number of Solutions.">
<polygon fill="white" stroke="black" points="192,-84 192,-108 306,-108 306,-84 192,-84"/>
<text text-anchor="middle" x="249" y="-93.2" font-family="Helvetica,sans-Serif" font-size="12.00">Data::solutionSize</text>
</a>
</g>
<!-- Node1&#45;&gt;Node5 -->
<g id="edge8" class="edge"><title>Node1&#45;&gt;Node5</title>
<path fill="none" stroke="midnightblue" d="M155.994,-107.422C164.573,-106.368 173.254,-105.302 181.688,-104.266"/>
<polygon fill="midnightblue" stroke="midnightblue" points="182.329,-107.714 191.828,-103.021 181.476,-100.766 182.329,-107.714"/>
</g>
<!-- Node6 -->
<g id="node11" class="node"><title>Node6</title>
<a xlink:href="a00013.html#a7e480d4e590046701d82e74491ff944a" target="_top" xlink:title="Gets type of the solution.">
<polygon fill="white" stroke="black" points="194,-42 194,-66 304,-66 304,-42 194,-42"/>
<text text-anchor="middle" x="249" y="-51.2" font-family="Helvetica,sans-Serif" font-size="12.00">Solution::getType</text>
</a>
</g>
<!-- Node1&#45;&gt;Node6 -->
<g id="edge10" class="edge"><title>Node1&#45;&gt;Node6</title>
<path fill="none" stroke="midnightblue" d="M110.971,-104.853C138.263,-94.798 177.213,-80.4477 206.783,-69.5536"/>
<polygon fill="midnightblue" stroke="midnightblue" points="208.248,-72.7441 216.421,-66.0028 205.828,-66.1757 208.248,-72.7441"/>
</g>
<!-- Node7 -->
<g id="node13" class="node"><title>Node7</title>
<a xlink:href="a00013.html#a6c810986de58b492514e08849cb0a498" target="_top" xlink:title="Sets Intensity.">
<polygon fill="white" stroke="black" points="197,-0 197,-24 301,-24 301,-0 197,-0"/>
<text text-anchor="middle" x="249" y="-9.2" font-family="Helvetica,sans-Serif" font-size="12.00">Solution::setCps</text>
</a>
</g>
<!-- Node1&#45;&gt;Node7 -->
<g id="edge12" class="edge"><title>Node1&#45;&gt;Node7</title>
<path fill="none" stroke="midnightblue" d="M91.8751,-104.734C112.507,-86.9866 153.039,-53.9823 192,-33 195.256,-31.2467 198.689,-29.5797 202.19,-28.0083"/>
<polygon fill="midnightblue" stroke="midnightblue" points="203.677,-31.1799 211.539,-24.0784 200.964,-24.7267 203.677,-31.1799"/>
</g>
</g>
</svg>
