<?xml version="1.0" encoding="UTF-8" standalone="no"?>
<!DOCTYPE svg PUBLIC "-//W3C//DTD SVG 1.1//EN"
 "http://www.w3.org/Graphics/SVG/1.1/DTD/svg11.dtd">
<!-- Generated by graphviz version 2.26.3 (20100126.1600)
 -->
<!-- Title: processing.cpp Pages: 1 -->
<svg width="206pt" height="158pt"
 viewBox="0.00 0.00 206.00 158.00" xmlns="http://www.w3.org/2000/svg" xmlns:xlink="http://www.w3.org/1999/xlink">
<g id="graph1" class="graph" transform="scale(1 1) rotate(0) translate(4 154)">
<title>processing.cpp</title>
<polygon fill="white" stroke="white" points="-4,5 -4,-154 203,-154 203,5 -4,5"/>
<!-- Node1 -->
<g id="node1" class="node"><title>Node1</title>
<polygon fill="#bfbfbf" stroke="black" points="63,-125 63,-149 161,-149 161,-125 63,-125"/>
<text text-anchor="middle" x="112" y="-134.2" font-family="Helvetica,sans-Serif" font-size="12.00">processing.cpp</text>
</g>
<!-- Node2 -->
<g id="node3" class="node"><title>Node2</title>
<a xlink:href="a00029.html" target="_top" target="_top" xlink:title="processing.h">
<polygon fill="white" stroke="red" points="-0.5,-63 -0.5,-87 84.5,-87 84.5,-63 -0.5,-63"/>
<text text-anchor="middle" x="42" y="-72.2" font-family="Helvetica,sans-Serif" font-size="12.00">processing.h</text>
</a>
</g>
<!-- Node1&#45;&gt;Node2 -->
<g id="edge2" class="edge"><title>Node1&#45;&gt;Node2</title>
<path fill="none" stroke="midnightblue" d="M98.1703,-124.751C88.2952,-116.004 74.8185,-104.068 63.5411,-94.0793"/>
<polygon fill="midnightblue" stroke="midnightblue" points="65.6076,-91.2341 55.801,-87.2238 60.9663,-96.4742 65.6076,-91.2341"/>
</g>
<!-- Node3 -->
<g id="node5" class="node"><title>Node3</title>
<polygon fill="white" stroke="#bfbfbf" points="46,-1 46,-25 108,-25 108,-1 46,-1"/>
<text text-anchor="middle" x="77" y="-10.2" font-family="Helvetica,sans-Serif" font-size="12.00">iostream</text>
</g>
<!-- Node1&#45;&gt;Node3 -->
<g id="edge6" class="edge"><title>Node1&#45;&gt;Node3</title>
<path fill="none" stroke="midnightblue" d="M109.22,-124.982C105.72,-110.115 99.3888,-84.0626 93,-62 90.381,-52.9556 87.212,-43.0683 84.3875,-34.5589"/>
<polygon fill="midnightblue" stroke="midnightblue" points="87.6812,-33.3724 81.1733,-25.0119 81.047,-35.606 87.6812,-33.3724"/>
</g>
<!-- Node4 -->
<g id="node8" class="node"><title>Node4</title>
<polygon fill="white" stroke="#bfbfbf" points="139.5,-63 139.5,-87 198.5,-87 198.5,-63 139.5,-63"/>
<text text-anchor="middle" x="169" y="-72.2" font-family="Helvetica,sans-Serif" font-size="12.00">iomanip</text>
</g>
<!-- Node1&#45;&gt;Node4 -->
<g id="edge8" class="edge"><title>Node1&#45;&gt;Node4</title>
<path fill="none" stroke="midnightblue" d="M123.261,-124.751C131.146,-116.174 141.851,-104.53 150.922,-94.6633"/>
<polygon fill="midnightblue" stroke="midnightblue" points="153.571,-96.9543 157.762,-87.2238 148.417,-92.2167 153.571,-96.9543"/>
</g>
<!-- Node2&#45;&gt;Node3 -->
<g id="edge4" class="edge"><title>Node2&#45;&gt;Node3</title>
<path fill="none" stroke="midnightblue" d="M48.9149,-62.7508C53.5169,-54.5987 59.6832,-43.6755 65.0655,-34.1411"/>
<polygon fill="midnightblue" stroke="midnightblue" points="68.2314,-35.6526 70.0995,-25.2238 62.1356,-32.2114 68.2314,-35.6526"/>
</g>
</g>
</svg>
