<?xml version="1.0" encoding="UTF-8" standalone="no"?>
<!DOCTYPE svg PUBLIC "-//W3C//DTD SVG 1.1//EN"
 "http://www.w3.org/Graphics/SVG/1.1/DTD/svg11.dtd">
<!-- Generated by graphviz version 2.26.3 (20100126.1600)
 -->
<!-- Title: Data::addBLKmoy Pages: 1 -->
<svg width="288pt" height="74pt"
 viewBox="0.00 0.00 288.00 74.00" xmlns="http://www.w3.org/2000/svg" xmlns:xlink="http://www.w3.org/1999/xlink">
<g id="graph1" class="graph" transform="scale(1 1) rotate(0) translate(4 70)">
<title>Data::addBLKmoy</title>
<polygon fill="white" stroke="white" points="-4,5 -4,-70 285,-70 285,5 -4,5"/>
<!-- Node1 -->
<g id="node1" class="node"><title>Node1</title>
<polygon fill="#bfbfbf" stroke="black" points="0,-21 0,-45 114,-45 114,-21 0,-21"/>
<text text-anchor="middle" x="57" y="-30.2" font-family="Helvetica,sans-Serif" font-size="12.00">Data::addBLKmoy</text>
</g>
<!-- Node2 -->
<g id="node3" class="node"><title>Node2</title>
<a xlink:href="a00001.html#a68965449404743bf1add056784d6cf81" target="_top" xlink:title="Slot of clicking on proceed button.">
<polygon fill="white" stroke="red" points="165,-42 165,-66 265,-66 265,-42 165,-42"/>
<text text-anchor="middle" x="215" y="-51.2" font-family="Helvetica,sans-Serif" font-size="12.00">Application::run</text>
</a>
</g>
<!-- Node1&#45;&gt;Node2 -->
<g id="edge2" class="edge"><title>Node1&#45;&gt;Node2</title>
<path fill="none" stroke="midnightblue" d="M124.315,-41.9469C137.906,-43.7533 151.968,-45.6223 164.845,-47.3338"/>
<polygon fill="midnightblue" stroke="midnightblue" points="124.416,-38.4296 114.042,-40.5815 123.493,-45.3686 124.416,-38.4296"/>
</g>
<!-- Node3 -->
<g id="node5" class="node"><title>Node3</title>
<a xlink:href="a00001.html#ab7f9356b1eaa23c179500675d92a49d5" target="_top" xlink:title="Slot of clicking on open data file button.">
<polygon fill="white" stroke="red" points="150,-0 150,-24 280,-24 280,-0 150,-0"/>
<text text-anchor="middle" x="215" y="-9.2" font-family="Helvetica,sans-Serif" font-size="12.00">Application::openFile</text>
</a>
</g>
<!-- Node1&#45;&gt;Node3 -->
<g id="edge4" class="edge"><title>Node1&#45;&gt;Node3</title>
<path fill="none" stroke="midnightblue" d="M124.026,-24.0915C132.628,-22.9481 141.425,-21.779 149.994,-20.64"/>
<polygon fill="midnightblue" stroke="midnightblue" points="123.493,-20.6314 114.042,-25.4185 124.416,-27.5704 123.493,-20.6314"/>
</g>
</g>
</svg>
