<?xml version="1.0" encoding="UTF-8" standalone="no"?>
<!DOCTYPE svg PUBLIC "-//W3C//DTD SVG 1.1//EN"
 "http://www.w3.org/Graphics/SVG/1.1/DTD/svg11.dtd">
<!-- Generated by graphviz version 2.26.3 (20100126.1600)
 -->
<!-- Title: Processing::correctionIS Pages: 1 -->
<svg width="306pt" height="284pt"
 viewBox="0.00 0.00 306.00 284.00" xmlns="http://www.w3.org/2000/svg" xmlns:xlink="http://www.w3.org/1999/xlink">
<g id="graph1" class="graph" transform="scale(1 1) rotate(0) translate(4 280)">
<title>Processing::correctionIS</title>
<polygon fill="white" stroke="white" points="-4,5 -4,-280 303,-280 303,5 -4,5"/>
<!-- Node1 -->
<g id="node1" class="node"><title>Node1</title>
<polygon fill="#bfbfbf" stroke="black" points="0,-126 0,-150 146,-150 146,-126 0,-126"/>
<text text-anchor="middle" x="73" y="-135.2" font-family="Helvetica,sans-Serif" font-size="12.00">Processing::correctionIS</text>
</g>
<!-- Node2 -->
<g id="node3" class="node"><title>Node2</title>
<a xlink:href="a00002.html#a84179b0c71fb3e69cfa177e92004ee79" target="_top" xlink:title="Gets the Number of Solutions.">
<polygon fill="white" stroke="black" points="183,-252 183,-276 297,-276 297,-252 183,-252"/>
<text text-anchor="middle" x="240" y="-261.2" font-family="Helvetica,sans-Serif" font-size="12.00">Data::solutionSize</text>
</a>
</g>
<!-- Node1&#45;&gt;Node2 -->
<g id="edge2" class="edge"><title>Node1&#45;&gt;Node2</title>
<path fill="none" stroke="midnightblue" d="M82.5493,-150.076C100.108,-171.552 139.624,-216.606 182,-243 184.642,-244.645 187.431,-246.188 190.301,-247.63"/>
<polygon fill="midnightblue" stroke="midnightblue" points="189.105,-250.931 199.656,-251.894 192.008,-244.561 189.105,-250.931"/>
</g>
<!-- Node3 -->
<g id="node5" class="node"><title>Node3</title>
<a xlink:href="a00002.html#a7b1a07606090591e7fffb48be72bd734" target="_top" xlink:title="Gets a solution identified by its Id.">
<polygon fill="white" stroke="black" points="185.5,-210 185.5,-234 294.5,-234 294.5,-210 185.5,-210"/>
<text text-anchor="middle" x="240" y="-219.2" font-family="Helvetica,sans-Serif" font-size="12.00">Data::getSolution</text>
</a>
</g>
<!-- Node1&#45;&gt;Node3 -->
<g id="edge4" class="edge"><title>Node1&#45;&gt;Node3</title>
<path fill="none" stroke="midnightblue" d="M91.7473,-150.207C113.041,-163.743 149.107,-185.686 182,-201 185.877,-202.805 189.956,-204.558 194.08,-206.231"/>
<polygon fill="midnightblue" stroke="midnightblue" points="193.12,-209.613 203.709,-209.978 195.658,-203.09 193.12,-209.613"/>
</g>
<!-- Node4 -->
<g id="node7" class="node"><title>Node4</title>
<a xlink:href="a00013.html#a6cb75c8a1aa020796506362920216816" target="_top" xlink:title="Gets Intensity.">
<polygon fill="white" stroke="black" points="187.5,-168 187.5,-192 292.5,-192 292.5,-168 187.5,-168"/>
<text text-anchor="middle" x="240" y="-177.2" font-family="Helvetica,sans-Serif" font-size="12.00">Solution::getCps</text>
</a>
</g>
<!-- Node1&#45;&gt;Node4 -->
<g id="edge6" class="edge"><title>Node1&#45;&gt;Node4</title>
<path fill="none" stroke="midnightblue" d="M120.855,-150.036C139.985,-154.846 162.186,-160.43 182.204,-165.464"/>
<polygon fill="midnightblue" stroke="midnightblue" points="181.586,-168.918 192.138,-167.963 183.293,-162.129 181.586,-168.918"/>
</g>
<!-- Node5 -->
<g id="node9" class="node"><title>Node5</title>
<a xlink:href="a00002.html#acd1f2adc01b25ef7bded9b6d2b331278" target="_top" xlink:title="Gets the Number of elements.">
<polygon fill="white" stroke="black" points="196,-126 196,-150 284,-150 284,-126 196,-126"/>
<text text-anchor="middle" x="240" y="-135.2" font-family="Helvetica,sans-Serif" font-size="12.00">Data::isoSize</text>
</a>
</g>
<!-- Node1&#45;&gt;Node5 -->
<g id="edge8" class="edge"><title>Node1&#45;&gt;Node5</title>
<path fill="none" stroke="midnightblue" d="M146.249,-138C159.394,-138 172.884,-138 185.388,-138"/>
<polygon fill="midnightblue" stroke="midnightblue" points="185.631,-141.5 195.631,-138 185.631,-134.5 185.631,-141.5"/>
</g>
<!-- Node6 -->
<g id="node11" class="node"><title>Node6</title>
<a xlink:href="a00002.html#a4baa9866aaea800c81e4502b9483e4ec" target="_top" xlink:title="Gets an element identified by its Id.">
<polygon fill="white" stroke="black" points="200,-84 200,-108 280,-108 280,-84 200,-84"/>
<text text-anchor="middle" x="240" y="-93.2" font-family="Helvetica,sans-Serif" font-size="12.00">Data::getIso</text>
</a>
</g>
<!-- Node1&#45;&gt;Node6 -->
<g id="edge10" class="edge"><title>Node1&#45;&gt;Node6</title>
<path fill="none" stroke="midnightblue" d="M120.855,-125.964C142.503,-120.52 168.086,-114.086 189.986,-108.578"/>
<polygon fill="midnightblue" stroke="midnightblue" points="190.917,-111.953 199.761,-106.12 189.209,-105.165 190.917,-111.953"/>
</g>
<!-- Node7 -->
<g id="node13" class="node"><title>Node7</title>
<a xlink:href="a00005.html#ab8c2c9824162b3a151e84cb2f2c5df6f" target="_top" xlink:title="Gets the resolution (value of Resolution enumeration)">
<polygon fill="white" stroke="black" points="182.5,-42 182.5,-66 297.5,-66 297.5,-42 182.5,-42"/>
<text text-anchor="middle" x="240" y="-51.2" font-family="Helvetica,sans-Serif" font-size="12.00">Element::getResol</text>
</a>
</g>
<!-- Node1&#45;&gt;Node7 -->
<g id="edge12" class="edge"><title>Node1&#45;&gt;Node7</title>
<path fill="none" stroke="midnightblue" d="M91.7473,-125.793C113.041,-112.257 149.107,-90.3139 182,-75 185.877,-73.1948 189.956,-71.4418 194.08,-69.7685"/>
<polygon fill="midnightblue" stroke="midnightblue" points="195.658,-72.9101 203.709,-66.0222 193.12,-66.3865 195.658,-72.9101"/>
</g>
<!-- Node8 -->
<g id="node15" class="node"><title>Node8</title>
<a xlink:href="a00013.html#a6c810986de58b492514e08849cb0a498" target="_top" xlink:title="Sets Intensity.">
<polygon fill="white" stroke="black" points="188,-0 188,-24 292,-24 292,-0 188,-0"/>
<text text-anchor="middle" x="240" y="-9.2" font-family="Helvetica,sans-Serif" font-size="12.00">Solution::setCps</text>
</a>
</g>
<!-- Node1&#45;&gt;Node8 -->
<g id="edge14" class="edge"><title>Node1&#45;&gt;Node8</title>
<path fill="none" stroke="midnightblue" d="M82.5493,-125.924C100.108,-104.448 139.624,-59.3937 182,-33 184.642,-31.3546 187.431,-29.8121 190.301,-28.3704"/>
<polygon fill="midnightblue" stroke="midnightblue" points="192.008,-31.4386 199.656,-24.1062 189.105,-25.0691 192.008,-31.4386"/>
</g>
</g>
</svg>
