<?xml version="1.0" encoding="UTF-8" standalone="no"?>
<!DOCTYPE svg PUBLIC "-//W3C//DTD SVG 1.1//EN"
 "http://www.w3.org/Graphics/SVG/1.1/DTD/svg11.dtd">
<!-- Generated by graphviz version 2.26.3 (20100126.1600)
 -->
<!-- Title: Displaying::plotIS Pages: 1 -->
<svg width="274pt" height="284pt"
 viewBox="0.00 0.00 274.00 284.00" xmlns="http://www.w3.org/2000/svg" xmlns:xlink="http://www.w3.org/1999/xlink">
<g id="graph1" class="graph" transform="scale(1 1) rotate(0) translate(4 280)">
<title>Displaying::plotIS</title>
<polygon fill="white" stroke="white" points="-4,5 -4,-280 271,-280 271,5 -4,5"/>
<!-- Node1 -->
<g id="node1" class="node"><title>Node1</title>
<polygon fill="#bfbfbf" stroke="black" points="0,-126 0,-150 110,-150 110,-126 0,-126"/>
<text text-anchor="middle" x="55" y="-135.2" font-family="Helvetica,sans-Serif" font-size="12.00">Displaying::plotIS</text>
</g>
<!-- Node2 -->
<g id="node3" class="node"><title>Node2</title>
<a xlink:href="a00002.html#a4baa9866aaea800c81e4502b9483e4ec" target="_top" xlink:title="Gets an element identified by its Id.">
<polygon fill="white" stroke="black" points="166,-252 166,-276 246,-276 246,-252 166,-252"/>
<text text-anchor="middle" x="206" y="-261.2" font-family="Helvetica,sans-Serif" font-size="12.00">Data::getIso</text>
</a>
</g>
<!-- Node1&#45;&gt;Node2 -->
<g id="edge2" class="edge"><title>Node1&#45;&gt;Node2</title>
<path fill="none" stroke="midnightblue" d="M62.4669,-150.203C76.3245,-171.882 108.087,-217.246 146,-243 149.295,-245.238 152.854,-247.263 156.536,-249.09"/>
<polygon fill="midnightblue" stroke="midnightblue" points="155.305,-252.372 165.865,-253.231 158.145,-245.974 155.305,-252.372"/>
</g>
<!-- Node3 -->
<g id="node5" class="node"><title>Node3</title>
<a xlink:href="a00005.html#a82faf6c27cd36339a0a12cae9beb89af" target="_top" xlink:title="Gets the complete Name of the istope, used to display the element to HCI.">
<polygon fill="white" stroke="red" points="148,-210 148,-234 264,-234 264,-210 148,-210"/>
<text text-anchor="middle" x="206" y="-219.2" font-family="Helvetica,sans-Serif" font-size="12.00">Element::getName</text>
</a>
</g>
<!-- Node1&#45;&gt;Node3 -->
<g id="edge4" class="edge"><title>Node1&#45;&gt;Node3</title>
<path fill="none" stroke="midnightblue" d="M69.6692,-150.021C87.0336,-163.795 117.235,-186.348 146,-201 149.549,-202.808 153.291,-204.524 157.099,-206.137"/>
<polygon fill="midnightblue" stroke="midnightblue" points="156.048,-209.485 166.633,-209.931 158.636,-202.982 156.048,-209.485"/>
</g>
<!-- Node4 -->
<g id="node7" class="node"><title>Node4</title>
<a xlink:href="a00002.html#a84179b0c71fb3e69cfa177e92004ee79" target="_top" xlink:title="Gets the Number of Solutions.">
<polygon fill="white" stroke="black" points="149,-168 149,-192 263,-192 263,-168 149,-168"/>
<text text-anchor="middle" x="206" y="-177.2" font-family="Helvetica,sans-Serif" font-size="12.00">Data::solutionSize</text>
</a>
</g>
<!-- Node1&#45;&gt;Node4 -->
<g id="edge6" class="edge"><title>Node1&#45;&gt;Node4</title>
<path fill="none" stroke="midnightblue" d="M98.2705,-150.036C115.33,-154.781 135.092,-160.277 152.996,-165.257"/>
<polygon fill="midnightblue" stroke="midnightblue" points="152.151,-168.655 162.723,-167.963 154.027,-161.911 152.151,-168.655"/>
</g>
<!-- Node5 -->
<g id="node9" class="node"><title>Node5</title>
<a xlink:href="a00010.html#aeabb0a31dafb8c9bcb81749f9b18b469" target="_top" xlink:title="Tests the validit of a number.">
<polygon fill="white" stroke="black" points="146.5,-126 146.5,-150 265.5,-150 265.5,-126 146.5,-126"/>
<text text-anchor="middle" x="206" y="-135.2" font-family="Helvetica,sans-Serif" font-size="12.00">Processing::isValid</text>
</a>
</g>
<!-- Node1&#45;&gt;Node5 -->
<g id="edge8" class="edge"><title>Node1&#45;&gt;Node5</title>
<path fill="none" stroke="midnightblue" d="M110.369,-138C118.779,-138 127.547,-138 136.215,-138"/>
<polygon fill="midnightblue" stroke="midnightblue" points="136.316,-141.5 146.316,-138 136.316,-134.5 136.316,-141.5"/>
</g>
<!-- Node6 -->
<g id="node11" class="node"><title>Node6</title>
<a xlink:href="a00002.html#a7b1a07606090591e7fffb48be72bd734" target="_top" xlink:title="Gets a solution identified by its Id.">
<polygon fill="white" stroke="black" points="151.5,-84 151.5,-108 260.5,-108 260.5,-84 151.5,-84"/>
<text text-anchor="middle" x="206" y="-93.2" font-family="Helvetica,sans-Serif" font-size="12.00">Data::getSolution</text>
</a>
</g>
<!-- Node1&#45;&gt;Node6 -->
<g id="edge10" class="edge"><title>Node1&#45;&gt;Node6</title>
<path fill="none" stroke="midnightblue" d="M98.2705,-125.964C115.33,-121.219 135.092,-115.723 152.996,-110.743"/>
<polygon fill="midnightblue" stroke="midnightblue" points="154.027,-114.089 162.723,-108.037 152.151,-107.345 154.027,-114.089"/>
</g>
<!-- Node7 -->
<g id="node13" class="node"><title>Node7</title>
<a xlink:href="a00013.html#a6cb75c8a1aa020796506362920216816" target="_top" xlink:title="Gets Intensity.">
<polygon fill="white" stroke="black" points="153.5,-42 153.5,-66 258.5,-66 258.5,-42 153.5,-42"/>
<text text-anchor="middle" x="206" y="-51.2" font-family="Helvetica,sans-Serif" font-size="12.00">Solution::getCps</text>
</a>
</g>
<!-- Node1&#45;&gt;Node7 -->
<g id="edge12" class="edge"><title>Node1&#45;&gt;Node7</title>
<path fill="none" stroke="midnightblue" d="M69.6692,-125.979C87.0336,-112.205 117.235,-89.6518 146,-75 149.549,-73.192 153.291,-71.4764 157.099,-69.8631"/>
<polygon fill="midnightblue" stroke="midnightblue" points="158.636,-73.0185 166.633,-66.069 156.048,-66.5145 158.636,-73.0185"/>
</g>
<!-- Node8 -->
<g id="node15" class="node"><title>Node8</title>
<a xlink:href="a00010.html#ab0405d28406546aa473efb059588b045" target="_top" xlink:title="Computes the average (first) and the standard deviation (second) of a vector.">
<polygon fill="white" stroke="red" points="155.5,-0 155.5,-24 256.5,-24 256.5,-0 155.5,-0"/>
<text text-anchor="middle" x="206" y="-9.2" font-family="Helvetica,sans-Serif" font-size="12.00">Processing::stat</text>
</a>
</g>
<!-- Node1&#45;&gt;Node8 -->
<g id="edge14" class="edge"><title>Node1&#45;&gt;Node8</title>
<path fill="none" stroke="midnightblue" d="M62.4669,-125.797C76.3245,-104.118 108.087,-58.7539 146,-33 148.396,-31.3721 150.932,-29.8573 153.554,-28.4495"/>
<polygon fill="midnightblue" stroke="midnightblue" points="155.207,-31.5384 162.718,-24.0662 152.187,-25.2236 155.207,-31.5384"/>
</g>
</g>
</svg>
