<?xml version="1.0" encoding="UTF-8" standalone="no"?>
<!DOCTYPE svg PUBLIC "-//W3C//DTD SVG 1.1//EN"
 "http://www.w3.org/Graphics/SVG/1.1/DTD/svg11.dtd">
<!-- Generated by graphviz version 2.26.3 (20100126.1600)
 -->
<!-- Title: echantillon.h Pages: 1 -->
<svg width="126pt" height="96pt"
 viewBox="0.00 0.00 126.00 96.00" xmlns="http://www.w3.org/2000/svg" xmlns:xlink="http://www.w3.org/1999/xlink">
<g id="graph1" class="graph" transform="scale(1 1) rotate(0) translate(4 92)">
<title>echantillon.h</title>
<polygon fill="white" stroke="white" points="-4,5 -4,-92 123,-92 123,5 -4,5"/>
<!-- Node1 -->
<g id="node1" class="node"><title>Node1</title>
<polygon fill="#bfbfbf" stroke="black" points="18.5,-63 18.5,-87 103.5,-87 103.5,-63 18.5,-63"/>
<text text-anchor="middle" x="61" y="-72.2" font-family="Helvetica,sans-Serif" font-size="12.00">echantillon.h</text>
</g>
<!-- Node2 -->
<g id="node3" class="node"><title>Node2</title>
<polygon fill="white" stroke="#bfbfbf" points="-0.5,-1 -0.5,-25 54.5,-25 54.5,-1 -0.5,-1"/>
<text text-anchor="middle" x="27" y="-10.2" font-family="Helvetica,sans-Serif" font-size="12.00">QtCore</text>
</g>
<!-- Node1&#45;&gt;Node2 -->
<g id="edge2" class="edge"><title>Node1&#45;&gt;Node2</title>
<path fill="none" stroke="midnightblue" d="M54.2827,-62.7508C49.8122,-54.5987 43.8221,-43.6755 38.5935,-34.1411"/>
<polygon fill="midnightblue" stroke="midnightblue" points="41.5806,-32.309 33.7034,-25.2238 35.4429,-35.6748 41.5806,-32.309"/>
</g>
<!-- Node3 -->
<g id="node5" class="node"><title>Node3</title>
<polygon fill="white" stroke="#bfbfbf" points="71.5,-1 71.5,-25 118.5,-25 118.5,-1 71.5,-1"/>
<text text-anchor="middle" x="95" y="-10.2" font-family="Helvetica,sans-Serif" font-size="12.00">QtGui</text>
</g>
<!-- Node1&#45;&gt;Node3 -->
<g id="edge4" class="edge"><title>Node1&#45;&gt;Node3</title>
<path fill="none" stroke="midnightblue" d="M67.7173,-62.7508C72.1878,-54.5987 78.1779,-43.6755 83.4065,-34.1411"/>
<polygon fill="midnightblue" stroke="midnightblue" points="86.5571,-35.6748 88.2966,-25.2238 80.4194,-32.309 86.5571,-35.6748"/>
</g>
</g>
</svg>
