<?xml version="1.0" encoding="UTF-8" standalone="no"?>
<!DOCTYPE svg PUBLIC "-//W3C//DTD SVG 1.1//EN"
 "http://www.w3.org/Graphics/SVG/1.1/DTD/svg11.dtd">
<!-- Generated by graphviz version 2.26.3 (20100126.1600)
 -->
<!-- Title: displaying.h Pages: 1 -->
<svg width="1808pt" height="220pt"
 viewBox="0.00 0.00 1807.88 220.00" xmlns="http://www.w3.org/2000/svg" xmlns:xlink="http://www.w3.org/1999/xlink">
<g id="graph1" class="graph" transform="scale(1 1) rotate(0) translate(4 216)">
<title>displaying.h</title>
<polygon fill="white" stroke="white" points="-4,5 -4,-216 1804.88,-216 1804.88,5 -4,5"/>
<!-- Node1 -->
<g id="node1" class="node"><title>Node1</title>
<polygon fill="#bfbfbf" stroke="black" points="546.379,-187 546.379,-211 627.379,-211 627.379,-187 546.379,-187"/>
<text text-anchor="middle" x="586.879" y="-196.2" font-family="Helvetica,sans-Serif" font-size="12.00">displaying.h</text>
</g>
<!-- Node2 -->
<g id="node3" class="node"><title>Node2</title>
<polygon fill="white" stroke="#bfbfbf" points="15.3791,-1 15.3791,-25 62.3791,-25 62.3791,-1 15.3791,-1"/>
<text text-anchor="middle" x="38.8791" y="-10.2" font-family="Helvetica,sans-Serif" font-size="12.00">QtGui</text>
</g>
<!-- Node1&#45;&gt;Node2 -->
<g id="edge2" class="edge"><title>Node1&#45;&gt;Node2</title>
<path fill="none" stroke="midnightblue" d="M546.033,-197.518C426.333,-192.875 82.1378,-177.272 39.8791,-150 4.51344,-127.176 -7.69235,-102.17 4.87913,-62 8.13838,-51.5857 14.4765,-41.4415 20.806,-33.1101"/>
<polygon fill="midnightblue" stroke="midnightblue" points="23.6838,-35.1184 27.2696,-25.1488 18.2493,-30.7063 23.6838,-35.1184"/>
</g>
<!-- Node3 -->
<g id="node5" class="node"><title>Node3</title>
<polygon fill="white" stroke="#bfbfbf" points="102.379,-1 102.379,-25 157.379,-25 157.379,-1 102.379,-1"/>
<text text-anchor="middle" x="129.879" y="-10.2" font-family="Helvetica,sans-Serif" font-size="12.00">QtCore</text>
</g>
<!-- Node1&#45;&gt;Node3 -->
<g id="edge4" class="edge"><title>Node1&#45;&gt;Node3</title>
<path fill="none" stroke="midnightblue" d="M546.334,-195.986C453.011,-188.747 228.851,-169.528 200.879,-150 161.581,-122.565 142.534,-66.566 134.626,-35.3261"/>
<polygon fill="midnightblue" stroke="midnightblue" points="137.985,-34.3226 132.279,-25.3961 131.173,-35.9331 137.985,-34.3226"/>
</g>
<!-- Node4 -->
<g id="node7" class="node"><title>Node4</title>
<polygon fill="white" stroke="#bfbfbf" points="209.379,-125 209.379,-149 310.379,-149 310.379,-125 209.379,-125"/>
<text text-anchor="middle" x="259.879" y="-134.2" font-family="Helvetica,sans-Serif" font-size="12.00">ui_application.h</text>
</g>
<!-- Node1&#45;&gt;Node4 -->
<g id="edge6" class="edge"><title>Node1&#45;&gt;Node4</title>
<path fill="none" stroke="midnightblue" d="M545.928,-191.985C495.237,-183.198 406.027,-167.393 320.28,-150.242"/>
<polygon fill="midnightblue" stroke="midnightblue" points="320.878,-146.793 310.384,-148.254 319.499,-153.655 320.878,-146.793"/>
</g>
<!-- Node5 -->
<g id="node9" class="node"><title>Node5</title>
<a xlink:href="a00018.html" target="_top" xlink:title="data.h">
<polygon fill="white" stroke="red" points="13.8791,-63 13.8791,-87 63.8791,-87 63.8791,-63 13.8791,-63"/>
<text text-anchor="middle" x="38.8791" y="-72.2" font-family="Helvetica,sans-Serif" font-size="12.00">data.h</text>
</a>
</g>
<!-- Node1&#45;&gt;Node5 -->
<g id="edge8" class="edge"><title>Node1&#45;&gt;Node5</title>
<path fill="none" stroke="midnightblue" d="M546.301,-197.933C427.883,-194.323 89.5267,-181.02 51.8791,-150 36.5017,-137.33 31.5268,-114.52 31.7784,-97.3705"/>
<polygon fill="midnightblue" stroke="midnightblue" points="35.2932,-97.3395 32.6417,-87.0818 28.3178,-96.7541 35.2932,-97.3395"/>
</g>
<!-- Node6 -->
<g id="node14" class="node"><title>Node6</title>
<a xlink:href="a00029.html" target="_top" xlink:title="processing.h">
<polygon fill="white" stroke="red" points="69.3791,-125 69.3791,-149 154.379,-149 154.379,-125 69.3791,-125"/>
<text text-anchor="middle" x="111.879" y="-134.2" font-family="Helvetica,sans-Serif" font-size="12.00">processing.h</text>
</a>
</g>
<!-- Node1&#45;&gt;Node6 -->
<g id="edge16" class="edge"><title>Node1&#45;&gt;Node6</title>
<path fill="none" stroke="midnightblue" d="M546.214,-195.765C471.103,-189.452 305.695,-173.978 167.879,-150 166.797,-149.812 165.705,-149.616 164.606,-149.413"/>
<polygon fill="midnightblue" stroke="midnightblue" points="165.073,-145.938 154.584,-147.431 163.715,-152.805 165.073,-145.938"/>
</g>
<!-- Node7 -->
<g id="node19" class="node"><title>Node7</title>
<polygon fill="white" stroke="#bfbfbf" points="327.379,-125 327.379,-149 372.379,-149 372.379,-125 327.379,-125"/>
<text text-anchor="middle" x="349.879" y="-134.2" font-family="Helvetica,sans-Serif" font-size="12.00">qwt.h</text>
</g>
<!-- Node1&#45;&gt;Node7 -->
<g id="edge24" class="edge"><title>Node1&#45;&gt;Node7</title>
<path fill="none" stroke="midnightblue" d="M546.075,-191.347C506.249,-183.426 443.885,-169.825 382.281,-150.157"/>
<polygon fill="midnightblue" stroke="midnightblue" points="382.997,-146.709 372.404,-146.948 380.834,-153.367 382.997,-146.709"/>
</g>
<!-- Node8 -->
<g id="node21" class="node"><title>Node8</title>
<polygon fill="white" stroke="#bfbfbf" points="389.379,-125 389.379,-149 460.379,-149 460.379,-125 389.379,-125"/>
<text text-anchor="middle" x="424.879" y="-134.2" font-family="Helvetica,sans-Serif" font-size="12.00">qwt_plot.h</text>
</g>
<!-- Node1&#45;&gt;Node8 -->
<g id="edge26" class="edge"><title>Node1&#45;&gt;Node8</title>
<path fill="none" stroke="midnightblue" d="M555.259,-186.899C529.725,-177.126 493.604,-163.302 465.854,-152.682"/>
<polygon fill="midnightblue" stroke="midnightblue" points="467.01,-149.376 456.419,-149.071 464.508,-155.914 467.01,-149.376"/>
</g>
<!-- Node9 -->
<g id="node23" class="node"><title>Node9</title>
<polygon fill="white" stroke="#bfbfbf" points="477.879,-125 477.879,-149 575.879,-149 575.879,-125 477.879,-125"/>
<text text-anchor="middle" x="526.879" y="-134.2" font-family="Helvetica,sans-Serif" font-size="12.00">qwt_plot_grid.h</text>
</g>
<!-- Node1&#45;&gt;Node9 -->
<g id="edge28" class="edge"><title>Node1&#45;&gt;Node9</title>
<path fill="none" stroke="midnightblue" d="M575.025,-186.751C566.725,-178.174 555.457,-166.53 545.908,-156.663"/>
<polygon fill="midnightblue" stroke="midnightblue" points="548.178,-153.976 538.709,-149.224 543.148,-158.844 548.178,-153.976"/>
</g>
<!-- Node10 -->
<g id="node25" class="node"><title>Node10</title>
<polygon fill="white" stroke="#bfbfbf" points="593.379,-125 593.379,-149 700.379,-149 700.379,-125 593.379,-125"/>
<text text-anchor="middle" x="646.879" y="-134.2" font-family="Helvetica,sans-Serif" font-size="12.00">qwt_plot_curve.h</text>
</g>
<!-- Node1&#45;&gt;Node10 -->
<g id="edge30" class="edge"><title>Node1&#45;&gt;Node10</title>
<path fill="none" stroke="midnightblue" d="M598.733,-186.751C607.033,-178.174 618.302,-166.53 627.85,-156.663"/>
<polygon fill="midnightblue" stroke="midnightblue" points="630.611,-158.844 635.05,-149.224 625.58,-153.976 630.611,-158.844"/>
</g>
<!-- Node11 -->
<g id="node27" class="node"><title>Node11</title>
<polygon fill="white" stroke="#bfbfbf" points="717.879,-125 717.879,-149 807.879,-149 807.879,-125 717.879,-125"/>
<text text-anchor="middle" x="762.879" y="-134.2" font-family="Helvetica,sans-Serif" font-size="12.00">qwt_symbol.h</text>
</g>
<!-- Node1&#45;&gt;Node11 -->
<g id="edge32" class="edge"><title>Node1&#45;&gt;Node11</title>
<path fill="none" stroke="midnightblue" d="M621.232,-186.899C649.215,-177.041 688.901,-163.06 719.151,-152.404"/>
<polygon fill="midnightblue" stroke="midnightblue" points="720.344,-155.695 728.613,-149.071 718.019,-149.092 720.344,-155.695"/>
</g>
<!-- Node12 -->
<g id="node29" class="node"><title>Node12</title>
<polygon fill="white" stroke="#bfbfbf" points="825.879,-125 825.879,-149 943.879,-149 943.879,-125 825.879,-125"/>
<text text-anchor="middle" x="884.879" y="-134.2" font-family="Helvetica,sans-Serif" font-size="12.00">qwt_legend_item.h</text>
</g>
<!-- Node1&#45;&gt;Node12 -->
<g id="edge34" class="edge"><title>Node1&#45;&gt;Node12</title>
<path fill="none" stroke="midnightblue" d="M627.69,-190.509C676.437,-180.367 758.704,-163.251 817.059,-151.11"/>
<polygon fill="midnightblue" stroke="midnightblue" points="817.858,-154.519 826.935,-149.055 816.432,-147.666 817.858,-154.519"/>
</g>
<!-- Node13 -->
<g id="node31" class="node"><title>Node13</title>
<polygon fill="white" stroke="#bfbfbf" points="961.879,-125 961.879,-149 1071.88,-149 1071.88,-125 961.879,-125"/>
<text text-anchor="middle" x="1016.88" y="-134.2" font-family="Helvetica,sans-Serif" font-size="12.00">qwt_plot_picker.h</text>
</g>
<!-- Node1&#45;&gt;Node13 -->
<g id="edge36" class="edge"><title>Node1&#45;&gt;Node13</title>
<path fill="none" stroke="midnightblue" d="M627.634,-194.452C693.578,-186.895 827.962,-170.676 951.734,-150.12"/>
<polygon fill="midnightblue" stroke="midnightblue" points="952.48,-153.544 961.765,-148.44 951.324,-146.64 952.48,-153.544"/>
</g>
<!-- Node14 -->
<g id="node33" class="node"><title>Node14</title>
<polygon fill="white" stroke="#bfbfbf" points="1089.88,-125 1089.88,-149 1225.88,-149 1225.88,-125 1089.88,-125"/>
<text text-anchor="middle" x="1157.88" y="-134.2" font-family="Helvetica,sans-Serif" font-size="12.00">qwt_interval_symbol.h</text>
</g>
<!-- Node1&#45;&gt;Node14 -->
<g id="edge38" class="edge"><title>Node1&#45;&gt;Node14</title>
<path fill="none" stroke="midnightblue" d="M627.652,-195.905C710.699,-189.397 905.626,-173.077 1079.39,-150.14"/>
<polygon fill="midnightblue" stroke="midnightblue" points="1080.03,-153.586 1089.48,-148.797 1079.11,-146.647 1080.03,-153.586"/>
</g>
<!-- Node15 -->
<g id="node35" class="node"><title>Node15</title>
<polygon fill="white" stroke="#bfbfbf" points="1243.88,-125 1243.88,-149 1389.88,-149 1389.88,-125 1243.88,-125"/>
<text text-anchor="middle" x="1316.88" y="-134.2" font-family="Helvetica,sans-Serif" font-size="12.00">qwt_plot_intervalcurve.h</text>
</g>
<!-- Node1&#45;&gt;Node15 -->
<g id="edge40" class="edge"><title>Node1&#45;&gt;Node15</title>
<path fill="none" stroke="midnightblue" d="M627.554,-197.082C728.4,-192.079 998.214,-177.181 1233.49,-150.096"/>
<polygon fill="midnightblue" stroke="midnightblue" points="1234.07,-153.551 1243.6,-148.921 1233.27,-146.598 1234.07,-153.551"/>
</g>
<!-- Node16 -->
<g id="node37" class="node"><title>Node16</title>
<polygon fill="white" stroke="#bfbfbf" points="1407.88,-125 1407.88,-149 1517.88,-149 1517.88,-125 1407.88,-125"/>
<text text-anchor="middle" x="1462.88" y="-134.2" font-family="Helvetica,sans-Serif" font-size="12.00">qwt_curve_fitter.h</text>
</g>
<!-- Node1&#45;&gt;Node16 -->
<g id="edge42" class="edge"><title>Node1&#45;&gt;Node16</title>
<path fill="none" stroke="midnightblue" d="M627.626,-198.556C745.456,-196.844 1096.8,-188.731 1397.57,-150.028"/>
<polygon fill="midnightblue" stroke="midnightblue" points="1398.34,-153.458 1407.8,-148.697 1397.44,-146.517 1398.34,-153.458"/>
</g>
<!-- Node17 -->
<g id="node39" class="node"><title>Node17</title>
<polygon fill="white" stroke="#bfbfbf" points="1535.88,-125 1535.88,-149 1663.88,-149 1663.88,-125 1535.88,-125"/>
<text text-anchor="middle" x="1599.88" y="-134.2" font-family="Helvetica,sans-Serif" font-size="12.00">qwt_plot_magnifier.h</text>
</g>
<!-- Node1&#45;&gt;Node17 -->
<g id="edge44" class="edge"><title>Node1&#45;&gt;Node17</title>
<path fill="none" stroke="midnightblue" d="M627.8,-198.678C757.731,-197.272 1172.66,-189.839 1525.69,-150.023"/>
<polygon fill="midnightblue" stroke="midnightblue" points="1526.31,-153.475 1535.85,-148.866 1525.52,-146.52 1526.31,-153.475"/>
</g>
<!-- Node18 -->
<g id="node41" class="node"><title>Node18</title>
<polygon fill="white" stroke="#bfbfbf" points="1681.88,-125 1681.88,-149 1799.88,-149 1799.88,-125 1681.88,-125"/>
<text text-anchor="middle" x="1740.88" y="-134.2" font-family="Helvetica,sans-Serif" font-size="12.00">qwt_plot_zoomer.h</text>
</g>
<!-- Node1&#45;&gt;Node18 -->
<g id="edge46" class="edge"><title>Node1&#45;&gt;Node18</title>
<path fill="none" stroke="midnightblue" d="M627.668,-197.946C796.83,-193.456 1444.56,-175.05 1671.46,-150.008"/>
<polygon fill="midnightblue" stroke="midnightblue" points="1672.08,-153.46 1681.62,-148.849 1671.29,-146.505 1672.08,-153.46"/>
</g>
<!-- Node5&#45;&gt;Node1 -->
<g id="edge14" class="edge"><title>Node5&#45;&gt;Node1</title>
<path fill="none" stroke="midnightblue" d="M44.4884,-87.0818C47.8464,-104.04 51.1334,-134.554 69.8791,-150 105.601,-179.433 412.051,-192.916 535.645,-197.302"/>
<polygon fill="midnightblue" stroke="midnightblue" points="535.858,-200.811 545.974,-197.662 536.103,-193.816 535.858,-200.811"/>
</g>
<!-- Node5&#45;&gt;Node2 -->
<g id="edge10" class="edge"><title>Node5&#45;&gt;Node2</title>
<path fill="none" stroke="midnightblue" d="M38.8791,-62.7508C38.8791,-54.9384 38.8791,-44.581 38.8791,-35.3399"/>
<polygon fill="midnightblue" stroke="midnightblue" points="42.3792,-35.2237 38.8791,-25.2238 35.3792,-35.2238 42.3792,-35.2237"/>
</g>
<!-- Node5&#45;&gt;Node3 -->
<g id="edge12" class="edge"><title>Node5&#45;&gt;Node3</title>
<path fill="none" stroke="midnightblue" d="M56.8578,-62.7508C70.2806,-53.6056 88.8219,-40.9731 103.862,-30.726"/>
<polygon fill="midnightblue" stroke="midnightblue" points="105.954,-33.5359 112.247,-25.0128 102.013,-27.7509 105.954,-33.5359"/>
</g>
<!-- Node6&#45;&gt;Node2 -->
<g id="edge20" class="edge"><title>Node6&#45;&gt;Node2</title>
<path fill="none" stroke="midnightblue" d="M106.125,-124.792C98.8922,-109.731 85.8478,-83.4855 72.8791,-62 67.0812,-52.3944 60.0999,-42.1414 53.9759,-33.51"/>
<polygon fill="midnightblue" stroke="midnightblue" points="56.6737,-31.267 47.9898,-25.1974 50.9933,-35.3576 56.6737,-31.267"/>
</g>
<!-- Node6&#45;&gt;Node3 -->
<g id="edge18" class="edge"><title>Node6&#45;&gt;Node3</title>
<path fill="none" stroke="midnightblue" d="M113.671,-124.657C116.69,-103.86 122.832,-61.5496 126.627,-35.4005"/>
<polygon fill="midnightblue" stroke="midnightblue" points="130.122,-35.6921 128.095,-25.293 123.194,-34.6865 130.122,-35.6921"/>
</g>
<!-- Node6&#45;&gt;Node5 -->
<g id="edge22" class="edge"><title>Node6&#45;&gt;Node5</title>
<path fill="none" stroke="midnightblue" d="M97.4567,-124.751C87.0584,-115.919 72.8309,-103.836 61.0015,-93.7889"/>
<polygon fill="midnightblue" stroke="midnightblue" points="63.1593,-91.0295 53.2716,-87.2238 58.6279,-96.3649 63.1593,-91.0295"/>
</g>
</g>
</svg>
