<?xml version="1.0" encoding="UTF-8" standalone="no"?>
<!DOCTYPE svg PUBLIC "-//W3C//DTD SVG 1.1//EN"
 "http://www.w3.org/Graphics/SVG/1.1/DTD/svg11.dtd">
<!-- Generated by graphviz version 2.26.3 (20100126.1600)
 -->
<!-- Title: Processing::isValid Pages: 1 -->
<svg width="316pt" height="74pt"
 viewBox="0.00 0.00 316.00 74.00" xmlns="http://www.w3.org/2000/svg" xmlns:xlink="http://www.w3.org/1999/xlink">
<g id="graph1" class="graph" transform="scale(1 1) rotate(0) translate(4 70)">
<title>Processing::isValid</title>
<polygon fill="white" stroke="white" points="-4,5 -4,-70 313,-70 313,5 -4,5"/>
<!-- Node1 -->
<g id="node1" class="node"><title>Node1</title>
<polygon fill="#bfbfbf" stroke="black" points="0.5,-21 0.5,-45 119.5,-45 119.5,-21 0.5,-21"/>
<text text-anchor="middle" x="60" y="-30.2" font-family="Helvetica,sans-Serif" font-size="12.00">Processing::isValid</text>
</g>
<!-- Node2 -->
<g id="node3" class="node"><title>Node2</title>
<a xlink:href="a00003.html#a836d9f49a3480b021e2c2fa22e05d6b1" target="_top" xlink:title="Plots internal standard curve.">
<polygon fill="white" stroke="red" points="177,-42 177,-66 287,-66 287,-42 177,-42"/>
<text text-anchor="middle" x="232" y="-51.2" font-family="Helvetica,sans-Serif" font-size="12.00">Displaying::plotIS</text>
</a>
</g>
<!-- Node1&#45;&gt;Node2 -->
<g id="edge2" class="edge"><title>Node1&#45;&gt;Node2</title>
<path fill="none" stroke="midnightblue" d="M129.817,-41.5241C145.447,-43.4325 161.817,-45.4311 176.76,-47.2556"/>
<polygon fill="midnightblue" stroke="midnightblue" points="130.025,-38.0237 119.675,-40.2858 129.177,-44.9721 130.025,-38.0237"/>
</g>
<!-- Node3 -->
<g id="node5" class="node"><title>Node3</title>
<a xlink:href="a00010.html#a5fbd5c910da7cec1497168d1d217f1ed" target="_top" xlink:title="Computes a calibration line.">
<polygon fill="white" stroke="red" points="156,-0 156,-24 308,-24 308,-0 156,-0"/>
<text text-anchor="middle" x="232" y="-9.2" font-family="Helvetica,sans-Serif" font-size="12.00">Processing::computeLine</text>
</a>
</g>
<!-- Node1&#45;&gt;Node3 -->
<g id="edge4" class="edge"><title>Node1&#45;&gt;Node3</title>
<path fill="none" stroke="midnightblue" d="M129.646,-24.4967C138.247,-23.4466 147.075,-22.3687 155.768,-21.3074"/>
<polygon fill="midnightblue" stroke="midnightblue" points="129.177,-21.0279 119.675,-25.7142 130.025,-27.9763 129.177,-21.0279"/>
</g>
</g>
</svg>
