<?xml version="1.0" encoding="UTF-8" standalone="no"?>
<!DOCTYPE svg PUBLIC "-//W3C//DTD SVG 1.1//EN"
 "http://www.w3.org/Graphics/SVG/1.1/DTD/svg11.dtd">
<!-- Generated by graphviz version 2.26.3 (20100126.1600)
 -->
<!-- Title: ParserOutCSV::parse Pages: 1 -->
<svg width="332pt" height="410pt"
 viewBox="0.00 0.00 332.00 410.00" xmlns="http://www.w3.org/2000/svg" xmlns:xlink="http://www.w3.org/1999/xlink">
<g id="graph1" class="graph" transform="scale(1 1) rotate(0) translate(4 406)">
<title>ParserOutCSV::parse</title>
<polygon fill="white" stroke="white" points="-4,5 -4,-406 329,-406 329,5 -4,5"/>
<!-- Node1 -->
<g id="node1" class="node"><title>Node1</title>
<polygon fill="#bfbfbf" stroke="black" points="0,-189 0,-213 132,-213 132,-189 0,-189"/>
<text text-anchor="middle" x="66" y="-198.2" font-family="Helvetica,sans-Serif" font-size="12.00">ParserOutCSV::parse</text>
</g>
<!-- Node2 -->
<g id="node3" class="node"><title>Node2</title>
<a xlink:href="a00002.html#acd1f2adc01b25ef7bded9b6d2b331278" target="_top" xlink:title="Gets the Number of elements.">
<polygon fill="white" stroke="black" points="202,-378 202,-402 290,-402 290,-378 202,-378"/>
<text text-anchor="middle" x="246" y="-387.2" font-family="Helvetica,sans-Serif" font-size="12.00">Data::isoSize</text>
</a>
</g>
<!-- Node1&#45;&gt;Node2 -->
<g id="edge2" class="edge"><title>Node1&#45;&gt;Node2</title>
<path fill="none" stroke="midnightblue" d="M69.8717,-213.345C80.3056,-244.535 112.064,-326.999 168,-369 175.089,-374.323 183.432,-378.297 191.979,-381.265"/>
<polygon fill="midnightblue" stroke="midnightblue" points="191.073,-384.648 201.658,-384.206 193.108,-377.95 191.073,-384.648"/>
</g>
<!-- Node3 -->
<g id="node5" class="node"><title>Node3</title>
<a xlink:href="a00002.html#a4baa9866aaea800c81e4502b9483e4ec" target="_top" xlink:title="Gets an element identified by its Id.">
<polygon fill="white" stroke="black" points="206,-336 206,-360 286,-360 286,-336 206,-336"/>
<text text-anchor="middle" x="246" y="-345.2" font-family="Helvetica,sans-Serif" font-size="12.00">Data::getIso</text>
</a>
</g>
<!-- Node1&#45;&gt;Node3 -->
<g id="edge4" class="edge"><title>Node1&#45;&gt;Node3</title>
<path fill="none" stroke="midnightblue" d="M72.3499,-213.176C86.1739,-238.452 121.521,-296.771 168,-327 176.464,-332.505 186.338,-336.575 196.157,-339.581"/>
<polygon fill="midnightblue" stroke="midnightblue" points="195.336,-342.985 205.905,-342.246 197.183,-336.233 195.336,-342.985"/>
</g>
<!-- Node4 -->
<g id="node7" class="node"><title>Node4</title>
<a xlink:href="a00005.html#a82faf6c27cd36339a0a12cae9beb89af" target="_top" xlink:title="Gets the complete Name of the istope, used to display the element to HCI.">
<polygon fill="white" stroke="red" points="188,-294 188,-318 304,-318 304,-294 188,-294"/>
<text text-anchor="middle" x="246" y="-303.2" font-family="Helvetica,sans-Serif" font-size="12.00">Element::getName</text>
</a>
</g>
<!-- Node1&#45;&gt;Node4 -->
<g id="edge6" class="edge"><title>Node1&#45;&gt;Node4</title>
<path fill="none" stroke="midnightblue" d="M77.3386,-213.203C94.9912,-231.484 130.889,-265.87 168,-285 171.786,-286.952 175.772,-288.736 179.857,-290.365"/>
<polygon fill="midnightblue" stroke="midnightblue" points="178.927,-293.751 189.521,-293.89 181.325,-287.175 178.927,-293.751"/>
</g>
<!-- Node5 -->
<g id="node9" class="node"><title>Node5</title>
<a xlink:href="a00010.html#ae20ae3100fa8fd1578dbe6cbe179e6e5" target="_top" xlink:title="Gets LOD corresponding to the Id element given.">
<polygon fill="white" stroke="black" points="184,-252 184,-276 308,-276 308,-252 184,-252"/>
<text text-anchor="middle" x="246" y="-261.2" font-family="Helvetica,sans-Serif" font-size="12.00">Processing::getLOD</text>
</a>
</g>
<!-- Node1&#45;&gt;Node5 -->
<g id="edge8" class="edge"><title>Node1&#45;&gt;Node5</title>
<path fill="none" stroke="midnightblue" d="M92.916,-213.187C113.276,-222.134 142.064,-234.209 168,-243 174.336,-245.148 181.019,-247.224 187.699,-249.181"/>
<polygon fill="midnightblue" stroke="midnightblue" points="186.869,-252.584 197.445,-251.958 188.787,-245.852 186.869,-252.584"/>
</g>
<!-- Node6 -->
<g id="node11" class="node"><title>Node6</title>
<a xlink:href="a00010.html#a3c8e2bd5d31b4a61b8d1e54f219fa015" target="_top" xlink:title="Gets LOQ corresponding to the Id element given.">
<polygon fill="white" stroke="black" points="184,-210 184,-234 308,-234 308,-210 184,-210"/>
<text text-anchor="middle" x="246" y="-219.2" font-family="Helvetica,sans-Serif" font-size="12.00">Processing::getLOQ</text>
</a>
</g>
<!-- Node1&#45;&gt;Node6 -->
<g id="edge10" class="edge"><title>Node1&#45;&gt;Node6</title>
<path fill="none" stroke="midnightblue" d="M132.003,-208.7C145.648,-210.292 160.087,-211.977 173.935,-213.592"/>
<polygon fill="midnightblue" stroke="midnightblue" points="173.556,-217.072 183.895,-214.754 174.368,-210.119 173.556,-217.072"/>
</g>
<!-- Node7 -->
<g id="node13" class="node"><title>Node7</title>
<a xlink:href="a00002.html#a84179b0c71fb3e69cfa177e92004ee79" target="_top" xlink:title="Gets the Number of Solutions.">
<polygon fill="white" stroke="black" points="189,-168 189,-192 303,-192 303,-168 189,-168"/>
<text text-anchor="middle" x="246" y="-177.2" font-family="Helvetica,sans-Serif" font-size="12.00">Data::solutionSize</text>
</a>
</g>
<!-- Node1&#45;&gt;Node7 -->
<g id="edge12" class="edge"><title>Node1&#45;&gt;Node7</title>
<path fill="none" stroke="midnightblue" d="M132.003,-193.3C147.167,-191.531 163.31,-189.647 178.534,-187.871"/>
<polygon fill="midnightblue" stroke="midnightblue" points="179.377,-191.297 188.904,-186.661 178.566,-184.344 179.377,-191.297"/>
</g>
<!-- Node8 -->
<g id="node15" class="node"><title>Node8</title>
<a xlink:href="a00002.html#a7b1a07606090591e7fffb48be72bd734" target="_top" xlink:title="Gets a solution identified by its Id.">
<polygon fill="white" stroke="black" points="191.5,-126 191.5,-150 300.5,-150 300.5,-126 191.5,-126"/>
<text text-anchor="middle" x="246" y="-135.2" font-family="Helvetica,sans-Serif" font-size="12.00">Data::getSolution</text>
</a>
</g>
<!-- Node1&#45;&gt;Node8 -->
<g id="edge14" class="edge"><title>Node1&#45;&gt;Node8</title>
<path fill="none" stroke="midnightblue" d="M92.916,-188.813C113.276,-179.866 142.064,-167.791 168,-159 174.336,-156.852 181.019,-154.776 187.699,-152.819"/>
<polygon fill="midnightblue" stroke="midnightblue" points="188.787,-156.148 197.445,-150.042 186.869,-149.416 188.787,-156.148"/>
</g>
<!-- Node9 -->
<g id="node17" class="node"><title>Node9</title>
<a xlink:href="a00013.html#a08617ee6ca1993e92372e265829508f0" target="_top" xlink:title="Gets the Name.">
<polygon fill="white" stroke="black" points="188,-84 188,-108 304,-108 304,-84 188,-84"/>
<text text-anchor="middle" x="246" y="-93.2" font-family="Helvetica,sans-Serif" font-size="12.00">Solution::getName</text>
</a>
</g>
<!-- Node1&#45;&gt;Node9 -->
<g id="edge16" class="edge"><title>Node1&#45;&gt;Node9</title>
<path fill="none" stroke="midnightblue" d="M77.3386,-188.797C94.9912,-170.516 130.889,-136.13 168,-117 171.786,-115.048 175.772,-113.264 179.857,-111.635"/>
<polygon fill="midnightblue" stroke="midnightblue" points="181.325,-114.825 189.521,-108.11 178.927,-108.249 181.325,-114.825"/>
</g>
<!-- Node10 -->
<g id="node19" class="node"><title>Node10</title>
<a xlink:href="a00013.html#af9f7e1dfafa0cd431387737664e3ac7e" target="_top" xlink:title="Gets Concentration.">
<polygon fill="white" stroke="black" points="182,-42 182,-66 310,-66 310,-42 182,-42"/>
<text text-anchor="middle" x="246" y="-51.2" font-family="Helvetica,sans-Serif" font-size="12.00">Solution::getConcent</text>
</a>
</g>
<!-- Node1&#45;&gt;Node10 -->
<g id="edge18" class="edge"><title>Node1&#45;&gt;Node10</title>
<path fill="none" stroke="midnightblue" d="M72.3499,-188.824C86.1739,-163.548 121.521,-105.229 168,-75 170.619,-73.2964 173.374,-71.7303 176.22,-70.2906"/>
<polygon fill="midnightblue" stroke="midnightblue" points="177.868,-73.3875 185.567,-66.1094 175.01,-66.9976 177.868,-73.3875"/>
</g>
<!-- Node11 -->
<g id="node21" class="node"><title>Node11</title>
<a xlink:href="a00013.html#a1adae3ea7b071d2a311b62371b959633" target="_top" xlink:title="Gets Concentration Relative Standard Deviation (%)">
<polygon fill="white" stroke="black" points="168.5,-0 168.5,-24 323.5,-24 323.5,-0 168.5,-0"/>
<text text-anchor="middle" x="246" y="-9.2" font-family="Helvetica,sans-Serif" font-size="12.00">Solution::getConcentRSD</text>
</a>
</g>
<!-- Node1&#45;&gt;Node11 -->
<g id="edge20" class="edge"><title>Node1&#45;&gt;Node11</title>
<path fill="none" stroke="midnightblue" d="M69.8717,-188.655C80.3056,-157.465 112.064,-75.0012 168,-33 170.061,-31.4527 172.227,-30.0193 174.474,-28.6915"/>
<polygon fill="midnightblue" stroke="midnightblue" points="176.18,-31.7504 183.484,-24.0755 172.988,-25.5205 176.18,-31.7504"/>
</g>
</g>
</svg>
