<?xml version="1.0" encoding="UTF-8" standalone="no"?>
<!DOCTYPE svg PUBLIC "-//W3C//DTD SVG 1.1//EN"
 "http://www.w3.org/Graphics/SVG/1.1/DTD/svg11.dtd">
<!-- Generated by graphviz version 2.26.3 (20100126.1600)
 -->
<!-- Title: parser.h Pages: 1 -->
<svg width="186pt" height="158pt"
 viewBox="0.00 0.00 186.00 158.00" xmlns="http://www.w3.org/2000/svg" xmlns:xlink="http://www.w3.org/1999/xlink">
<g id="graph1" class="graph" transform="scale(1 1) rotate(0) translate(4 154)">
<title>parser.h</title>
<polygon fill="white" stroke="white" points="-4,5 -4,-154 183,-154 183,5 -4,5"/>
<!-- Node1 -->
<g id="node1" class="node"><title>Node1</title>
<polygon fill="#bfbfbf" stroke="black" points="21,-125 21,-149 81,-149 81,-125 21,-125"/>
<text text-anchor="middle" x="51" y="-134.2" font-family="Helvetica,sans-Serif" font-size="12.00">parser.h</text>
</g>
<!-- Node2 -->
<g id="node3" class="node"><title>Node2</title>
<a xlink:href="a00018.html" target="_top" xlink:title="data.h">
<polygon fill="white" stroke="red" points="0,-63 0,-87 50,-87 50,-63 0,-63"/>
<text text-anchor="middle" x="25" y="-72.2" font-family="Helvetica,sans-Serif" font-size="12.00">data.h</text>
</a>
</g>
<!-- Node1&#45;&gt;Node2 -->
<g id="edge2" class="edge"><title>Node1&#45;&gt;Node2</title>
<path fill="none" stroke="midnightblue" d="M35.683,-115.829C31.0603,-106.292 26.7933,-95.3701 24.6263,-87.2238"/>
<polygon fill="midnightblue" stroke="midnightblue" points="32.6169,-117.519 40.3595,-124.751 38.8168,-114.269 32.6169,-117.519"/>
</g>
<!-- Node3 -->
<g id="node6" class="node"><title>Node3</title>
<a xlink:href="a00015.html" target="_top" xlink:title="application.h">
<polygon fill="white" stroke="red" points="8.5,-1 8.5,-25 93.5,-25 93.5,-1 8.5,-1"/>
<text text-anchor="middle" x="51" y="-10.2" font-family="Helvetica,sans-Serif" font-size="12.00">application.h</text>
</a>
</g>
<!-- Node1&#45;&gt;Node3 -->
<g id="edge8" class="edge"><title>Node1&#45;&gt;Node3</title>
<path fill="none" stroke="midnightblue" d="M55.392,-114.873C56.8498,-106.492 58.283,-96.8411 59,-88 59.934,-76.4823 59.934,-73.5177 59,-62 57.9688,-49.2848 55.4561,-34.8943 53.5196,-25.0154"/>
<polygon fill="midnightblue" stroke="midnightblue" points="51.899,-114.514 53.5196,-124.985 58.782,-115.789 51.899,-114.514"/>
</g>
<!-- Node4 -->
<g id="node9" class="node"><title>Node4</title>
<a xlink:href="a00026.html" target="_top" xlink:title="parser.cpp">
<polygon fill="white" stroke="black" points="105.5,-63 105.5,-87 178.5,-87 178.5,-63 105.5,-63"/>
<text text-anchor="middle" x="142" y="-72.2" font-family="Helvetica,sans-Serif" font-size="12.00">parser.cpp</text>
</a>
</g>
<!-- Node1&#45;&gt;Node4 -->
<g id="edge10" class="edge"><title>Node1&#45;&gt;Node4</title>
<path fill="none" stroke="midnightblue" d="M77.4081,-119.008C92.508,-108.72 111.035,-96.0972 124.368,-87.0128"/>
<polygon fill="midnightblue" stroke="midnightblue" points="75.2722,-116.228 68.9787,-124.751 79.2136,-122.013 75.2722,-116.228"/>
</g>
<!-- Node2&#45;&gt;Node1 -->
<g id="edge4" class="edge"><title>Node2&#45;&gt;Node1</title>
<path fill="none" stroke="midnightblue" d="M40.3026,-96.1411C44.926,-105.676 49.1956,-116.599 51.367,-124.751"/>
<polygon fill="midnightblue" stroke="midnightblue" points="43.3701,-94.4542 35.6259,-87.2238 37.1709,-97.7054 43.3701,-94.4542"/>
</g>
<!-- Node2&#45;&gt;Node3 -->
<g id="edge6" class="edge"><title>Node2&#45;&gt;Node3</title>
<path fill="none" stroke="midnightblue" d="M34.1288,-53.2312C38.068,-43.8379 42.5289,-33.2004 45.8739,-25.2238"/>
<polygon fill="midnightblue" stroke="midnightblue" points="30.7764,-52.1753 30.1368,-62.7508 37.2318,-54.8824 30.7764,-52.1753"/>
</g>
</g>
</svg>
