<?xml version="1.0" encoding="UTF-8" standalone="no"?>
<!DOCTYPE svg PUBLIC "-//W3C//DTD SVG 1.1//EN"
 "http://www.w3.org/Graphics/SVG/1.1/DTD/svg11.dtd">
<!-- Generated by graphviz version 2.26.3 (20100126.1600)
 -->
<!-- Title: Application::onISChoice Pages: 1 -->
<svg width="300pt" height="158pt"
 viewBox="0.00 0.00 300.00 158.00" xmlns="http://www.w3.org/2000/svg" xmlns:xlink="http://www.w3.org/1999/xlink">
<g id="graph1" class="graph" transform="scale(1 1) rotate(0) translate(4 154)">
<title>Application::onISChoice</title>
<polygon fill="white" stroke="white" points="-4,5 -4,-154 297,-154 297,5 -4,5"/>
<!-- Node1 -->
<g id="node1" class="node"><title>Node1</title>
<polygon fill="#bfbfbf" stroke="black" points="0,-63 0,-87 146,-87 146,-63 0,-63"/>
<text text-anchor="middle" x="73" y="-72.2" font-family="Helvetica,sans-Serif" font-size="12.00">Application::onISChoice</text>
</g>
<!-- Node2 -->
<g id="node3" class="node"><title>Node2</title>
<a xlink:href="a00002.html#a417cbf208ccd4334f89ea5f46a2c133e" target="_top" xlink:title="Gets the mapping from LR elements list to all elements list.">
<polygon fill="white" stroke="black" points="193.5,-126 193.5,-150 280.5,-150 280.5,-126 193.5,-126"/>
<text text-anchor="middle" x="237" y="-135.2" font-family="Helvetica,sans-Serif" font-size="12.00">Data::mapLR</text>
</a>
</g>
<!-- Node1&#45;&gt;Node2 -->
<g id="edge2" class="edge"><title>Node1&#45;&gt;Node2</title>
<path fill="none" stroke="midnightblue" d="M104.471,-87.1558C126.237,-95.5557 155.87,-106.977 182,-117 186.476,-118.717 191.159,-120.51 195.821,-122.293"/>
<polygon fill="midnightblue" stroke="midnightblue" points="194.702,-125.612 205.292,-125.912 197.201,-119.073 194.702,-125.612"/>
</g>
<!-- Node3 -->
<g id="node5" class="node"><title>Node3</title>
<a xlink:href="a00002.html#a95e9b3b50f8fff2e29c77ef61d28e115" target="_top" xlink:title="Gets the mapping from MR elements list to all elements list.">
<polygon fill="white" stroke="black" points="192,-84 192,-108 282,-108 282,-84 192,-84"/>
<text text-anchor="middle" x="237" y="-93.2" font-family="Helvetica,sans-Serif" font-size="12.00">Data::mapMR</text>
</a>
</g>
<!-- Node1&#45;&gt;Node3 -->
<g id="edge4" class="edge"><title>Node1&#45;&gt;Node3</title>
<path fill="none" stroke="midnightblue" d="M146.366,-84.3944C158.25,-85.9161 170.378,-87.4692 181.738,-88.9238"/>
<polygon fill="midnightblue" stroke="midnightblue" points="181.562,-92.4297 191.925,-90.2282 182.451,-85.4864 181.562,-92.4297"/>
</g>
<!-- Node4 -->
<g id="node7" class="node"><title>Node4</title>
<a xlink:href="a00002.html#a173a52935021e359de8b33ad8c2c0b6a" target="_top" xlink:title="Gets the mapping from HR elements list to all elements list.">
<polygon fill="white" stroke="black" points="192.5,-42 192.5,-66 281.5,-66 281.5,-42 192.5,-42"/>
<text text-anchor="middle" x="237" y="-51.2" font-family="Helvetica,sans-Serif" font-size="12.00">Data::mapHR</text>
</a>
</g>
<!-- Node1&#45;&gt;Node4 -->
<g id="edge6" class="edge"><title>Node1&#45;&gt;Node4</title>
<path fill="none" stroke="midnightblue" d="M146.366,-65.6056C158.503,-64.0515 170.895,-62.4646 182.463,-60.9834"/>
<polygon fill="midnightblue" stroke="midnightblue" points="182.915,-64.4542 192.389,-59.7123 182.026,-57.5109 182.915,-64.4542"/>
</g>
<!-- Node5 -->
<g id="node9" class="node"><title>Node5</title>
<a xlink:href="a00003.html#a836d9f49a3480b021e2c2fa22e05d6b1" target="_top" xlink:title="Plots internal standard curve.">
<polygon fill="white" stroke="red" points="182,-0 182,-24 292,-24 292,-0 182,-0"/>
<text text-anchor="middle" x="237" y="-9.2" font-family="Helvetica,sans-Serif" font-size="12.00">Displaying::plotIS</text>
</a>
</g>
<!-- Node1&#45;&gt;Node5 -->
<g id="edge8" class="edge"><title>Node1&#45;&gt;Node5</title>
<path fill="none" stroke="midnightblue" d="M104.471,-62.8442C126.237,-54.4443 155.87,-43.0226 182,-33 186.476,-31.283 191.159,-29.4902 195.821,-27.7071"/>
<polygon fill="midnightblue" stroke="midnightblue" points="197.201,-30.9269 205.292,-24.0877 194.702,-24.3882 197.201,-30.9269"/>
</g>
</g>
</svg>
