<?xml version="1.0" encoding="UTF-8" standalone="no"?>
<!DOCTYPE svg PUBLIC "-//W3C//DTD SVG 1.1//EN"
 "http://www.w3.org/Graphics/SVG/1.1/DTD/svg11.dtd">
<!-- Generated by graphviz version 2.26.3 (20100126.1600)
 -->
<!-- Title: qcdialog.h Pages: 1 -->
<svg width="194pt" height="96pt"
 viewBox="0.00 0.00 194.00 96.00" xmlns="http://www.w3.org/2000/svg" xmlns:xlink="http://www.w3.org/1999/xlink">
<g id="graph1" class="graph" transform="scale(1 1) rotate(0) translate(4 92)">
<title>qcdialog.h</title>
<polygon fill="white" stroke="white" points="-4,5 -4,-92 191,-92 191,5 -4,5"/>
<!-- Node1 -->
<g id="node1" class="node"><title>Node1</title>
<polygon fill="#bfbfbf" stroke="black" points="57,-63 57,-87 129,-87 129,-63 57,-63"/>
<text text-anchor="middle" x="93" y="-72.2" font-family="Helvetica,sans-Serif" font-size="12.00">qcdialog.h</text>
</g>
<!-- Node2 -->
<g id="node3" class="node"><title>Node2</title>
<a xlink:href="a00015.html" target="_top" xlink:title="application.h">
<polygon fill="white" stroke="red" points="-0.5,-1 -0.5,-25 84.5,-25 84.5,-1 -0.5,-1"/>
<text text-anchor="middle" x="42" y="-10.2" font-family="Helvetica,sans-Serif" font-size="12.00">application.h</text>
</a>
</g>
<!-- Node1&#45;&gt;Node2 -->
<g id="edge2" class="edge"><title>Node1&#45;&gt;Node2</title>
<path fill="none" stroke="midnightblue" d="M76.5597,-55.0137C68.4927,-45.2068 59.0352,-33.7095 52.055,-25.2238"/>
<polygon fill="midnightblue" stroke="midnightblue" points="73.8683,-57.2513 82.924,-62.7508 79.2743,-52.8044 73.8683,-57.2513"/>
</g>
<!-- Node3 -->
<g id="node5" class="node"><title>Node3</title>
<a xlink:href="a00030.html" target="_top" xlink:title="qcdialog.cpp">
<polygon fill="white" stroke="black" points="101.5,-1 101.5,-25 186.5,-25 186.5,-1 101.5,-1"/>
<text text-anchor="middle" x="144" y="-10.2" font-family="Helvetica,sans-Serif" font-size="12.00">qcdialog.cpp</text>
</a>
</g>
<!-- Node1&#45;&gt;Node3 -->
<g id="edge4" class="edge"><title>Node1&#45;&gt;Node3</title>
<path fill="none" stroke="midnightblue" d="M109.44,-55.0137C117.507,-45.2068 126.965,-33.7095 133.945,-25.2238"/>
<polygon fill="midnightblue" stroke="midnightblue" points="106.726,-52.8044 103.076,-62.7508 112.132,-57.2513 106.726,-52.8044"/>
</g>
</g>
</svg>
