<?xml version="1.0" encoding="UTF-8" standalone="no"?>
<!DOCTYPE svg PUBLIC "-//W3C//DTD SVG 1.1//EN"
 "http://www.w3.org/Graphics/SVG/1.1/DTD/svg11.dtd">
<!-- Generated by graphviz version 2.26.3 (20100126.1600)
 -->
<!-- Title: Parser Pages: 1 -->
<svg width="330pt" height="192pt"
 viewBox="0.00 0.00 330.00 192.00" xmlns="http://www.w3.org/2000/svg" xmlns:xlink="http://www.w3.org/1999/xlink">
<g id="graph1" class="graph" transform="scale(1 1) rotate(0) translate(4 188)">
<title>Parser</title>
<polygon fill="white" stroke="white" points="-4,5 -4,-188 327,-188 327,5 -4,5"/>
<!-- Node1 -->
<g id="node1" class="node"><title>Node1</title>
<polygon fill="#bfbfbf" stroke="black" points="124,-111 124,-183 188,-183 188,-111 124,-111"/>
<text text-anchor="middle" x="156" y="-168.2" font-family="Helvetica,sans-Serif" font-size="12.00">Parser</text>
<polyline fill="none" stroke="black" points="124,-159 188,-159 "/>
<text text-anchor="middle" x="156" y="-144.2" font-family="Helvetica,sans-Serif" font-size="12.00"> </text>
<polyline fill="none" stroke="black" points="124,-135 188,-135 "/>
<text text-anchor="start" x="132" y="-120.2" font-family="Helvetica,sans-Serif" font-size="12.00">+ parse()</text>
</g>
<!-- Node2 -->
<g id="node3" class="node"><title>Node2</title>
<a xlink:href="a00007.html" target="_top" xlink:title="{ParserInCSV\n||+ parse()\l}">
<polygon fill="white" stroke="black" points="-0.5,-1 -0.5,-73 86.5,-73 86.5,-1 -0.5,-1"/>
<text text-anchor="middle" x="43" y="-58.2" font-family="Helvetica,sans-Serif" font-size="12.00">ParserInCSV</text>
<polyline fill="none" stroke="black" points="-0.5,-49 86.5,-49 "/>
<text text-anchor="middle" x="43" y="-34.2" font-family="Helvetica,sans-Serif" font-size="12.00"> </text>
<polyline fill="none" stroke="black" points="-0.5,-25 86.5,-25 "/>
<text text-anchor="start" x="7.5" y="-10.2" font-family="Helvetica,sans-Serif" font-size="12.00">+ parse()</text>
</a>
</g>
<!-- Node1&#45;&gt;Node2 -->
<g id="edge2" class="edge"><title>Node1&#45;&gt;Node2</title>
<path fill="none" stroke="midnightblue" d="M116.738,-108.78C104.937,-97.2925 92.0264,-84.7248 80.3528,-73.3611"/>
<polygon fill="none" stroke="midnightblue" points="114.314,-111.305 123.921,-115.773 119.197,-106.289 114.314,-111.305"/>
</g>
<!-- Node3 -->
<g id="node5" class="node"><title>Node3</title>
<a xlink:href="a00008.html" target="_top" xlink:title="{ParserInSTDQC\n||+ parse()\l}">
<polygon fill="white" stroke="black" points="104,-1 104,-73 208,-73 208,-1 104,-1"/>
<text text-anchor="middle" x="156" y="-58.2" font-family="Helvetica,sans-Serif" font-size="12.00">ParserInSTDQC</text>
<polyline fill="none" stroke="black" points="104,-49 208,-49 "/>
<text text-anchor="middle" x="156" y="-34.2" font-family="Helvetica,sans-Serif" font-size="12.00"> </text>
<polyline fill="none" stroke="black" points="104,-25 208,-25 "/>
<text text-anchor="start" x="112" y="-10.2" font-family="Helvetica,sans-Serif" font-size="12.00">+ parse()</text>
</a>
</g>
<!-- Node1&#45;&gt;Node3 -->
<g id="edge4" class="edge"><title>Node1&#45;&gt;Node3</title>
<path fill="none" stroke="midnightblue" d="M156,-100.752C156,-91.5127 156,-81.9353 156,-73.099"/>
<polygon fill="none" stroke="midnightblue" points="152.5,-100.982 156,-110.982 159.5,-100.982 152.5,-100.982"/>
</g>
<!-- Node4 -->
<g id="node7" class="node"><title>Node4</title>
<a xlink:href="a00009.html" target="_top" xlink:title="{ParserOutCSV\n||+ parse()\l}">
<polygon fill="white" stroke="black" points="226,-1 226,-73 322,-73 322,-1 226,-1"/>
<text text-anchor="middle" x="274" y="-58.2" font-family="Helvetica,sans-Serif" font-size="12.00">ParserOutCSV</text>
<polyline fill="none" stroke="black" points="226,-49 322,-49 "/>
<text text-anchor="middle" x="274" y="-34.2" font-family="Helvetica,sans-Serif" font-size="12.00"> </text>
<polyline fill="none" stroke="black" points="226,-25 322,-25 "/>
<text text-anchor="start" x="234" y="-10.2" font-family="Helvetica,sans-Serif" font-size="12.00">+ parse()</text>
</a>
</g>
<!-- Node1&#45;&gt;Node4 -->
<g id="edge6" class="edge"><title>Node1&#45;&gt;Node4</title>
<path fill="none" stroke="midnightblue" d="M195.563,-110.119C208.296,-98.2491 222.389,-85.1116 235.076,-73.2848"/>
<polygon fill="none" stroke="midnightblue" points="193.172,-107.563 188.244,-116.942 197.945,-112.683 193.172,-107.563"/>
</g>
</g>
</svg>
