<?xml version="1.0" encoding="UTF-8" standalone="no"?>
<!DOCTYPE svg PUBLIC "-//W3C//DTD SVG 1.1//EN"
 "http://www.w3.org/Graphics/SVG/1.1/DTD/svg11.dtd">
<!-- Generated by graphviz version 2.26.3 (20100126.1600)
 -->
<!-- Title: Solution::setCps Pages: 1 -->
<svg width="304pt" height="200pt"
 viewBox="0.00 0.00 304.00 200.00" xmlns="http://www.w3.org/2000/svg" xmlns:xlink="http://www.w3.org/1999/xlink">
<g id="graph1" class="graph" transform="scale(1 1) rotate(0) translate(4 196)">
<title>Solution::setCps</title>
<polygon fill="white" stroke="white" points="-4,5 -4,-196 301,-196 301,5 -4,5"/>
<!-- Node1 -->
<g id="node1" class="node"><title>Node1</title>
<polygon fill="#bfbfbf" stroke="black" points="0,-84 0,-108 104,-108 104,-84 0,-84"/>
<text text-anchor="middle" x="52" y="-93.2" font-family="Helvetica,sans-Serif" font-size="12.00">Solution::setCps</text>
</g>
<!-- Node2 -->
<g id="node3" class="node"><title>Node2</title>
<a xlink:href="a00002.html#a6fc1d983c7fa16eebd0d0b12cb505a30" target="_top" xlink:title="Copies data contain from the given parameter.">
<polygon fill="white" stroke="red" points="168.5,-168 168.5,-192 267.5,-192 267.5,-168 168.5,-168"/>
<text text-anchor="middle" x="218" y="-177.2" font-family="Helvetica,sans-Serif" font-size="12.00">Data::copyData</text>
</a>
</g>
<!-- Node1&#45;&gt;Node2 -->
<g id="edge2" class="edge"><title>Node1&#45;&gt;Node2</title>
<path fill="none" stroke="midnightblue" d="M73.315,-114.619C90.3335,-128.619 115.336,-147.323 140,-159 148.873,-163.2 158.725,-166.674 168.358,-169.504"/>
<polygon fill="midnightblue" stroke="midnightblue" points="75.548,-111.923 65.6383,-108.175 71.0476,-117.285 75.548,-111.923"/>
</g>
<!-- Node3 -->
<g id="node5" class="node"><title>Node3</title>
<a xlink:href="a00002.html#a6ff99fcec4f0387958fff773969de591" target="_top" xlink:title="Adds a calculated Blank Solution.">
<polygon fill="white" stroke="red" points="161,-126 161,-150 275,-150 275,-126 161,-126"/>
<text text-anchor="middle" x="218" y="-135.2" font-family="Helvetica,sans-Serif" font-size="12.00">Data::addBLKmoy</text>
</a>
</g>
<!-- Node1&#45;&gt;Node3 -->
<g id="edge4" class="edge"><title>Node1&#45;&gt;Node3</title>
<path fill="none" stroke="midnightblue" d="M109.443,-110.534C129.34,-115.568 151.409,-121.152 170.424,-125.963"/>
<polygon fill="midnightblue" stroke="midnightblue" points="110.122,-107.095 99.5689,-108.036 108.405,-113.881 110.122,-107.095"/>
</g>
<!-- Node4 -->
<g id="node7" class="node"><title>Node4</title>
<a xlink:href="a00007.html#ad7b814e406fa54ff255b66488a9dde4a" target="_top" xlink:title="Parsing Function.">
<polygon fill="white" stroke="black" points="156.5,-84 156.5,-108 279.5,-108 279.5,-84 156.5,-84"/>
<text text-anchor="middle" x="218" y="-93.2" font-family="Helvetica,sans-Serif" font-size="12.00">ParserInCSV::parse</text>
</a>
</g>
<!-- Node1&#45;&gt;Node4 -->
<g id="edge6" class="edge"><title>Node1&#45;&gt;Node4</title>
<path fill="none" stroke="midnightblue" d="M114.36,-96C128.057,-96 142.556,-96 156.23,-96"/>
<polygon fill="midnightblue" stroke="midnightblue" points="114.068,-92.5001 104.068,-96 114.068,-99.5001 114.068,-92.5001"/>
</g>
<!-- Node5 -->
<g id="node9" class="node"><title>Node5</title>
<a xlink:href="a00010.html#a409d37b18750104739ee43e169371a0b" target="_top" xlink:title="Applies Blank Substraction.">
<polygon fill="white" stroke="red" points="140.5,-42 140.5,-66 295.5,-66 295.5,-42 140.5,-42"/>
<text text-anchor="middle" x="218" y="-51.2" font-family="Helvetica,sans-Serif" font-size="12.00">Processing::subtructBlank</text>
</a>
</g>
<!-- Node1&#45;&gt;Node5 -->
<g id="edge8" class="edge"><title>Node1&#45;&gt;Node5</title>
<path fill="none" stroke="midnightblue" d="M109.443,-81.4663C129.34,-76.432 151.409,-70.8484 170.424,-66.0373"/>
<polygon fill="midnightblue" stroke="midnightblue" points="108.405,-78.1185 99.5689,-83.9645 110.122,-84.9047 108.405,-78.1185"/>
</g>
<!-- Node6 -->
<g id="node11" class="node"><title>Node6</title>
<a xlink:href="a00010.html#aa96b9a34a756e39a01581416199328d3" target="_top" xlink:title="Applies Internal Standard Correction.">
<polygon fill="white" stroke="red" points="145,-0 145,-24 291,-24 291,-0 145,-0"/>
<text text-anchor="middle" x="218" y="-9.2" font-family="Helvetica,sans-Serif" font-size="12.00">Processing::correctionIS</text>
</a>
</g>
<!-- Node1&#45;&gt;Node6 -->
<g id="edge10" class="edge"><title>Node1&#45;&gt;Node6</title>
<path fill="none" stroke="midnightblue" d="M73.315,-77.3814C90.3335,-63.3812 115.336,-44.6766 140,-33 147.352,-29.5196 155.376,-26.5383 163.39,-24.0086"/>
<polygon fill="midnightblue" stroke="midnightblue" points="71.0476,-74.715 65.6383,-83.8249 75.548,-80.0767 71.0476,-74.715"/>
</g>
</g>
</svg>
