<?xml version="1.0" encoding="UTF-8" standalone="no"?>
<!DOCTYPE svg PUBLIC "-//W3C//DTD SVG 1.1//EN"
 "http://www.w3.org/Graphics/SVG/1.1/DTD/svg11.dtd">
<!-- Generated by graphviz version 2.26.3 (20100126.1600)
 -->
<!-- Title: Displaying::displaySolutions Pages: 1 -->
<svg width="328pt" height="158pt"
 viewBox="0.00 0.00 328.00 158.00" xmlns="http://www.w3.org/2000/svg" xmlns:xlink="http://www.w3.org/1999/xlink">
<g id="graph1" class="graph" transform="scale(1 1) rotate(0) translate(4 154)">
<title>Displaying::displaySolutions</title>
<polygon fill="white" stroke="white" points="-4,5 -4,-154 325,-154 325,5 -4,5"/>
<!-- Node1 -->
<g id="node1" class="node"><title>Node1</title>
<polygon fill="#bfbfbf" stroke="black" points="0,-63 0,-87 168,-87 168,-63 0,-63"/>
<text text-anchor="middle" x="84" y="-72.2" font-family="Helvetica,sans-Serif" font-size="12.00">Displaying::displaySolutions</text>
</g>
<!-- Node2 -->
<g id="node3" class="node"><title>Node2</title>
<a xlink:href="a00002.html#a84179b0c71fb3e69cfa177e92004ee79" target="_top" xlink:title="Gets the Number of Solutions.">
<polygon fill="white" stroke="black" points="205,-126 205,-150 319,-150 319,-126 205,-126"/>
<text text-anchor="middle" x="262" y="-135.2" font-family="Helvetica,sans-Serif" font-size="12.00">Data::solutionSize</text>
</a>
</g>
<!-- Node1&#45;&gt;Node2 -->
<g id="edge2" class="edge"><title>Node1&#45;&gt;Node2</title>
<path fill="none" stroke="midnightblue" d="M118.32,-87.147C146.853,-97.2457 187.628,-111.677 218.456,-122.588"/>
<polygon fill="midnightblue" stroke="midnightblue" points="217.493,-125.96 228.087,-125.997 219.828,-119.361 217.493,-125.96"/>
</g>
<!-- Node3 -->
<g id="node5" class="node"><title>Node3</title>
<a xlink:href="a00002.html#a7b1a07606090591e7fffb48be72bd734" target="_top" xlink:title="Gets a solution identified by its Id.">
<polygon fill="white" stroke="black" points="207.5,-84 207.5,-108 316.5,-108 316.5,-84 207.5,-84"/>
<text text-anchor="middle" x="262" y="-93.2" font-family="Helvetica,sans-Serif" font-size="12.00">Data::getSolution</text>
</a>
</g>
<!-- Node1&#45;&gt;Node3 -->
<g id="edge4" class="edge"><title>Node1&#45;&gt;Node3</title>
<path fill="none" stroke="midnightblue" d="M168.048,-84.9158C177.832,-86.07 187.695,-87.2337 197.164,-88.3508"/>
<polygon fill="midnightblue" stroke="midnightblue" points="196.92,-91.8462 207.261,-89.5421 197.74,-84.8944 196.92,-91.8462"/>
</g>
<!-- Node4 -->
<g id="node7" class="node"><title>Node4</title>
<a xlink:href="a00013.html#a08617ee6ca1993e92372e265829508f0" target="_top" xlink:title="Gets the Name.">
<polygon fill="white" stroke="black" points="204,-42 204,-66 320,-66 320,-42 204,-42"/>
<text text-anchor="middle" x="262" y="-51.2" font-family="Helvetica,sans-Serif" font-size="12.00">Solution::getName</text>
</a>
</g>
<!-- Node1&#45;&gt;Node4 -->
<g id="edge6" class="edge"><title>Node1&#45;&gt;Node4</title>
<path fill="none" stroke="midnightblue" d="M168.048,-65.0842C176.688,-64.065 185.389,-63.0383 193.827,-62.0429"/>
<polygon fill="midnightblue" stroke="midnightblue" points="194.444,-65.4945 203.965,-60.8468 193.624,-58.5427 194.444,-65.4945"/>
</g>
<!-- Node5 -->
<g id="node9" class="node"><title>Node5</title>
<a xlink:href="a00013.html#a7e480d4e590046701d82e74491ff944a" target="_top" xlink:title="Gets type of the solution.">
<polygon fill="white" stroke="black" points="207,-0 207,-24 317,-24 317,-0 207,-0"/>
<text text-anchor="middle" x="262" y="-9.2" font-family="Helvetica,sans-Serif" font-size="12.00">Solution::getType</text>
</a>
</g>
<!-- Node1&#45;&gt;Node5 -->
<g id="edge8" class="edge"><title>Node1&#45;&gt;Node5</title>
<path fill="none" stroke="midnightblue" d="M118.32,-62.853C146.853,-52.7543 187.628,-38.3228 218.456,-27.4117"/>
<polygon fill="midnightblue" stroke="midnightblue" points="219.828,-30.6388 228.087,-24.0028 217.493,-24.0399 219.828,-30.6388"/>
</g>
</g>
</svg>
