<?xml version="1.0" encoding="UTF-8" standalone="no"?>
<!DOCTYPE svg PUBLIC "-//W3C//DTD SVG 1.1//EN"
 "http://www.w3.org/Graphics/SVG/1.1/DTD/svg11.dtd">
<!-- Generated by graphviz version 2.26.3 (20100126.1600)
 -->
<!-- Title: Data Pages: 1 -->
<!--zoomable 464 -->
<svg id="main" version="1.1" xmlns="http://www.w3.org/2000/svg" xmlns:xlink="http://www.w3.org/1999/xlink" xml:space="preserve" onload="init(evt)">
        <defs>
                <circle id="rim" cx="0" cy="0" r="7"/>
                <circle id="rim2" cx="0" cy="0" r="3.5"/>
                <g id="zoomPlus">
                        <use xlink:href="#rim" fill="#404040">
                                <set attributeName="fill" to="#808080" begin="zoomplus.mouseover" end="zoomplus.mouseout"/>
                        </use>
                        <path d="M-4,0h8M0,-4v8" fill="none" stroke="white" stroke-width="1.5" pointer-events="none"/>
                </g>
                <g id="zoomMin">
                        <use xlink:href="#rim" fill="#404040">
                                <set attributeName="fill" to="#808080" begin="zoomminus.mouseover" end="zoomminus.mouseout"/>
                        </use>
                        <path d="M-4,0h8" fill="none" stroke="white" stroke-width="1.5" pointer-events="none"/>
                </g>
                <g id="dirArrow">
                        <path fill="none" stroke="white" stroke-width="1.5" d="M0,-3.0v7 M-2.5,-0.5L0,-3.0L2.5,-0.5"/>
                </g>
               <g id="resetDef">
                       <use xlink:href="#rim2" fill="#404040">
                               <set attributeName="fill" to="#808080" begin="reset.mouseover" end="reset.mouseout"/>
                       </use>
               </g>
        </defs>

<script type="text/javascript">
var viewWidth = 130;
var viewHeight = 464;
var sectionId = 'dynsection-0';
</script>
<script xlink:href="svgpan.js"/>
<svg id="graph" class="graph">
<g id="viewport">
<title>Data</title>
<polygon fill="white" stroke="white" points="-4,5 -4,-460 127,-460 127,5 -4,5"/>
<!-- Node1 -->
<g id="node1" class="node"><title>Node1</title>
<polygon fill="#bfbfbf" stroke="black" points="-0.5,-1 -0.5,-329 122.5,-329 122.5,-1 -0.5,-1"/>
<text text-anchor="middle" x="61" y="-314.2" font-family="Helvetica,sans-Serif" font-size="12.00">Data</text>
<polyline fill="none" stroke="black" points="-0.5,-305 122.5,-305 "/>
<text text-anchor="start" x="7.5" y="-290.2" font-family="Helvetica,sans-Serif" font-size="12.00">+ ZERO</text>
<text text-anchor="start" x="7.5" y="-274.2" font-family="Helvetica,sans-Serif" font-size="12.00">&#45; elementList</text>
<text text-anchor="start" x="7.5" y="-258.2" font-family="Helvetica,sans-Serif" font-size="12.00">&#45; solutionList</text>
<text text-anchor="start" x="7.5" y="-242.2" font-family="Helvetica,sans-Serif" font-size="12.00">&#45; mapBlk</text>
<text text-anchor="start" x="7.5" y="-226.2" font-family="Helvetica,sans-Serif" font-size="12.00">&#45; mapIsoLR</text>
<text text-anchor="start" x="7.5" y="-210.2" font-family="Helvetica,sans-Serif" font-size="12.00">&#45; mapIsoMR</text>
<text text-anchor="start" x="7.5" y="-194.2" font-family="Helvetica,sans-Serif" font-size="12.00">&#45; mapIsoHR</text>
<polyline fill="none" stroke="black" points="-0.5,-185 122.5,-185 "/>
<text text-anchor="start" x="7.5" y="-170.2" font-family="Helvetica,sans-Serif" font-size="12.00">+ Data()</text>
<text text-anchor="start" x="7.5" y="-154.2" font-family="Helvetica,sans-Serif" font-size="12.00">+ loadParser()</text>
<text text-anchor="start" x="7.5" y="-138.2" font-family="Helvetica,sans-Serif" font-size="12.00">+ addIso()</text>
<text text-anchor="start" x="7.5" y="-122.2" font-family="Helvetica,sans-Serif" font-size="12.00">+ getIso()</text>
<text text-anchor="start" x="7.5" y="-106.2" font-family="Helvetica,sans-Serif" font-size="12.00">+ isoSize()</text>
<text text-anchor="start" x="7.5" y="-90.2" font-family="Helvetica,sans-Serif" font-size="12.00">+ addSolution()</text>
<text text-anchor="start" x="7.5" y="-74.2" font-family="Helvetica,sans-Serif" font-size="12.00">+ getSolution()</text>
<text text-anchor="start" x="7.5" y="-58.2" font-family="Helvetica,sans-Serif" font-size="12.00">+ containsSolution()</text>
<text text-anchor="start" x="7.5" y="-42.2" font-family="Helvetica,sans-Serif" font-size="12.00">+ solutionSize()</text>
<text text-anchor="start" x="7.5" y="-26.2" font-family="Helvetica,sans-Serif" font-size="12.00">+ mapBLK()</text>
<text text-anchor="start" x="7.5" y="-10.2" font-family="Helvetica,sans-Serif" font-size="12.00">and 7 more...</text>
</g>
<!-- Node2 -->
<g id="node2" class="node"><title>Node2</title>
<a xlink:href="a00006.html" target="_top" xlink:title="{Parser\n||+ parse()\l}">
<polygon fill="white" stroke="black" points="29,-383 29,-455 93,-455 93,-383 29,-383"/>
<text text-anchor="middle" x="61" y="-440.2" font-family="Helvetica,sans-Serif" font-size="12.00">Parser</text>
<polyline fill="none" stroke="black" points="29,-431 93,-431 "/>
<text text-anchor="middle" x="61" y="-416.2" font-family="Helvetica,sans-Serif" font-size="12.00"> </text>
<polyline fill="none" stroke="black" points="29,-407 93,-407 "/>
<text text-anchor="start" x="37" y="-392.2" font-family="Helvetica,sans-Serif" font-size="12.00">+ parse()</text>
</a>
</g>
<!-- Node2&#45;&gt;Node1 -->
<g id="edge2" class="edge"><title>Node2&#45;&gt;Node1</title>
<path fill="none" stroke="#404040" d="M61,-382.878C61,-370.872 61,-356.591 61,-341.166"/>
<polygon fill="none" stroke="#404040" points="61.0001,-341.166 57,-335.166 61,-329.166 65,-335.166 61.0001,-341.166"/>
<text text-anchor="middle" x="79.5" y="-353.2" font-family="Helvetica,sans-Serif" font-size="12.00"> parser</text>
</g>
</g>
</svg>
        <g id="navigator" transform="translate(0 0)" fill="#404254">
                <rect fill="#f2f5e9" fill-opacity="0.5" stroke="#606060" stroke-width=".5" x="0" y="0" width="60" height="60"/>
                <use id="zoomplus" xlink:href="#zoomPlus" x="17" y="9" onmousedown="handleZoom(evt,'in')"/>
                <use id="zoomminus" xlink:href="#zoomMin" x="42" y="9" onmousedown="handleZoom(evt,'out')"/>
                <use id="reset" xlink:href="#resetDef" x="30" y="36" onmousedown="handleReset()"/>
                <g id="arrowUp" xlink:href="#dirArrow" transform="translate(30 24)" onmousedown="handlePan(0,-1)">
                  <use xlink:href="#rim" fill="#404040">
                        <set attributeName="fill" to="#808080" begin="arrowUp.mouseover" end="arrowUp.mouseout"/>
                  </use>
                  <path fill="none" stroke="white" stroke-width="1.5" d="M0,-3.0v7 M-2.5,-0.5L0,-3.0L2.5,-0.5"/>
                </g>
                <g id="arrowRight" xlink:href="#dirArrow" transform="rotate(90) translate(36 -43)" onmousedown="handlePan(1,0)">
                  <use xlink:href="#rim" fill="#404040">
                        <set attributeName="fill" to="#808080" begin="arrowRight.mouseover" end="arrowRight.mouseout"/>
                  </use>
                  <path fill="none" stroke="white" stroke-width="1.5" d="M0,-3.0v7 M-2.5,-0.5L0,-3.0L2.5,-0.5"/>
                </g>
                <g id="arrowDown" xlink:href="#dirArrow" transform="rotate(180) translate(-30 -48)" onmousedown="handlePan(0,1)">
                  <use xlink:href="#rim" fill="#404040">
                        <set attributeName="fill" to="#808080" begin="arrowDown.mouseover" end="arrowDown.mouseout"/>
                  </use>
                  <path fill="none" stroke="white" stroke-width="1.5" d="M0,-3.0v7 M-2.5,-0.5L0,-3.0L2.5,-0.5"/>
                </g>
                <g id="arrowLeft" xlink:href="#dirArrow" transform="rotate(270) translate(-36 17)" onmousedown="handlePan(-1,0)">
                  <use xlink:href="#rim" fill="#404040">
                        <set attributeName="fill" to="#808080" begin="arrowLeft.mouseover" end="arrowLeft.mouseout"/>
                  </use>
                  <path fill="none" stroke="white" stroke-width="1.5" d="M0,-3.0v7 M-2.5,-0.5L0,-3.0L2.5,-0.5"/>
                </g>
        </g>
        <svg viewBox="0 0 15 15" width="100%" height="30px" preserveAspectRatio="xMaxYMin meet">
         <g id="arrow_out" transform="scale(0.3 0.3)">
          <a xlink:href="a00072_org.svg" target="_base">
           <rect id="button" ry="5" rx="5" y="6" x="6" height="38" width="38"
                fill="#f2f5e9" fill-opacity="0.5" stroke="#606060" stroke-width="1.0"/>
           <path id="arrow"
             d="M 11.500037,31.436501 C 11.940474,20.09759 22.043105,11.32322 32.158766,21.979434 L 37.068811,17.246167 C 37.068811,17.246167 37.088388,32 37.088388,32 L 22.160133,31.978069 C 22.160133,31.978069 26.997745,27.140456 26.997745,27.140456 C 18.528582,18.264221 13.291696,25.230495 11.500037,31.436501 z"
             style="fill:#404040;"/>
          </a>
         </g>
        </svg>
</svg>
