<?xml version="1.0" encoding="UTF-8" standalone="no"?>
<!DOCTYPE svg PUBLIC "-//W3C//DTD SVG 1.1//EN"
 "http://www.w3.org/Graphics/SVG/1.1/DTD/svg11.dtd">
<!-- Generated by graphviz version 2.26.3 (20100126.1600)
 -->
<!-- Title: regline.h Pages: 1 -->
<svg width="186pt" height="96pt"
 viewBox="0.00 0.00 186.00 96.00" xmlns="http://www.w3.org/2000/svg" xmlns:xlink="http://www.w3.org/1999/xlink">
<g id="graph1" class="graph" transform="scale(1 1) rotate(0) translate(4 92)">
<title>regline.h</title>
<polygon fill="white" stroke="white" points="-4,5 -4,-92 183,-92 183,5 -4,5"/>
<!-- Node1 -->
<g id="node1" class="node"><title>Node1</title>
<polygon fill="#bfbfbf" stroke="black" points="59.5,-63 59.5,-87 122.5,-87 122.5,-63 59.5,-63"/>
<text text-anchor="middle" x="91" y="-72.2" font-family="Helvetica,sans-Serif" font-size="12.00">regline.h</text>
</g>
<!-- Node2 -->
<g id="node3" class="node"><title>Node2</title>
<a xlink:href="a00029.html" target="_top" target="_top" xlink:title="processing.h">
<polygon fill="white" stroke="red" points="-0.5,-1 -0.5,-25 84.5,-25 84.5,-1 -0.5,-1"/>
<text text-anchor="middle" x="42" y="-10.2" font-family="Helvetica,sans-Serif" font-size="12.00">processing.h</text>
</a>
</g>
<!-- Node1&#45;&gt;Node2 -->
<g id="edge2" class="edge"><title>Node1&#45;&gt;Node2</title>
<path fill="none" stroke="midnightblue" d="M74.9715,-54.719C67.2722,-44.9771 58.3001,-33.6246 51.6607,-25.2238"/>
<polygon fill="midnightblue" stroke="midnightblue" points="72.3726,-57.0754 81.3192,-62.7508 77.8646,-52.735 72.3726,-57.0754"/>
</g>
<!-- Node3 -->
<g id="node5" class="node"><title>Node3</title>
<a xlink:href="a00033.html" target="_top" target="_top" xlink:title="regline.cpp">
<polygon fill="white" stroke="black" points="102,-1 102,-25 178,-25 178,-1 102,-1"/>
<text text-anchor="middle" x="140" y="-10.2" font-family="Helvetica,sans-Serif" font-size="12.00">regline.cpp</text>
</a>
</g>
<!-- Node1&#45;&gt;Node3 -->
<g id="edge4" class="edge"><title>Node1&#45;&gt;Node3</title>
<path fill="none" stroke="midnightblue" d="M107.029,-54.719C114.728,-44.9771 123.7,-33.6246 130.339,-25.2238"/>
<polygon fill="midnightblue" stroke="midnightblue" points="104.135,-52.735 100.681,-62.7508 109.627,-57.0754 104.135,-52.735"/>
</g>
</g>
</svg>
