<?xml version="1.0" encoding="UTF-8" standalone="no"?>
<!DOCTYPE svg PUBLIC "-//W3C//DTD SVG 1.1//EN"
 "http://www.w3.org/Graphics/SVG/1.1/DTD/svg11.dtd">
<!-- Generated by graphviz version 2.26.3 (20100126.1600)
 -->
<!-- Title: Processing::computeLine Pages: 1 -->
<svg width="324pt" height="326pt"
 viewBox="0.00 0.00 324.00 326.00" xmlns="http://www.w3.org/2000/svg" xmlns:xlink="http://www.w3.org/1999/xlink">
<g id="graph1" class="graph" transform="scale(1 1) rotate(0) translate(4 322)">
<title>Processing::computeLine</title>
<polygon fill="white" stroke="white" points="-4,5 -4,-322 321,-322 321,5 -4,5"/>
<!-- Node1 -->
<g id="node1" class="node"><title>Node1</title>
<polygon fill="#bfbfbf" stroke="black" points="0,-147 0,-171 152,-171 152,-147 0,-147"/>
<text text-anchor="middle" x="76" y="-156.2" font-family="Helvetica,sans-Serif" font-size="12.00">Processing::computeLine</text>
</g>
<!-- Node2 -->
<g id="node3" class="node"><title>Node2</title>
<a xlink:href="a00002.html#a84179b0c71fb3e69cfa177e92004ee79" target="_top" xlink:title="Gets the Number of Solutions.">
<polygon fill="white" stroke="black" points="195,-294 195,-318 309,-318 309,-294 195,-294"/>
<text text-anchor="middle" x="252" y="-303.2" font-family="Helvetica,sans-Serif" font-size="12.00">Data::solutionSize</text>
</a>
</g>
<!-- Node1&#45;&gt;Node2 -->
<g id="edge2" class="edge"><title>Node1&#45;&gt;Node2</title>
<path fill="none" stroke="midnightblue" d="M83.6688,-171.334C99.8643,-196.391 140.035,-253.534 188,-285 190.557,-286.678 193.26,-288.232 196.053,-289.67"/>
<polygon fill="midnightblue" stroke="midnightblue" points="194.656,-292.88 205.204,-293.879 197.581,-286.521 194.656,-292.88"/>
</g>
<!-- Node3 -->
<g id="node5" class="node"><title>Node3</title>
<a xlink:href="a00002.html#a7b1a07606090591e7fffb48be72bd734" target="_top" xlink:title="Gets a solution identified by its Id.">
<polygon fill="white" stroke="black" points="197.5,-252 197.5,-276 306.5,-276 306.5,-252 197.5,-252"/>
<text text-anchor="middle" x="252" y="-261.2" font-family="Helvetica,sans-Serif" font-size="12.00">Data::getSolution</text>
</a>
</g>
<!-- Node1&#45;&gt;Node3 -->
<g id="edge4" class="edge"><title>Node1&#45;&gt;Node3</title>
<path fill="none" stroke="midnightblue" d="M89.1602,-171.171C109.151,-189.099 148.984,-222.674 188,-243 191.675,-244.915 195.559,-246.702 199.524,-248.36"/>
<polygon fill="midnightblue" stroke="midnightblue" points="198.272,-251.628 208.861,-251.993 200.811,-245.105 198.272,-251.628"/>
</g>
<!-- Node4 -->
<g id="node7" class="node"><title>Node4</title>
<a xlink:href="a00013.html#a7e480d4e590046701d82e74491ff944a" target="_top" xlink:title="Gets type of the solution.">
<polygon fill="white" stroke="black" points="197,-210 197,-234 307,-234 307,-210 197,-210"/>
<text text-anchor="middle" x="252" y="-219.2" font-family="Helvetica,sans-Serif" font-size="12.00">Solution::getType</text>
</a>
</g>
<!-- Node1&#45;&gt;Node4 -->
<g id="edge6" class="edge"><title>Node1&#45;&gt;Node4</title>
<path fill="none" stroke="midnightblue" d="M107.253,-171.119C129.646,-179.704 160.571,-191.362 188,-201 193.442,-202.912 199.163,-204.867 204.854,-206.778"/>
<polygon fill="midnightblue" stroke="midnightblue" points="203.754,-210.1 214.347,-209.935 205.963,-203.458 203.754,-210.1"/>
</g>
<!-- Node5 -->
<g id="node9" class="node"><title>Node5</title>
<a xlink:href="a00013.html#af9f7e1dfafa0cd431387737664e3ac7e" target="_top" xlink:title="Gets Concentration.">
<polygon fill="white" stroke="black" points="188,-168 188,-192 316,-192 316,-168 188,-168"/>
<text text-anchor="middle" x="252" y="-177.2" font-family="Helvetica,sans-Serif" font-size="12.00">Solution::getConcent</text>
</a>
</g>
<!-- Node1&#45;&gt;Node5 -->
<g id="edge8" class="edge"><title>Node1&#45;&gt;Node5</title>
<path fill="none" stroke="midnightblue" d="M152.173,-168.089C160.627,-169.097 169.229,-170.124 177.66,-171.13"/>
<polygon fill="midnightblue" stroke="midnightblue" points="177.493,-174.635 187.838,-172.344 178.323,-167.684 177.493,-174.635"/>
</g>
<!-- Node6 -->
<g id="node11" class="node"><title>Node6</title>
<a xlink:href="a00013.html#a6cb75c8a1aa020796506362920216816" target="_top" xlink:title="Gets Intensity.">
<polygon fill="white" stroke="black" points="199.5,-126 199.5,-150 304.5,-150 304.5,-126 199.5,-126"/>
<text text-anchor="middle" x="252" y="-135.2" font-family="Helvetica,sans-Serif" font-size="12.00">Solution::getCps</text>
</a>
</g>
<!-- Node1&#45;&gt;Node6 -->
<g id="edge10" class="edge"><title>Node1&#45;&gt;Node6</title>
<path fill="none" stroke="midnightblue" d="M152.173,-149.911C164.46,-148.445 177.06,-146.942 188.992,-145.518"/>
<polygon fill="midnightblue" stroke="midnightblue" points="189.766,-148.951 199.281,-144.29 188.937,-142 189.766,-148.951"/>
</g>
<!-- Node7 -->
<g id="node13" class="node"><title>Node7</title>
<a xlink:href="a00013.html#a08617ee6ca1993e92372e265829508f0" target="_top" xlink:title="Gets the Name.">
<polygon fill="white" stroke="black" points="194,-84 194,-108 310,-108 310,-84 194,-84"/>
<text text-anchor="middle" x="252" y="-93.2" font-family="Helvetica,sans-Serif" font-size="12.00">Solution::getName</text>
</a>
</g>
<!-- Node1&#45;&gt;Node7 -->
<g id="edge12" class="edge"><title>Node1&#45;&gt;Node7</title>
<path fill="none" stroke="midnightblue" d="M107.253,-146.881C129.646,-138.296 160.571,-126.638 188,-117 193.442,-115.088 199.163,-113.133 204.854,-111.222"/>
<polygon fill="midnightblue" stroke="midnightblue" points="205.963,-114.542 214.347,-108.065 203.754,-107.9 205.963,-114.542"/>
</g>
<!-- Node8 -->
<g id="node15" class="node"><title>Node8</title>
<a xlink:href="a00010.html#a987c411b18bf6bd14b73a547649d407c" target="_top" xlink:title="Computes the average of a vector.">
<polygon fill="white" stroke="black" points="202.5,-42 202.5,-66 301.5,-66 301.5,-42 202.5,-42"/>
<text text-anchor="middle" x="252" y="-51.2" font-family="Helvetica,sans-Serif" font-size="12.00">Processing::avr</text>
</a>
</g>
<!-- Node1&#45;&gt;Node8 -->
<g id="edge14" class="edge"><title>Node1&#45;&gt;Node8</title>
<path fill="none" stroke="midnightblue" d="M89.1602,-146.829C109.151,-128.901 148.984,-95.3259 188,-75 191.675,-73.0853 195.559,-71.2984 199.524,-69.6404"/>
<polygon fill="midnightblue" stroke="midnightblue" points="200.811,-72.8952 208.861,-66.0066 198.272,-66.3718 200.811,-72.8952"/>
</g>
<!-- Node9 -->
<g id="node17" class="node"><title>Node9</title>
<a xlink:href="a00010.html#aeabb0a31dafb8c9bcb81749f9b18b469" target="_top" xlink:title="Tests the validit of a number.">
<polygon fill="white" stroke="black" points="192.5,-0 192.5,-24 311.5,-24 311.5,-0 192.5,-0"/>
<text text-anchor="middle" x="252" y="-9.2" font-family="Helvetica,sans-Serif" font-size="12.00">Processing::isValid</text>
</a>
</g>
<!-- Node1&#45;&gt;Node9 -->
<g id="edge16" class="edge"><title>Node1&#45;&gt;Node9</title>
<path fill="none" stroke="midnightblue" d="M83.6688,-146.666C99.8643,-121.609 140.035,-64.4663 188,-33 190.557,-31.3222 193.26,-29.768 196.053,-28.3298"/>
<polygon fill="midnightblue" stroke="midnightblue" points="197.581,-31.4793 205.204,-24.1211 194.656,-25.1196 197.581,-31.4793"/>
</g>
</g>
</svg>
