<?xml version="1.0" encoding="UTF-8" standalone="no"?>
<!DOCTYPE svg PUBLIC "-//W3C//DTD SVG 1.1//EN"
 "http://www.w3.org/Graphics/SVG/1.1/DTD/svg11.dtd">
<!-- Generated by graphviz version 2.26.3 (20100126.1600)
 -->
<!-- Title: Data::containsSolution Pages: 1 -->
<svg width="298pt" height="116pt"
 viewBox="0.00 0.00 298.00 116.00" xmlns="http://www.w3.org/2000/svg" xmlns:xlink="http://www.w3.org/1999/xlink">
<g id="graph1" class="graph" transform="scale(1 1) rotate(0) translate(4 112)">
<title>Data::containsSolution</title>
<polygon fill="white" stroke="white" points="-4,5 -4,-112 295,-112 295,5 -4,5"/>
<!-- Node1 -->
<g id="node1" class="node"><title>Node1</title>
<polygon fill="#bfbfbf" stroke="black" points="0.5,-42 0.5,-66 137.5,-66 137.5,-42 0.5,-42"/>
<text text-anchor="middle" x="69" y="-51.2" font-family="Helvetica,sans-Serif" font-size="12.00">Data::containsSolution</text>
</g>
<!-- Node2 -->
<g id="node3" class="node"><title>Node2</title>
<a xlink:href="a00002.html#a84179b0c71fb3e69cfa177e92004ee79" target="_top" xlink:title="Gets the Number of Solutions.">
<polygon fill="white" stroke="black" points="175,-84 175,-108 289,-108 289,-84 175,-84"/>
<text text-anchor="middle" x="232" y="-93.2" font-family="Helvetica,sans-Serif" font-size="12.00">Data::solutionSize</text>
</a>
</g>
<!-- Node1&#45;&gt;Node2 -->
<g id="edge2" class="edge"><title>Node1&#45;&gt;Node2</title>
<path fill="none" stroke="midnightblue" d="M115.709,-66.0355C134.38,-70.8464 156.05,-76.43 175.588,-81.4645"/>
<polygon fill="midnightblue" stroke="midnightblue" points="174.727,-84.8568 185.284,-83.9627 176.474,-78.0782 174.727,-84.8568"/>
</g>
<!-- Node3 -->
<g id="node5" class="node"><title>Node3</title>
<a xlink:href="a00002.html#a7b1a07606090591e7fffb48be72bd734" target="_top" xlink:title="Gets a solution identified by its Id.">
<polygon fill="white" stroke="black" points="177.5,-42 177.5,-66 286.5,-66 286.5,-42 177.5,-42"/>
<text text-anchor="middle" x="232" y="-51.2" font-family="Helvetica,sans-Serif" font-size="12.00">Data::getSolution</text>
</a>
</g>
<!-- Node1&#45;&gt;Node3 -->
<g id="edge4" class="edge"><title>Node1&#45;&gt;Node3</title>
<path fill="none" stroke="midnightblue" d="M137.654,-54C147.47,-54 157.54,-54 167.276,-54"/>
<polygon fill="midnightblue" stroke="midnightblue" points="167.277,-57.5001 177.277,-54 167.277,-50.5001 167.277,-57.5001"/>
</g>
<!-- Node4 -->
<g id="node7" class="node"><title>Node4</title>
<a xlink:href="a00013.html#a08617ee6ca1993e92372e265829508f0" target="_top" xlink:title="Gets the Name.">
<polygon fill="white" stroke="black" points="174,-0 174,-24 290,-24 290,-0 174,-0"/>
<text text-anchor="middle" x="232" y="-9.2" font-family="Helvetica,sans-Serif" font-size="12.00">Solution::getName</text>
</a>
</g>
<!-- Node1&#45;&gt;Node4 -->
<g id="edge6" class="edge"><title>Node1&#45;&gt;Node4</title>
<path fill="none" stroke="midnightblue" d="M115.709,-41.9645C134.38,-37.1536 156.05,-31.57 175.588,-26.5355"/>
<polygon fill="midnightblue" stroke="midnightblue" points="176.474,-29.9218 185.284,-24.0373 174.727,-23.1432 176.474,-29.9218"/>
</g>
</g>
</svg>
