<?xml version="1.0" encoding="UTF-8" standalone="no"?>
<!DOCTYPE svg PUBLIC "-//W3C//DTD SVG 1.1//EN"
 "http://www.w3.org/Graphics/SVG/1.1/DTD/svg11.dtd">
<!-- Generated by graphviz version 2.26.3 (20100126.1600)
 -->
<!-- Title: Displaying::plotElement Pages: 1 -->
<svg width="486pt" height="658pt"
 viewBox="0.00 0.00 486.00 658.00" xmlns="http://www.w3.org/2000/svg" xmlns:xlink="http://www.w3.org/1999/xlink">
<g id="graph1" class="graph" transform="scale(1 1) rotate(0) translate(4 654)">
<title>Displaying::plotElement</title>
<polygon fill="white" stroke="white" points="-4,5 -4,-654 483,-654 483,5 -4,5"/>
<!-- Node1 -->
<g id="node1" class="node"><title>Node1</title>
<polygon fill="#bfbfbf" stroke="black" points="0.5,-315 0.5,-339 143.5,-339 143.5,-315 0.5,-315"/>
<text text-anchor="middle" x="72" y="-324.2" font-family="Helvetica,sans-Serif" font-size="12.00">Displaying::plotElement</text>
</g>
<!-- Node2 -->
<g id="node3" class="node"><title>Node2</title>
<a xlink:href="a00002.html#a4baa9866aaea800c81e4502b9483e4ec" target="_top" xlink:title="Gets an element identified by its Id.">
<polygon fill="white" stroke="black" points="218,-626 218,-650 298,-650 298,-626 218,-626"/>
<text text-anchor="middle" x="258" y="-635.2" font-family="Helvetica,sans-Serif" font-size="12.00">Data::getIso</text>
</a>
</g>
<!-- Node1&#45;&gt;Node2 -->
<g id="edge2" class="edge"><title>Node1&#45;&gt;Node2</title>
<path fill="none" stroke="midnightblue" d="M72.7083,-339.06C75.9743,-383.294 93.4028,-538.144 180,-617 187.858,-624.155 197.898,-628.915 208.141,-632.069"/>
<polygon fill="midnightblue" stroke="midnightblue" points="207.399,-635.493 217.958,-634.628 209.165,-628.719 207.399,-635.493"/>
</g>
<!-- Node3 -->
<g id="node5" class="node"><title>Node3</title>
<a xlink:href="a00005.html#a82faf6c27cd36339a0a12cae9beb89af" target="_top" xlink:title="Gets the complete Name of the istope, used to display the element to HCI.">
<polygon fill="white" stroke="red" points="200,-584 200,-608 316,-608 316,-584 200,-584"/>
<text text-anchor="middle" x="258" y="-593.2" font-family="Helvetica,sans-Serif" font-size="12.00">Element::getName</text>
</a>
</g>
<!-- Node1&#45;&gt;Node3 -->
<g id="edge4" class="edge"><title>Node1&#45;&gt;Node3</title>
<path fill="none" stroke="midnightblue" d="M73.5798,-339.253C79.4428,-379.563 103.71,-509.222 180,-575 183.226,-577.782 186.785,-580.199 190.552,-582.299"/>
<polygon fill="midnightblue" stroke="midnightblue" points="189.128,-585.497 199.661,-586.646 192.143,-579.18 189.128,-585.497"/>
</g>
<!-- Node4 -->
<g id="node7" class="node"><title>Node4</title>
<a xlink:href="a00002.html#a84179b0c71fb3e69cfa177e92004ee79" target="_top" xlink:title="Gets the Number of Solutions.">
<polygon fill="white" stroke="black" points="201,-542 201,-566 315,-566 315,-542 201,-542"/>
<text text-anchor="middle" x="258" y="-551.2" font-family="Helvetica,sans-Serif" font-size="12.00">Data::solutionSize</text>
</a>
</g>
<!-- Node1&#45;&gt;Node4 -->
<g id="edge6" class="edge"><title>Node1&#45;&gt;Node4</title>
<path fill="none" stroke="midnightblue" d="M74.7356,-339.172C83.3982,-374.827 113.663,-479.852 180,-533 183.543,-535.839 187.438,-538.295 191.538,-540.421"/>
<polygon fill="midnightblue" stroke="midnightblue" points="190.23,-543.67 200.787,-544.566 193.093,-537.282 190.23,-543.67"/>
</g>
<!-- Node5 -->
<g id="node9" class="node"><title>Node5</title>
<a xlink:href="a00002.html#a7b1a07606090591e7fffb48be72bd734" target="_top" xlink:title="Gets a solution identified by its Id.">
<polygon fill="white" stroke="black" points="203.5,-500 203.5,-524 312.5,-524 312.5,-500 203.5,-500"/>
<text text-anchor="middle" x="258" y="-509.2" font-family="Helvetica,sans-Serif" font-size="12.00">Data::getSolution</text>
</a>
</g>
<!-- Node1&#45;&gt;Node5 -->
<g id="edge8" class="edge"><title>Node1&#45;&gt;Node5</title>
<path fill="none" stroke="midnightblue" d="M76.4065,-339.06C88.1747,-369.526 123.353,-450.068 180,-491 184.225,-494.053 188.868,-496.662 193.718,-498.892"/>
<polygon fill="midnightblue" stroke="midnightblue" points="192.661,-502.24 203.245,-502.73 195.277,-495.747 192.661,-502.24"/>
</g>
<!-- Node6 -->
<g id="node11" class="node"><title>Node6</title>
<a xlink:href="a00013.html#a7e480d4e590046701d82e74491ff944a" target="_top" xlink:title="Gets type of the solution.">
<polygon fill="white" stroke="black" points="203,-458 203,-482 313,-482 313,-458 203,-458"/>
<text text-anchor="middle" x="258" y="-467.2" font-family="Helvetica,sans-Serif" font-size="12.00">Solution::getType</text>
</a>
</g>
<!-- Node1&#45;&gt;Node6 -->
<g id="edge10" class="edge"><title>Node1&#45;&gt;Node6</title>
<path fill="none" stroke="midnightblue" d="M80.0092,-339.143C96.1585,-362.714 134.954,-414.9 180,-444 186.1,-447.941 192.856,-451.342 199.766,-454.262"/>
<polygon fill="midnightblue" stroke="midnightblue" points="198.649,-457.583 209.238,-457.952 201.191,-451.061 198.649,-457.583"/>
</g>
<!-- Node7 -->
<g id="node13" class="node"><title>Node7</title>
<a xlink:href="a00013.html#a6cb75c8a1aa020796506362920216816" target="_top" xlink:title="Gets Intensity.">
<polygon fill="white" stroke="black" points="372.5,-377 372.5,-401 477.5,-401 477.5,-377 372.5,-377"/>
<text text-anchor="middle" x="425" y="-386.2" font-family="Helvetica,sans-Serif" font-size="12.00">Solution::getCps</text>
</a>
</g>
<!-- Node1&#45;&gt;Node7 -->
<g id="edge12" class="edge"><title>Node1&#45;&gt;Node7</title>
<path fill="none" stroke="midnightblue" d="M82.4351,-339.191C100.133,-358.816 138.21,-396.661 180,-411 246.89,-433.95 329.755,-418.005 379.941,-403.881"/>
<polygon fill="midnightblue" stroke="midnightblue" points="381.209,-407.157 389.832,-401.001 379.252,-400.436 381.209,-407.157"/>
</g>
<!-- Node8 -->
<g id="node15" class="node"><title>Node8</title>
<a xlink:href="a00013.html#af9f7e1dfafa0cd431387737664e3ac7e" target="_top" xlink:title="Gets Concentration.">
<polygon fill="white" stroke="black" points="194,-378 194,-402 322,-402 322,-378 194,-378"/>
<text text-anchor="middle" x="258" y="-387.2" font-family="Helvetica,sans-Serif" font-size="12.00">Solution::getConcent</text>
</a>
</g>
<!-- Node1&#45;&gt;Node8 -->
<g id="edge14" class="edge"><title>Node1&#45;&gt;Node8</title>
<path fill="none" stroke="midnightblue" d="M100.573,-339.085C122.169,-347.979 152.664,-360.034 180,-369 186.446,-371.114 193.241,-373.179 200.023,-375.138"/>
<polygon fill="midnightblue" stroke="midnightblue" points="199.334,-378.58 209.908,-377.926 201.234,-371.843 199.334,-378.58"/>
</g>
<!-- Node9 -->
<g id="node17" class="node"><title>Node9</title>
<a xlink:href="a00013.html#ac0ca8e1256ac9b972eab1f02f11ab8ac" target="_top" xlink:title="Gets Intensity Relative Standard Deviation (%)">
<polygon fill="white" stroke="red" points="192.5,-336 192.5,-360 323.5,-360 323.5,-336 192.5,-336"/>
<text text-anchor="middle" x="258" y="-345.2" font-family="Helvetica,sans-Serif" font-size="12.00">Solution::getCpsRSD</text>
</a>
</g>
<!-- Node1&#45;&gt;Node9 -->
<g id="edge16" class="edge"><title>Node1&#45;&gt;Node9</title>
<path fill="none" stroke="midnightblue" d="M143.646,-335.089C156.324,-336.52 169.562,-338.015 182.346,-339.458"/>
<polygon fill="midnightblue" stroke="midnightblue" points="182.153,-342.959 192.482,-340.603 182.938,-336.003 182.153,-342.959"/>
</g>
<!-- Node10 -->
<g id="node20" class="node"><title>Node10</title>
<a xlink:href="a00013.html#a1adae3ea7b071d2a311b62371b959633" target="_top" xlink:title="Gets Concentration Relative Standard Deviation (%)">
<polygon fill="white" stroke="black" points="180.5,-294 180.5,-318 335.5,-318 335.5,-294 180.5,-294"/>
<text text-anchor="middle" x="258" y="-303.2" font-family="Helvetica,sans-Serif" font-size="12.00">Solution::getConcentRSD</text>
</a>
</g>
<!-- Node1&#45;&gt;Node10 -->
<g id="edge20" class="edge"><title>Node1&#45;&gt;Node10</title>
<path fill="none" stroke="midnightblue" d="M143.646,-318.911C152.346,-317.929 161.309,-316.917 170.208,-315.912"/>
<polygon fill="midnightblue" stroke="midnightblue" points="170.667,-319.383 180.211,-314.783 169.882,-312.427 170.667,-319.383"/>
</g>
<!-- Node11 -->
<g id="node22" class="node"><title>Node11</title>
<a xlink:href="a00013.html#a08617ee6ca1993e92372e265829508f0" target="_top" xlink:title="Gets the Name.">
<polygon fill="white" stroke="black" points="200,-252 200,-276 316,-276 316,-252 200,-252"/>
<text text-anchor="middle" x="258" y="-261.2" font-family="Helvetica,sans-Serif" font-size="12.00">Solution::getName</text>
</a>
</g>
<!-- Node1&#45;&gt;Node11 -->
<g id="edge22" class="edge"><title>Node1&#45;&gt;Node11</title>
<path fill="none" stroke="midnightblue" d="M100.573,-314.915C122.169,-306.021 152.664,-293.966 180,-285 186.446,-282.886 193.241,-280.821 200.023,-278.862"/>
<polygon fill="midnightblue" stroke="midnightblue" points="201.234,-282.157 209.908,-276.074 199.334,-275.42 201.234,-282.157"/>
</g>
<!-- Node12 -->
<g id="node24" class="node"><title>Node12</title>
<a xlink:href="a00010.html#ad47f77284133874657553b30fa449f68" target="_top" xlink:title="Computes the max of a vector.">
<polygon fill="white" stroke="black" points="205.5,-210 205.5,-234 310.5,-234 310.5,-210 205.5,-210"/>
<text text-anchor="middle" x="258" y="-219.2" font-family="Helvetica,sans-Serif" font-size="12.00">Processing::max</text>
</a>
</g>
<!-- Node1&#45;&gt;Node12 -->
<g id="edge24" class="edge"><title>Node1&#45;&gt;Node12</title>
<path fill="none" stroke="midnightblue" d="M84.1547,-314.832C103.04,-296.597 141.301,-262.271 180,-243 184.943,-240.539 190.211,-238.338 195.586,-236.375"/>
<polygon fill="midnightblue" stroke="midnightblue" points="196.971,-239.602 205.332,-233.095 194.738,-232.968 196.971,-239.602"/>
</g>
<!-- Node13 -->
<g id="node26" class="node"><title>Node13</title>
<a xlink:href="a00010.html#ae5c1570b50e37113591f5cad1343f48b" target="_top" xlink:title="Computes the min of a vector.">
<polygon fill="white" stroke="black" points="207,-168 207,-192 309,-192 309,-168 207,-168"/>
<text text-anchor="middle" x="258" y="-177.2" font-family="Helvetica,sans-Serif" font-size="12.00">Processing::min</text>
</a>
</g>
<!-- Node1&#45;&gt;Node13 -->
<g id="edge26" class="edge"><title>Node1&#45;&gt;Node13</title>
<path fill="none" stroke="midnightblue" d="M78.915,-314.831C93.915,-289.568 131.99,-231.273 180,-201 185.294,-197.662 191.112,-194.85 197.111,-192.481"/>
<polygon fill="midnightblue" stroke="midnightblue" points="198.376,-195.746 206.638,-189.113 196.043,-189.147 198.376,-195.746"/>
</g>
<!-- Node14 -->
<g id="node28" class="node"><title>Node14</title>
<a xlink:href="a00010.html#a1e247e39fde3f7e1123d0dbdd8275ef0" target="_top" xlink:title="Gets calibration line corresponding to the Id element given.">
<polygon fill="white" stroke="black" points="197,-126 197,-150 319,-150 319,-126 197,-126"/>
<text text-anchor="middle" x="258" y="-135.2" font-family="Helvetica,sans-Serif" font-size="12.00">Processing::getLine</text>
</a>
</g>
<!-- Node1&#45;&gt;Node14 -->
<g id="edge28" class="edge"><title>Node1&#45;&gt;Node14</title>
<path fill="none" stroke="midnightblue" d="M76.3187,-314.648C87.8811,-283.443 122.616,-200.947 180,-159 182.388,-157.254 184.912,-155.654 187.534,-154.186"/>
<polygon fill="midnightblue" stroke="midnightblue" points="189.307,-157.216 196.766,-149.692 186.243,-150.922 189.307,-157.216"/>
</g>
<!-- Node15 -->
<g id="node30" class="node"><title>Node15</title>
<a xlink:href="a00010.html#af0524fbbdf92207a5c735e837d571f71" target="_top" xlink:title="Gets calibration line Error corresponding to the by Id element given.">
<polygon fill="white" stroke="black" points="184.5,-84 184.5,-108 331.5,-108 331.5,-84 184.5,-84"/>
<text text-anchor="middle" x="258" y="-93.2" font-family="Helvetica,sans-Serif" font-size="12.00">Processing::getSquareR</text>
</a>
</g>
<!-- Node1&#45;&gt;Node15 -->
<g id="edge30" class="edge"><title>Node1&#45;&gt;Node15</title>
<path fill="none" stroke="midnightblue" d="M74.5999,-314.853C82.9728,-278.769 112.704,-171.352 180,-117 181.773,-115.568 183.635,-114.233 185.568,-112.989"/>
<polygon fill="midnightblue" stroke="midnightblue" points="187.374,-115.99 194.438,-108.095 183.992,-109.862 187.374,-115.99"/>
</g>
<!-- Node16 -->
<g id="node32" class="node"><title>Node16</title>
<a xlink:href="a00010.html#ae20ae3100fa8fd1578dbe6cbe179e6e5" target="_top" xlink:title="Gets LOD corresponding to the Id element given.">
<polygon fill="white" stroke="black" points="196,-42 196,-66 320,-66 320,-42 196,-42"/>
<text text-anchor="middle" x="258" y="-51.2" font-family="Helvetica,sans-Serif" font-size="12.00">Processing::getLOD</text>
</a>
</g>
<!-- Node1&#45;&gt;Node16 -->
<g id="edge32" class="edge"><title>Node1&#45;&gt;Node16</title>
<path fill="none" stroke="midnightblue" d="M73.4742,-314.839C79.0599,-274.222 102.689,-142.051 180,-75 182.039,-73.2312 184.213,-71.6097 186.49,-70.1233"/>
<polygon fill="midnightblue" stroke="midnightblue" points="188.647,-72.9304 195.711,-65.0344 185.265,-66.8017 188.647,-72.9304"/>
</g>
<!-- Node17 -->
<g id="node34" class="node"><title>Node17</title>
<a xlink:href="a00010.html#a3c8e2bd5d31b4a61b8d1e54f219fa015" target="_top" xlink:title="Gets LOQ corresponding to the Id element given.">
<polygon fill="white" stroke="black" points="196,-0 196,-24 320,-24 320,-0 196,-0"/>
<text text-anchor="middle" x="258" y="-9.2" font-family="Helvetica,sans-Serif" font-size="12.00">Processing::getLOQ</text>
</a>
</g>
<!-- Node1&#45;&gt;Node17 -->
<g id="edge34" class="edge"><title>Node1&#45;&gt;Node17</title>
<path fill="none" stroke="midnightblue" d="M72.6507,-314.778C75.7155,-269.949 92.5311,-113.007 180,-33 182.183,-31.0034 184.535,-29.1933 187.015,-27.5525"/>
<polygon fill="midnightblue" stroke="midnightblue" points="188.852,-30.5354 195.873,-22.6009 185.437,-24.4252 188.852,-30.5354"/>
</g>
<!-- Node9&#45;&gt;Node7 -->
<g id="edge18" class="edge"><title>Node9&#45;&gt;Node7</title>
<path fill="none" stroke="midnightblue" d="M307.202,-360.08C325.637,-364.605 346.771,-369.794 366.002,-374.515"/>
<polygon fill="midnightblue" stroke="midnightblue" points="365.315,-377.951 375.861,-376.936 366.984,-371.153 365.315,-377.951"/>
</g>
</g>
</svg>
