<?xml version="1.0" encoding="UTF-8" standalone="no"?>
<!DOCTYPE svg PUBLIC "-//W3C//DTD SVG 1.1//EN"
 "http://www.w3.org/Graphics/SVG/1.1/DTD/svg11.dtd">
<!-- Generated by graphviz version 2.26.3 (20100126.1600)
 -->
<!-- Title: application.h Pages: 1 -->
<!--zoomable 344 -->
<svg id="main" version="1.1" xmlns="http://www.w3.org/2000/svg" xmlns:xlink="http://www.w3.org/1999/xlink" xml:space="preserve" onload="init(evt)">
        <defs>
                <circle id="rim" cx="0" cy="0" r="7"/>
                <circle id="rim2" cx="0" cy="0" r="3.5"/>
                <g id="zoomPlus">
                        <use xlink:href="#rim" fill="#404040">
                                <set attributeName="fill" to="#808080" begin="zoomplus.mouseover" end="zoomplus.mouseout"/>
                        </use>
                        <path d="M-4,0h8M0,-4v8" fill="none" stroke="white" stroke-width="1.5" pointer-events="none"/>
                </g>
                <g id="zoomMin">
                        <use xlink:href="#rim" fill="#404040">
                                <set attributeName="fill" to="#808080" begin="zoomminus.mouseover" end="zoomminus.mouseout"/>
                        </use>
                        <path d="M-4,0h8" fill="none" stroke="white" stroke-width="1.5" pointer-events="none"/>
                </g>
                <g id="dirArrow">
                        <path fill="none" stroke="white" stroke-width="1.5" d="M0,-3.0v7 M-2.5,-0.5L0,-3.0L2.5,-0.5"/>
                </g>
               <g id="resetDef">
                       <use xlink:href="#rim2" fill="#404040">
                               <set attributeName="fill" to="#808080" begin="reset.mouseover" end="reset.mouseout"/>
                       </use>
               </g>
        </defs>

<script type="text/javascript">
var viewWidth = 1462;
var viewHeight = 344;
var sectionId = 'dynsection-0';
</script>
<script xlink:href="svgpan.js"/>
<svg id="graph" class="graph">
<g id="viewport">
<title>application.h</title>
<polygon fill="white" stroke="white" points="-4,5 -4,-340 1459,-340 1459,5 -4,5"/>
<!-- Node1 -->
<g id="node1" class="node"><title>Node1</title>
<polygon fill="#bfbfbf" stroke="black" points="769.5,-311 769.5,-335 854.5,-335 854.5,-311 769.5,-311"/>
<text text-anchor="middle" x="812" y="-320.2" font-family="Helvetica,sans-Serif" font-size="12.00">application.h</text>
</g>
<!-- Node2 -->
<g id="node3" class="node"><title>Node2</title>
<polygon fill="white" stroke="#bfbfbf" points="726.5,-1 726.5,-25 773.5,-25 773.5,-1 726.5,-1"/>
<text text-anchor="middle" x="750" y="-10.2" font-family="Helvetica,sans-Serif" font-size="12.00">QtGui</text>
</g>
<!-- Node1&#45;&gt;Node2 -->
<g id="edge2" class="edge"><title>Node1&#45;&gt;Node2</title>
<path fill="none" stroke="midnightblue" d="M854.635,-318.737C923.372,-311.357 1055.21,-294.959 1097,-274 1140.28,-252.297 1176,-247.414 1176,-199 1176,-199 1176,-199 1176,-137 1176,-83.2057 1130.39,-83.3259 1081,-62 1027.88,-39.0623 857.01,-22.1526 783.805,-15.7784"/>
<polygon fill="midnightblue" stroke="midnightblue" points="784.001,-12.2824 773.738,-14.9149 783.403,-19.2568 784.001,-12.2824"/>
</g>
<!-- Node3 -->
<g id="node5" class="node"><title>Node3</title>
<polygon fill="white" stroke="#bfbfbf" points="373.5,-1 373.5,-25 428.5,-25 428.5,-1 373.5,-1"/>
<text text-anchor="middle" x="401" y="-10.2" font-family="Helvetica,sans-Serif" font-size="12.00">QtCore</text>
</g>
<!-- Node1&#45;&gt;Node3 -->
<g id="edge4" class="edge"><title>Node1&#45;&gt;Node3</title>
<path fill="none" stroke="midnightblue" d="M769.492,-321.642C624.226,-316.793 153.009,-299.258 90,-274 41.6702,-254.626 0,-251.068 0,-199 0,-199 0,-199 0,-137 0,-61.4181 263.303,-26.9067 363.19,-16.5336"/>
<polygon fill="midnightblue" stroke="midnightblue" points="363.842,-19.9857 373.438,-15.4951 363.136,-13.0213 363.842,-19.9857"/>
</g>
<!-- Node4 -->
<g id="node7" class="node"><title>Node4</title>
<a xlink:href="a00020.html" target="_top" xlink:title="displaying.h">
<polygon fill="white" stroke="red" points="388.5,-249 388.5,-273 469.5,-273 469.5,-249 388.5,-249"/>
<text text-anchor="middle" x="429" y="-258.2" font-family="Helvetica,sans-Serif" font-size="12.00">displaying.h</text>
</a>
</g>
<!-- Node1&#45;&gt;Node4 -->
<g id="edge6" class="edge"><title>Node1&#45;&gt;Node4</title>
<path fill="none" stroke="midnightblue" d="M769.18,-316.068C698.056,-304.555 555.882,-281.54 479.802,-269.224"/>
<polygon fill="midnightblue" stroke="midnightblue" points="479.951,-265.702 469.52,-267.559 478.832,-272.613 479.951,-265.702"/>
</g>
<!-- Node5 -->
<g id="node11" class="node"><title>Node5</title>
<polygon fill="white" stroke="#bfbfbf" points="65.5,-187 65.5,-211 166.5,-211 166.5,-187 65.5,-187"/>
<text text-anchor="middle" x="116" y="-196.2" font-family="Helvetica,sans-Serif" font-size="12.00">ui_application.h</text>
</g>
<!-- Node1&#45;&gt;Node5 -->
<g id="edge72" class="edge"><title>Node1&#45;&gt;Node5</title>
<path fill="none" stroke="midnightblue" d="M769.194,-321.022C659.062,-315.625 368.037,-299.336 275,-274 226.962,-260.918 175.585,-234.056 144.629,-216.286"/>
<polygon fill="midnightblue" stroke="midnightblue" points="146.107,-213.097 135.704,-211.089 142.585,-219.146 146.107,-213.097"/>
</g>
<!-- Node6 -->
<g id="node13" class="node"><title>Node6</title>
<a xlink:href="a00018.html" target="_top" xlink:title="data.h">
<polygon fill="white" stroke="black" points="722,-125 722,-149 772,-149 772,-125 722,-125"/>
<text text-anchor="middle" x="747" y="-134.2" font-family="Helvetica,sans-Serif" font-size="12.00">data.h</text>
</a>
</g>
<!-- Node1&#45;&gt;Node6 -->
<g id="edge62" class="edge"><title>Node1&#45;&gt;Node6</title>
<path fill="none" stroke="midnightblue" d="M839.383,-310.873C887.708,-287.806 979.542,-235.487 941,-186 921.72,-161.245 833.045,-147.027 782.516,-140.802"/>
<polygon fill="midnightblue" stroke="midnightblue" points="782.694,-137.299 772.351,-139.594 781.868,-144.25 782.694,-137.299"/>
</g>
<!-- Node7 -->
<g id="node17" class="node"><title>Node7</title>
<a xlink:href="a00024.html" target="_top" xlink:title="element.h">
<polygon fill="white" stroke="red" points="1003.5,-63 1003.5,-87 1072.5,-87 1072.5,-63 1003.5,-63"/>
<text text-anchor="middle" x="1038" y="-72.2" font-family="Helvetica,sans-Serif" font-size="12.00">element.h</text>
</a>
</g>
<!-- Node1&#45;&gt;Node7 -->
<g id="edge66" class="edge"><title>Node1&#45;&gt;Node7</title>
<path fill="none" stroke="midnightblue" d="M854.512,-319.728C919.325,-313.97 1038.83,-300.089 1072,-274 1104.26,-248.627 1110.34,-225.719 1100,-186 1091.05,-151.609 1068.83,-116.572 1053.58,-95.3045"/>
<polygon fill="midnightblue" stroke="midnightblue" points="1056.27,-93.0572 1047.53,-87.0748 1050.63,-97.2044 1056.27,-93.0572"/>
</g>
<!-- Node8 -->
<g id="node19" class="node"><title>Node8</title>
<a xlink:href="a00036.html" target="_top" xlink:title="solution.h">
<polygon fill="white" stroke="black" points="448,-63 448,-87 516,-87 516,-63 448,-63"/>
<text text-anchor="middle" x="482" y="-72.2" font-family="Helvetica,sans-Serif" font-size="12.00">solution.h</text>
</a>
</g>
<!-- Node1&#45;&gt;Node8 -->
<g id="edge68" class="edge"><title>Node1&#45;&gt;Node8</title>
<path fill="none" stroke="midnightblue" d="M769.345,-321.327C649.522,-316.348 311.626,-300.312 204,-274 135.122,-257.161 96.2038,-271.083 57,-212 12.481,-144.907 320.051,-96.4915 437.621,-80.6192"/>
<polygon fill="midnightblue" stroke="midnightblue" points="438.282,-84.0622 447.732,-79.2714 437.357,-77.1235 438.282,-84.0622"/>
</g>
<!-- Node9 -->
<g id="node24" class="node"><title>Node9</title>
<a xlink:href="a00027.html" target="_top" xlink:title="parser.h">
<polygon fill="white" stroke="black" points="749,-63 749,-87 809,-87 809,-63 749,-63"/>
<text text-anchor="middle" x="779" y="-72.2" font-family="Helvetica,sans-Serif" font-size="12.00">parser.h</text>
</a>
</g>
<!-- Node1&#45;&gt;Node9 -->
<g id="edge64" class="edge"><title>Node1&#45;&gt;Node9</title>
<path fill="none" stroke="midnightblue" d="M854.607,-318.412C944.54,-306.959 1140.76,-271.635 1081,-186 1050.12,-141.757 893.901,-101.084 819.071,-83.7828"/>
<polygon fill="midnightblue" stroke="midnightblue" points="819.602,-80.314 809.074,-81.4987 818.043,-87.1382 819.602,-80.314"/>
</g>
<!-- Node10 -->
<g id="node29" class="node"><title>Node10</title>
<polygon fill="white" stroke="#bfbfbf" points="1069,-1 1069,-25 1131,-25 1131,-1 1069,-1"/>
<text text-anchor="middle" x="1100" y="-10.2" font-family="Helvetica,sans-Serif" font-size="12.00">iostream</text>
</g>
<!-- Node1&#45;&gt;Node10 -->
<g id="edge90" class="edge"><title>Node1&#45;&gt;Node10</title>
<path fill="none" stroke="midnightblue" d="M854.777,-319.815C931.302,-313.585 1088.19,-298.238 1137,-274 1179.79,-252.751 1214,-246.773 1214,-199 1214,-199 1214,-199 1214,-137 1214,-88.412 1165.98,-50.6602 1132.27,-30.1459"/>
<polygon fill="midnightblue" stroke="midnightblue" points="1134.02,-27.1122 1123.62,-25.0639 1130.47,-33.1475 1134.02,-27.1122"/>
</g>
<!-- Node11 -->
<g id="node31" class="node"><title>Node11</title>
<a xlink:href="a00029.html" target="_top" xlink:title="processing.h">
<polygon fill="white" stroke="red" points="987.5,-187 987.5,-211 1072.5,-211 1072.5,-187 987.5,-187"/>
<text text-anchor="middle" x="1030" y="-196.2" font-family="Helvetica,sans-Serif" font-size="12.00">processing.h</text>
</a>
</g>
<!-- Node1&#45;&gt;Node11 -->
<g id="edge70" class="edge"><title>Node1&#45;&gt;Node11</title>
<path fill="none" stroke="midnightblue" d="M854.809,-317.589C889.485,-311.529 938.275,-299.053 974,-274 993.797,-260.117 1009.5,-237.035 1019.18,-220.138"/>
<polygon fill="midnightblue" stroke="midnightblue" points="1022.44,-221.472 1024.17,-211.02 1016.3,-218.113 1022.44,-221.472"/>
</g>
<!-- Node12 -->
<g id="node37" class="node"><title>Node12</title>
<polygon fill="white" stroke="#bfbfbf" points="183.5,-187 183.5,-211 228.5,-211 228.5,-187 183.5,-187"/>
<text text-anchor="middle" x="206" y="-196.2" font-family="Helvetica,sans-Serif" font-size="12.00">qwt.h</text>
</g>
<!-- Node1&#45;&gt;Node12 -->
<g id="edge76" class="edge"><title>Node1&#45;&gt;Node12</title>
<path fill="none" stroke="midnightblue" d="M769.273,-320.977C667.569,-315.786 413.602,-300.504 333,-274 294.004,-261.177 254.045,-235.003 229.621,-217.227"/>
<polygon fill="midnightblue" stroke="midnightblue" points="231.474,-214.244 221.357,-211.099 227.304,-219.867 231.474,-214.244"/>
</g>
<!-- Node13 -->
<g id="node39" class="node"><title>Node13</title>
<polygon fill="white" stroke="#bfbfbf" points="245.5,-187 245.5,-211 316.5,-211 316.5,-187 245.5,-187"/>
<text text-anchor="middle" x="281" y="-196.2" font-family="Helvetica,sans-Serif" font-size="12.00">qwt_plot.h</text>
</g>
<!-- Node1&#45;&gt;Node13 -->
<g id="edge78" class="edge"><title>Node1&#45;&gt;Node13</title>
<path fill="none" stroke="midnightblue" d="M769.443,-321.035C674.892,-316.211 450.166,-302.077 380,-274 348.469,-261.383 318.263,-235.902 299.687,-218.162"/>
<polygon fill="midnightblue" stroke="midnightblue" points="302.061,-215.589 292.468,-211.093 297.164,-220.59 302.061,-215.589"/>
</g>
<!-- Node14 -->
<g id="node41" class="node"><title>Node14</title>
<polygon fill="white" stroke="#bfbfbf" points="466,-187 466,-211 564,-211 564,-187 466,-187"/>
<text text-anchor="middle" x="515" y="-196.2" font-family="Helvetica,sans-Serif" font-size="12.00">qwt_plot_grid.h</text>
</g>
<!-- Node1&#45;&gt;Node14 -->
<g id="edge80" class="edge"><title>Node1&#45;&gt;Node14</title>
<path fill="none" stroke="midnightblue" d="M783.253,-310.998C729.471,-288.544 613.64,-240.183 553.304,-214.992"/>
<polygon fill="midnightblue" stroke="midnightblue" points="554.34,-211.632 543.763,-211.009 551.643,-218.092 554.34,-211.632"/>
</g>
<!-- Node15 -->
<g id="node43" class="node"><title>Node15</title>
<polygon fill="white" stroke="#bfbfbf" points="581.5,-187 581.5,-211 688.5,-211 688.5,-187 581.5,-187"/>
<text text-anchor="middle" x="635" y="-196.2" font-family="Helvetica,sans-Serif" font-size="12.00">qwt_plot_curve.h</text>
</g>
<!-- Node1&#45;&gt;Node15 -->
<g id="edge82" class="edge"><title>Node1&#45;&gt;Node15</title>
<path fill="none" stroke="midnightblue" d="M794.706,-310.885C763.512,-289.031 697.667,-242.903 661.015,-217.225"/>
<polygon fill="midnightblue" stroke="midnightblue" points="662.562,-214.036 652.364,-211.165 658.546,-219.769 662.562,-214.036"/>
</g>
<!-- Node16 -->
<g id="node45" class="node"><title>Node16</title>
<polygon fill="white" stroke="#bfbfbf" points="706,-187 706,-211 796,-211 796,-187 706,-187"/>
<text text-anchor="middle" x="751" y="-196.2" font-family="Helvetica,sans-Serif" font-size="12.00">qwt_symbol.h</text>
</g>
<!-- Node1&#45;&gt;Node16 -->
<g id="edge84" class="edge"><title>Node1&#45;&gt;Node16</title>
<path fill="none" stroke="midnightblue" d="M805.928,-310.657C795.56,-289.581 774.324,-246.412 761.507,-220.359"/>
<polygon fill="midnightblue" stroke="midnightblue" points="764.602,-218.721 757.047,-211.293 758.321,-221.811 764.602,-218.721"/>
</g>
<!-- Node17 -->
<g id="node47" class="node"><title>Node17</title>
<polygon fill="white" stroke="#bfbfbf" points="814,-187 814,-211 932,-211 932,-187 814,-187"/>
<text text-anchor="middle" x="873" y="-196.2" font-family="Helvetica,sans-Serif" font-size="12.00">qwt_plot_zoomer.h</text>
</g>
<!-- Node1&#45;&gt;Node17 -->
<g id="edge88" class="edge"><title>Node1&#45;&gt;Node17</title>
<path fill="none" stroke="midnightblue" d="M818.072,-310.657C828.44,-289.581 849.676,-246.412 862.493,-220.359"/>
<polygon fill="midnightblue" stroke="midnightblue" points="865.679,-221.811 866.953,-211.293 859.398,-218.721 865.679,-221.811"/>
</g>
<!-- Node18 -->
<g id="node55" class="node"><title>Node18</title>
<a xlink:href="a00031.html" target="_top" xlink:title="qcdialog.h">
<polygon fill="white" stroke="red" points="1242,-249 1242,-273 1314,-273 1314,-249 1242,-249"/>
<text text-anchor="middle" x="1278" y="-258.2" font-family="Helvetica,sans-Serif" font-size="12.00">qcdialog.h</text>
</a>
</g>
<!-- Node1&#45;&gt;Node18 -->
<g id="edge74" class="edge"><title>Node1&#45;&gt;Node18</title>
<path fill="none" stroke="midnightblue" d="M854.511,-319.929C930.121,-314.037 1092.74,-299.425 1228,-274 1229.26,-273.762 1230.54,-273.51 1231.83,-273.247"/>
<polygon fill="midnightblue" stroke="midnightblue" points="1232.81,-276.616 1241.81,-271.032 1231.29,-269.782 1232.81,-276.616"/>
</g>
<!-- Node19 -->
<g id="node62" class="node"><title>Node19</title>
<polygon fill="white" stroke="#bfbfbf" points="1332,-249 1332,-273 1454,-273 1454,-249 1332,-249"/>
<text text-anchor="middle" x="1393" y="-258.2" font-family="Helvetica,sans-Serif" font-size="12.00">qwt_scale_widget.h</text>
</g>
<!-- Node1&#45;&gt;Node19 -->
<g id="edge86" class="edge"><title>Node1&#45;&gt;Node19</title>
<path fill="none" stroke="midnightblue" d="M854.546,-320.193C940.747,-314.23 1142.36,-298.891 1321.81,-274.079"/>
<polygon fill="midnightblue" stroke="midnightblue" points="1322.55,-277.511 1331.97,-272.662 1321.58,-270.578 1322.55,-277.511"/>
</g>
<!-- Node4&#45;&gt;Node2 -->
<g id="edge8" class="edge"><title>Node4&#45;&gt;Node2</title>
<path fill="none" stroke="midnightblue" d="M426.891,-248.975C424.791,-233.16 423.455,-205.141 436,-186 502.549,-84.4557 649.989,-37.2153 716.409,-20.4794"/>
<polygon fill="midnightblue" stroke="midnightblue" points="717.465,-23.8245 726.349,-18.0516 715.804,-17.0244 717.465,-23.8245"/>
</g>
<!-- Node4&#45;&gt;Node3 -->
<g id="edge10" class="edge"><title>Node4&#45;&gt;Node3</title>
<path fill="none" stroke="midnightblue" d="M405.074,-248.838C391.485,-240.501 375.693,-228.046 368,-212 339.372,-152.283 371.044,-72.2061 389.552,-34.4321"/>
<polygon fill="midnightblue" stroke="midnightblue" points="392.749,-35.866 394.146,-25.3637 386.505,-32.7026 392.749,-35.866"/>
</g>
<!-- Node4&#45;&gt;Node5 -->
<g id="edge12" class="edge"><title>Node4&#45;&gt;Node5</title>
<path fill="none" stroke="midnightblue" d="M388.463,-253.52C340.234,-244.545 257.031,-228.826 176.338,-212.247"/>
<polygon fill="midnightblue" stroke="midnightblue" points="177.013,-208.813 166.512,-210.221 175.599,-215.668 177.013,-208.813"/>
</g>
<!-- Node4&#45;&gt;Node6 -->
<g id="edge14" class="edge"><title>Node4&#45;&gt;Node6</title>
<path fill="none" stroke="midnightblue" d="M423.927,-248.743C422.84,-231.861 428.927,-201.756 448,-186 487.223,-153.599 641.097,-141.951 711.612,-138.379"/>
<polygon fill="midnightblue" stroke="midnightblue" points="711.965,-141.866 721.786,-137.891 711.63,-134.874 711.965,-141.866"/>
</g>
<!-- Node4&#45;&gt;Node11 -->
<g id="edge40" class="edge"><title>Node4&#45;&gt;Node11</title>
<path fill="none" stroke="midnightblue" d="M469.561,-257.807C556.245,-250.831 765.915,-233.152 941,-212 952.631,-210.595 965.088,-208.897 976.889,-207.198"/>
<polygon fill="midnightblue" stroke="midnightblue" points="977.664,-210.622 987.053,-205.713 976.652,-203.696 977.664,-210.622"/>
</g>
<!-- Node4&#45;&gt;Node12 -->
<g id="edge50" class="edge"><title>Node4&#45;&gt;Node12</title>
<path fill="none" stroke="midnightblue" d="M388.416,-252.469C351.352,-244.275 294.962,-230.8 238.361,-212.186"/>
<polygon fill="midnightblue" stroke="midnightblue" points="239.134,-208.754 228.54,-208.904 236.915,-215.393 239.134,-208.754"/>
</g>
<!-- Node4&#45;&gt;Node13 -->
<g id="edge52" class="edge"><title>Node4&#45;&gt;Node13</title>
<path fill="none" stroke="midnightblue" d="M400.113,-248.899C376.989,-239.212 344.361,-225.543 319.1,-214.961"/>
<polygon fill="midnightblue" stroke="midnightblue" points="320.39,-211.707 309.814,-211.071 317.685,-218.163 320.39,-211.707"/>
</g>
<!-- Node4&#45;&gt;Node14 -->
<g id="edge54" class="edge"><title>Node4&#45;&gt;Node14</title>
<path fill="none" stroke="midnightblue" d="M445.991,-248.751C458.558,-239.691 475.872,-227.209 490.013,-217.014"/>
<polygon fill="midnightblue" stroke="midnightblue" points="492.272,-219.7 498.337,-211.013 488.178,-214.022 492.272,-219.7"/>
</g>
<!-- Node4&#45;&gt;Node15 -->
<g id="edge56" class="edge"><title>Node4&#45;&gt;Node15</title>
<path fill="none" stroke="midnightblue" d="M469.208,-248.899C502.386,-238.913 549.621,-224.697 585.192,-213.991"/>
<polygon fill="midnightblue" stroke="midnightblue" points="586.327,-217.304 594.894,-211.071 584.309,-210.601 586.327,-217.304"/>
</g>
<!-- Node4&#45;&gt;Node16 -->
<g id="edge58" class="edge"><title>Node4&#45;&gt;Node16</title>
<path fill="none" stroke="midnightblue" d="M469.546,-254.307C520.202,-245.786 609.754,-230.202 696.006,-212.139"/>
<polygon fill="midnightblue" stroke="midnightblue" points="696.898,-215.528 705.961,-210.04 695.454,-208.679 696.898,-215.528"/>
</g>
<!-- Node4&#45;&gt;Node17 -->
<g id="edge60" class="edge"><title>Node4&#45;&gt;Node17</title>
<path fill="none" stroke="midnightblue" d="M469.732,-256.494C537.097,-248.867 676.161,-232.385 803.751,-212.141"/>
<polygon fill="midnightblue" stroke="midnightblue" points="804.376,-215.586 813.698,-210.552 803.271,-208.674 804.376,-215.586"/>
</g>
<!-- Node6&#45;&gt;Node2 -->
<g id="edge16" class="edge"><title>Node6&#45;&gt;Node2</title>
<path fill="none" stroke="midnightblue" d="M744.404,-124.783C741.586,-109.935 737.766,-84.1191 740,-62 740.896,-53.1322 742.681,-43.4971 744.498,-35.136"/>
<polygon fill="midnightblue" stroke="midnightblue" points="747.911,-35.9117 746.753,-25.3804 741.091,-34.3354 747.911,-35.9117"/>
</g>
<!-- Node6&#45;&gt;Node3 -->
<g id="edge18" class="edge"><title>Node6&#45;&gt;Node3</title>
<path fill="none" stroke="midnightblue" d="M721.974,-135.906C656.878,-132.616 484.179,-120.927 439,-88 421.514,-75.2559 411.537,-52.1239 406.236,-34.907"/>
<polygon fill="midnightblue" stroke="midnightblue" points="409.561,-33.7975 403.515,-25.0972 402.815,-35.6689 409.561,-33.7975"/>
</g>
<!-- Node6&#45;&gt;Node4 -->
<g id="edge28" class="edge"><title>Node6&#45;&gt;Node4</title>
<path fill="none" stroke="midnightblue" d="M721.8,-138.34C660.225,-141.866 505.366,-153.481 466,-186 450.205,-199.048 443.316,-221.936 438.596,-239.006"/>
<polygon fill="midnightblue" stroke="midnightblue" points="435.195,-238.17 435.877,-248.743 441.937,-240.053 435.195,-238.17"/>
</g>
<!-- Node6&#45;&gt;Node7 -->
<g id="edge20" class="edge"><title>Node6&#45;&gt;Node7</title>
<path fill="none" stroke="midnightblue" d="M772.062,-131.66C821.296,-121.171 931.229,-97.7486 993.233,-84.538"/>
<polygon fill="midnightblue" stroke="midnightblue" points="994.073,-87.9377 1003.12,-82.4306 992.614,-81.0914 994.073,-87.9377"/>
</g>
<!-- Node6&#45;&gt;Node8 -->
<g id="edge22" class="edge"><title>Node6&#45;&gt;Node8</title>
<path fill="none" stroke="midnightblue" d="M721.591,-131.055C676.467,-120.498 581.851,-98.3614 525.968,-85.2868"/>
<polygon fill="midnightblue" stroke="midnightblue" points="526.539,-81.826 516.004,-82.9558 524.944,-88.6419 526.539,-81.826"/>
</g>
<!-- Node6&#45;&gt;Node9 -->
<g id="edge30" class="edge"><title>Node6&#45;&gt;Node9</title>
<path fill="none" stroke="midnightblue" d="M747.818,-124.751C750.81,-116.514 756.217,-105.448 761.825,-95.8437"/>
<polygon fill="midnightblue" stroke="midnightblue" points="764.877,-97.5629 767.191,-87.2238 758.935,-93.8633 764.877,-97.5629"/>
</g>
<!-- Node8&#45;&gt;Node2 -->
<g id="edge26" class="edge"><title>Node8&#45;&gt;Node2</title>
<path fill="none" stroke="midnightblue" d="M516.039,-65.5766C520.721,-64.3403 525.474,-63.1164 530,-62 595.809,-45.7686 673.284,-29.0689 716.508,-19.9658"/>
<polygon fill="midnightblue" stroke="midnightblue" points="717.408,-23.3533 726.476,-17.8735 715.97,-16.5026 717.408,-23.3533"/>
</g>
<!-- Node8&#45;&gt;Node3 -->
<g id="edge24" class="edge"><title>Node8&#45;&gt;Node3</title>
<path fill="none" stroke="midnightblue" d="M465.997,-62.7508C454.273,-53.7766 438.161,-41.4441 424.912,-31.3031"/>
<polygon fill="midnightblue" stroke="midnightblue" points="426.762,-28.3117 416.694,-25.0128 422.508,-33.8703 426.762,-28.3117"/>
</g>
<!-- Node9&#45;&gt;Node2 -->
<g id="edge34" class="edge"><title>Node9&#45;&gt;Node2</title>
<path fill="none" stroke="midnightblue" d="M773.271,-62.7508C769.497,-54.6836 764.455,-43.9028 760.028,-34.4395"/>
<polygon fill="midnightblue" stroke="midnightblue" points="763.125,-32.7989 755.718,-25.2238 756.784,-35.7648 763.125,-32.7989"/>
</g>
<!-- Node9&#45;&gt;Node3 -->
<g id="edge36" class="edge"><title>Node9&#45;&gt;Node3</title>
<path fill="none" stroke="midnightblue" d="M748.706,-70.0311C680.188,-58.7927 513.46,-31.4458 438.543,-19.1578"/>
<polygon fill="midnightblue" stroke="midnightblue" points="439.036,-15.6919 428.601,-17.5271 437.902,-22.5996 439.036,-15.6919"/>
</g>
<!-- Node9&#45;&gt;Node6 -->
<g id="edge32" class="edge"><title>Node9&#45;&gt;Node6</title>
<path fill="none" stroke="midnightblue" d="M778.191,-87.2238C775.205,-95.4549 769.8,-106.52 764.192,-116.127"/>
<polygon fill="midnightblue" stroke="midnightblue" points="761.138,-114.411 758.826,-124.751 767.081,-118.11 761.138,-114.411"/>
</g>
<!-- Node9&#45;&gt;Node10 -->
<g id="edge38" class="edge"><title>Node9&#45;&gt;Node10</title>
<path fill="none" stroke="midnightblue" d="M809.199,-69.1672C866.976,-58.0078 993.229,-33.6224 1058.73,-20.9708"/>
<polygon fill="midnightblue" stroke="midnightblue" points="1059.55,-24.3779 1068.7,-19.0449 1058.22,-17.5049 1059.55,-24.3779"/>
</g>
<!-- Node11&#45;&gt;Node2 -->
<g id="edge44" class="edge"><title>Node11&#45;&gt;Node2</title>
<path fill="none" stroke="midnightblue" d="M1011.63,-186.796C963.355,-154.729 832.781,-67.9901 776.454,-30.5729"/>
<polygon fill="midnightblue" stroke="midnightblue" points="778.342,-27.625 768.075,-25.0071 774.468,-33.4558 778.342,-27.625"/>
</g>
<!-- Node11&#45;&gt;Node3 -->
<g id="edge42" class="edge"><title>Node11&#45;&gt;Node3</title>
<path fill="none" stroke="midnightblue" d="M987.452,-192.699C913.675,-181.728 764.922,-159.39 713,-150 579.451,-125.848 508.377,-185.528 414,-88 400.657,-74.2115 398.268,-51.9377 398.699,-35.2394"/>
<polygon fill="midnightblue" stroke="midnightblue" points="402.195,-35.409 399.303,-25.2165 395.208,-34.9878 402.195,-35.409"/>
</g>
<!-- Node11&#45;&gt;Node6 -->
<g id="edge48" class="edge"><title>Node11&#45;&gt;Node6</title>
<path fill="none" stroke="midnightblue" d="M987.211,-188.995C982.752,-187.974 978.285,-186.96 974,-186 906.254,-170.826 826.941,-153.895 782.273,-144.437"/>
<polygon fill="midnightblue" stroke="midnightblue" points="782.729,-140.956 772.221,-142.311 781.281,-147.805 782.729,-140.956"/>
</g>
<!-- Node11&#45;&gt;Node10 -->
<g id="edge46" class="edge"><title>Node11&#45;&gt;Node10</title>
<path fill="none" stroke="midnightblue" d="M1036.41,-186.984C1046.9,-166.938 1067.87,-125.196 1081,-88 1087.15,-70.5715 1092.18,-50.2104 1095.52,-35.1046"/>
<polygon fill="midnightblue" stroke="midnightblue" points="1098.98,-35.6609 1097.64,-25.1511 1092.13,-34.2023 1098.98,-35.6609"/>
</g>
</g>
</svg>
        <g id="navigator" transform="translate(0 0)" fill="#404254">
                <rect fill="#f2f5e9" fill-opacity="0.5" stroke="#606060" stroke-width=".5" x="0" y="0" width="60" height="60"/>
                <use id="zoomplus" xlink:href="#zoomPlus" x="17" y="9" onmousedown="handleZoom(evt,'in')"/>
                <use id="zoomminus" xlink:href="#zoomMin" x="42" y="9" onmousedown="handleZoom(evt,'out')"/>
                <use id="reset" xlink:href="#resetDef" x="30" y="36" onmousedown="handleReset()"/>
                <g id="arrowUp" xlink:href="#dirArrow" transform="translate(30 24)" onmousedown="handlePan(0,-1)">
                  <use xlink:href="#rim" fill="#404040">
                        <set attributeName="fill" to="#808080" begin="arrowUp.mouseover" end="arrowUp.mouseout"/>
                  </use>
                  <path fill="none" stroke="white" stroke-width="1.5" d="M0,-3.0v7 M-2.5,-0.5L0,-3.0L2.5,-0.5"/>
                </g>
                <g id="arrowRight" xlink:href="#dirArrow" transform="rotate(90) translate(36 -43)" onmousedown="handlePan(1,0)">
                  <use xlink:href="#rim" fill="#404040">
                        <set attributeName="fill" to="#808080" begin="arrowRight.mouseover" end="arrowRight.mouseout"/>
                  </use>
                  <path fill="none" stroke="white" stroke-width="1.5" d="M0,-3.0v7 M-2.5,-0.5L0,-3.0L2.5,-0.5"/>
                </g>
                <g id="arrowDown" xlink:href="#dirArrow" transform="rotate(180) translate(-30 -48)" onmousedown="handlePan(0,1)">
                  <use xlink:href="#rim" fill="#404040">
                        <set attributeName="fill" to="#808080" begin="arrowDown.mouseover" end="arrowDown.mouseout"/>
                  </use>
                  <path fill="none" stroke="white" stroke-width="1.5" d="M0,-3.0v7 M-2.5,-0.5L0,-3.0L2.5,-0.5"/>
                </g>
                <g id="arrowLeft" xlink:href="#dirArrow" transform="rotate(270) translate(-36 17)" onmousedown="handlePan(-1,0)">
                  <use xlink:href="#rim" fill="#404040">
                        <set attributeName="fill" to="#808080" begin="arrowLeft.mouseover" end="arrowLeft.mouseout"/>
                  </use>
                  <path fill="none" stroke="white" stroke-width="1.5" d="M0,-3.0v7 M-2.5,-0.5L0,-3.0L2.5,-0.5"/>
                </g>
        </g>
        <svg viewBox="0 0 15 15" width="100%" height="30px" preserveAspectRatio="xMaxYMin meet">
         <g id="arrow_out" transform="scale(0.3 0.3)">
          <a xlink:href="a00040_org.svg" target="_base">
           <rect id="button" ry="5" rx="5" y="6" x="6" height="38" width="38"
                fill="#f2f5e9" fill-opacity="0.5" stroke="#606060" stroke-width="1.0"/>
           <path id="arrow"
             d="M 11.500037,31.436501 C 11.940474,20.09759 22.043105,11.32322 32.158766,21.979434 L 37.068811,17.246167 C 37.068811,17.246167 37.088388,32 37.088388,32 L 22.160133,31.978069 C 22.160133,31.978069 26.997745,27.140456 26.997745,27.140456 C 18.528582,18.264221 13.291696,25.230495 11.500037,31.436501 z"
             style="fill:#404040;"/>
          </a>
         </g>
        </svg>
</svg>
