<?xml version="1.0" encoding="UTF-8" standalone="no"?>
<!DOCTYPE svg PUBLIC "-//W3C//DTD SVG 1.1//EN"
 "http://www.w3.org/Graphics/SVG/1.1/DTD/svg11.dtd">
<!-- Generated by graphviz version 2.26.3 (20100126.1600)
 -->
<!-- Title: displaying.cpp Pages: 1 -->
<svg width="168pt" height="96pt"
 viewBox="0.00 0.00 168.00 96.00" xmlns="http://www.w3.org/2000/svg" xmlns:xlink="http://www.w3.org/1999/xlink">
<g id="graph1" class="graph" transform="scale(1 1) rotate(0) translate(4 92)">
<title>displaying.cpp</title>
<polygon fill="white" stroke="white" points="-4,5 -4,-92 165,-92 165,5 -4,5"/>
<!-- Node1 -->
<g id="node1" class="node"><title>Node1</title>
<polygon fill="#bfbfbf" stroke="black" points="37,-63 37,-87 131,-87 131,-63 37,-63"/>
<text text-anchor="middle" x="84" y="-72.2" font-family="Helvetica,sans-Serif" font-size="12.00">displaying.cpp</text>
</g>
<!-- Node2 -->
<g id="node3" class="node"><title>Node2</title>
<a xlink:href="a00020.html" target="_top" xlink:title="displaying.h">
<polygon fill="white" stroke="red" points="-0.5,-1 -0.5,-25 80.5,-25 80.5,-1 -0.5,-1"/>
<text text-anchor="middle" x="40" y="-10.2" font-family="Helvetica,sans-Serif" font-size="12.00">displaying.h</text>
</a>
</g>
<!-- Node1&#45;&gt;Node2 -->
<g id="edge2" class="edge"><title>Node1&#45;&gt;Node2</title>
<path fill="none" stroke="midnightblue" d="M75.307,-62.7508C69.4011,-54.4289 61.4459,-43.2192 54.5818,-33.5471"/>
<polygon fill="midnightblue" stroke="midnightblue" points="57.3167,-31.3532 48.6749,-25.2238 51.6082,-35.4045 57.3167,-31.3532"/>
</g>
<!-- Node3 -->
<g id="node5" class="node"><title>Node3</title>
<polygon fill="white" stroke="#bfbfbf" points="98,-1 98,-25 160,-25 160,-1 98,-1"/>
<text text-anchor="middle" x="129" y="-10.2" font-family="Helvetica,sans-Serif" font-size="12.00">iostream</text>
</g>
<!-- Node1&#45;&gt;Node3 -->
<g id="edge4" class="edge"><title>Node1&#45;&gt;Node3</title>
<path fill="none" stroke="midnightblue" d="M92.8906,-62.7508C98.9307,-54.4289 107.067,-43.2192 114.087,-33.5471"/>
<polygon fill="midnightblue" stroke="midnightblue" points="117.086,-35.3727 120.128,-25.2238 111.421,-31.2609 117.086,-35.3727"/>
</g>
</g>
</svg>
