<?xml version="1.0" encoding="UTF-8" standalone="no"?>
<!DOCTYPE svg PUBLIC "-//W3C//DTD SVG 1.1//EN"
 "http://www.w3.org/Graphics/SVG/1.1/DTD/svg11.dtd">
<!-- Generated by graphviz version 2.26.3 (20100126.1600)
 -->
<!-- Title: Element::getElement Pages: 1 -->
<svg width="312pt" height="74pt"
 viewBox="0.00 0.00 312.00 74.00" xmlns="http://www.w3.org/2000/svg" xmlns:xlink="http://www.w3.org/1999/xlink">
<g id="graph1" class="graph" transform="scale(1 1) rotate(0) translate(4 70)">
<title>Element::getElement</title>
<polygon fill="white" stroke="white" points="-4,5 -4,-70 309,-70 309,5 -4,5"/>
<!-- Node1 -->
<g id="node1" class="node"><title>Node1</title>
<polygon fill="#bfbfbf" stroke="black" points="0,-21 0,-45 128,-45 128,-21 0,-21"/>
<text text-anchor="middle" x="64" y="-30.2" font-family="Helvetica,sans-Serif" font-size="12.00">Element::getElement</text>
</g>
<!-- Node2 -->
<g id="node3" class="node"><title>Node2</title>
<a xlink:href="a00002.html#a6fc1d983c7fa16eebd0d0b12cb505a30" target="_top" xlink:title="Copies data contain from the given parameter.">
<polygon fill="white" stroke="red" points="184.5,-42 184.5,-66 283.5,-66 283.5,-42 184.5,-42"/>
<text text-anchor="middle" x="234" y="-51.2" font-family="Helvetica,sans-Serif" font-size="12.00">Data::copyData</text>
</a>
</g>
<!-- Node1&#45;&gt;Node2 -->
<g id="edge2" class="edge"><title>Node1&#45;&gt;Node2</title>
<path fill="none" stroke="midnightblue" d="M138.42,-42.193C154.005,-44.1183 170.073,-46.1032 184.483,-47.8832"/>
<polygon fill="midnightblue" stroke="midnightblue" points="138.623,-38.6917 128.27,-40.9392 137.765,-45.6389 138.623,-38.6917"/>
</g>
<!-- Node3 -->
<g id="node5" class="node"><title>Node3</title>
<a xlink:href="a00008.html#a8bdd62cece3dc339c2096c85044fad66" target="_top" xlink:title="Parsing Function.">
<polygon fill="white" stroke="black" points="164,-0 164,-24 304,-24 304,-0 164,-0"/>
<text text-anchor="middle" x="234" y="-9.2" font-family="Helvetica,sans-Serif" font-size="12.00">ParserInSTDQC::parse</text>
</a>
</g>
<!-- Node1&#45;&gt;Node3 -->
<g id="edge4" class="edge"><title>Node1&#45;&gt;Node3</title>
<path fill="none" stroke="midnightblue" d="M138.217,-23.832C146.767,-22.7758 155.465,-21.7014 163.957,-20.6523"/>
<polygon fill="midnightblue" stroke="midnightblue" points="137.765,-20.3611 128.27,-25.0608 138.623,-27.3083 137.765,-20.3611"/>
</g>
</g>
</svg>
