<?xml version="1.0" encoding="UTF-8" standalone="no"?>
<!DOCTYPE svg PUBLIC "-//W3C//DTD SVG 1.1//EN"
 "http://www.w3.org/Graphics/SVG/1.1/DTD/svg11.dtd">
<!-- Generated by graphviz version 2.26.3 (20100126.1600)
 -->
<!-- Title: processing.h Pages: 1 -->
<svg width="351pt" height="158pt"
 viewBox="0.00 0.00 351.00 158.00" xmlns="http://www.w3.org/2000/svg" xmlns:xlink="http://www.w3.org/1999/xlink">
<g id="graph1" class="graph" transform="scale(1 1) rotate(0) translate(4 154)">
<title>processing.h</title>
<polygon fill="white" stroke="white" points="-4,5 -4,-154 348,-154 348,5 -4,5"/>
<!-- Node1 -->
<g id="node1" class="node"><title>Node1</title>
<polygon fill="#bfbfbf" stroke="black" points="121.5,-125 121.5,-149 206.5,-149 206.5,-125 121.5,-125"/>
<text text-anchor="middle" x="164" y="-134.2" font-family="Helvetica,sans-Serif" font-size="12.00">processing.h</text>
</g>
<!-- Node2 -->
<g id="node3" class="node"><title>Node2</title>
<polygon fill="white" stroke="#bfbfbf" points="-0.5,-1 -0.5,-25 54.5,-25 54.5,-1 -0.5,-1"/>
<text text-anchor="middle" x="27" y="-10.2" font-family="Helvetica,sans-Serif" font-size="12.00">QtCore</text>
</g>
<!-- Node1&#45;&gt;Node2 -->
<g id="edge2" class="edge"><title>Node1&#45;&gt;Node2</title>
<path fill="none" stroke="midnightblue" d="M121.465,-128.246C83.4947,-119.466 32.0686,-104.855 20,-88 9.07063,-72.7362 12.5999,-51.0071 17.809,-34.8635"/>
<polygon fill="midnightblue" stroke="midnightblue" points="21.2004,-35.7794 21.3396,-25.1855 14.6243,-33.3804 21.2004,-35.7794"/>
</g>
<!-- Node3 -->
<g id="node5" class="node"><title>Node3</title>
<polygon fill="white" stroke="#bfbfbf" points="163.5,-1 163.5,-25 210.5,-25 210.5,-1 163.5,-1"/>
<text text-anchor="middle" x="187" y="-10.2" font-family="Helvetica,sans-Serif" font-size="12.00">QtGui</text>
</g>
<!-- Node1&#45;&gt;Node3 -->
<g id="edge4" class="edge"><title>Node1&#45;&gt;Node3</title>
<path fill="none" stroke="midnightblue" d="M192.783,-124.942C208.004,-116.9 225.3,-104.71 234,-88 244.306,-68.2052 227.791,-46.7314 211.571,-31.8547"/>
<polygon fill="midnightblue" stroke="midnightblue" points="213.611,-28.9928 203.75,-25.1178 209.043,-34.2963 213.611,-28.9928"/>
</g>
<!-- Node4 -->
<g id="node7" class="node"><title>Node4</title>
<polygon fill="white" stroke="#bfbfbf" points="97,-63 97,-87 159,-87 159,-63 97,-63"/>
<text text-anchor="middle" x="128" y="-72.2" font-family="Helvetica,sans-Serif" font-size="12.00">iostream</text>
</g>
<!-- Node1&#45;&gt;Node4 -->
<g id="edge6" class="edge"><title>Node1&#45;&gt;Node4</title>
<path fill="none" stroke="midnightblue" d="M156.888,-124.751C152.154,-116.599 145.812,-105.676 140.276,-96.1411"/>
<polygon fill="midnightblue" stroke="midnightblue" points="143.146,-94.1142 135.098,-87.2238 137.092,-97.6292 143.146,-94.1142"/>
</g>
<!-- Node5 -->
<g id="node9" class="node"><title>Node5</title>
<polygon fill="white" stroke="#bfbfbf" points="176.5,-63 176.5,-87 225.5,-87 225.5,-63 176.5,-63"/>
<text text-anchor="middle" x="201" y="-72.2" font-family="Helvetica,sans-Serif" font-size="12.00">cmath</text>
</g>
<!-- Node1&#45;&gt;Node5 -->
<g id="edge8" class="edge"><title>Node1&#45;&gt;Node5</title>
<path fill="none" stroke="midnightblue" d="M171.31,-124.751C176.226,-116.514 182.83,-105.448 188.561,-95.8437"/>
<polygon fill="midnightblue" stroke="midnightblue" points="191.586,-97.6045 193.705,-87.2238 185.575,-94.0173 191.586,-97.6045"/>
</g>
<!-- Node6 -->
<g id="node11" class="node"><title>Node6</title>
<a xlink:href="a00018.html" target="_top" xlink:title="data.h">
<polygon fill="white" stroke="red" points="29,-63 29,-87 79,-87 79,-63 29,-63"/>
<text text-anchor="middle" x="54" y="-72.2" font-family="Helvetica,sans-Serif" font-size="12.00">data.h</text>
</a>
</g>
<!-- Node1&#45;&gt;Node6 -->
<g id="edge10" class="edge"><title>Node1&#45;&gt;Node6</title>
<path fill="none" stroke="midnightblue" d="M142.53,-124.899C125.949,-115.553 102.793,-102.502 84.3226,-92.0909"/>
<polygon fill="midnightblue" stroke="midnightblue" points="85.8462,-88.932 75.4161,-87.0709 82.4091,-95.0301 85.8462,-88.932"/>
</g>
<!-- Node7 -->
<g id="node15" class="node"><title>Node7</title>
<a xlink:href="a00034.html" target="_top" xlink:title="regline.h">
<polygon fill="white" stroke="black" points="280.5,-63 280.5,-87 343.5,-87 343.5,-63 280.5,-63"/>
<text text-anchor="middle" x="312" y="-72.2" font-family="Helvetica,sans-Serif" font-size="12.00">regline.h</text>
</a>
</g>
<!-- Node1&#45;&gt;Node7 -->
<g id="edge16" class="edge"><title>Node1&#45;&gt;Node7</title>
<path fill="none" stroke="midnightblue" d="M192.887,-124.899C216.011,-115.212 248.639,-101.543 273.9,-90.9609"/>
<polygon fill="midnightblue" stroke="midnightblue" points="275.315,-94.163 283.186,-87.0709 272.61,-87.7066 275.315,-94.163"/>
</g>
<!-- Node6&#45;&gt;Node2 -->
<g id="edge14" class="edge"><title>Node6&#45;&gt;Node2</title>
<path fill="none" stroke="midnightblue" d="M48.6657,-62.7508C45.1525,-54.6836 40.4577,-43.9028 36.3366,-34.4395"/>
<polygon fill="midnightblue" stroke="midnightblue" points="39.5249,-32.9947 32.3232,-25.2238 33.1071,-35.7896 39.5249,-32.9947"/>
</g>
<!-- Node6&#45;&gt;Node3 -->
<g id="edge12" class="edge"><title>Node6&#45;&gt;Node3</title>
<path fill="none" stroke="midnightblue" d="M79.0163,-63.3383C100.312,-53.411 131.058,-39.0783 154.3,-28.2436"/>
<polygon fill="midnightblue" stroke="midnightblue" points="155.851,-31.3825 163.435,-23.9851 152.893,-25.038 155.851,-31.3825"/>
</g>
</g>
</svg>
