<?xml version="1.0" encoding="UTF-8" standalone="no"?>
<!DOCTYPE svg PUBLIC "-//W3C//DTD SVG 1.1//EN"
 "http://www.w3.org/Graphics/SVG/1.1/DTD/svg11.dtd">
<!-- Generated by graphviz version 2.26.3 (20100126.1600)
 -->
<!-- Title: ParserInSTDQC Pages: 1 -->
<svg width="112pt" height="192pt"
 viewBox="0.00 0.00 112.00 192.00" xmlns="http://www.w3.org/2000/svg" xmlns:xlink="http://www.w3.org/1999/xlink">
<g id="graph1" class="graph" transform="scale(1 1) rotate(0) translate(4 188)">
<title>ParserInSTDQC</title>
<polygon fill="white" stroke="white" points="-4,5 -4,-188 109,-188 109,5 -4,5"/>
<!-- Node1 -->
<g id="node1" class="node"><title>Node1</title>
<polygon fill="#bfbfbf" stroke="black" points="0,-1 0,-73 104,-73 104,-1 0,-1"/>
<text text-anchor="middle" x="52" y="-58.2" font-family="Helvetica,sans-Serif" font-size="12.00">ParserInSTDQC</text>
<polyline fill="none" stroke="black" points="0,-49 104,-49 "/>
<text text-anchor="middle" x="52" y="-34.2" font-family="Helvetica,sans-Serif" font-size="12.00"> </text>
<polyline fill="none" stroke="black" points="0,-25 104,-25 "/>
<text text-anchor="start" x="8" y="-10.2" font-family="Helvetica,sans-Serif" font-size="12.00">+ parse()</text>
</g>
<!-- Node2 -->
<g id="node2" class="node"><title>Node2</title>
<a xlink:href="a00006.html" target="_top" xlink:title="{Parser\n||+ parse()\l}">
<polygon fill="white" stroke="black" points="20,-111 20,-183 84,-183 84,-111 20,-111"/>
<text text-anchor="middle" x="52" y="-168.2" font-family="Helvetica,sans-Serif" font-size="12.00">Parser</text>
<polyline fill="none" stroke="black" points="20,-159 84,-159 "/>
<text text-anchor="middle" x="52" y="-144.2" font-family="Helvetica,sans-Serif" font-size="12.00"> </text>
<polyline fill="none" stroke="black" points="20,-135 84,-135 "/>
<text text-anchor="start" x="28" y="-120.2" font-family="Helvetica,sans-Serif" font-size="12.00">+ parse()</text>
</a>
</g>
<!-- Node2&#45;&gt;Node1 -->
<g id="edge2" class="edge"><title>Node2&#45;&gt;Node1</title>
<path fill="none" stroke="midnightblue" d="M52,-100.752C52,-91.5127 52,-81.9353 52,-73.099"/>
<polygon fill="none" stroke="midnightblue" points="48.5001,-100.982 52,-110.982 55.5001,-100.982 48.5001,-100.982"/>
</g>
</g>
</svg>
