<?xml version="1.0" encoding="UTF-8" standalone="no"?>
<!DOCTYPE svg PUBLIC "-//W3C//DTD SVG 1.1//EN"
 "http://www.w3.org/Graphics/SVG/1.1/DTD/svg11.dtd">
<!-- Generated by graphviz version 2.26.3 (20100126.1600)
 -->
<!-- Title: Application::run Pages: 1 -->
<svg width="628pt" height="1046pt"
 viewBox="0.00 0.00 628.00 1046.00" xmlns="http://www.w3.org/2000/svg" xmlns:xlink="http://www.w3.org/1999/xlink">
<g id="graph1" class="graph" transform="scale(1 1) rotate(0) translate(4 1042)">
<title>Application::run</title>
<polygon fill="white" stroke="white" points="-4,5 -4,-1042 625,-1042 625,5 -4,5"/>
<!-- Node1 -->
<g id="node1" class="node"><title>Node1</title>
<polygon fill="#bfbfbf" stroke="black" points="0,-509 0,-533 100,-533 100,-509 0,-509"/>
<text text-anchor="middle" x="50" y="-518.2" font-family="Helvetica,sans-Serif" font-size="12.00">Application::run</text>
</g>
<!-- Node2 -->
<g id="node3" class="node"><title>Node2</title>
<a xlink:href="a00002.html#ab93d5c2184e3e548e970506dddfcb9eb" target="_top" xlink:title="Loads a specific parser used to proceed the Data.">
<polygon fill="white" stroke="black" points="169.5,-1014 169.5,-1038 276.5,-1038 276.5,-1014 169.5,-1014"/>
<text text-anchor="middle" x="223" y="-1023.2" font-family="Helvetica,sans-Serif" font-size="12.00">Data::loadParser</text>
</a>
</g>
<!-- Node1&#45;&gt;Node2 -->
<g id="edge2" class="edge"><title>Node1&#45;&gt;Node2</title>
<path fill="none" stroke="midnightblue" d="M50.4166,-533.192C52.9904,-601.25 68.8954,-933.672 136,-1005 142.411,-1011.81 150.62,-1016.59 159.427,-1019.9"/>
<polygon fill="midnightblue" stroke="midnightblue" points="158.571,-1023.3 169.16,-1022.94 160.663,-1016.62 158.571,-1023.3"/>
</g>
<!-- Node3 -->
<g id="node5" class="node"><title>Node3</title>
<a xlink:href="a00002.html#a45e4e0eb52a1bcf3b2bdbd689fbd028a" target="_top" xlink:title="Data::executeParsing">
<polygon fill="white" stroke="red" points="157.5,-972 157.5,-996 288.5,-996 288.5,-972 157.5,-972"/>
<text text-anchor="middle" x="223" y="-981.2" font-family="Helvetica,sans-Serif" font-size="12.00">Data::executeParsing</text>
</a>
</g>
<!-- Node1&#45;&gt;Node3 -->
<g id="edge4" class="edge"><title>Node1&#45;&gt;Node3</title>
<path fill="none" stroke="midnightblue" d="M50.7344,-533.198C54.8195,-597.092 76.735,-892.748 136,-958 139.552,-961.911 143.666,-965.244 148.132,-968.082"/>
<polygon fill="midnightblue" stroke="midnightblue" points="146.645,-971.257 157.103,-972.955 149.986,-965.106 146.645,-971.257"/>
</g>
<!-- Node4 -->
<g id="node7" class="node"><title>Node4</title>
<a xlink:href="a00002.html#a417cbf208ccd4334f89ea5f46a2c133e" target="_top" xlink:title="Gets the mapping from LR elements list to all elements list.">
<polygon fill="white" stroke="black" points="366.5,-927 366.5,-951 453.5,-951 453.5,-927 366.5,-927"/>
<text text-anchor="middle" x="410" y="-936.2" font-family="Helvetica,sans-Serif" font-size="12.00">Data::mapLR</text>
</a>
</g>
<!-- Node1&#45;&gt;Node4 -->
<g id="edge6" class="edge"><title>Node1&#45;&gt;Node4</title>
<path fill="none" stroke="midnightblue" d="M50.6765,-533.346C54.3491,-595.382 74.067,-872.19 136,-925 167.998,-952.284 286.2,-948.592 356.472,-943.673"/>
<polygon fill="midnightblue" stroke="midnightblue" points="356.758,-947.162 366.476,-942.942 356.248,-940.18 356.758,-947.162"/>
</g>
<!-- Node5 -->
<g id="node9" class="node"><title>Node5</title>
<a xlink:href="a00002.html#a95e9b3b50f8fff2e29c77ef61d28e115" target="_top" xlink:title="Gets the mapping from MR elements list to all elements list.">
<polygon fill="white" stroke="black" points="365,-877 365,-901 455,-901 455,-877 365,-877"/>
<text text-anchor="middle" x="410" y="-886.2" font-family="Helvetica,sans-Serif" font-size="12.00">Data::mapMR</text>
</a>
</g>
<!-- Node1&#45;&gt;Node5 -->
<g id="edge8" class="edge"><title>Node1&#45;&gt;Node5</title>
<path fill="none" stroke="midnightblue" d="M51.7361,-533.22C59.3355,-585.007 91.2971,-785.651 136,-828 167.023,-857.389 284.131,-875.139 354.817,-883.405"/>
<polygon fill="midnightblue" stroke="midnightblue" points="354.561,-886.898 364.894,-884.556 355.356,-879.944 354.561,-886.898"/>
</g>
<!-- Node6 -->
<g id="node11" class="node"><title>Node6</title>
<a xlink:href="a00002.html#a173a52935021e359de8b33ad8c2c0b6a" target="_top" xlink:title="Gets the mapping from HR elements list to all elements list.">
<polygon fill="white" stroke="black" points="365.5,-818 365.5,-842 454.5,-842 454.5,-818 365.5,-818"/>
<text text-anchor="middle" x="410" y="-827.2" font-family="Helvetica,sans-Serif" font-size="12.00">Data::mapHR</text>
</a>
</g>
<!-- Node1&#45;&gt;Node6 -->
<g id="edge10" class="edge"><title>Node1&#45;&gt;Node6</title>
<path fill="none" stroke="midnightblue" d="M52.1344,-533.019C60.8125,-580.499 94.9488,-754.113 136,-789 196.979,-840.823 294.427,-842.603 355.186,-837.498"/>
<polygon fill="midnightblue" stroke="midnightblue" points="355.716,-840.964 365.349,-836.551 355.067,-833.994 355.716,-840.964"/>
</g>
<!-- Node7 -->
<g id="node13" class="node"><title>Node7</title>
<a xlink:href="a00002.html#a6fc1d983c7fa16eebd0d0b12cb505a30" target="_top" xlink:title="Copies data contain from the given parameter.">
<polygon fill="white" stroke="red" points="173.5,-572 173.5,-596 272.5,-596 272.5,-572 173.5,-572"/>
<text text-anchor="middle" x="223" y="-581.2" font-family="Helvetica,sans-Serif" font-size="12.00">Data::copyData</text>
</a>
</g>
<!-- Node1&#45;&gt;Node7 -->
<g id="edge12" class="edge"><title>Node1&#45;&gt;Node7</title>
<path fill="none" stroke="midnightblue" d="M71.3468,-533.048C88.4126,-542.277 113.175,-554.782 136,-563 144.696,-566.131 154.048,-568.941 163.282,-571.409"/>
<polygon fill="midnightblue" stroke="midnightblue" points="162.663,-574.864 173.219,-573.953 164.399,-568.082 162.663,-574.864"/>
</g>
<!-- Node8 -->
<g id="node15" class="node"><title>Node8</title>
<a xlink:href="a00002.html#acd1f2adc01b25ef7bded9b6d2b331278" target="_top" xlink:title="Gets the Number of elements.">
<polygon fill="white" stroke="black" points="366,-530 366,-554 454,-554 454,-530 366,-530"/>
<text text-anchor="middle" x="410" y="-539.2" font-family="Helvetica,sans-Serif" font-size="12.00">Data::isoSize</text>
</a>
</g>
<!-- Node1&#45;&gt;Node8 -->
<g id="edge106" class="edge"><title>Node1&#45;&gt;Node8</title>
<path fill="none" stroke="midnightblue" d="M50.584,-533.089C53.1188,-570.45 66.4837,-684.349 136,-731 200.214,-774.093 248.31,-777.634 310,-731 356.801,-695.621 315.9,-654.358 346,-604 356.056,-587.176 371.836,-571.818 385.21,-560.596"/>
<polygon fill="midnightblue" stroke="midnightblue" points="387.582,-563.179 393.153,-554.167 383.178,-557.737 387.582,-563.179"/>
</g>
<!-- Node9 -->
<g id="node17" class="node"><title>Node9</title>
<a xlink:href="a00002.html#a84179b0c71fb3e69cfa177e92004ee79" target="_top" xlink:title="Gets the Number of Solutions.">
<polygon fill="white" stroke="black" points="353,-448 353,-472 467,-472 467,-448 353,-448"/>
<text text-anchor="middle" x="410" y="-457.2" font-family="Helvetica,sans-Serif" font-size="12.00">Data::solutionSize</text>
</a>
</g>
<!-- Node1&#45;&gt;Node9 -->
<g id="edge48" class="edge"><title>Node1&#45;&gt;Node9</title>
<path fill="none" stroke="midnightblue" d="M69.3037,-508.876C86.1987,-498.939 111.765,-485.493 136,-479 204.726,-460.587 286.422,-457.184 342.621,-457.548"/>
<polygon fill="midnightblue" stroke="midnightblue" points="342.772,-461.05 352.809,-457.658 342.847,-454.05 342.772,-461.05"/>
</g>
<!-- Node10 -->
<g id="node19" class="node"><title>Node10</title>
<a xlink:href="a00002.html#a7f13913683ead8b0702121ac494f1598" target="_top" xlink:title="Add a solution to the data set.">
<polygon fill="white" stroke="black" points="353.5,-613 353.5,-637 466.5,-637 466.5,-613 353.5,-613"/>
<text text-anchor="middle" x="410" y="-622.2" font-family="Helvetica,sans-Serif" font-size="12.00">Data::addSolution</text>
</a>
</g>
<!-- Node1&#45;&gt;Node10 -->
<g id="edge70" class="edge"><title>Node1&#45;&gt;Node10</title>
<path fill="none" stroke="midnightblue" d="M52.4501,-533.149C61.7657,-578.008 96.4591,-733.166 136,-761 199.237,-805.514 240.996,-795.912 310,-761 357.665,-736.884 388.15,-678.164 401.755,-646.342"/>
<polygon fill="midnightblue" stroke="midnightblue" points="405.017,-647.613 405.58,-637.033 398.542,-644.953 405.017,-647.613"/>
</g>
<!-- Node11 -->
<g id="node21" class="node"><title>Node11</title>
<a xlink:href="a00013.html#a7e480d4e590046701d82e74491ff944a" target="_top" xlink:title="Gets type of the solution.">
<polygon fill="white" stroke="black" points="510,-408 510,-432 620,-432 620,-408 510,-408"/>
<text text-anchor="middle" x="565" y="-417.2" font-family="Helvetica,sans-Serif" font-size="12.00">Solution::getType</text>
</a>
</g>
<!-- Node1&#45;&gt;Node11 -->
<g id="edge52" class="edge"><title>Node1&#45;&gt;Node11</title>
<path fill="none" stroke="midnightblue" d="M50.5979,-508.972C53.9356,-447.302 72.4628,-167.462 136,-116 195.373,-67.911 420.129,-124.819 474,-179 536.328,-241.686 556.657,-351.238 562.687,-397.919"/>
<polygon fill="midnightblue" stroke="midnightblue" points="559.215,-398.363 563.875,-407.877 566.165,-397.533 559.215,-398.363"/>
</g>
<!-- Node12 -->
<g id="node23" class="node"><title>Node12</title>
<a xlink:href="a00002.html#a7b1a07606090591e7fffb48be72bd734" target="_top" xlink:title="Gets a solution identified by its Id.">
<polygon fill="white" stroke="black" points="355.5,-367 355.5,-391 464.5,-391 464.5,-367 355.5,-367"/>
<text text-anchor="middle" x="410" y="-376.2" font-family="Helvetica,sans-Serif" font-size="12.00">Data::getSolution</text>
</a>
</g>
<!-- Node1&#45;&gt;Node12 -->
<g id="edge50" class="edge"><title>Node1&#45;&gt;Node12</title>
<path fill="none" stroke="midnightblue" d="M51.6761,-508.858C58.9191,-458.346 89.2887,-265.87 136,-231 197.971,-184.739 245.346,-188.569 310,-231 343.617,-253.062 323.514,-280.666 346,-314 357.588,-331.178 374.049,-347.777 387.375,-359.901"/>
<polygon fill="midnightblue" stroke="midnightblue" points="385.392,-362.82 395.196,-366.836 390.036,-357.583 385.392,-362.82"/>
</g>
<!-- Node13 -->
<g id="node26" class="node"><title>Node13</title>
<a xlink:href="a00013.html#af9f7e1dfafa0cd431387737664e3ac7e" target="_top" xlink:title="Gets Concentration.">
<polygon fill="white" stroke="black" points="346,-281 346,-305 474,-305 474,-281 346,-281"/>
<text text-anchor="middle" x="410" y="-290.2" font-family="Helvetica,sans-Serif" font-size="12.00">Solution::getConcent</text>
</a>
</g>
<!-- Node1&#45;&gt;Node13 -->
<g id="edge108" class="edge"><title>Node1&#45;&gt;Node13</title>
<path fill="none" stroke="midnightblue" d="M50.8621,-508.857C55.2981,-450.225 77.6442,-197.348 136,-151 196.557,-102.904 241.357,-115.384 310,-151 359.026,-176.437 389.091,-238.174 402.229,-271.24"/>
<polygon fill="midnightblue" stroke="midnightblue" points="399.073,-272.786 405.902,-280.886 405.614,-270.295 399.073,-272.786"/>
</g>
<!-- Node14 -->
<g id="node28" class="node"><title>Node14</title>
<a xlink:href="a00010.html#aa96b9a34a756e39a01581416199328d3" target="_top" xlink:title="Applies Internal Standard Correction.">
<polygon fill="white" stroke="red" points="150,-530 150,-554 296,-554 296,-530 150,-530"/>
<text text-anchor="middle" x="223" y="-539.2" font-family="Helvetica,sans-Serif" font-size="12.00">Processing::correctionIS</text>
</a>
</g>
<!-- Node1&#45;&gt;Node14 -->
<g id="edge28" class="edge"><title>Node1&#45;&gt;Node14</title>
<path fill="none" stroke="midnightblue" d="M100.039,-527.074C112.444,-528.58 126.074,-530.234 139.603,-531.877"/>
<polygon fill="midnightblue" stroke="midnightblue" points="139.558,-535.397 149.907,-533.127 140.401,-528.448 139.558,-535.397"/>
</g>
<!-- Node15 -->
<g id="node33" class="node"><title>Node15</title>
<a xlink:href="a00002.html#a1dc68fd430aa57511027d2d5da3716d9" target="_top" xlink:title="Gets the mapping from BLK list to Solutions list.">
<polygon fill="white" stroke="black" points="175.5,-42 175.5,-66 270.5,-66 270.5,-42 175.5,-42"/>
<text text-anchor="middle" x="223" y="-51.2" font-family="Helvetica,sans-Serif" font-size="12.00">Data::mapBLK</text>
</a>
</g>
<!-- Node1&#45;&gt;Node15 -->
<g id="edge36" class="edge"><title>Node1&#45;&gt;Node15</title>
<path fill="none" stroke="midnightblue" d="M50.7177,-508.691C54.7176,-444.218 76.2693,-145.878 136,-80 143.862,-71.3287 154.482,-65.5002 165.599,-61.5949"/>
<polygon fill="midnightblue" stroke="midnightblue" points="166.872,-64.8672 175.44,-58.635 164.855,-58.1638 166.872,-64.8672"/>
</g>
<!-- Node16 -->
<g id="node35" class="node"><title>Node16</title>
<a xlink:href="a00010.html#a409d37b18750104739ee43e169371a0b" target="_top" xlink:title="Applies Blank Substraction.">
<polygon fill="white" stroke="red" points="145.5,-656 145.5,-680 300.5,-680 300.5,-656 145.5,-656"/>
<text text-anchor="middle" x="223" y="-665.2" font-family="Helvetica,sans-Serif" font-size="12.00">Processing::subtructBlank</text>
</a>
</g>
<!-- Node1&#45;&gt;Node16 -->
<g id="edge38" class="edge"><title>Node1&#45;&gt;Node16</title>
<path fill="none" stroke="midnightblue" d="M54.7571,-533.269C65.2834,-558.72 93.0674,-617.352 136,-647 138.397,-648.655 140.91,-650.181 143.509,-651.587"/>
<polygon fill="midnightblue" stroke="midnightblue" points="142.097,-654.791 152.631,-655.921 145.1,-648.468 142.097,-654.791"/>
</g>
<!-- Node17 -->
<g id="node44" class="node"><title>Node17</title>
<a xlink:href="a00002.html#a6ff99fcec4f0387958fff773969de591" target="_top" xlink:title="Adds a calculated Blank Solution.">
<polygon fill="white" stroke="red" points="166,-614 166,-638 280,-638 280,-614 166,-614"/>
<text text-anchor="middle" x="223" y="-623.2" font-family="Helvetica,sans-Serif" font-size="12.00">Data::addBLKmoy</text>
</a>
</g>
<!-- Node1&#45;&gt;Node17 -->
<g id="edge54" class="edge"><title>Node1&#45;&gt;Node17</title>
<path fill="none" stroke="midnightblue" d="M58.8379,-533.086C72.993,-551.533 102.578,-586.513 136,-605 142.263,-608.464 149.089,-611.362 156.072,-613.784"/>
<polygon fill="midnightblue" stroke="midnightblue" points="155.065,-617.136 165.654,-616.802 157.167,-610.46 155.065,-617.136"/>
</g>
<!-- Node18 -->
<g id="node50" class="node"><title>Node18</title>
<a xlink:href="a00002.html#a735dfe532fe9312409a554618267ae35" target="_top" xlink:title="Return the id of first occurence of a solution with the given name or &#45;1.">
<polygon fill="white" stroke="red" points="154.5,-366 154.5,-390 291.5,-390 291.5,-366 154.5,-366"/>
<text text-anchor="middle" x="223" y="-375.2" font-family="Helvetica,sans-Serif" font-size="12.00">Data::containsSolution</text>
</a>
</g>
<!-- Node1&#45;&gt;Node18 -->
<g id="edge64" class="edge"><title>Node1&#45;&gt;Node18</title>
<path fill="none" stroke="midnightblue" d="M55.0347,-508.741C65.8956,-483.895 93.9888,-427.545 136,-399 138.916,-397.019 141.998,-395.224 145.194,-393.598"/>
<polygon fill="midnightblue" stroke="midnightblue" points="146.765,-396.729 154.461,-389.447 143.904,-390.341 146.765,-396.729"/>
</g>
<!-- Node19 -->
<g id="node55" class="node"><title>Node19</title>
<a xlink:href="a00013.html#a3cb9b6ba7e4a50808cb8b2571c3871c7" target="_top" xlink:title="Create a copy of this.">
<polygon fill="white" stroke="black" points="177,-0 177,-24 269,-24 269,-0 177,-0"/>
<text text-anchor="middle" x="223" y="-9.2" font-family="Helvetica,sans-Serif" font-size="12.00">Solution::copy</text>
</a>
</g>
<!-- Node1&#45;&gt;Node19 -->
<g id="edge72" class="edge"><title>Node1&#45;&gt;Node19</title>
<path fill="none" stroke="midnightblue" d="M50.401,-508.708C52.8896,-440.093 68.4085,-104.947 136,-33 144.228,-24.2413 155.426,-18.8581 167.048,-15.6103"/>
<polygon fill="midnightblue" stroke="midnightblue" points="167.892,-19.0078 176.854,-13.3572 166.324,-12.1855 167.892,-19.0078"/>
</g>
<!-- Node20 -->
<g id="node57" class="node"><title>Node20</title>
<a xlink:href="a00010.html#aab8fde82e21bbe6c59a743bac8480c49" target="_top" xlink:title="Computes calibration lines.">
<polygon fill="white" stroke="red" points="154,-698 154,-722 292,-722 292,-698 154,-698"/>
<text text-anchor="middle" x="223" y="-707.2" font-family="Helvetica,sans-Serif" font-size="12.00">Processing::calibration</text>
</a>
</g>
<!-- Node1&#45;&gt;Node20 -->
<g id="edge74" class="edge"><title>Node1&#45;&gt;Node20</title>
<path fill="none" stroke="midnightblue" d="M52.5973,-533.397C59.8294,-564.708 83.2362,-647.433 136,-689 138.769,-691.182 141.731,-693.141 144.829,-694.901"/>
<polygon fill="midnightblue" stroke="midnightblue" points="143.358,-698.078 153.876,-699.352 146.448,-691.797 143.358,-698.078"/>
</g>
<!-- Node21 -->
<g id="node60" class="node"><title>Node21</title>
<a xlink:href="a00010.html#ac0d956c3e8bdbc42a3b24975b25c6dfd" target="_top" xlink:title="Computes concentrations on data container.">
<polygon fill="white" stroke="red" points="136.5,-408 136.5,-432 309.5,-432 309.5,-408 136.5,-408"/>
<text text-anchor="middle" x="223" y="-417.2" font-family="Helvetica,sans-Serif" font-size="12.00">Processing::computeConcent</text>
</a>
</g>
<!-- Node1&#45;&gt;Node21 -->
<g id="edge78" class="edge"><title>Node1&#45;&gt;Node21</title>
<path fill="none" stroke="midnightblue" d="M60.7416,-508.817C75.9355,-492.301 105.292,-462.928 136,-446 143.442,-441.898 151.608,-438.37 159.862,-435.357"/>
<polygon fill="midnightblue" stroke="midnightblue" points="161.219,-438.593 169.555,-432.053 158.96,-431.967 161.219,-438.593"/>
</g>
<!-- Node22 -->
<g id="node66" class="node"><title>Node22</title>
<a xlink:href="a00010.html#ac6f31cca949dba1d4aa18b746311dd2f" target="_top" xlink:title="Computes limits &#45; of detection (LOD), of Quantification (LOQ)">
<polygon fill="white" stroke="red" points="143,-488 143,-512 303,-512 303,-488 143,-488"/>
<text text-anchor="middle" x="223" y="-497.2" font-family="Helvetica,sans-Serif" font-size="12.00">Processing::computeLimits</text>
</a>
</g>
<!-- Node1&#45;&gt;Node22 -->
<g id="edge88" class="edge"><title>Node1&#45;&gt;Node22</title>
<path fill="none" stroke="midnightblue" d="M100.039,-514.926C110.277,-513.683 121.349,-512.339 132.51,-510.984"/>
<polygon fill="midnightblue" stroke="midnightblue" points="133.258,-514.419 142.763,-509.74 132.414,-507.47 133.258,-514.419"/>
</g>
<!-- Node23 -->
<g id="node70" class="node"><title>Node23</title>
<a xlink:href="a00010.html#a092b32603577be8f4482f2d5d5f7ff30" target="_top" xlink:title="Quality control after data processing.">
<polygon fill="white" stroke="red" points="160,-240 160,-264 286,-264 286,-240 160,-240"/>
<text text-anchor="middle" x="223" y="-249.2" font-family="Helvetica,sans-Serif" font-size="12.00">Processing::passQC</text>
</a>
</g>
<!-- Node1&#45;&gt;Node23 -->
<g id="edge94" class="edge"><title>Node1&#45;&gt;Node23</title>
<path fill="none" stroke="midnightblue" d="M52.6221,-508.748C62.5486,-463.467 99.1314,-306.457 136,-273 140.243,-269.15 145.069,-265.973 150.221,-263.355"/>
<polygon fill="midnightblue" stroke="midnightblue" points="152,-266.4 159.794,-259.223 149.225,-259.973 152,-266.4"/>
</g>
<!-- Node24 -->
<g id="node79" class="node"><title>Node24</title>
<a xlink:href="a00001.html#a9c0b6e60ede4b6f2c60abe874f351994" target="_top" xlink:title="Slot of choosing Internal standard plot plot to diplay.">
<polygon fill="white" stroke="red" points="150,-892 150,-916 296,-916 296,-892 150,-892"/>
<text text-anchor="middle" x="223" y="-901.2" font-family="Helvetica,sans-Serif" font-size="12.00">Application::onISChoice</text>
</a>
</g>
<!-- Node1&#45;&gt;Node24 -->
<g id="edge110" class="edge"><title>Node1&#45;&gt;Node24</title>
<path fill="none" stroke="midnightblue" d="M51.3079,-533.147C57.6207,-589.616 86.6733,-825.935 136,-878 139.197,-881.374 142.811,-884.316 146.705,-886.88"/>
<polygon fill="midnightblue" stroke="midnightblue" points="145.191,-890.045 155.62,-891.912 148.632,-883.949 145.191,-890.045"/>
</g>
<!-- Node25 -->
<g id="node84" class="node"><title>Node25</title>
<a xlink:href="a00003.html#a2eb8d02c398ddd7708260ec230ceafcc" target="_top" xlink:title="Plots Calibration curves.">
<polygon fill="white" stroke="red" points="151.5,-160 151.5,-184 294.5,-184 294.5,-160 151.5,-160"/>
<text text-anchor="middle" x="223" y="-169.2" font-family="Helvetica,sans-Serif" font-size="12.00">Displaying::plotElement</text>
</a>
</g>
<!-- Node1&#45;&gt;Node25 -->
<g id="edge118" class="edge"><title>Node1&#45;&gt;Node25</title>
<path fill="none" stroke="midnightblue" d="M51.6229,-508.955C58.9841,-456.011 90.8424,-244.542 136,-198 139.389,-194.507 143.227,-191.478 147.354,-188.852"/>
<polygon fill="midnightblue" stroke="midnightblue" points="149.1,-191.887 156.185,-184.01 145.734,-185.749 149.1,-191.887"/>
</g>
<!-- Node26 -->
<g id="node90" class="node"><title>Node26</title>
<a xlink:href="a00003.html#a773c819165ab712b4fd073ddddcd8695" target="_top" xlink:title="display output data on the output Table">
<polygon fill="white" stroke="red" points="139,-282 139,-306 307,-306 307,-282 139,-282"/>
<text text-anchor="middle" x="223" y="-291.2" font-family="Helvetica,sans-Serif" font-size="12.00">Displaying::dispTableOutput</text>
</a>
</g>
<!-- Node1&#45;&gt;Node26 -->
<g id="edge128" class="edge"><title>Node1&#45;&gt;Node26</title>
<path fill="none" stroke="midnightblue" d="M51.3016,-508.807C55.7879,-473.097 73.925,-367.934 136,-315 137.552,-313.677 139.173,-312.434 140.853,-311.267"/>
<polygon fill="midnightblue" stroke="midnightblue" points="142.862,-314.145 149.686,-306.04 139.297,-308.121 142.862,-314.145"/>
</g>
<!-- Node27 -->
<g id="node95" class="node"><title>Node27</title>
<a xlink:href="a00003.html#a30730fad4ea063bd1a253de59a279ecc" target="_top" xlink:title="displays input data on the input Table">
<polygon fill="white" stroke="red" points="143.5,-324 143.5,-348 302.5,-348 302.5,-324 143.5,-324"/>
<text text-anchor="middle" x="223" y="-333.2" font-family="Helvetica,sans-Serif" font-size="12.00">Displaying::dispTableInput</text>
</a>
</g>
<!-- Node1&#45;&gt;Node27 -->
<g id="edge136" class="edge"><title>Node1&#45;&gt;Node27</title>
<path fill="none" stroke="midnightblue" d="M52.6917,-508.892C60.1453,-478.314 84.0291,-397.53 136,-357 137.842,-355.564 139.767,-354.224 141.76,-352.974"/>
<polygon fill="midnightblue" stroke="midnightblue" points="143.744,-355.88 150.88,-348.049 140.418,-349.721 143.744,-355.88"/>
</g>
<!-- Node7&#45;&gt;Node8 -->
<g id="edge14" class="edge"><title>Node7&#45;&gt;Node8</title>
<path fill="none" stroke="midnightblue" d="M272.622,-572.855C298.335,-567.08 329.774,-560.019 356.085,-554.109"/>
<polygon fill="midnightblue" stroke="midnightblue" points="356.905,-557.512 365.895,-551.906 355.371,-550.683 356.905,-557.512"/>
</g>
<!-- Node7&#45;&gt;Node9 -->
<g id="edge16" class="edge"><title>Node7&#45;&gt;Node9</title>
<path fill="none" stroke="midnightblue" d="M272.519,-577.641C285.362,-574.53 298.737,-569.898 310,-563 330.966,-550.16 329.08,-538.837 346,-521 359.909,-506.336 376.441,-490.62 389.219,-478.812"/>
<polygon fill="midnightblue" stroke="midnightblue" points="391.63,-481.35 396.632,-472.01 386.897,-476.192 391.63,-481.35"/>
</g>
<!-- Node7&#45;&gt;Node10 -->
<g id="edge18" class="edge"><title>Node7&#45;&gt;Node10</title>
<path fill="none" stroke="midnightblue" d="M272.622,-594.88C294.871,-599.758 321.407,-605.576 345.198,-610.792"/>
<polygon fill="midnightblue" stroke="midnightblue" points="344.688,-614.263 355.206,-612.986 346.187,-607.426 344.688,-614.263"/>
</g>
<!-- Node7&#45;&gt;Node11 -->
<g id="edge24" class="edge"><title>Node7&#45;&gt;Node11</title>
<path fill="none" stroke="midnightblue" d="M272.682,-592.133C326.356,-598.275 412.442,-600.216 474,-563 519.901,-535.25 546.571,-474.522 558.126,-441.845"/>
<polygon fill="midnightblue" stroke="midnightblue" points="561.466,-442.893 561.351,-432.299 554.834,-440.652 561.466,-442.893"/>
</g>
<!-- Node7&#45;&gt;Node12 -->
<g id="edge22" class="edge"><title>Node7&#45;&gt;Node12</title>
<path fill="none" stroke="midnightblue" d="M272.547,-581.147C286.134,-578.123 299.888,-572.66 310,-563 351.495,-523.359 316,-487.921 346,-439 355.956,-422.765 371.456,-408.074 384.708,-397.293"/>
<polygon fill="midnightblue" stroke="midnightblue" points="386.889,-400.031 392.6,-391.107 382.57,-394.522 386.889,-400.031"/>
</g>
<!-- Node7&#45;&gt;Node13 -->
<g id="edge26" class="edge"><title>Node7&#45;&gt;Node13</title>
<path fill="none" stroke="midnightblue" d="M272.774,-581.921C286.531,-578.941 300.322,-573.308 310,-563 373.318,-495.561 303.633,-440.233 346,-358 355.398,-339.759 371.678,-323.332 385.465,-311.555"/>
<polygon fill="midnightblue" stroke="midnightblue" points="387.72,-314.232 393.225,-305.18 383.276,-308.824 387.72,-314.232"/>
</g>
<!-- Node10&#45;&gt;Node11 -->
<g id="edge20" class="edge"><title>Node10&#45;&gt;Node11</title>
<path fill="none" stroke="midnightblue" d="M449.129,-612.914C458.027,-608.868 466.928,-603.643 474,-597 521.217,-552.644 548.084,-478.318 559.081,-441.713"/>
<polygon fill="midnightblue" stroke="midnightblue" points="562.463,-442.62 561.879,-432.041 555.738,-440.675 562.463,-442.62"/>
</g>
<!-- Node14&#45;&gt;Node8 -->
<g id="edge34" class="edge"><title>Node14&#45;&gt;Node8</title>
<path fill="none" stroke="midnightblue" d="M296.103,-542C315.982,-542 337.154,-542 355.784,-542"/>
<polygon fill="midnightblue" stroke="midnightblue" points="355.847,-545.5 365.847,-542 355.847,-538.5 355.847,-545.5"/>
</g>
<!-- Node14&#45;&gt;Node9 -->
<g id="edge30" class="edge"><title>Node14&#45;&gt;Node9</title>
<path fill="none" stroke="midnightblue" d="M283.682,-529.929C292.653,-527.408 301.673,-524.445 310,-521 337.377,-509.673 365.98,-491.483 385.548,-477.909"/>
<polygon fill="midnightblue" stroke="midnightblue" points="387.714,-480.664 393.866,-472.038 383.677,-474.945 387.714,-480.664"/>
</g>
<!-- Node14&#45;&gt;Node12 -->
<g id="edge32" class="edge"><title>Node14&#45;&gt;Node12</title>
<path fill="none" stroke="midnightblue" d="M296.243,-529.875C301.174,-527.42 305.83,-524.491 310,-521 340.52,-495.451 323.014,-471.494 346,-439 357.039,-423.395 372.637,-408.669 385.67,-397.712"/>
<polygon fill="midnightblue" stroke="midnightblue" points="388.257,-400.118 393.791,-391.084 383.831,-394.695 388.257,-400.118"/>
</g>
<!-- Node16&#45;&gt;Node8 -->
<g id="edge40" class="edge"><title>Node16&#45;&gt;Node8</title>
<path fill="none" stroke="midnightblue" d="M291.67,-655.894C298.098,-653.454 304.323,-650.522 310,-647 331.179,-633.86 329.026,-622.252 346,-604 359.872,-589.084 376.405,-573.11 389.192,-561.112"/>
<polygon fill="midnightblue" stroke="midnightblue" points="391.68,-563.577 396.613,-554.201 386.909,-558.455 391.68,-563.577"/>
</g>
<!-- Node16&#45;&gt;Node9 -->
<g id="edge44" class="edge"><title>Node16&#45;&gt;Node9</title>
<path fill="none" stroke="midnightblue" d="M298.021,-655.809C302.362,-653.352 306.412,-650.442 310,-647 352.027,-606.68 315.864,-570.838 346,-521 355.997,-504.466 371.637,-489.444 384.952,-478.444"/>
<polygon fill="midnightblue" stroke="midnightblue" points="387.23,-481.105 392.872,-472.137 382.869,-475.629 387.23,-481.105"/>
</g>
<!-- Node16&#45;&gt;Node11 -->
<g id="edge46" class="edge"><title>Node16&#45;&gt;Node11</title>
<path fill="none" stroke="midnightblue" d="M290.447,-680.02C345.195,-685.891 421.632,-684.804 474,-646 541.029,-596.331 558.79,-489.043 563.412,-442.406"/>
<polygon fill="midnightblue" stroke="midnightblue" points="566.922,-442.44 564.308,-432.173 559.949,-441.83 566.922,-442.44"/>
</g>
<!-- Node16&#45;&gt;Node12 -->
<g id="edge42" class="edge"><title>Node16&#45;&gt;Node12</title>
<path fill="none" stroke="midnightblue" d="M298.851,-655.996C302.936,-653.488 306.707,-650.516 310,-647 374.133,-578.524 301.473,-521.579 346,-439 354.919,-422.459 370.109,-407.924 383.452,-397.304"/>
<polygon fill="midnightblue" stroke="midnightblue" points="385.613,-400.058 391.449,-391.215 381.373,-394.488 385.613,-400.058"/>
</g>
<!-- Node17&#45;&gt;Node8 -->
<g id="edge58" class="edge"><title>Node17&#45;&gt;Node8</title>
<path fill="none" stroke="midnightblue" d="M280.022,-615.06C290.194,-612.317 300.553,-608.989 310,-605 337.704,-593.303 366.461,-574.351 385.986,-560.285"/>
<polygon fill="midnightblue" stroke="midnightblue" points="388.277,-562.946 394.271,-554.209 384.137,-557.301 388.277,-562.946"/>
</g>
<!-- Node17&#45;&gt;Node9 -->
<g id="edge60" class="edge"><title>Node17&#45;&gt;Node9</title>
<path fill="none" stroke="midnightblue" d="M280.432,-620.103C291.127,-616.904 301.572,-612.119 310,-605 341.03,-578.791 322.827,-554.358 346,-521 357.168,-504.923 373.092,-489.726 386.262,-478.521"/>
<polygon fill="midnightblue" stroke="midnightblue" points="388.564,-481.159 394.039,-472.089 384.102,-475.765 388.564,-481.159"/>
</g>
<!-- Node17&#45;&gt;Node10 -->
<g id="edge56" class="edge"><title>Node17&#45;&gt;Node10</title>
<path fill="none" stroke="midnightblue" d="M280.122,-625.695C299.969,-625.588 322.407,-625.468 342.981,-625.358"/>
<polygon fill="midnightblue" stroke="midnightblue" points="343.246,-628.857 353.228,-625.304 343.209,-621.857 343.246,-628.857"/>
</g>
<!-- Node17&#45;&gt;Node12 -->
<g id="edge62" class="edge"><title>Node17&#45;&gt;Node12</title>
<path fill="none" stroke="midnightblue" d="M280.211,-621.72C291.306,-618.449 301.965,-613.224 310,-605 362.756,-551.001 308.778,-504.678 346,-439 355.328,-422.541 370.672,-407.928 383.998,-397.244"/>
<polygon fill="midnightblue" stroke="midnightblue" points="386.169,-399.99 391.962,-391.119 381.902,-394.441 386.169,-399.99"/>
</g>
<!-- Node18&#45;&gt;Node9 -->
<g id="edge66" class="edge"><title>Node18&#45;&gt;Node9</title>
<path fill="none" stroke="midnightblue" d="M283.682,-390.071C292.653,-392.592 301.673,-395.555 310,-399 337.377,-410.327 365.98,-428.517 385.548,-442.091"/>
<polygon fill="midnightblue" stroke="midnightblue" points="383.677,-445.055 393.866,-447.962 387.714,-439.336 383.677,-445.055"/>
</g>
<!-- Node18&#45;&gt;Node12 -->
<g id="edge68" class="edge"><title>Node18&#45;&gt;Node12</title>
<path fill="none" stroke="midnightblue" d="M291.57,-378.367C309.172,-378.461 328.045,-378.562 345.436,-378.655"/>
<polygon fill="midnightblue" stroke="midnightblue" points="345.465,-382.155 355.484,-378.708 345.503,-375.155 345.465,-382.155"/>
</g>
<!-- Node20&#45;&gt;Node8 -->
<g id="edge76" class="edge"><title>Node20&#45;&gt;Node8</title>
<path fill="none" stroke="midnightblue" d="M292.014,-699.937C298.522,-697.105 304.668,-693.523 310,-689 341.286,-662.46 322.803,-637.839 346,-604 357.228,-587.622 373.286,-572.081 386.508,-560.655"/>
<polygon fill="midnightblue" stroke="midnightblue" points="388.902,-563.215 394.306,-554.102 384.399,-557.856 388.902,-563.215"/>
</g>
<!-- Node21&#45;&gt;Node8 -->
<g id="edge86" class="edge"><title>Node21&#45;&gt;Node8</title>
<path fill="none" stroke="midnightblue" d="M241.614,-432.144C274.798,-453.793 344.299,-499.137 382.827,-524.272"/>
<polygon fill="midnightblue" stroke="midnightblue" points="381.174,-527.373 391.461,-529.905 384.999,-521.51 381.174,-527.373"/>
</g>
<!-- Node21&#45;&gt;Node9 -->
<g id="edge80" class="edge"><title>Node21&#45;&gt;Node9</title>
<path fill="none" stroke="midnightblue" d="M279.106,-432.001C299.445,-436.352 322.611,-441.307 343.743,-445.827"/>
<polygon fill="midnightblue" stroke="midnightblue" points="343.1,-449.269 353.611,-447.938 344.564,-442.424 343.1,-449.269"/>
</g>
<!-- Node21&#45;&gt;Node11 -->
<g id="edge84" class="edge"><title>Node21&#45;&gt;Node11</title>
<path fill="none" stroke="midnightblue" d="M309.743,-420C368.863,-420 445.896,-420 499.81,-420"/>
<polygon fill="midnightblue" stroke="midnightblue" points="499.935,-423.5 509.935,-420 499.935,-416.5 499.935,-423.5"/>
</g>
<!-- Node21&#45;&gt;Node12 -->
<g id="edge82" class="edge"><title>Node21&#45;&gt;Node12</title>
<path fill="none" stroke="midnightblue" d="M277.843,-407.976C299.057,-403.324 323.495,-397.966 345.541,-393.133"/>
<polygon fill="midnightblue" stroke="midnightblue" points="346.463,-396.514 355.481,-390.953 344.964,-389.676 346.463,-396.514"/>
</g>
<!-- Node22&#45;&gt;Node8 -->
<g id="edge90" class="edge"><title>Node22&#45;&gt;Node8</title>
<path fill="none" stroke="midnightblue" d="M276.587,-512.036C301.439,-517.617 330.923,-524.239 355.846,-529.837"/>
<polygon fill="midnightblue" stroke="midnightblue" points="355.339,-533.31 365.863,-532.087 356.873,-526.48 355.339,-533.31"/>
</g>
<!-- Node22&#45;&gt;Node12 -->
<g id="edge92" class="edge"><title>Node22&#45;&gt;Node12</title>
<path fill="none" stroke="midnightblue" d="M241.614,-487.956C274.712,-466.539 343.941,-421.744 382.529,-396.776"/>
<polygon fill="midnightblue" stroke="midnightblue" points="384.689,-399.546 391.184,-391.175 380.887,-393.669 384.689,-399.546"/>
</g>
<!-- Node23&#45;&gt;Node8 -->
<g id="edge102" class="edge"><title>Node23&#45;&gt;Node8</title>
<path fill="none" stroke="midnightblue" d="M286.257,-257.95C295.19,-261.269 303.521,-266.082 310,-273 374.133,-341.476 301.814,-398.238 346,-481 355.04,-497.932 370.519,-512.877 383.989,-523.737"/>
<polygon fill="midnightblue" stroke="midnightblue" points="381.986,-526.612 392.041,-529.951 386.263,-521.071 381.986,-526.612"/>
</g>
<!-- Node23&#45;&gt;Node9 -->
<g id="edge96" class="edge"><title>Node23&#45;&gt;Node9</title>
<path fill="none" stroke="midnightblue" d="M286.084,-258.718C294.93,-261.953 303.279,-266.539 310,-273 352.293,-313.66 315.488,-349.89 346,-400 355.905,-416.267 371.404,-430.958 384.668,-441.732"/>
<polygon fill="midnightblue" stroke="midnightblue" points="382.536,-444.507 392.568,-447.912 386.849,-438.994 382.536,-444.507"/>
</g>
<!-- Node23&#45;&gt;Node11 -->
<g id="edge100" class="edge"><title>Node23&#45;&gt;Node11</title>
<path fill="none" stroke="midnightblue" d="M286.094,-241.986C339.985,-236.757 417.523,-237.411 474,-272 521.117,-300.856 547.397,-364.191 558.536,-397.89"/>
<polygon fill="midnightblue" stroke="midnightblue" points="555.286,-399.221 561.628,-407.708 561.963,-397.118 555.286,-399.221"/>
</g>
<!-- Node23&#45;&gt;Node12 -->
<g id="edge98" class="edge"><title>Node23&#45;&gt;Node12</title>
<path fill="none" stroke="midnightblue" d="M286.151,-262.335C294.499,-265.09 302.686,-268.58 310,-273 330.755,-285.541 329.486,-296.242 346,-314 360.468,-329.558 377.348,-346.661 390.139,-359.416"/>
<polygon fill="midnightblue" stroke="midnightblue" points="387.955,-362.18 397.517,-366.744 392.888,-357.214 387.955,-362.18"/>
</g>
<!-- Node23&#45;&gt;Node13 -->
<g id="edge104" class="edge"><title>Node23&#45;&gt;Node13</title>
<path fill="none" stroke="midnightblue" d="M277.843,-264.024C298.964,-268.655 323.279,-273.986 345.249,-278.803"/>
<polygon fill="midnightblue" stroke="midnightblue" points="344.641,-282.253 355.158,-280.976 346.14,-275.415 344.641,-282.253"/>
</g>
<!-- Node24&#45;&gt;Node4 -->
<g id="edge112" class="edge"><title>Node24&#45;&gt;Node4</title>
<path fill="none" stroke="midnightblue" d="M287.355,-916.045C309.882,-920.261 334.918,-924.947 356.466,-928.98"/>
<polygon fill="midnightblue" stroke="midnightblue" points="355.944,-932.443 366.417,-930.843 357.231,-925.563 355.944,-932.443"/>
</g>
<!-- Node24&#45;&gt;Node5 -->
<g id="edge114" class="edge"><title>Node24&#45;&gt;Node5</title>
<path fill="none" stroke="midnightblue" d="M296.103,-898.136C315.546,-896.577 336.226,-894.918 354.554,-893.448"/>
<polygon fill="midnightblue" stroke="midnightblue" points="355.07,-896.918 364.758,-892.629 354.51,-889.94 355.07,-896.918"/>
</g>
<!-- Node24&#45;&gt;Node6 -->
<g id="edge116" class="edge"><title>Node24&#45;&gt;Node6</title>
<path fill="none" stroke="midnightblue" d="M253.461,-891.946C285.246,-879.368 335.225,-859.59 370.133,-845.776"/>
<polygon fill="midnightblue" stroke="midnightblue" points="371.542,-848.983 379.552,-842.049 368.966,-842.474 371.542,-848.983"/>
</g>
<!-- Node25&#45;&gt;Node9 -->
<g id="edge120" class="edge"><title>Node25&#45;&gt;Node9</title>
<path fill="none" stroke="midnightblue" d="M251.198,-184.097C270.7,-193.922 295.633,-209.652 310,-231 352.878,-294.711 308.258,-333.118 346,-400 355.298,-416.477 370.641,-431.09 383.974,-441.769"/>
<polygon fill="midnightblue" stroke="midnightblue" points="381.881,-444.575 391.944,-447.892 386.146,-439.024 381.881,-444.575"/>
</g>
<!-- Node25&#45;&gt;Node11 -->
<g id="edge124" class="edge"><title>Node25&#45;&gt;Node11</title>
<path fill="none" stroke="midnightblue" d="M294.511,-174.45C349.036,-179.759 423.167,-194.8 474,-236 526.413,-278.481 551.072,-358.755 560.362,-397.695"/>
<polygon fill="midnightblue" stroke="midnightblue" points="557.059,-398.959 562.676,-407.942 563.887,-397.417 557.059,-398.959"/>
</g>
<!-- Node25&#45;&gt;Node12 -->
<g id="edge122" class="edge"><title>Node25&#45;&gt;Node12</title>
<path fill="none" stroke="midnightblue" d="M289.154,-184.032C296.852,-187.565 304.061,-192.123 310,-198 348.371,-235.969 318.279,-267.68 346,-314 356.574,-331.668 372.915,-348.156 386.438,-360.105"/>
<polygon fill="midnightblue" stroke="midnightblue" points="384.543,-363.089 394.417,-366.928 389.092,-357.769 384.543,-363.089"/>
</g>
<!-- Node25&#45;&gt;Node13 -->
<g id="edge126" class="edge"><title>Node25&#45;&gt;Node13</title>
<path fill="none" stroke="midnightblue" d="M277.547,-184.02C288.689,-187.638 300.042,-192.231 310,-198 344.206,-217.817 375.881,-251.581 394.064,-273.064"/>
<polygon fill="midnightblue" stroke="midnightblue" points="391.49,-275.443 400.567,-280.908 396.879,-270.976 391.49,-275.443"/>
</g>
<!-- Node26&#45;&gt;Node8 -->
<g id="edge130" class="edge"><title>Node26&#45;&gt;Node8</title>
<path fill="none" stroke="midnightblue" d="M298.681,-306.166C302.807,-308.636 306.634,-311.555 310,-315 362.756,-368.999 309.049,-415.169 346,-481 355.395,-497.738 370.882,-512.678 384.268,-523.584"/>
<polygon fill="midnightblue" stroke="midnightblue" points="382.224,-526.429 392.258,-529.833 386.537,-520.915 382.224,-526.429"/>
</g>
<!-- Node26&#45;&gt;Node12 -->
<g id="edge132" class="edge"><title>Node26&#45;&gt;Node12</title>
<path fill="none" stroke="midnightblue" d="M284.213,-306.043C293.021,-308.558 301.853,-311.526 310,-315 337.952,-326.919 366.873,-346.335 386.377,-360.66"/>
<polygon fill="midnightblue" stroke="midnightblue" points="384.534,-363.652 394.639,-366.838 388.727,-358.046 384.534,-363.652"/>
</g>
<!-- Node26&#45;&gt;Node13 -->
<g id="edge134" class="edge"><title>Node26&#45;&gt;Node13</title>
<path fill="none" stroke="midnightblue" d="M307.2,-293.55C316.74,-293.499 326.41,-293.447 335.808,-293.397"/>
<polygon fill="midnightblue" stroke="midnightblue" points="335.899,-296.896 345.88,-293.343 335.862,-289.897 335.899,-296.896"/>
</g>
<!-- Node27&#45;&gt;Node8 -->
<g id="edge138" class="edge"><title>Node27&#45;&gt;Node8</title>
<path fill="none" stroke="midnightblue" d="M298.004,-348.209C302.349,-350.661 306.405,-353.565 310,-357 351.495,-396.641 316.202,-431.956 346,-481 356.033,-497.512 371.672,-512.534 384.98,-523.539"/>
<polygon fill="midnightblue" stroke="midnightblue" points="382.892,-526.352 392.893,-529.85 387.257,-520.879 382.892,-526.352"/>
</g>
<!-- Node27&#45;&gt;Node12 -->
<g id="edge140" class="edge"><title>Node27&#45;&gt;Node12</title>
<path fill="none" stroke="midnightblue" d="M275.588,-348.092C298.084,-353.265 324.517,-359.343 347.962,-364.735"/>
<polygon fill="midnightblue" stroke="midnightblue" points="347.277,-368.168 357.807,-366.998 348.846,-361.346 347.277,-368.168"/>
</g>
<!-- Node27&#45;&gt;Node13 -->
<g id="edge142" class="edge"><title>Node27&#45;&gt;Node13</title>
<path fill="none" stroke="midnightblue" d="M275.588,-323.908C298.084,-318.735 324.517,-312.657 347.962,-307.265"/>
<polygon fill="midnightblue" stroke="midnightblue" points="348.846,-310.654 357.807,-305.002 347.277,-303.832 348.846,-310.654"/>
</g>
</g>
</svg>
