<?xml version="1.0" encoding="UTF-8" standalone="no"?>
<!DOCTYPE svg PUBLIC "-//W3C//DTD SVG 1.1//EN"
 "http://www.w3.org/Graphics/SVG/1.1/DTD/svg11.dtd">
<!-- Generated by graphviz version 2.26.3 (20100126.1600)
 -->
<!-- Title: qcdialog.cpp Pages: 1 -->
<svg width="186pt" height="96pt"
 viewBox="0.00 0.00 186.00 96.00" xmlns="http://www.w3.org/2000/svg" xmlns:xlink="http://www.w3.org/1999/xlink">
<g id="graph1" class="graph" transform="scale(1 1) rotate(0) translate(4 92)">
<title>qcdialog.cpp</title>
<polygon fill="white" stroke="white" points="-4,5 -4,-92 183,-92 183,5 -4,5"/>
<!-- Node1 -->
<g id="node1" class="node"><title>Node1</title>
<polygon fill="#bfbfbf" stroke="black" points="42.5,-63 42.5,-87 127.5,-87 127.5,-63 42.5,-63"/>
<text text-anchor="middle" x="85" y="-72.2" font-family="Helvetica,sans-Serif" font-size="12.00">qcdialog.cpp</text>
</g>
<!-- Node2 -->
<g id="node3" class="node"><title>Node2</title>
<a xlink:href="a00031.html" target="_top" target="_top" xlink:title="qcdialog.h">
<polygon fill="white" stroke="red" points="0,-1 0,-25 72,-25 72,-1 0,-1"/>
<text text-anchor="middle" x="36" y="-10.2" font-family="Helvetica,sans-Serif" font-size="12.00">qcdialog.h</text>
</a>
</g>
<!-- Node1&#45;&gt;Node2 -->
<g id="edge2" class="edge"><title>Node1&#45;&gt;Node2</title>
<path fill="none" stroke="midnightblue" d="M75.3192,-62.7508C68.6751,-54.344 59.7019,-42.9901 52.0052,-33.2515"/>
<polygon fill="midnightblue" stroke="midnightblue" points="54.6073,-30.8992 45.6607,-25.2238 49.1153,-35.2396 54.6073,-30.8992"/>
</g>
<!-- Node3 -->
<g id="node5" class="node"><title>Node3</title>
<polygon fill="white" stroke="#bfbfbf" points="89.5,-1 89.5,-25 178.5,-25 178.5,-1 89.5,-1"/>
<text text-anchor="middle" x="134" y="-10.2" font-family="Helvetica,sans-Serif" font-size="12.00">ui_qcdialog.h</text>
</g>
<!-- Node1&#45;&gt;Node3 -->
<g id="edge4" class="edge"><title>Node1&#45;&gt;Node3</title>
<path fill="none" stroke="midnightblue" d="M94.6808,-62.7508C101.325,-54.344 110.298,-42.9901 117.995,-33.2515"/>
<polygon fill="midnightblue" stroke="midnightblue" points="120.885,-35.2396 124.339,-25.2238 115.393,-30.8992 120.885,-35.2396"/>
</g>
</g>
</svg>
