<?xml version="1.0" encoding="UTF-8" standalone="no"?>
<!DOCTYPE svg PUBLIC "-//W3C//DTD SVG 1.1//EN"
 "http://www.w3.org/Graphics/SVG/1.1/DTD/svg11.dtd">
<!-- Generated by graphviz version 2.26.3 (20100126.1600)
 -->
<!-- Title: displaying.h Pages: 1 -->
<svg width="214pt" height="158pt"
 viewBox="0.00 0.00 214.00 158.00" xmlns="http://www.w3.org/2000/svg" xmlns:xlink="http://www.w3.org/1999/xlink">
<g id="graph1" class="graph" transform="scale(1 1) rotate(0) translate(4 154)">
<title>displaying.h</title>
<polygon fill="white" stroke="white" points="-4,5 -4,-154 211,-154 211,5 -4,5"/>
<!-- Node1 -->
<g id="node1" class="node"><title>Node1</title>
<polygon fill="#bfbfbf" stroke="black" points="28.5,-125 28.5,-149 109.5,-149 109.5,-125 28.5,-125"/>
<text text-anchor="middle" x="69" y="-134.2" font-family="Helvetica,sans-Serif" font-size="12.00">displaying.h</text>
</g>
<!-- Node2 -->
<g id="node3" class="node"><title>Node2</title>
<a xlink:href="a00015.html" target="_top" target="_top" xlink:title="application.h">
<polygon fill="white" stroke="red" points="-0.5,-1 -0.5,-25 84.5,-25 84.5,-1 -0.5,-1"/>
<text text-anchor="middle" x="42" y="-10.2" font-family="Helvetica,sans-Serif" font-size="12.00">application.h</text>
</a>
</g>
<!-- Node1&#45;&gt;Node2 -->
<g id="edge2" class="edge"><title>Node1&#45;&gt;Node2</title>
<path fill="none" stroke="midnightblue" d="M50.9269,-116.89C44.5973,-108.559 38.2593,-98.4143 35,-88 28.3209,-66.6583 33.688,-40.3641 37.9883,-25.2559"/>
<polygon fill="midnightblue" stroke="midnightblue" points="48.3702,-119.294 57.3904,-124.851 53.8047,-114.882 48.3702,-119.294"/>
</g>
<!-- Node3 -->
<g id="node5" class="node"><title>Node3</title>
<a xlink:href="a00018.html" target="_top" target="_top" xlink:title="data.h">
<polygon fill="white" stroke="red" points="44,-63 44,-87 94,-87 94,-63 44,-63"/>
<text text-anchor="middle" x="69" y="-72.2" font-family="Helvetica,sans-Serif" font-size="12.00">data.h</text>
</a>
</g>
<!-- Node1&#45;&gt;Node3 -->
<g id="edge4" class="edge"><title>Node1&#45;&gt;Node3</title>
<path fill="none" stroke="midnightblue" d="M62.4881,-114.63C61.9657,-105.386 62.303,-95.0306 63.5002,-87.2238"/>
<polygon fill="midnightblue" stroke="midnightblue" points="59.0222,-115.147 63.4963,-124.751 65.9877,-114.453 59.0222,-115.147"/>
</g>
<!-- Node4 -->
<g id="node9" class="node"><title>Node4</title>
<a xlink:href="a00019.html" target="_top" target="_top" xlink:title="displaying.cpp">
<polygon fill="white" stroke="black" points="112,-63 112,-87 206,-87 206,-63 112,-63"/>
<text text-anchor="middle" x="159" y="-72.2" font-family="Helvetica,sans-Serif" font-size="12.00">displaying.cpp</text>
</a>
</g>
<!-- Node1&#45;&gt;Node4 -->
<g id="edge10" class="edge"><title>Node1&#45;&gt;Node4</title>
<path fill="none" stroke="midnightblue" d="M95.1179,-119.008C110.052,-108.72 128.375,-96.0972 141.562,-87.0128"/>
<polygon fill="midnightblue" stroke="midnightblue" points="93.0306,-116.195 86.7811,-124.751 97.0018,-121.96 93.0306,-116.195"/>
</g>
<!-- Node3&#45;&gt;Node1 -->
<g id="edge6" class="edge"><title>Node3&#45;&gt;Node1</title>
<path fill="none" stroke="midnightblue" d="M75.5102,-97.3399C76.0345,-106.581 75.699,-116.938 74.5037,-124.751"/>
<polygon fill="midnightblue" stroke="midnightblue" points="78.9764,-96.8264 74.4998,-87.2238 72.0111,-97.5221 78.9764,-96.8264"/>
</g>
<!-- Node3&#45;&gt;Node2 -->
<g id="edge8" class="edge"><title>Node3&#45;&gt;Node2</title>
<path fill="none" stroke="midnightblue" d="M59.6504,-53.5306C55.5281,-44.0646 50.8339,-33.2852 47.3232,-25.2238"/>
<polygon fill="midnightblue" stroke="midnightblue" points="56.464,-54.9799 63.6657,-62.7508 62.8819,-52.185 56.464,-54.9799"/>
</g>
</g>
</svg>
