<?xml version="1.0" encoding="UTF-8" standalone="no"?>
<!DOCTYPE svg PUBLIC "-//W3C//DTD SVG 1.1//EN"
 "http://www.w3.org/Graphics/SVG/1.1/DTD/svg11.dtd">
<!-- Generated by graphviz version 2.26.3 (20100126.1600)
 -->
<!-- Title: Displaying::displayLists Pages: 1 -->
<svg width="304pt" height="326pt"
 viewBox="0.00 0.00 304.00 326.00" xmlns="http://www.w3.org/2000/svg" xmlns:xlink="http://www.w3.org/1999/xlink">
<g id="graph1" class="graph" transform="scale(1 1) rotate(0) translate(4 322)">
<title>Displaying::displayLists</title>
<polygon fill="white" stroke="white" points="-4,5 -4,-322 301,-322 301,5 -4,5"/>
<!-- Node1 -->
<g id="node1" class="node"><title>Node1</title>
<polygon fill="#bfbfbf" stroke="black" points="0.5,-147 0.5,-171 143.5,-171 143.5,-147 0.5,-147"/>
<text text-anchor="middle" x="72" y="-156.2" font-family="Helvetica,sans-Serif" font-size="12.00">Displaying::displayLists</text>
</g>
<!-- Node2 -->
<g id="node3" class="node"><title>Node2</title>
<a xlink:href="a00002.html#acd1f2adc01b25ef7bded9b6d2b331278" target="_top" xlink:title="Gets the Number of elements.">
<polygon fill="white" stroke="black" points="194,-294 194,-318 282,-318 282,-294 194,-294"/>
<text text-anchor="middle" x="238" y="-303.2" font-family="Helvetica,sans-Serif" font-size="12.00">Data::isoSize</text>
</a>
</g>
<!-- Node1&#45;&gt;Node2 -->
<g id="edge2" class="edge"><title>Node1&#45;&gt;Node2</title>
<path fill="none" stroke="midnightblue" d="M79.3616,-171.229C94.9173,-196.091 133.546,-252.892 180,-285 182.354,-286.627 184.848,-288.143 187.428,-289.554"/>
<polygon fill="midnightblue" stroke="midnightblue" points="185.926,-292.715 196.449,-293.951 188.994,-286.423 185.926,-292.715"/>
</g>
<!-- Node3 -->
<g id="node5" class="node"><title>Node3</title>
<a xlink:href="a00002.html#a4baa9866aaea800c81e4502b9483e4ec" target="_top" xlink:title="Gets an element identified by its Id.">
<polygon fill="white" stroke="black" points="198,-252 198,-276 278,-276 278,-252 198,-252"/>
<text text-anchor="middle" x="238" y="-261.2" font-family="Helvetica,sans-Serif" font-size="12.00">Data::getIso</text>
</a>
</g>
<!-- Node1&#45;&gt;Node3 -->
<g id="edge4" class="edge"><title>Node1&#45;&gt;Node3</title>
<path fill="none" stroke="midnightblue" d="M84.6847,-171.056C103.955,-188.838 142.356,-222.229 180,-243 183.238,-244.787 186.657,-246.473 190.151,-248.055"/>
<polygon fill="midnightblue" stroke="midnightblue" points="188.922,-251.335 199.497,-251.99 191.639,-244.883 188.922,-251.335"/>
</g>
<!-- Node4 -->
<g id="node7" class="node"><title>Node4</title>
<a xlink:href="a00005.html#a82faf6c27cd36339a0a12cae9beb89af" target="_top" xlink:title="Gets the complete Name of the istope, used to display the element to HCI.">
<polygon fill="white" stroke="red" points="180,-210 180,-234 296,-234 296,-210 180,-210"/>
<text text-anchor="middle" x="238" y="-219.2" font-family="Helvetica,sans-Serif" font-size="12.00">Element::getName</text>
</a>
</g>
<!-- Node1&#45;&gt;Node4 -->
<g id="edge6" class="edge"><title>Node1&#45;&gt;Node4</title>
<path fill="none" stroke="midnightblue" d="M102.651,-171.141C124.23,-179.634 153.82,-191.172 180,-201 184.765,-202.789 189.761,-204.638 194.736,-206.462"/>
<polygon fill="midnightblue" stroke="midnightblue" points="193.62,-209.781 204.214,-209.919 196.019,-203.204 193.62,-209.781"/>
</g>
<!-- Node5 -->
<g id="node9" class="node"><title>Node5</title>
<a xlink:href="a00002.html#a84179b0c71fb3e69cfa177e92004ee79" target="_top" xlink:title="Gets the Number of Solutions.">
<polygon fill="white" stroke="black" points="181,-168 181,-192 295,-192 295,-168 181,-168"/>
<text text-anchor="middle" x="238" y="-177.2" font-family="Helvetica,sans-Serif" font-size="12.00">Data::solutionSize</text>
</a>
</g>
<!-- Node1&#45;&gt;Node5 -->
<g id="edge8" class="edge"><title>Node1&#45;&gt;Node5</title>
<path fill="none" stroke="midnightblue" d="M143.845,-168.089C152.725,-169.212 161.778,-170.357 170.589,-171.472"/>
<polygon fill="midnightblue" stroke="midnightblue" points="170.435,-174.98 180.795,-172.763 171.313,-168.036 170.435,-174.98"/>
</g>
<!-- Node6 -->
<g id="node11" class="node"><title>Node6</title>
<a xlink:href="a00002.html#a7b1a07606090591e7fffb48be72bd734" target="_top" xlink:title="Gets a solution identified by its Id.">
<polygon fill="white" stroke="black" points="183.5,-126 183.5,-150 292.5,-150 292.5,-126 183.5,-126"/>
<text text-anchor="middle" x="238" y="-135.2" font-family="Helvetica,sans-Serif" font-size="12.00">Data::getSolution</text>
</a>
</g>
<!-- Node1&#45;&gt;Node6 -->
<g id="edge10" class="edge"><title>Node1&#45;&gt;Node6</title>
<path fill="none" stroke="midnightblue" d="M143.845,-149.911C153.665,-148.669 163.697,-147.4 173.378,-146.175"/>
<polygon fill="midnightblue" stroke="midnightblue" points="173.834,-149.645 183.316,-144.918 172.955,-142.701 173.834,-149.645"/>
</g>
<!-- Node7 -->
<g id="node13" class="node"><title>Node7</title>
<a xlink:href="a00013.html#a7e480d4e590046701d82e74491ff944a" target="_top" xlink:title="Gets type of the solution.">
<polygon fill="white" stroke="black" points="183,-84 183,-108 293,-108 293,-84 183,-84"/>
<text text-anchor="middle" x="238" y="-93.2" font-family="Helvetica,sans-Serif" font-size="12.00">Solution::getType</text>
</a>
</g>
<!-- Node1&#45;&gt;Node7 -->
<g id="edge12" class="edge"><title>Node1&#45;&gt;Node7</title>
<path fill="none" stroke="midnightblue" d="M102.651,-146.859C124.23,-138.366 153.82,-126.828 180,-117 184.765,-115.211 189.761,-113.362 194.736,-111.538"/>
<polygon fill="midnightblue" stroke="midnightblue" points="196.019,-114.796 204.214,-108.081 193.62,-108.219 196.019,-114.796"/>
</g>
<!-- Node8 -->
<g id="node15" class="node"><title>Node8</title>
<a xlink:href="a00013.html#a08617ee6ca1993e92372e265829508f0" target="_top" xlink:title="Gets the Name.">
<polygon fill="white" stroke="black" points="180,-42 180,-66 296,-66 296,-42 180,-42"/>
<text text-anchor="middle" x="238" y="-51.2" font-family="Helvetica,sans-Serif" font-size="12.00">Solution::getName</text>
</a>
</g>
<!-- Node1&#45;&gt;Node8 -->
<g id="edge14" class="edge"><title>Node1&#45;&gt;Node8</title>
<path fill="none" stroke="midnightblue" d="M84.6847,-146.944C103.955,-129.162 142.356,-95.7713 180,-75 183.238,-73.2134 186.657,-71.5267 190.151,-69.9455"/>
<polygon fill="midnightblue" stroke="midnightblue" points="191.639,-73.1166 199.497,-66.0099 188.922,-66.6653 191.639,-73.1166"/>
</g>
<!-- Node9 -->
<g id="node17" class="node"><title>Node9</title>
<a xlink:href="a00005.html#ab8c2c9824162b3a151e84cb2f2c5df6f" target="_top" xlink:title="Gets the resolution (value of Resolution enumeration)">
<polygon fill="white" stroke="black" points="180.5,-0 180.5,-24 295.5,-24 295.5,-0 180.5,-0"/>
<text text-anchor="middle" x="238" y="-9.2" font-family="Helvetica,sans-Serif" font-size="12.00">Element::getResol</text>
</a>
</g>
<!-- Node1&#45;&gt;Node9 -->
<g id="edge16" class="edge"><title>Node1&#45;&gt;Node9</title>
<path fill="none" stroke="midnightblue" d="M79.3616,-146.771C94.9173,-121.909 133.546,-65.1075 180,-33 182.354,-31.3731 184.848,-29.857 187.428,-28.4464"/>
<polygon fill="midnightblue" stroke="midnightblue" points="188.994,-31.5769 196.449,-24.0486 185.926,-25.2848 188.994,-31.5769"/>
</g>
</g>
</svg>
