<?xml version="1.0" encoding="UTF-8" standalone="no"?>
<!DOCTYPE svg PUBLIC "-//W3C//DTD SVG 1.1//EN"
 "http://www.w3.org/Graphics/SVG/1.1/DTD/svg11.dtd">
<!-- Generated by graphviz version 2.26.3 (20100126.1600)
 -->
<!-- Title: Solution::getType Pages: 1 -->
<!--zoomable 477 -->
<svg id="main" version="1.1" xmlns="http://www.w3.org/2000/svg" xmlns:xlink="http://www.w3.org/1999/xlink" xml:space="preserve" onload="init(evt)">
        <defs>
                <circle id="rim" cx="0" cy="0" r="7"/>
                <circle id="rim2" cx="0" cy="0" r="3.5"/>
                <g id="zoomPlus">
                        <use xlink:href="#rim" fill="#404040">
                                <set attributeName="fill" to="#808080" begin="zoomplus.mouseover" end="zoomplus.mouseout"/>
                        </use>
                        <path d="M-4,0h8M0,-4v8" fill="none" stroke="white" stroke-width="1.5" pointer-events="none"/>
                </g>
                <g id="zoomMin">
                        <use xlink:href="#rim" fill="#404040">
                                <set attributeName="fill" to="#808080" begin="zoomminus.mouseover" end="zoomminus.mouseout"/>
                        </use>
                        <path d="M-4,0h8" fill="none" stroke="white" stroke-width="1.5" pointer-events="none"/>
                </g>
                <g id="dirArrow">
                        <path fill="none" stroke="white" stroke-width="1.5" d="M0,-3.0v7 M-2.5,-0.5L0,-3.0L2.5,-0.5"/>
                </g>
               <g id="resetDef">
                       <use xlink:href="#rim2" fill="#404040">
                               <set attributeName="fill" to="#808080" begin="reset.mouseover" end="reset.mouseout"/>
                       </use>
               </g>
        </defs>

<script type="text/javascript">
var viewWidth = 698;
var viewHeight = 477;
var sectionId = 'dynsection-10';
</script>
<script xlink:href="svgpan.js"/>
<svg id="graph" class="graph">
<g id="viewport">
<title>Solution::getType</title>
<polygon fill="white" stroke="white" points="-4,5 -4,-472.977 695,-472.977 695,5 -4,5"/>
<!-- Node1 -->
<g id="node1" class="node"><title>Node1</title>
<polygon fill="#bfbfbf" stroke="black" points="0,-223 0,-247 110,-247 110,-223 0,-223"/>
<text text-anchor="middle" x="55" y="-232.2" font-family="Helvetica,sans-Serif" font-size="12.00">Solution::getType</text>
</g>
<!-- Node2 -->
<g id="node3" class="node"><title>Node2</title>
<a xlink:href="a00001.html#a68965449404743bf1add056784d6cf81" target="_top" xlink:title="Slot of clicking on proceed button.">
<polygon fill="white" stroke="red" points="575,-201 575,-225 675,-225 675,-201 575,-201"/>
<text text-anchor="middle" x="625" y="-210.2" font-family="Helvetica,sans-Serif" font-size="12.00">Application::run</text>
</a>
</g>
<!-- Node1&#45;&gt;Node2 -->
<g id="edge2" class="edge"><title>Node1&#45;&gt;Node2</title>
<path fill="none" stroke="midnightblue" d="M120.244,-239.373C211.08,-244.435 380.649,-250.167 524,-234 541.174,-232.063 559.752,-228.603 576.235,-225.042"/>
<polygon fill="midnightblue" stroke="midnightblue" points="120.283,-235.869 110.099,-238.791 119.882,-242.858 120.283,-235.869"/>
</g>
<!-- Node3 -->
<g id="node5" class="node"><title>Node3</title>
<a xlink:href="a00001.html#ab7f9356b1eaa23c179500675d92a49d5" target="_top" xlink:title="Slot of clicking on open data file button.">
<polygon fill="white" stroke="red" points="560,-381 560,-405 690,-405 690,-381 560,-381"/>
<text text-anchor="middle" x="625" y="-390.2" font-family="Helvetica,sans-Serif" font-size="12.00">Application::openFile</text>
</a>
</g>
<!-- Node1&#45;&gt;Node3 -->
<g id="edge4" class="edge"><title>Node1&#45;&gt;Node3</title>
<path fill="none" stroke="midnightblue" d="M62.1881,-256.778C74.0333,-288.832 100.939,-347.846 146,-375 284.278,-458.326 488.059,-425.698 578.654,-405.006"/>
<polygon fill="midnightblue" stroke="midnightblue" points="65.3744,-255.289 58.7439,-247.025 58.7739,-257.62 65.3744,-255.289"/>
</g>
<!-- Node4 -->
<g id="node7" class="node"><title>Node4</title>
<a xlink:href="a00002.html#a7f13913683ead8b0702121ac494f1598" target="_top" xlink:title="Add a solution to the data set.">
<polygon fill="white" stroke="red" points="176.5,-282 176.5,-306 289.5,-306 289.5,-282 176.5,-282"/>
<text text-anchor="middle" x="233" y="-291.2" font-family="Helvetica,sans-Serif" font-size="12.00">Data::addSolution</text>
</a>
</g>
<!-- Node1&#45;&gt;Node4 -->
<g id="edge6" class="edge"><title>Node1&#45;&gt;Node4</title>
<path fill="none" stroke="midnightblue" d="M96.631,-250.666C112.07,-256.325 129.769,-262.637 146,-268 160.519,-272.798 176.526,-277.692 190.809,-281.922"/>
<polygon fill="midnightblue" stroke="midnightblue" points="97.4437,-247.236 86.8504,-247.058 95.021,-253.803 97.4437,-247.236"/>
</g>
<!-- Node5 -->
<g id="node10" class="node"><title>Node5</title>
<a xlink:href="a00002.html#a6fc1d983c7fa16eebd0d0b12cb505a30" target="_top" xlink:title="Copies data contain from the given parameter.">
<polygon fill="white" stroke="black" points="390.5,-319 390.5,-343 489.5,-343 489.5,-319 390.5,-319"/>
<text text-anchor="middle" x="440" y="-328.2" font-family="Helvetica,sans-Serif" font-size="12.00">Data::copyData</text>
</a>
</g>
<!-- Node1&#45;&gt;Node5 -->
<g id="edge16" class="edge"><title>Node1&#45;&gt;Node5</title>
<path fill="none" stroke="midnightblue" d="M70.8303,-255.157C87.2892,-274.412 114.957,-302.321 146,-315 226.566,-347.907 330.002,-344.121 390.257,-337.893"/>
<polygon fill="midnightblue" stroke="midnightblue" points="73.3595,-252.724 64.2853,-247.255 67.9685,-257.189 73.3595,-252.724"/>
</g>
<!-- Node6 -->
<g id="node15" class="node"><title>Node6</title>
<a xlink:href="a00003.html#a5948e8f752a67b250665cee57abdadb2" target="_top" xlink:title="Generates lists : of Elements, HR&#45;MR&#45;LR Elements and Blanks.">
<polygon fill="white" stroke="black" points="368.5,-361 368.5,-385 511.5,-385 511.5,-361 368.5,-361"/>
<text text-anchor="middle" x="440" y="-370.2" font-family="Helvetica,sans-Serif" font-size="12.00">Displaying::displayLists</text>
</a>
</g>
<!-- Node1&#45;&gt;Node6 -->
<g id="edge18" class="edge"><title>Node1&#45;&gt;Node6</title>
<path fill="none" stroke="midnightblue" d="M66.202,-256.058C80.8614,-281.269 109.09,-322.523 146,-342 215.11,-378.468 306.005,-382.524 368.328,-379.821"/>
<polygon fill="midnightblue" stroke="midnightblue" points="69.2083,-254.264 61.2582,-247.26 63.1057,-257.693 69.2083,-254.264"/>
</g>
<!-- Node7 -->
<g id="node18" class="node"><title>Node7</title>
<a xlink:href="a00003.html#a5a779d21b88a5d08e8989d401acad7b8" target="_top" xlink:title="Generates list of solutions.">
<polygon fill="white" stroke="black" points="356,-441 356,-465 524,-465 524,-441 356,-441"/>
<text text-anchor="middle" x="440" y="-450.2" font-family="Helvetica,sans-Serif" font-size="12.00">Displaying::displaySolutions</text>
</a>
</g>
<!-- Node1&#45;&gt;Node7 -->
<g id="edge22" class="edge"><title>Node1&#45;&gt;Node7</title>
<path fill="none" stroke="midnightblue" d="M58.2785,-257.178C65.6669,-298.433 87.766,-386.455 146,-427 211.917,-472.894 307.337,-472.334 371.417,-465.001"/>
<polygon fill="midnightblue" stroke="midnightblue" points="61.6929,-256.373 56.6007,-247.082 54.7876,-257.521 61.6929,-256.373"/>
</g>
<!-- Node8 -->
<g id="node21" class="node"><title>Node8</title>
<a xlink:href="a00003.html#a2eb8d02c398ddd7708260ec230ceafcc" target="_top" xlink:title="Plots Calibration curves.">
<polygon fill="white" stroke="red" points="368.5,-201 368.5,-225 511.5,-225 511.5,-201 368.5,-201"/>
<text text-anchor="middle" x="440" y="-210.2" font-family="Helvetica,sans-Serif" font-size="12.00">Displaying::plotElement</text>
</a>
</g>
<!-- Node1&#45;&gt;Node8 -->
<g id="edge26" class="edge"><title>Node1&#45;&gt;Node8</title>
<path fill="none" stroke="midnightblue" d="M120.435,-231.261C189.224,-227.33 297.132,-221.164 368.218,-217.102"/>
<polygon fill="midnightblue" stroke="midnightblue" points="119.945,-227.783 110.161,-231.848 120.345,-234.772 119.945,-227.783"/>
</g>
<!-- Node9 -->
<g id="node24" class="node"><title>Node9</title>
<a xlink:href="a00008.html#a8bdd62cece3dc339c2096c85044fad66" target="_top" xlink:title="Parsing Function.">
<polygon fill="white" stroke="black" points="163,-164 163,-188 303,-188 303,-164 163,-164"/>
<text text-anchor="middle" x="233" y="-173.2" font-family="Helvetica,sans-Serif" font-size="12.00">ParserInSTDQC::parse</text>
</a>
</g>
<!-- Node1&#45;&gt;Node9 -->
<g id="edge30" class="edge"><title>Node1&#45;&gt;Node9</title>
<path fill="none" stroke="midnightblue" d="M96.631,-219.334C112.07,-213.675 129.769,-207.363 146,-202 160.519,-197.202 176.526,-192.308 190.809,-188.078"/>
<polygon fill="midnightblue" stroke="midnightblue" points="95.021,-216.197 86.8504,-222.942 97.4437,-222.764 95.021,-216.197"/>
</g>
<!-- Node10 -->
<g id="node26" class="node"><title>Node10</title>
<a xlink:href="a00010.html#a409d37b18750104739ee43e169371a0b" target="_top" xlink:title="Applies Blank Substraction.">
<polygon fill="white" stroke="black" points="362.5,-154 362.5,-178 517.5,-178 517.5,-154 362.5,-154"/>
<text text-anchor="middle" x="440" y="-163.2" font-family="Helvetica,sans-Serif" font-size="12.00">Processing::subtructBlank</text>
</a>
</g>
<!-- Node1&#45;&gt;Node10 -->
<g id="edge32" class="edge"><title>Node1&#45;&gt;Node10</title>
<path fill="none" stroke="midnightblue" d="M70.421,-214.8C86.7364,-195.256 114.452,-166.896 146,-155 229.757,-123.418 336.618,-140.231 395.699,-153.98"/>
<polygon fill="midnightblue" stroke="midnightblue" points="67.5086,-212.836 63.9514,-222.816 72.9557,-217.232 67.5086,-212.836"/>
</g>
<!-- Node11 -->
<g id="node29" class="node"><title>Node11</title>
<a xlink:href="a00010.html#ac0d956c3e8bdbc42a3b24975b25c6dfd" target="_top" xlink:title="Computes concentrations on data container.">
<polygon fill="white" stroke="black" points="146.5,-84 146.5,-108 319.5,-108 319.5,-84 146.5,-84"/>
<text text-anchor="middle" x="233" y="-93.2" font-family="Helvetica,sans-Serif" font-size="12.00">Processing::computeConcent</text>
</a>
</g>
<!-- Node1&#45;&gt;Node11 -->
<g id="edge36" class="edge"><title>Node1&#45;&gt;Node11</title>
<path fill="none" stroke="midnightblue" d="M66.5743,-213.906C81.6102,-188.438 110.219,-146.041 146,-122 154.636,-116.197 164.602,-111.659 174.638,-108.118"/>
<polygon fill="midnightblue" stroke="midnightblue" points="63.4325,-212.348 61.4896,-222.764 69.5034,-215.833 63.4325,-212.348"/>
</g>
<!-- Node12 -->
<g id="node32" class="node"><title>Node12</title>
<a xlink:href="a00010.html#a092b32603577be8f4482f2d5d5f7ff30" target="_top" xlink:title="Quality control after data processing.">
<polygon fill="white" stroke="black" points="170,-42 170,-66 296,-66 296,-42 170,-42"/>
<text text-anchor="middle" x="233" y="-51.2" font-family="Helvetica,sans-Serif" font-size="12.00">Processing::passQC</text>
</a>
</g>
<!-- Node1&#45;&gt;Node12 -->
<g id="edge40" class="edge"><title>Node1&#45;&gt;Node12</title>
<path fill="none" stroke="midnightblue" d="M61.2395,-213.039C72.3133,-178.187 98.7992,-110.531 146,-75 153.076,-69.6736 161.314,-65.678 169.846,-62.6846"/>
<polygon fill="midnightblue" stroke="midnightblue" points="57.8534,-212.144 58.2917,-222.73 64.5504,-214.181 57.8534,-212.144"/>
</g>
<!-- Node13 -->
<g id="node35" class="node"><title>Node13</title>
<a xlink:href="a00010.html#a5fbd5c910da7cec1497168d1d217f1ed" target="_top" xlink:title="Computes a calibration line.">
<polygon fill="white" stroke="red" points="157,-0 157,-24 309,-24 309,-0 157,-0"/>
<text text-anchor="middle" x="233" y="-9.2" font-family="Helvetica,sans-Serif" font-size="12.00">Processing::computeLine</text>
</a>
</g>
<!-- Node1&#45;&gt;Node13 -->
<g id="edge44" class="edge"><title>Node1&#45;&gt;Node13</title>
<path fill="none" stroke="midnightblue" d="M58.4648,-212.781C66.2028,-170.918 88.9172,-80.323 146,-33 150.187,-29.5292 154.855,-26.6148 159.794,-24.1697"/>
<polygon fill="midnightblue" stroke="midnightblue" points="54.9926,-212.321 56.7353,-222.771 61.89,-213.515 54.9926,-212.321"/>
</g>
<!-- Node4&#45;&gt;Node2 -->
<g id="edge8" class="edge"><title>Node4&#45;&gt;Node2</title>
<path fill="none" stroke="midnightblue" d="M299.866,-295.253C359.789,-294.638 449.468,-289.383 524,-267 555.422,-257.563 588.296,-237.858 607.698,-225.042"/>
<polygon fill="midnightblue" stroke="midnightblue" points="299.752,-291.754 289.774,-295.316 299.795,-298.753 299.752,-291.754"/>
</g>
<!-- Node4&#45;&gt;Node5 -->
<g id="edge10" class="edge"><title>Node4&#45;&gt;Node5</title>
<path fill="none" stroke="midnightblue" d="M299.752,-305.931C329.143,-311.185 363.078,-317.251 390.204,-322.099"/>
<polygon fill="midnightblue" stroke="midnightblue" points="300.024,-302.425 289.564,-304.11 298.792,-309.315 300.024,-302.425"/>
</g>
<!-- Node5&#45;&gt;Node2 -->
<g id="edge12" class="edge"><title>Node5&#45;&gt;Node2</title>
<path fill="none" stroke="midnightblue" d="M499.492,-316.189C507.975,-313.056 516.394,-309.35 524,-305 562.091,-283.217 597.874,-244.872 614.792,-225.278"/>
<polygon fill="midnightblue" stroke="midnightblue" points="498.239,-312.919 489.925,-319.486 500.52,-319.537 498.239,-312.919"/>
</g>
<!-- Node5&#45;&gt;Node3 -->
<g id="edge14" class="edge"><title>Node5&#45;&gt;Node3</title>
<path fill="none" stroke="midnightblue" d="M499.342,-344.725C507.675,-346.974 516.091,-349.42 524,-352 549.728,-360.392 578.228,-372.202 598.375,-380.992"/>
<polygon fill="midnightblue" stroke="midnightblue" points="500.194,-341.33 489.633,-342.179 498.418,-348.101 500.194,-341.33"/>
</g>
<!-- Node6&#45;&gt;Node3 -->
<g id="edge20" class="edge"><title>Node6&#45;&gt;Node3</title>
<path fill="none" stroke="midnightblue" d="M521.66,-381.828C534.395,-383.205 547.408,-384.612 559.715,-385.942"/>
<polygon fill="midnightblue" stroke="midnightblue" points="521.844,-378.328 511.526,-380.733 521.092,-385.287 521.844,-378.328"/>
</g>
<!-- Node7&#45;&gt;Node3 -->
<g id="edge24" class="edge"><title>Node7&#45;&gt;Node3</title>
<path fill="none" stroke="midnightblue" d="M489.558,-437.882C500.893,-434.363 512.877,-430.593 524,-427 546.007,-419.891 570.603,-411.618 590.013,-405.013"/>
<polygon fill="midnightblue" stroke="midnightblue" points="488.321,-434.601 479.802,-440.899 490.39,-441.288 488.321,-434.601"/>
</g>
<!-- Node8&#45;&gt;Node2 -->
<g id="edge28" class="edge"><title>Node8&#45;&gt;Node2</title>
<path fill="none" stroke="midnightblue" d="M521.534,-213C539.688,-213 558.414,-213 574.86,-213"/>
<polygon fill="midnightblue" stroke="midnightblue" points="521.526,-209.5 511.526,-213 521.526,-216.5 521.526,-209.5"/>
</g>
<!-- Node10&#45;&gt;Node2 -->
<g id="edge34" class="edge"><title>Node10&#45;&gt;Node2</title>
<path fill="none" stroke="midnightblue" d="M497.62,-180.639C523.29,-187.16 553.159,-194.749 577.519,-200.937"/>
<polygon fill="midnightblue" stroke="midnightblue" points="498.196,-177.174 487.642,-178.104 496.472,-183.958 498.196,-177.174"/>
</g>
<!-- Node11&#45;&gt;Node2 -->
<g id="edge38" class="edge"><title>Node11&#45;&gt;Node2</title>
<path fill="none" stroke="midnightblue" d="M329.89,-101.961C387.858,-108.031 462.054,-120.28 524,-145 558.161,-158.632 592.544,-185.147 611.066,-200.735"/>
<polygon fill="midnightblue" stroke="midnightblue" points="329.929,-98.4471 319.63,-100.933 329.231,-105.412 329.929,-98.4471"/>
</g>
<!-- Node12&#45;&gt;Node2 -->
<g id="edge42" class="edge"><title>Node12&#45;&gt;Node2</title>
<path fill="none" stroke="midnightblue" d="M306.216,-52.6081C367.816,-54.4178 456.411,-64.202 524,-101 568.612,-125.288 603.611,-177.084 617.947,-200.748"/>
<polygon fill="midnightblue" stroke="midnightblue" points="306.265,-49.1084 296.187,-52.3767 306.104,-56.1065 306.265,-49.1084"/>
</g>
</g>
</svg>
        <g id="navigator" transform="translate(0 0)" fill="#404254">
                <rect fill="#f2f5e9" fill-opacity="0.5" stroke="#606060" stroke-width=".5" x="0" y="0" width="60" height="60"/>
                <use id="zoomplus" xlink:href="#zoomPlus" x="17" y="9" onmousedown="handleZoom(evt,'in')"/>
                <use id="zoomminus" xlink:href="#zoomMin" x="42" y="9" onmousedown="handleZoom(evt,'out')"/>
                <use id="reset" xlink:href="#resetDef" x="30" y="36" onmousedown="handleReset()"/>
                <g id="arrowUp" xlink:href="#dirArrow" transform="translate(30 24)" onmousedown="handlePan(0,-1)">
                  <use xlink:href="#rim" fill="#404040">
                        <set attributeName="fill" to="#808080" begin="arrowUp.mouseover" end="arrowUp.mouseout"/>
                  </use>
                  <path fill="none" stroke="white" stroke-width="1.5" d="M0,-3.0v7 M-2.5,-0.5L0,-3.0L2.5,-0.5"/>
                </g>
                <g id="arrowRight" xlink:href="#dirArrow" transform="rotate(90) translate(36 -43)" onmousedown="handlePan(1,0)">
                  <use xlink:href="#rim" fill="#404040">
                        <set attributeName="fill" to="#808080" begin="arrowRight.mouseover" end="arrowRight.mouseout"/>
                  </use>
                  <path fill="none" stroke="white" stroke-width="1.5" d="M0,-3.0v7 M-2.5,-0.5L0,-3.0L2.5,-0.5"/>
                </g>
                <g id="arrowDown" xlink:href="#dirArrow" transform="rotate(180) translate(-30 -48)" onmousedown="handlePan(0,1)">
                  <use xlink:href="#rim" fill="#404040">
                        <set attributeName="fill" to="#808080" begin="arrowDown.mouseover" end="arrowDown.mouseout"/>
                  </use>
                  <path fill="none" stroke="white" stroke-width="1.5" d="M0,-3.0v7 M-2.5,-0.5L0,-3.0L2.5,-0.5"/>
                </g>
                <g id="arrowLeft" xlink:href="#dirArrow" transform="rotate(270) translate(-36 17)" onmousedown="handlePan(-1,0)">
                  <use xlink:href="#rim" fill="#404040">
                        <set attributeName="fill" to="#808080" begin="arrowLeft.mouseover" end="arrowLeft.mouseout"/>
                  </use>
                  <path fill="none" stroke="white" stroke-width="1.5" d="M0,-3.0v7 M-2.5,-0.5L0,-3.0L2.5,-0.5"/>
                </g>
        </g>
        <svg viewBox="0 0 15 15" width="100%" height="30px" preserveAspectRatio="xMaxYMin meet">
         <g id="arrow_out" transform="scale(0.3 0.3)">
          <a xlink:href="a00013_a7e480d4e590046701d82e74491ff944a_icgraph_org.svg" target="_base">
           <rect id="button" ry="5" rx="5" y="6" x="6" height="38" width="38"
                fill="#f2f5e9" fill-opacity="0.5" stroke="#606060" stroke-width="1.0"/>
           <path id="arrow"
             d="M 11.500037,31.436501 C 11.940474,20.09759 22.043105,11.32322 32.158766,21.979434 L 37.068811,17.246167 C 37.068811,17.246167 37.088388,32 37.088388,32 L 22.160133,31.978069 C 22.160133,31.978069 26.997745,27.140456 26.997745,27.140456 C 18.528582,18.264221 13.291696,25.230495 11.500037,31.436501 z"
             style="fill:#404040;"/>
          </a>
         </g>
        </svg>
</svg>
