<?xml version="1.0" encoding="UTF-8" standalone="no"?>
<!DOCTYPE svg PUBLIC "-//W3C//DTD SVG 1.1//EN"
 "http://www.w3.org/Graphics/SVG/1.1/DTD/svg11.dtd">
<!-- Generated by graphviz version 2.26.3 (20100126.1600)
 -->
<!-- Title: Solution::getConcent Pages: 1 -->
<svg width="476pt" height="316pt"
 viewBox="0.00 0.00 476.00 316.01" xmlns="http://www.w3.org/2000/svg" xmlns:xlink="http://www.w3.org/1999/xlink">
<g id="graph1" class="graph" transform="scale(1 1) rotate(0) translate(4 312.01)">
<title>Solution::getConcent</title>
<polygon fill="white" stroke="white" points="-4,5 -4,-312.01 473,-312.01 473,5 -4,5"/>
<!-- Node1 -->
<g id="node1" class="node"><title>Node1</title>
<polygon fill="#bfbfbf" stroke="black" points="0,-147 0,-171 128,-171 128,-147 0,-147"/>
<text text-anchor="middle" x="64" y="-156.2" font-family="Helvetica,sans-Serif" font-size="12.00">Solution::getConcent</text>
</g>
<!-- Node2 -->
<g id="node3" class="node"><title>Node2</title>
<a xlink:href="a00001.html#a68965449404743bf1add056784d6cf81" target="_top" xlink:title="Slot of clicking on proceed button.">
<polygon fill="white" stroke="red" points="368,-189 368,-213 468,-213 468,-189 368,-189"/>
<text text-anchor="middle" x="418" y="-198.2" font-family="Helvetica,sans-Serif" font-size="12.00">Application::run</text>
</a>
</g>
<!-- Node1&#45;&gt;Node2 -->
<g id="edge2" class="edge"><title>Node1&#45;&gt;Node2</title>
<path fill="none" stroke="midnightblue" d="M73.533,-180.545C88.1038,-210.443 119.039,-263.283 164,-285 231.234,-317.475 262.85,-313.167 332,-285 367.952,-270.355 397.06,-232.648 410.29,-213.122"/>
<polygon fill="midnightblue" stroke="midnightblue" points="76.6403,-178.928 69.2223,-171.363 70.3039,-181.902 76.6403,-178.928"/>
</g>
<!-- Node3 -->
<g id="node5" class="node"><title>Node3</title>
<a xlink:href="a00002.html#a6fc1d983c7fa16eebd0d0b12cb505a30" target="_top" xlink:title="Copies data contain from the given parameter.">
<polygon fill="white" stroke="red" points="198.5,-252 198.5,-276 297.5,-276 297.5,-252 198.5,-252"/>
<text text-anchor="middle" x="248" y="-261.2" font-family="Helvetica,sans-Serif" font-size="12.00">Data::copyData</text>
</a>
</g>
<!-- Node1&#45;&gt;Node3 -->
<g id="edge4" class="edge"><title>Node1&#45;&gt;Node3</title>
<path fill="none" stroke="midnightblue" d="M82.0219,-178.636C100.717,-197.835 131.694,-226.516 164,-243 174.578,-248.397 186.627,-252.464 198.231,-255.506"/>
<polygon fill="midnightblue" stroke="midnightblue" points="84.457,-176.118 75.0226,-171.297 79.3914,-180.949 84.457,-176.118"/>
</g>
<!-- Node4 -->
<g id="node8" class="node"><title>Node4</title>
<a xlink:href="a00003.html#a30730fad4ea063bd1a253de59a279ecc" target="_top" xlink:title="displays input data on the input Table">
<polygon fill="white" stroke="red" points="168.5,-210 168.5,-234 327.5,-234 327.5,-210 168.5,-210"/>
<text text-anchor="middle" x="248" y="-219.2" font-family="Helvetica,sans-Serif" font-size="12.00">Displaying::dispTableInput</text>
</a>
</g>
<!-- Node1&#45;&gt;Node4 -->
<g id="edge8" class="edge"><title>Node1&#45;&gt;Node4</title>
<path fill="none" stroke="midnightblue" d="M99.0469,-175.269C118.008,-183.674 141.991,-193.674 164,-201 173.841,-204.276 184.48,-207.311 194.771,-209.998"/>
<polygon fill="midnightblue" stroke="midnightblue" points="100.457,-172.065 89.9004,-171.166 97.592,-178.452 100.457,-172.065"/>
</g>
<!-- Node5 -->
<g id="node11" class="node"><title>Node5</title>
<a xlink:href="a00003.html#a773c819165ab712b4fd073ddddcd8695" target="_top" xlink:title="display output data on the output Table">
<polygon fill="white" stroke="red" points="164,-168 164,-192 332,-192 332,-168 164,-168"/>
<text text-anchor="middle" x="248" y="-177.2" font-family="Helvetica,sans-Serif" font-size="12.00">Displaying::dispTableOutput</text>
</a>
</g>
<!-- Node1&#45;&gt;Node5 -->
<g id="edge12" class="edge"><title>Node1&#45;&gt;Node5</title>
<path fill="none" stroke="midnightblue" d="M138.221,-167.471C146.621,-168.43 155.228,-169.412 163.745,-170.384"/>
<polygon fill="midnightblue" stroke="midnightblue" points="138.428,-163.972 128.096,-166.315 137.635,-170.927 138.428,-163.972"/>
</g>
<!-- Node6 -->
<g id="node14" class="node"><title>Node6</title>
<a xlink:href="a00003.html#a2eb8d02c398ddd7708260ec230ceafcc" target="_top" xlink:title="Plots Calibration curves.">
<polygon fill="white" stroke="red" points="176.5,-126 176.5,-150 319.5,-150 319.5,-126 176.5,-126"/>
<text text-anchor="middle" x="248" y="-135.2" font-family="Helvetica,sans-Serif" font-size="12.00">Displaying::plotElement</text>
</a>
</g>
<!-- Node1&#45;&gt;Node6 -->
<g id="edge16" class="edge"><title>Node1&#45;&gt;Node6</title>
<path fill="none" stroke="midnightblue" d="M138.079,-150.545C150.675,-149.108 163.737,-147.617 176.271,-146.186"/>
<polygon fill="midnightblue" stroke="midnightblue" points="137.635,-147.073 128.096,-151.685 138.428,-154.028 137.635,-147.073"/>
</g>
<!-- Node7 -->
<g id="node17" class="node"><title>Node7</title>
<a xlink:href="a00009.html#aac066ac6d6c2c4d2391343af917c92b4" target="_top" xlink:title="Parsing Function.">
<polygon fill="white" stroke="black" points="182,-84 182,-108 314,-108 314,-84 182,-84"/>
<text text-anchor="middle" x="248" y="-93.2" font-family="Helvetica,sans-Serif" font-size="12.00">ParserOutCSV::parse</text>
</a>
</g>
<!-- Node1&#45;&gt;Node7 -->
<g id="edge20" class="edge"><title>Node1&#45;&gt;Node7</title>
<path fill="none" stroke="midnightblue" d="M99.0469,-142.731C118.008,-134.326 141.991,-124.326 164,-117 173.841,-113.724 184.48,-110.689 194.771,-108.002"/>
<polygon fill="midnightblue" stroke="midnightblue" points="97.592,-139.548 89.9004,-146.834 100.457,-145.935 97.592,-139.548"/>
</g>
<!-- Node8 -->
<g id="node19" class="node"><title>Node8</title>
<a xlink:href="a00010.html#a092b32603577be8f4482f2d5d5f7ff30" target="_top" xlink:title="Quality control after data processing.">
<polygon fill="white" stroke="black" points="185,-42 185,-66 311,-66 311,-42 185,-42"/>
<text text-anchor="middle" x="248" y="-51.2" font-family="Helvetica,sans-Serif" font-size="12.00">Processing::passQC</text>
</a>
</g>
<!-- Node1&#45;&gt;Node8 -->
<g id="edge22" class="edge"><title>Node1&#45;&gt;Node8</title>
<path fill="none" stroke="midnightblue" d="M82.0219,-139.364C100.717,-120.165 131.694,-91.4843 164,-75 170.829,-71.5156 178.271,-68.586 185.81,-66.1285"/>
<polygon fill="midnightblue" stroke="midnightblue" points="79.3914,-137.051 75.0226,-146.703 84.457,-141.882 79.3914,-137.051"/>
</g>
<!-- Node9 -->
<g id="node22" class="node"><title>Node9</title>
<a xlink:href="a00010.html#a5fbd5c910da7cec1497168d1d217f1ed" target="_top" xlink:title="Computes a calibration line.">
<polygon fill="white" stroke="red" points="172,-0 172,-24 324,-24 324,-0 172,-0"/>
<text text-anchor="middle" x="248" y="-9.2" font-family="Helvetica,sans-Serif" font-size="12.00">Processing::computeLine</text>
</a>
</g>
<!-- Node1&#45;&gt;Node9 -->
<g id="edge26" class="edge"><title>Node1&#45;&gt;Node9</title>
<path fill="none" stroke="midnightblue" d="M75.0292,-137.684C90.8318,-109.321 122.632,-59.6592 164,-33 169.433,-29.4985 175.411,-26.5809 181.598,-24.1497"/>
<polygon fill="midnightblue" stroke="midnightblue" points="71.801,-136.296 70.1174,-146.756 77.9566,-139.629 71.801,-136.296"/>
</g>
<!-- Node3&#45;&gt;Node2 -->
<g id="edge6" class="edge"><title>Node3&#45;&gt;Node2</title>
<path fill="none" stroke="midnightblue" d="M307.514,-250.773C315.822,-248.449 324.184,-245.85 332,-243 354.635,-234.747 379.219,-222.369 396.283,-213.186"/>
<polygon fill="midnightblue" stroke="midnightblue" points="306.575,-247.401 297.823,-253.372 308.389,-254.162 306.575,-247.401"/>
</g>
<!-- Node4&#45;&gt;Node2 -->
<g id="edge10" class="edge"><title>Node4&#45;&gt;Node2</title>
<path fill="none" stroke="midnightblue" d="M337.458,-210.949C347.811,-209.67 358.076,-208.402 367.636,-207.221"/>
<polygon fill="midnightblue" stroke="midnightblue" points="337.02,-207.477 327.525,-212.176 337.879,-214.424 337.02,-207.477"/>
</g>
<!-- Node5&#45;&gt;Node2 -->
<g id="edge14" class="edge"><title>Node5&#45;&gt;Node2</title>
<path fill="none" stroke="midnightblue" d="M342.008,-191.613C350.838,-192.703 359.536,-193.778 367.717,-194.789"/>
<polygon fill="midnightblue" stroke="midnightblue" points="342.358,-188.129 332.004,-190.377 341.499,-195.077 342.358,-188.129"/>
</g>
<!-- Node6&#45;&gt;Node2 -->
<g id="edge18" class="edge"><title>Node6&#45;&gt;Node2</title>
<path fill="none" stroke="midnightblue" d="M313.229,-152.869C319.627,-154.756 325.976,-156.803 332,-159 354.635,-167.253 379.219,-179.631 396.283,-188.814"/>
<polygon fill="midnightblue" stroke="midnightblue" points="313.749,-149.379 303.174,-150.036 311.851,-156.117 313.749,-149.379"/>
</g>
<!-- Node8&#45;&gt;Node2 -->
<g id="edge24" class="edge"><title>Node8&#45;&gt;Node2</title>
<path fill="none" stroke="midnightblue" d="M320.702,-68.4378C324.661,-70.359 328.462,-72.5351 332,-75 374.812,-104.822 402.661,-163.361 413.224,-188.759"/>
<polygon fill="midnightblue" stroke="midnightblue" points="321.797,-65.0999 311.225,-64.4019 319.054,-71.5403 321.797,-65.0999"/>
</g>
</g>
</svg>
