<?xml version="1.0" encoding="UTF-8" standalone="no"?>
<!DOCTYPE svg PUBLIC "-//W3C//DTD SVG 1.1//EN"
 "http://www.w3.org/Graphics/SVG/1.1/DTD/svg11.dtd">
<!-- Generated by graphviz version 2.26.3 (20100126.1600)
 -->
<!-- Title: Data::mapHR Pages: 1 -->
<svg width="416pt" height="52pt"
 viewBox="0.00 0.00 416.00 52.00" xmlns="http://www.w3.org/2000/svg" xmlns:xlink="http://www.w3.org/1999/xlink">
<g id="graph1" class="graph" transform="scale(1 1) rotate(0) translate(4 48)">
<title>Data::mapHR</title>
<polygon fill="white" stroke="white" points="-4,5 -4,-48 413,-48 413,5 -4,5"/>
<!-- Node1 -->
<g id="node1" class="node"><title>Node1</title>
<polygon fill="#bfbfbf" stroke="black" points="0.5,-0 0.5,-24 89.5,-24 89.5,-0 0.5,-0"/>
<text text-anchor="middle" x="45" y="-9.2" font-family="Helvetica,sans-Serif" font-size="12.00">Data::mapHR</text>
</g>
<!-- Node2 -->
<g id="node3" class="node"><title>Node2</title>
<a xlink:href="a00001.html#a9c0b6e60ede4b6f2c60abe874f351994" target="_top" xlink:title="Slot of choosing Internal standard plot plot to diplay.">
<polygon fill="white" stroke="red" points="126,-20 126,-44 272,-44 272,-20 126,-20"/>
<text text-anchor="middle" x="199" y="-29.2" font-family="Helvetica,sans-Serif" font-size="12.00">Application::onISChoice</text>
</a>
</g>
<!-- Node1&#45;&gt;Node2 -->
<g id="edge2" class="edge"><title>Node1&#45;&gt;Node2</title>
<path fill="none" stroke="midnightblue" d="M99.6622,-19.099C108.144,-20.2006 117.023,-21.3536 125.834,-22.4979"/>
<polygon fill="midnightblue" stroke="midnightblue" points="99.9107,-15.6019 89.5432,-17.7848 99.0091,-22.5437 99.9107,-15.6019"/>
</g>
<!-- Node3 -->
<g id="node5" class="node"><title>Node3</title>
<a xlink:href="a00001.html#a68965449404743bf1add056784d6cf81" target="_top" xlink:title="Slot of clicking on proceed button.">
<polygon fill="white" stroke="red" points="308,-0 308,-24 408,-24 408,-0 308,-0"/>
<text text-anchor="middle" x="358" y="-9.2" font-family="Helvetica,sans-Serif" font-size="12.00">Application::run</text>
</a>
</g>
<!-- Node1&#45;&gt;Node3 -->
<g id="edge6" class="edge"><title>Node1&#45;&gt;Node3</title>
<path fill="none" stroke="midnightblue" d="M99.735,-11.2324C108.518,-11.1357 117.509,-11.0524 126,-11 190.888,-10.5995 207.112,-10.6228 272,-11 283.646,-11.0677 296.18,-11.187 307.978,-11.3201"/>
<polygon fill="midnightblue" stroke="midnightblue" points="99.5208,-7.7346 89.5623,-11.3511 99.6025,-14.7341 99.5208,-7.7346"/>
</g>
<!-- Node2&#45;&gt;Node3 -->
<g id="edge4" class="edge"><title>Node2&#45;&gt;Node3</title>
<path fill="none" stroke="midnightblue" d="M282.492,-21.4978C291.043,-20.4222 299.533,-19.3544 307.563,-18.3442"/>
<polygon fill="midnightblue" stroke="midnightblue" points="281.935,-18.0403 272.45,-22.7611 282.808,-24.9856 281.935,-18.0403"/>
</g>
</g>
</svg>
