<?xml version="1.0" encoding="UTF-8" standalone="no"?>
<!DOCTYPE svg PUBLIC "-//W3C//DTD SVG 1.1//EN"
 "http://www.w3.org/Graphics/SVG/1.1/DTD/svg11.dtd">
<!-- Generated by graphviz version 2.26.3 (20100126.1600)
 -->
<!-- Title: Solution::getCps Pages: 1 -->
<!--zoomable 524 -->
<svg id="main" version="1.1" xmlns="http://www.w3.org/2000/svg" xmlns:xlink="http://www.w3.org/1999/xlink" xml:space="preserve" onload="init(evt)">
        <defs>
                <circle id="rim" cx="0" cy="0" r="7"/>
                <circle id="rim2" cx="0" cy="0" r="3.5"/>
                <g id="zoomPlus">
                        <use xlink:href="#rim" fill="#404040">
                                <set attributeName="fill" to="#808080" begin="zoomplus.mouseover" end="zoomplus.mouseout"/>
                        </use>
                        <path d="M-4,0h8M0,-4v8" fill="none" stroke="white" stroke-width="1.5" pointer-events="none"/>
                </g>
                <g id="zoomMin">
                        <use xlink:href="#rim" fill="#404040">
                                <set attributeName="fill" to="#808080" begin="zoomminus.mouseover" end="zoomminus.mouseout"/>
                        </use>
                        <path d="M-4,0h8" fill="none" stroke="white" stroke-width="1.5" pointer-events="none"/>
                </g>
                <g id="dirArrow">
                        <path fill="none" stroke="white" stroke-width="1.5" d="M0,-3.0v7 M-2.5,-0.5L0,-3.0L2.5,-0.5"/>
                </g>
               <g id="resetDef">
                       <use xlink:href="#rim2" fill="#404040">
                               <set attributeName="fill" to="#808080" begin="reset.mouseover" end="reset.mouseout"/>
                       </use>
               </g>
        </defs>

<script type="text/javascript">
var viewWidth = 528;
var viewHeight = 524;
var sectionId = 'dynsection-4';
</script>
<script xlink:href="svgpan.js"/>
<svg id="graph" class="graph">
<g id="viewport">
<title>Solution::getCps</title>
<polygon fill="white" stroke="white" points="-4,5 -4,-520 525,-520 525,5 -4,5"/>
<!-- Node1 -->
<g id="node1" class="node"><title>Node1</title>
<polygon fill="#bfbfbf" stroke="black" points="0.5,-252 0.5,-276 105.5,-276 105.5,-252 0.5,-252"/>
<text text-anchor="middle" x="53" y="-261.2" font-family="Helvetica,sans-Serif" font-size="12.00">Solution::getCps</text>
</g>
<!-- Node2 -->
<g id="node3" class="node"><title>Node2</title>
<a xlink:href="a00002.html#a6fc1d983c7fa16eebd0d0b12cb505a30" target="_top" xlink:title="Copies data contain from the given parameter.">
<polygon fill="white" stroke="red" points="179.5,-492 179.5,-516 278.5,-516 278.5,-492 179.5,-492"/>
<text text-anchor="middle" x="229" y="-501.2" font-family="Helvetica,sans-Serif" font-size="12.00">Data::copyData</text>
</a>
</g>
<!-- Node1&#45;&gt;Node2 -->
<g id="edge2" class="edge"><title>Node1&#45;&gt;Node2</title>
<path fill="none" stroke="midnightblue" d="M55.3807,-286.184C61.3691,-330.601 81.2157,-430.667 142,-483 152.362,-491.921 165.88,-497.191 179.161,-500.265"/>
<polygon fill="midnightblue" stroke="midnightblue" points="58.8412,-285.648 54.1403,-276.154 51.8941,-286.508 58.8412,-285.648"/>
</g>
<!-- Node3 -->
<g id="node5" class="node"><title>Node3</title>
<a xlink:href="a00002.html#a6ff99fcec4f0387958fff773969de591" target="_top" xlink:title="Adds a calculated Blank Solution.">
<polygon fill="white" stroke="red" points="172,-450 172,-474 286,-474 286,-450 172,-450"/>
<text text-anchor="middle" x="229" y="-459.2" font-family="Helvetica,sans-Serif" font-size="12.00">Data::addBLKmoy</text>
</a>
</g>
<!-- Node1&#45;&gt;Node3 -->
<g id="edge4" class="edge"><title>Node1&#45;&gt;Node3</title>
<path fill="none" stroke="midnightblue" d="M58.41,-286.192C68.4957,-322.846 93.6644,-395.957 142,-436 150.619,-443.14 161.149,-448.32 171.868,-452.077"/>
<polygon fill="midnightblue" stroke="midnightblue" points="61.6765,-284.85 55.7552,-276.064 54.9052,-286.625 61.6765,-284.85"/>
</g>
<!-- Node4 -->
<g id="node7" class="node"><title>Node4</title>
<a xlink:href="a00003.html#a30730fad4ea063bd1a253de59a279ecc" target="_top" xlink:title="displays input data on the input Table">
<polygon fill="white" stroke="red" points="356.5,-405 356.5,-429 515.5,-429 515.5,-405 356.5,-405"/>
<text text-anchor="middle" x="436" y="-414.2" font-family="Helvetica,sans-Serif" font-size="12.00">Displaying::dispTableInput</text>
</a>
</g>
<!-- Node1&#45;&gt;Node4 -->
<g id="edge6" class="edge"><title>Node1&#45;&gt;Node4</title>
<path fill="none" stroke="midnightblue" d="M61.1324,-285.688C73.5499,-315.42 100.285,-367.892 142,-392 206.976,-429.551 293.866,-432.311 356.31,-427.802"/>
<polygon fill="midnightblue" stroke="midnightblue" points="64.3015,-284.186 57.3362,-276.203 57.8027,-286.788 64.3015,-284.186"/>
</g>
<!-- Node5 -->
<g id="node9" class="node"><title>Node5</title>
<a xlink:href="a00003.html#a773c819165ab712b4fd073ddddcd8695" target="_top" xlink:title="display output data on the output Table">
<polygon fill="white" stroke="red" points="352,-359 352,-383 520,-383 520,-359 352,-359"/>
<text text-anchor="middle" x="436" y="-368.2" font-family="Helvetica,sans-Serif" font-size="12.00">Displaying::dispTableOutput</text>
</a>
</g>
<!-- Node1&#45;&gt;Node5 -->
<g id="edge8" class="edge"><title>Node1&#45;&gt;Node5</title>
<path fill="none" stroke="midnightblue" d="M64.3089,-285.09C78.6997,-309.455 106.066,-348.326 142,-365 217.601,-400.079 316.338,-392.859 377.96,-383.022"/>
<polygon fill="midnightblue" stroke="midnightblue" points="67.2611,-283.201 59.2742,-276.24 61.1767,-286.663 67.2611,-283.201"/>
</g>
<!-- Node6 -->
<g id="node11" class="node"><title>Node6</title>
<a xlink:href="a00003.html#a836d9f49a3480b021e2c2fa22e05d6b1" target="_top" xlink:title="Plots internal standard curve.">
<polygon fill="white" stroke="red" points="174,-252 174,-276 284,-276 284,-252 174,-252"/>
<text text-anchor="middle" x="229" y="-261.2" font-family="Helvetica,sans-Serif" font-size="12.00">Displaying::plotIS</text>
</a>
</g>
<!-- Node1&#45;&gt;Node6 -->
<g id="edge10" class="edge"><title>Node1&#45;&gt;Node6</title>
<path fill="none" stroke="midnightblue" d="M115.826,-264C134.759,-264 155.389,-264 173.788,-264"/>
<polygon fill="midnightblue" stroke="midnightblue" points="115.806,-260.5 105.806,-264 115.806,-267.5 115.806,-260.5"/>
</g>
<!-- Node7 -->
<g id="node13" class="node"><title>Node7</title>
<a xlink:href="a00003.html#a5b87ca7ad17830b56f9609f54991dd77" target="_top" xlink:title="Plots Evolution curve.">
<polygon fill="white" stroke="red" points="167.5,-210 167.5,-234 290.5,-234 290.5,-210 167.5,-210"/>
<text text-anchor="middle" x="229" y="-219.2" font-family="Helvetica,sans-Serif" font-size="12.00">Displaying::plotEvol</text>
</a>
</g>
<!-- Node1&#45;&gt;Node7 -->
<g id="edge12" class="edge"><title>Node1&#45;&gt;Node7</title>
<path fill="none" stroke="midnightblue" d="M113.326,-249.604C134.572,-244.534 158.213,-238.892 178.558,-234.037"/>
<polygon fill="midnightblue" stroke="midnightblue" points="112.349,-246.239 103.435,-251.964 113.974,-253.048 112.349,-246.239"/>
</g>
<!-- Node8 -->
<g id="node15" class="node"><title>Node8</title>
<a xlink:href="a00003.html#a2eb8d02c398ddd7708260ec230ceafcc" target="_top" xlink:title="Plots Calibration curves.">
<polygon fill="white" stroke="red" points="364.5,-309 364.5,-333 507.5,-333 507.5,-309 364.5,-309"/>
<text text-anchor="middle" x="436" y="-318.2" font-family="Helvetica,sans-Serif" font-size="12.00">Displaying::plotElement</text>
</a>
</g>
<!-- Node1&#45;&gt;Node8 -->
<g id="edge14" class="edge"><title>Node1&#45;&gt;Node8</title>
<path fill="none" stroke="midnightblue" d="M109.93,-278.413C120.546,-280.821 131.578,-283.138 142,-285 217.426,-298.474 304.647,-308.459 364.381,-314.452"/>
<polygon fill="midnightblue" stroke="midnightblue" points="110.444,-274.939 99.9117,-276.087 108.861,-281.758 110.444,-274.939"/>
</g>
<!-- Node9 -->
<g id="node17" class="node"><title>Node9</title>
<a xlink:href="a00007.html#ad7b814e406fa54ff255b66488a9dde4a" target="_top" xlink:title="Parsing Function.">
<polygon fill="white" stroke="black" points="167.5,-168 167.5,-192 290.5,-192 290.5,-168 167.5,-168"/>
<text text-anchor="middle" x="229" y="-177.2" font-family="Helvetica,sans-Serif" font-size="12.00">ParserInCSV::parse</text>
</a>
</g>
<!-- Node1&#45;&gt;Node9 -->
<g id="edge16" class="edge"><title>Node1&#45;&gt;Node9</title>
<path fill="none" stroke="midnightblue" d="M74.2039,-245.46C91.3943,-231.34 116.82,-212.439 142,-201 149.922,-197.401 158.541,-194.372 167.174,-191.835"/>
<polygon fill="midnightblue" stroke="midnightblue" points="71.8748,-242.845 66.4637,-251.954 76.3741,-248.208 71.8748,-242.845"/>
</g>
<!-- Node10 -->
<g id="node19" class="node"><title>Node10</title>
<a xlink:href="a00010.html#a409d37b18750104739ee43e169371a0b" target="_top" xlink:title="Applies Blank Substraction.">
<polygon fill="white" stroke="red" points="151.5,-126 151.5,-150 306.5,-150 306.5,-126 151.5,-126"/>
<text text-anchor="middle" x="229" y="-135.2" font-family="Helvetica,sans-Serif" font-size="12.00">Processing::subtructBlank</text>
</a>
</g>
<!-- Node1&#45;&gt;Node10 -->
<g id="edge18" class="edge"><title>Node1&#45;&gt;Node10</title>
<path fill="none" stroke="midnightblue" d="M65.0393,-243.039C79.9704,-218.984 107.696,-180.139 142,-159 147.688,-155.495 153.92,-152.575 160.352,-150.142"/>
<polygon fill="midnightblue" stroke="midnightblue" points="61.9472,-241.389 59.7842,-251.761 67.943,-245.002 61.9472,-241.389"/>
</g>
<!-- Node11 -->
<g id="node21" class="node"><title>Node11</title>
<a xlink:href="a00010.html#aa96b9a34a756e39a01581416199328d3" target="_top" xlink:title="Applies Internal Standard Correction.">
<polygon fill="white" stroke="red" points="156,-84 156,-108 302,-108 302,-84 156,-84"/>
<text text-anchor="middle" x="229" y="-93.2" font-family="Helvetica,sans-Serif" font-size="12.00">Processing::correctionIS</text>
</a>
</g>
<!-- Node1&#45;&gt;Node11 -->
<g id="edge20" class="edge"><title>Node1&#45;&gt;Node11</title>
<path fill="none" stroke="midnightblue" d="M60.1249,-242.012C71.8321,-209.489 98.302,-148.969 142,-117 146.765,-113.514 152.033,-110.6 157.549,-108.165"/>
<polygon fill="midnightblue" stroke="midnightblue" points="56.6709,-241.292 56.7171,-251.887 63.288,-243.576 56.6709,-241.292"/>
</g>
<!-- Node12 -->
<g id="node23" class="node"><title>Node12</title>
<a xlink:href="a00010.html#ac0d956c3e8bdbc42a3b24975b25c6dfd" target="_top" xlink:title="Computes concentrations on data container.">
<polygon fill="white" stroke="red" points="142.5,-42 142.5,-66 315.5,-66 315.5,-42 142.5,-42"/>
<text text-anchor="middle" x="229" y="-51.2" font-family="Helvetica,sans-Serif" font-size="12.00">Processing::computeConcent</text>
</a>
</g>
<!-- Node1&#45;&gt;Node12 -->
<g id="edge22" class="edge"><title>Node1&#45;&gt;Node12</title>
<path fill="none" stroke="midnightblue" d="M57.0282,-241.55C65.4005,-201.665 88.5461,-118.561 142,-75 146.336,-71.4664 151.173,-68.5113 156.285,-66.0419"/>
<polygon fill="midnightblue" stroke="midnightblue" points="53.5503,-241.096 55.0456,-251.584 60.4176,-242.452 53.5503,-241.096"/>
</g>
<!-- Node13 -->
<g id="node25" class="node"><title>Node13</title>
<a xlink:href="a00010.html#a5fbd5c910da7cec1497168d1d217f1ed" target="_top" xlink:title="Computes a calibration line.">
<polygon fill="white" stroke="red" points="153,-0 153,-24 305,-24 305,-0 153,-0"/>
<text text-anchor="middle" x="229" y="-9.2" font-family="Helvetica,sans-Serif" font-size="12.00">Processing::computeLine</text>
</a>
</g>
<!-- Node1&#45;&gt;Node13 -->
<g id="edge24" class="edge"><title>Node1&#45;&gt;Node13</title>
<path fill="none" stroke="midnightblue" d="M54.8771,-241.583C59.9969,-195.281 78.417,-88.7605 142,-33 145.972,-29.5168 150.423,-26.5883 155.157,-24.1288"/>
<polygon fill="midnightblue" stroke="midnightblue" points="51.3733,-241.448 53.864,-251.746 58.3387,-242.143 51.3733,-241.448"/>
</g>
<!-- Node14 -->
<g id="node27" class="node"><title>Node14</title>
<a xlink:href="a00013.html#ac0ca8e1256ac9b972eab1f02f11ab8ac" target="_top" xlink:title="Gets Intensity Relative Standard Deviation (%)">
<polygon fill="white" stroke="black" points="163.5,-332 163.5,-356 294.5,-356 294.5,-332 163.5,-332"/>
<text text-anchor="middle" x="229" y="-341.2" font-family="Helvetica,sans-Serif" font-size="12.00">Solution::getCpsRSD</text>
</a>
</g>
<!-- Node1&#45;&gt;Node14 -->
<g id="edge26" class="edge"><title>Node1&#45;&gt;Node14</title>
<path fill="none" stroke="midnightblue" d="M78.4302,-281.833C95.7343,-293.355 119.494,-308.007 142,-318 154.247,-323.438 167.952,-328.131 180.797,-331.975"/>
<polygon fill="midnightblue" stroke="midnightblue" points="80.254,-278.841 70.0106,-276.135 76.3306,-284.639 80.254,-278.841"/>
</g>
<!-- Node14&#45;&gt;Node4 -->
<g id="edge28" class="edge"><title>Node14&#45;&gt;Node4</title>
<path fill="none" stroke="midnightblue" d="M267.565,-359.997C291.653,-369.752 323.417,-382.188 352,-392 365.24,-396.545 379.812,-401.052 393.049,-404.961"/>
<polygon fill="midnightblue" stroke="midnightblue" points="268.655,-356.662 258.074,-356.131 266.015,-363.145 268.655,-356.662"/>
</g>
<!-- Node14&#45;&gt;Node5 -->
<g id="edge30" class="edge"><title>Node14&#45;&gt;Node5</title>
<path fill="none" stroke="midnightblue" d="M304.702,-353.874C320.015,-355.872 336.205,-357.983 351.791,-360.016"/>
<polygon fill="midnightblue" stroke="midnightblue" points="305.149,-350.403 294.781,-352.58 304.244,-357.344 305.149,-350.403"/>
</g>
<!-- Node14&#45;&gt;Node8 -->
<g id="edge32" class="edge"><title>Node14&#45;&gt;Node8</title>
<path fill="none" stroke="midnightblue" d="M304.799,-335.578C324.233,-333.419 345.074,-331.103 364.294,-328.967"/>
<polygon fill="midnightblue" stroke="midnightblue" points="304.333,-332.108 294.781,-336.691 305.106,-339.065 304.333,-332.108"/>
</g>
</g>
</svg>
        <g id="navigator" transform="translate(0 0)" fill="#404254">
                <rect fill="#f2f5e9" fill-opacity="0.5" stroke="#606060" stroke-width=".5" x="0" y="0" width="60" height="60"/>
                <use id="zoomplus" xlink:href="#zoomPlus" x="17" y="9" onmousedown="handleZoom(evt,'in')"/>
                <use id="zoomminus" xlink:href="#zoomMin" x="42" y="9" onmousedown="handleZoom(evt,'out')"/>
                <use id="reset" xlink:href="#resetDef" x="30" y="36" onmousedown="handleReset()"/>
                <g id="arrowUp" xlink:href="#dirArrow" transform="translate(30 24)" onmousedown="handlePan(0,-1)">
                  <use xlink:href="#rim" fill="#404040">
                        <set attributeName="fill" to="#808080" begin="arrowUp.mouseover" end="arrowUp.mouseout"/>
                  </use>
                  <path fill="none" stroke="white" stroke-width="1.5" d="M0,-3.0v7 M-2.5,-0.5L0,-3.0L2.5,-0.5"/>
                </g>
                <g id="arrowRight" xlink:href="#dirArrow" transform="rotate(90) translate(36 -43)" onmousedown="handlePan(1,0)">
                  <use xlink:href="#rim" fill="#404040">
                        <set attributeName="fill" to="#808080" begin="arrowRight.mouseover" end="arrowRight.mouseout"/>
                  </use>
                  <path fill="none" stroke="white" stroke-width="1.5" d="M0,-3.0v7 M-2.5,-0.5L0,-3.0L2.5,-0.5"/>
                </g>
                <g id="arrowDown" xlink:href="#dirArrow" transform="rotate(180) translate(-30 -48)" onmousedown="handlePan(0,1)">
                  <use xlink:href="#rim" fill="#404040">
                        <set attributeName="fill" to="#808080" begin="arrowDown.mouseover" end="arrowDown.mouseout"/>
                  </use>
                  <path fill="none" stroke="white" stroke-width="1.5" d="M0,-3.0v7 M-2.5,-0.5L0,-3.0L2.5,-0.5"/>
                </g>
                <g id="arrowLeft" xlink:href="#dirArrow" transform="rotate(270) translate(-36 17)" onmousedown="handlePan(-1,0)">
                  <use xlink:href="#rim" fill="#404040">
                        <set attributeName="fill" to="#808080" begin="arrowLeft.mouseover" end="arrowLeft.mouseout"/>
                  </use>
                  <path fill="none" stroke="white" stroke-width="1.5" d="M0,-3.0v7 M-2.5,-0.5L0,-3.0L2.5,-0.5"/>
                </g>
        </g>
        <svg viewBox="0 0 15 15" width="100%" height="30px" preserveAspectRatio="xMaxYMin meet">
         <g id="arrow_out" transform="scale(0.3 0.3)">
          <a xlink:href="a00013_a6cb75c8a1aa020796506362920216816_icgraph_org.svg" target="_base">
           <rect id="button" ry="5" rx="5" y="6" x="6" height="38" width="38"
                fill="#f2f5e9" fill-opacity="0.5" stroke="#606060" stroke-width="1.0"/>
           <path id="arrow"
             d="M 11.500037,31.436501 C 11.940474,20.09759 22.043105,11.32322 32.158766,21.979434 L 37.068811,17.246167 C 37.068811,17.246167 37.088388,32 37.088388,32 L 22.160133,31.978069 C 22.160133,31.978069 26.997745,27.140456 26.997745,27.140456 C 18.528582,18.264221 13.291696,25.230495 11.500037,31.436501 z"
             style="fill:#404040;"/>
          </a>
         </g>
        </svg>
</svg>
