<?xml version="1.0" encoding="UTF-8" standalone="no"?>
<!DOCTYPE svg PUBLIC "-//W3C//DTD SVG 1.1//EN"
 "http://www.w3.org/Graphics/SVG/1.1/DTD/svg11.dtd">
<!-- Generated by graphviz version 2.26.3 (20100126.1600)
 -->
<!-- Title: Solution::setConcentRSD Pages: 1 -->
<svg width="372pt" height="116pt"
 viewBox="0.00 0.00 372.00 116.00" xmlns="http://www.w3.org/2000/svg" xmlns:xlink="http://www.w3.org/1999/xlink">
<g id="graph1" class="graph" transform="scale(1 1) rotate(0) translate(4 112)">
<title>Solution::setConcentRSD</title>
<polygon fill="white" stroke="white" points="-4,5 -4,-112 369,-112 369,5 -4,5"/>
<!-- Node1 -->
<g id="node1" class="node"><title>Node1</title>
<polygon fill="#bfbfbf" stroke="black" points="0,-42 0,-66 154,-66 154,-42 0,-42"/>
<text text-anchor="middle" x="77" y="-51.2" font-family="Helvetica,sans-Serif" font-size="12.00">Solution::setConcentRSD</text>
</g>
<!-- Node2 -->
<g id="node3" class="node"><title>Node2</title>
<a xlink:href="a00002.html#a6fc1d983c7fa16eebd0d0b12cb505a30" target="_top" xlink:title="Copies data contain from the given parameter.">
<polygon fill="white" stroke="red" points="227.5,-84 227.5,-108 326.5,-108 326.5,-84 227.5,-84"/>
<text text-anchor="middle" x="277" y="-93.2" font-family="Helvetica,sans-Serif" font-size="12.00">Data::copyData</text>
</a>
</g>
<!-- Node1&#45;&gt;Node2 -->
<g id="edge2" class="edge"><title>Node1&#45;&gt;Node2</title>
<path fill="none" stroke="midnightblue" d="M144.171,-68.1058C171.427,-73.8296 202.343,-80.322 227.487,-85.6022"/>
<polygon fill="midnightblue" stroke="midnightblue" points="144.818,-64.6655 134.312,-66.0355 143.379,-71.5161 144.818,-64.6655"/>
</g>
<!-- Node3 -->
<g id="node5" class="node"><title>Node3</title>
<a xlink:href="a00008.html#a8bdd62cece3dc339c2096c85044fad66" target="_top" xlink:title="Parsing Function.">
<polygon fill="white" stroke="black" points="207,-42 207,-66 347,-66 347,-42 207,-42"/>
<text text-anchor="middle" x="277" y="-51.2" font-family="Helvetica,sans-Serif" font-size="12.00">ParserInSTDQC::parse</text>
</a>
</g>
<!-- Node1&#45;&gt;Node3 -->
<g id="edge4" class="edge"><title>Node1&#45;&gt;Node3</title>
<path fill="none" stroke="midnightblue" d="M164.322,-54C178.551,-54 193.128,-54 206.875,-54"/>
<polygon fill="midnightblue" stroke="midnightblue" points="164.039,-50.5001 154.039,-54 164.039,-57.5001 164.039,-50.5001"/>
</g>
<!-- Node4 -->
<g id="node7" class="node"><title>Node4</title>
<a xlink:href="a00010.html#ac0d956c3e8bdbc42a3b24975b25c6dfd" target="_top" xlink:title="Computes concentrations on data container.">
<polygon fill="white" stroke="red" points="190.5,-0 190.5,-24 363.5,-24 363.5,-0 190.5,-0"/>
<text text-anchor="middle" x="277" y="-9.2" font-family="Helvetica,sans-Serif" font-size="12.00">Processing::computeConcent</text>
</a>
</g>
<!-- Node1&#45;&gt;Node4 -->
<g id="edge6" class="edge"><title>Node1&#45;&gt;Node4</title>
<path fill="none" stroke="midnightblue" d="M144.244,-39.8788C168.721,-34.7386 196.142,-28.9802 219.68,-24.0373"/>
<polygon fill="midnightblue" stroke="midnightblue" points="143.379,-36.4839 134.312,-41.9645 144.818,-43.3345 143.379,-36.4839"/>
</g>
</g>
</svg>
