<?xml version="1.0" encoding="UTF-8" standalone="no"?>
<!DOCTYPE svg PUBLIC "-//W3C//DTD SVG 1.1//EN"
 "http://www.w3.org/Graphics/SVG/1.1/DTD/svg11.dtd">
<!-- Generated by graphviz version 2.26.3 (20100126.1600)
 -->
<!-- Title: Data::mapMR Pages: 1 -->
<svg width="416pt" height="52pt"
 viewBox="0.00 0.00 416.00 52.00" xmlns="http://www.w3.org/2000/svg" xmlns:xlink="http://www.w3.org/1999/xlink">
<g id="graph1" class="graph" transform="scale(1 1) rotate(0) translate(4 48)">
<title>Data::mapMR</title>
<polygon fill="white" stroke="white" points="-4,5 -4,-48 413,-48 413,5 -4,5"/>
<!-- Node1 -->
<g id="node1" class="node"><title>Node1</title>
<polygon fill="#bfbfbf" stroke="black" points="0,-0 0,-24 90,-24 90,-0 0,-0"/>
<text text-anchor="middle" x="45" y="-9.2" font-family="Helvetica,sans-Serif" font-size="12.00">Data::mapMR</text>
</g>
<!-- Node2 -->
<g id="node3" class="node"><title>Node2</title>
<a xlink:href="a00001.html#a9c0b6e60ede4b6f2c60abe874f351994" target="_top" xlink:title="Slot of choosing Internal standard plot plot to diplay.">
<polygon fill="white" stroke="red" points="126,-20 126,-44 272,-44 272,-20 126,-20"/>
<text text-anchor="middle" x="199" y="-29.2" font-family="Helvetica,sans-Serif" font-size="12.00">Application::onISChoice</text>
</a>
</g>
<!-- Node1&#45;&gt;Node2 -->
<g id="edge2" class="edge"><title>Node1&#45;&gt;Node2</title>
<path fill="none" stroke="midnightblue" d="M100.307,-19.1828C108.626,-20.2631 117.312,-21.3911 125.932,-22.5107"/>
<polygon fill="midnightblue" stroke="midnightblue" points="100.74,-15.7096 90.3721,-17.8925 99.8381,-22.6513 100.74,-15.7096"/>
</g>
<!-- Node3 -->
<g id="node5" class="node"><title>Node3</title>
<a xlink:href="a00001.html#a68965449404743bf1add056784d6cf81" target="_top" xlink:title="Slot of clicking on proceed button.">
<polygon fill="white" stroke="red" points="308,-0 308,-24 408,-24 408,-0 308,-0"/>
<text text-anchor="middle" x="358" y="-9.2" font-family="Helvetica,sans-Serif" font-size="12.00">Application::run</text>
</a>
</g>
<!-- Node1&#45;&gt;Node3 -->
<g id="edge6" class="edge"><title>Node1&#45;&gt;Node3</title>
<path fill="none" stroke="midnightblue" d="M100.643,-11.2225C109.137,-11.13 117.802,-11.0506 126,-11 190.888,-10.5995 207.112,-10.6228 272,-11 283.646,-11.0677 296.18,-11.187 307.978,-11.3201"/>
<polygon fill="midnightblue" stroke="midnightblue" points="100.369,-7.72534 90.4098,-11.3407 100.45,-14.7249 100.369,-7.72534"/>
</g>
<!-- Node2&#45;&gt;Node3 -->
<g id="edge4" class="edge"><title>Node2&#45;&gt;Node3</title>
<path fill="none" stroke="midnightblue" d="M282.492,-21.4978C291.043,-20.4222 299.533,-19.3544 307.563,-18.3442"/>
<polygon fill="midnightblue" stroke="midnightblue" points="281.935,-18.0403 272.45,-22.7611 282.808,-24.9856 281.935,-18.0403"/>
</g>
</g>
</svg>
