<?xml version="1.0" encoding="UTF-8" standalone="no"?>
<!DOCTYPE svg PUBLIC "-//W3C//DTD SVG 1.1//EN"
 "http://www.w3.org/Graphics/SVG/1.1/DTD/svg11.dtd">
<!-- Generated by graphviz version 2.26.3 (20100126.1600)
 -->
<!-- Title: Displaying::dispTableOutput Pages: 1 -->
<svg width="390pt" height="116pt"
 viewBox="0.00 0.00 390.00 116.00" xmlns="http://www.w3.org/2000/svg" xmlns:xlink="http://www.w3.org/1999/xlink">
<g id="graph1" class="graph" transform="scale(1 1) rotate(0) translate(4 112)">
<title>Displaying::dispTableOutput</title>
<polygon fill="white" stroke="white" points="-4,5 -4,-112 387,-112 387,5 -4,5"/>
<!-- Node1 -->
<g id="node1" class="node"><title>Node1</title>
<polygon fill="#bfbfbf" stroke="black" points="0,-42 0,-66 168,-66 168,-42 0,-42"/>
<text text-anchor="middle" x="84" y="-51.2" font-family="Helvetica,sans-Serif" font-size="12.00">Displaying::dispTableOutput</text>
</g>
<!-- Node2 -->
<g id="node3" class="node"><title>Node2</title>
<a xlink:href="a00001.html#a8123f70b34dd0f69ba8ba756e23c0ce0" target="_top" xlink:title="Slot of clicking on Solutions list in output data view.">
<polygon fill="white" stroke="red" points="204.5,-84 204.5,-108 381.5,-108 381.5,-84 204.5,-84"/>
<text text-anchor="middle" x="293" y="-93.2" font-family="Helvetica,sans-Serif" font-size="12.00">Application::onListViewOutput</text>
</a>
</g>
<!-- Node1&#45;&gt;Node2 -->
<g id="edge2" class="edge"><title>Node1&#45;&gt;Node2</title>
<path fill="none" stroke="midnightblue" d="M153.929,-68.0527C179.594,-73.2102 208.394,-78.9979 233.1,-83.9627"/>
<polygon fill="midnightblue" stroke="midnightblue" points="154.385,-64.5744 143.891,-66.0355 153.005,-71.4372 154.385,-64.5744"/>
</g>
<!-- Node3 -->
<g id="node5" class="node"><title>Node3</title>
<a xlink:href="a00001.html#a68965449404743bf1add056784d6cf81" target="_top" xlink:title="Slot of clicking on proceed button.">
<polygon fill="white" stroke="red" points="243,-42 243,-66 343,-66 343,-42 243,-42"/>
<text text-anchor="middle" x="293" y="-51.2" font-family="Helvetica,sans-Serif" font-size="12.00">Application::run</text>
</a>
</g>
<!-- Node1&#45;&gt;Node3 -->
<g id="edge4" class="edge"><title>Node1&#45;&gt;Node3</title>
<path fill="none" stroke="midnightblue" d="M178.256,-54C200.478,-54 223.324,-54 242.722,-54"/>
<polygon fill="midnightblue" stroke="midnightblue" points="178.105,-50.5001 168.105,-54 178.105,-57.5001 178.105,-50.5001"/>
</g>
<!-- Node4 -->
<g id="node7" class="node"><title>Node4</title>
<a xlink:href="a00001.html#ab7f9356b1eaa23c179500675d92a49d5" target="_top" xlink:title="Slot of clicking on open data file button.">
<polygon fill="white" stroke="red" points="228,-0 228,-24 358,-24 358,-0 228,-0"/>
<text text-anchor="middle" x="293" y="-9.2" font-family="Helvetica,sans-Serif" font-size="12.00">Application::openFile</text>
</a>
</g>
<!-- Node1&#45;&gt;Node4 -->
<g id="edge6" class="edge"><title>Node1&#45;&gt;Node4</title>
<path fill="none" stroke="midnightblue" d="M153.929,-39.9473C179.594,-34.7898 208.394,-29.0021 233.1,-24.0373"/>
<polygon fill="midnightblue" stroke="midnightblue" points="153.005,-36.5628 143.891,-41.9645 154.385,-43.4256 153.005,-36.5628"/>
</g>
</g>
</svg>
