<?xml version="1.0" encoding="UTF-8" standalone="no"?>
<!DOCTYPE svg PUBLIC "-//W3C//DTD SVG 1.1//EN"
 "http://www.w3.org/Graphics/SVG/1.1/DTD/svg11.dtd">
<!-- Generated by graphviz version 2.26.3 (20100126.1600)
 -->
<!-- Title: Data::getIso Pages: 1 -->
<!--zoomable 536 -->
<svg id="main" version="1.1" xmlns="http://www.w3.org/2000/svg" xmlns:xlink="http://www.w3.org/1999/xlink" xml:space="preserve" onload="init(evt)">
        <defs>
                <circle id="rim" cx="0" cy="0" r="7"/>
                <circle id="rim2" cx="0" cy="0" r="3.5"/>
                <g id="zoomPlus">
                        <use xlink:href="#rim" fill="#404040">
                                <set attributeName="fill" to="#808080" begin="zoomplus.mouseover" end="zoomplus.mouseout"/>
                        </use>
                        <path d="M-4,0h8M0,-4v8" fill="none" stroke="white" stroke-width="1.5" pointer-events="none"/>
                </g>
                <g id="zoomMin">
                        <use xlink:href="#rim" fill="#404040">
                                <set attributeName="fill" to="#808080" begin="zoomminus.mouseover" end="zoomminus.mouseout"/>
                        </use>
                        <path d="M-4,0h8" fill="none" stroke="white" stroke-width="1.5" pointer-events="none"/>
                </g>
                <g id="dirArrow">
                        <path fill="none" stroke="white" stroke-width="1.5" d="M0,-3.0v7 M-2.5,-0.5L0,-3.0L2.5,-0.5"/>
                </g>
               <g id="resetDef">
                       <use xlink:href="#rim2" fill="#404040">
                               <set attributeName="fill" to="#808080" begin="reset.mouseover" end="reset.mouseout"/>
                       </use>
               </g>
        </defs>

<script type="text/javascript">
var viewWidth = 298;
var viewHeight = 536;
var sectionId = 'dynsection-14';
</script>
<script xlink:href="svgpan.js"/>
<svg id="graph" class="graph">
<g id="viewport">
<title>Data::getIso</title>
<polygon fill="white" stroke="white" points="-4,5 -4,-532 295,-532 295,5 -4,5"/>
<!-- Node1 -->
<g id="node1" class="node"><title>Node1</title>
<polygon fill="#bfbfbf" stroke="black" points="0,-252 0,-276 80,-276 80,-252 0,-252"/>
<text text-anchor="middle" x="40" y="-261.2" font-family="Helvetica,sans-Serif" font-size="12.00">Data::getIso</text>
</g>
<!-- Node2 -->
<g id="node3" class="node"><title>Node2</title>
<a xlink:href="a00002.html#a6fc1d983c7fa16eebd0d0b12cb505a30" target="_top" xlink:title="Copies data contain from the given parameter.">
<polygon fill="white" stroke="red" points="153.5,-504 153.5,-528 252.5,-528 252.5,-504 153.5,-504"/>
<text text-anchor="middle" x="203" y="-513.2" font-family="Helvetica,sans-Serif" font-size="12.00">Data::copyData</text>
</a>
</g>
<!-- Node1&#45;&gt;Node2 -->
<g id="edge2" class="edge"><title>Node1&#45;&gt;Node2</title>
<path fill="none" stroke="midnightblue" d="M44.4385,-286.184C55.2855,-338.237 84.5605,-466.009 116,-495 126.166,-504.374 139.779,-509.769 153.213,-512.818"/>
<polygon fill="midnightblue" stroke="midnightblue" points="47.8469,-285.381 42.4094,-276.288 40.9896,-286.787 47.8469,-285.381"/>
</g>
<!-- Node3 -->
<g id="node5" class="node"><title>Node3</title>
<a xlink:href="a00003.html#a30730fad4ea063bd1a253de59a279ecc" target="_top" xlink:title="displays input data on the input Table">
<polygon fill="white" stroke="red" points="123.5,-462 123.5,-486 282.5,-486 282.5,-462 123.5,-462"/>
<text text-anchor="middle" x="203" y="-471.2" font-family="Helvetica,sans-Serif" font-size="12.00">Displaying::dispTableInput</text>
</a>
</g>
<!-- Node1&#45;&gt;Node3 -->
<g id="edge4" class="edge"><title>Node1&#45;&gt;Node3</title>
<path fill="none" stroke="midnightblue" d="M42.401,-286.37C47.898,-326.128 65.1247,-409.036 116,-453 119.997,-456.454 124.467,-459.361 129.214,-461.806"/>
<polygon fill="midnightblue" stroke="midnightblue" points="45.8638,-285.854 41.1434,-276.369 38.9185,-286.728 45.8638,-285.854"/>
</g>
<!-- Node4 -->
<g id="node7" class="node"><title>Node4</title>
<a xlink:href="a00003.html#a773c819165ab712b4fd073ddddcd8695" target="_top" xlink:title="display output data on the output Table">
<polygon fill="white" stroke="red" points="119,-420 119,-444 287,-444 287,-420 119,-420"/>
<text text-anchor="middle" x="203" y="-429.2" font-family="Helvetica,sans-Serif" font-size="12.00">Displaying::dispTableOutput</text>
</a>
</g>
<!-- Node1&#45;&gt;Node4 -->
<g id="edge6" class="edge"><title>Node1&#45;&gt;Node4</title>
<path fill="none" stroke="midnightblue" d="M45.142,-285.933C53.9233,-318.386 74.9778,-378.816 116,-411 120.523,-414.549 125.556,-417.51 130.857,-419.98"/>
<polygon fill="midnightblue" stroke="midnightblue" points="48.4912,-284.903 42.6234,-276.081 41.7093,-286.636 48.4912,-284.903"/>
</g>
<!-- Node5 -->
<g id="node9" class="node"><title>Node5</title>
<a xlink:href="a00003.html#a5948e8f752a67b250665cee57abdadb2" target="_top" xlink:title="Generates lists : of Elements, HR&#45;MR&#45;LR Elements and Blanks.">
<polygon fill="white" stroke="red" points="131.5,-378 131.5,-402 274.5,-402 274.5,-378 131.5,-378"/>
<text text-anchor="middle" x="203" y="-387.2" font-family="Helvetica,sans-Serif" font-size="12.00">Displaying::displayLists</text>
</a>
</g>
<!-- Node1&#45;&gt;Node5 -->
<g id="edge8" class="edge"><title>Node1&#45;&gt;Node5</title>
<path fill="none" stroke="midnightblue" d="M49.6632,-285.285C61.7156,-309.367 84.6218,-347.965 116,-369 121.292,-372.547 127.12,-375.497 133.177,-377.95"/>
<polygon fill="midnightblue" stroke="midnightblue" points="52.7997,-283.731 45.3059,-276.241 46.4935,-286.769 52.7997,-283.731"/>
</g>
<!-- Node6 -->
<g id="node11" class="node"><title>Node6</title>
<a xlink:href="a00003.html#a836d9f49a3480b021e2c2fa22e05d6b1" target="_top" xlink:title="Plots internal standard curve.">
<polygon fill="white" stroke="red" points="148,-336 148,-360 258,-360 258,-336 148,-336"/>
<text text-anchor="middle" x="203" y="-345.2" font-family="Helvetica,sans-Serif" font-size="12.00">Displaying::plotIS</text>
</a>
</g>
<!-- Node1&#45;&gt;Node6 -->
<g id="edge10" class="edge"><title>Node1&#45;&gt;Node6</title>
<path fill="none" stroke="midnightblue" d="M58.4115,-283.442C72.8131,-297.538 94.0218,-315.988 116,-327 125.863,-331.942 136.947,-335.758 147.816,-338.693"/>
<polygon fill="midnightblue" stroke="midnightblue" points="60.6806,-280.76 51.1492,-276.134 55.7153,-285.694 60.6806,-280.76"/>
</g>
<!-- Node7 -->
<g id="node13" class="node"><title>Node7</title>
<a xlink:href="a00003.html#a5b87ca7ad17830b56f9609f54991dd77" target="_top" xlink:title="Plots Evolution curve.">
<polygon fill="white" stroke="red" points="141.5,-294 141.5,-318 264.5,-318 264.5,-294 141.5,-294"/>
<text text-anchor="middle" x="203" y="-303.2" font-family="Helvetica,sans-Serif" font-size="12.00">Displaying::plotEvol</text>
</a>
</g>
<!-- Node1&#45;&gt;Node7 -->
<g id="edge12" class="edge"><title>Node1&#45;&gt;Node7</title>
<path fill="none" stroke="midnightblue" d="M89.838,-278.022C98.5453,-280.4 107.527,-282.807 116,-285 127.583,-287.997 140.069,-291.091 151.866,-293.953"/>
<polygon fill="midnightblue" stroke="midnightblue" points="90.7354,-274.639 80.1654,-275.363 88.8797,-281.388 90.7354,-274.639"/>
</g>
<!-- Node8 -->
<g id="node15" class="node"><title>Node8</title>
<a xlink:href="a00003.html#a2eb8d02c398ddd7708260ec230ceafcc" target="_top" xlink:title="Plots Calibration curves.">
<polygon fill="white" stroke="red" points="131.5,-252 131.5,-276 274.5,-276 274.5,-252 131.5,-252"/>
<text text-anchor="middle" x="203" y="-261.2" font-family="Helvetica,sans-Serif" font-size="12.00">Displaying::plotElement</text>
</a>
</g>
<!-- Node1&#45;&gt;Node8 -->
<g id="edge14" class="edge"><title>Node1&#45;&gt;Node8</title>
<path fill="none" stroke="midnightblue" d="M90.4035,-264C103.381,-264 117.596,-264 131.424,-264"/>
<polygon fill="midnightblue" stroke="midnightblue" points="90.2922,-260.5 80.2921,-264 90.2921,-267.5 90.2922,-260.5"/>
</g>
<!-- Node9 -->
<g id="node17" class="node"><title>Node9</title>
<a xlink:href="a00007.html#ad7b814e406fa54ff255b66488a9dde4a" target="_top" xlink:title="Parsing Function.">
<polygon fill="white" stroke="black" points="141.5,-210 141.5,-234 264.5,-234 264.5,-210 141.5,-210"/>
<text text-anchor="middle" x="203" y="-219.2" font-family="Helvetica,sans-Serif" font-size="12.00">ParserInCSV::parse</text>
</a>
</g>
<!-- Node1&#45;&gt;Node9 -->
<g id="edge16" class="edge"><title>Node1&#45;&gt;Node9</title>
<path fill="none" stroke="midnightblue" d="M89.838,-249.978C98.5453,-247.6 107.527,-245.193 116,-243 127.583,-240.003 140.069,-236.909 151.866,-234.047"/>
<polygon fill="midnightblue" stroke="midnightblue" points="88.8797,-246.612 80.1654,-252.637 90.7354,-253.361 88.8797,-246.612"/>
</g>
<!-- Node10 -->
<g id="node19" class="node"><title>Node10</title>
<a xlink:href="a00009.html#aac066ac6d6c2c4d2391343af917c92b4" target="_top" xlink:title="Parsing Function.">
<polygon fill="white" stroke="black" points="137,-168 137,-192 269,-192 269,-168 137,-168"/>
<text text-anchor="middle" x="203" y="-177.2" font-family="Helvetica,sans-Serif" font-size="12.00">ParserOutCSV::parse</text>
</a>
</g>
<!-- Node1&#45;&gt;Node10 -->
<g id="edge18" class="edge"><title>Node1&#45;&gt;Node10</title>
<path fill="none" stroke="midnightblue" d="M58.4115,-244.558C72.8131,-230.462 94.0218,-212.012 116,-201 123.085,-197.45 130.8,-194.481 138.612,-192.003"/>
<polygon fill="midnightblue" stroke="midnightblue" points="55.7153,-242.306 51.1492,-251.866 60.6806,-247.24 55.7153,-242.306"/>
</g>
<!-- Node11 -->
<g id="node21" class="node"><title>Node11</title>
<a xlink:href="a00008.html#a8bdd62cece3dc339c2096c85044fad66" target="_top" xlink:title="Parsing Function.">
<polygon fill="white" stroke="black" points="133,-126 133,-150 273,-150 273,-126 133,-126"/>
<text text-anchor="middle" x="203" y="-135.2" font-family="Helvetica,sans-Serif" font-size="12.00">ParserInSTDQC::parse</text>
</a>
</g>
<!-- Node1&#45;&gt;Node11 -->
<g id="edge20" class="edge"><title>Node1&#45;&gt;Node11</title>
<path fill="none" stroke="midnightblue" d="M49.6632,-242.715C61.7156,-218.633 84.6218,-180.035 116,-159 121.292,-155.453 127.12,-152.503 133.177,-150.05"/>
<polygon fill="midnightblue" stroke="midnightblue" points="46.4935,-241.231 45.3059,-251.759 52.7997,-244.269 46.4935,-241.231"/>
</g>
<!-- Node12 -->
<g id="node23" class="node"><title>Node12</title>
<a xlink:href="a00010.html#aa96b9a34a756e39a01581416199328d3" target="_top" xlink:title="Applies Internal Standard Correction.">
<polygon fill="white" stroke="red" points="130,-84 130,-108 276,-108 276,-84 130,-84"/>
<text text-anchor="middle" x="203" y="-93.2" font-family="Helvetica,sans-Serif" font-size="12.00">Processing::correctionIS</text>
</a>
</g>
<!-- Node1&#45;&gt;Node12 -->
<g id="edge22" class="edge"><title>Node1&#45;&gt;Node12</title>
<path fill="none" stroke="midnightblue" d="M45.142,-242.067C53.9233,-209.614 74.9778,-149.184 116,-117 120.523,-113.451 125.556,-110.49 130.857,-108.02"/>
<polygon fill="midnightblue" stroke="midnightblue" points="41.7093,-241.364 42.6234,-251.919 48.4912,-243.097 41.7093,-241.364"/>
</g>
<!-- Node13 -->
<g id="node25" class="node"><title>Node13</title>
<a xlink:href="a00010.html#ac0d956c3e8bdbc42a3b24975b25c6dfd" target="_top" xlink:title="Computes concentrations on data container.">
<polygon fill="white" stroke="red" points="116.5,-42 116.5,-66 289.5,-66 289.5,-42 116.5,-42"/>
<text text-anchor="middle" x="203" y="-51.2" font-family="Helvetica,sans-Serif" font-size="12.00">Processing::computeConcent</text>
</a>
</g>
<!-- Node1&#45;&gt;Node13 -->
<g id="edge24" class="edge"><title>Node1&#45;&gt;Node13</title>
<path fill="none" stroke="midnightblue" d="M42.401,-241.63C47.898,-201.872 65.1247,-118.964 116,-75 119.997,-71.5458 124.467,-68.6387 129.214,-66.1943"/>
<polygon fill="midnightblue" stroke="midnightblue" points="38.9185,-241.272 41.1434,-251.631 45.8638,-242.146 38.9185,-241.272"/>
</g>
<!-- Node14 -->
<g id="node27" class="node"><title>Node14</title>
<a xlink:href="a00010.html#a092b32603577be8f4482f2d5d5f7ff30" target="_top" xlink:title="Quality control after data processing.">
<polygon fill="white" stroke="red" points="140,-0 140,-24 266,-24 266,-0 140,-0"/>
<text text-anchor="middle" x="203" y="-9.2" font-family="Helvetica,sans-Serif" font-size="12.00">Processing::passQC</text>
</a>
</g>
<!-- Node1&#45;&gt;Node14 -->
<g id="edge26" class="edge"><title>Node1&#45;&gt;Node14</title>
<path fill="none" stroke="midnightblue" d="M44.4385,-241.816C55.2855,-189.763 84.5605,-61.9907 116,-33 122.739,-26.7855 130.994,-22.32 139.706,-19.1275"/>
<polygon fill="midnightblue" stroke="midnightblue" points="40.9896,-241.213 42.4094,-251.712 47.8469,-242.619 40.9896,-241.213"/>
</g>
</g>
</svg>
        <g id="navigator" transform="translate(0 0)" fill="#404254">
                <rect fill="#f2f5e9" fill-opacity="0.5" stroke="#606060" stroke-width=".5" x="0" y="0" width="60" height="60"/>
                <use id="zoomplus" xlink:href="#zoomPlus" x="17" y="9" onmousedown="handleZoom(evt,'in')"/>
                <use id="zoomminus" xlink:href="#zoomMin" x="42" y="9" onmousedown="handleZoom(evt,'out')"/>
                <use id="reset" xlink:href="#resetDef" x="30" y="36" onmousedown="handleReset()"/>
                <g id="arrowUp" xlink:href="#dirArrow" transform="translate(30 24)" onmousedown="handlePan(0,-1)">
                  <use xlink:href="#rim" fill="#404040">
                        <set attributeName="fill" to="#808080" begin="arrowUp.mouseover" end="arrowUp.mouseout"/>
                  </use>
                  <path fill="none" stroke="white" stroke-width="1.5" d="M0,-3.0v7 M-2.5,-0.5L0,-3.0L2.5,-0.5"/>
                </g>
                <g id="arrowRight" xlink:href="#dirArrow" transform="rotate(90) translate(36 -43)" onmousedown="handlePan(1,0)">
                  <use xlink:href="#rim" fill="#404040">
                        <set attributeName="fill" to="#808080" begin="arrowRight.mouseover" end="arrowRight.mouseout"/>
                  </use>
                  <path fill="none" stroke="white" stroke-width="1.5" d="M0,-3.0v7 M-2.5,-0.5L0,-3.0L2.5,-0.5"/>
                </g>
                <g id="arrowDown" xlink:href="#dirArrow" transform="rotate(180) translate(-30 -48)" onmousedown="handlePan(0,1)">
                  <use xlink:href="#rim" fill="#404040">
                        <set attributeName="fill" to="#808080" begin="arrowDown.mouseover" end="arrowDown.mouseout"/>
                  </use>
                  <path fill="none" stroke="white" stroke-width="1.5" d="M0,-3.0v7 M-2.5,-0.5L0,-3.0L2.5,-0.5"/>
                </g>
                <g id="arrowLeft" xlink:href="#dirArrow" transform="rotate(270) translate(-36 17)" onmousedown="handlePan(-1,0)">
                  <use xlink:href="#rim" fill="#404040">
                        <set attributeName="fill" to="#808080" begin="arrowLeft.mouseover" end="arrowLeft.mouseout"/>
                  </use>
                  <path fill="none" stroke="white" stroke-width="1.5" d="M0,-3.0v7 M-2.5,-0.5L0,-3.0L2.5,-0.5"/>
                </g>
        </g>
        <svg viewBox="0 0 15 15" width="100%" height="30px" preserveAspectRatio="xMaxYMin meet">
         <g id="arrow_out" transform="scale(0.3 0.3)">
          <a xlink:href="a00002_a4baa9866aaea800c81e4502b9483e4ec_icgraph_org.svg" target="_base">
           <rect id="button" ry="5" rx="5" y="6" x="6" height="38" width="38"
                fill="#f2f5e9" fill-opacity="0.5" stroke="#606060" stroke-width="1.0"/>
           <path id="arrow"
             d="M 11.500037,31.436501 C 11.940474,20.09759 22.043105,11.32322 32.158766,21.979434 L 37.068811,17.246167 C 37.068811,17.246167 37.088388,32 37.088388,32 L 22.160133,31.978069 C 22.160133,31.978069 26.997745,27.140456 26.997745,27.140456 C 18.528582,18.264221 13.291696,25.230495 11.500037,31.436501 z"
             style="fill:#404040;"/>
          </a>
         </g>
        </svg>
</svg>
