<?xml version="1.0" encoding="UTF-8" standalone="no"?>
<!DOCTYPE svg PUBLIC "-//W3C//DTD SVG 1.1//EN"
 "http://www.w3.org/Graphics/SVG/1.1/DTD/svg11.dtd">
<!-- Generated by graphviz version 2.26.3 (20100126.1600)
 -->
<!-- Title: Solution::getCpsSD Pages: 1 -->
<svg width="340pt" height="158pt"
 viewBox="0.00 0.00 340.00 158.00" xmlns="http://www.w3.org/2000/svg" xmlns:xlink="http://www.w3.org/1999/xlink">
<g id="graph1" class="graph" transform="scale(1 1) rotate(0) translate(4 154)">
<title>Solution::getCpsSD</title>
<polygon fill="white" stroke="white" points="-4,5 -4,-154 337,-154 337,5 -4,5"/>
<!-- Node1 -->
<g id="node1" class="node"><title>Node1</title>
<polygon fill="#bfbfbf" stroke="black" points="0,-63 0,-87 122,-87 122,-63 0,-63"/>
<text text-anchor="middle" x="61" y="-72.2" font-family="Helvetica,sans-Serif" font-size="12.00">Solution::getCpsSD</text>
</g>
<!-- Node2 -->
<g id="node3" class="node"><title>Node2</title>
<a xlink:href="a00002.html#a6fc1d983c7fa16eebd0d0b12cb505a30" target="_top" xlink:title="Copies data contain from the given parameter.">
<polygon fill="white" stroke="red" points="195.5,-126 195.5,-150 294.5,-150 294.5,-126 195.5,-126"/>
<text text-anchor="middle" x="245" y="-135.2" font-family="Helvetica,sans-Serif" font-size="12.00">Data::copyData</text>
</a>
</g>
<!-- Node1&#45;&gt;Node2 -->
<g id="edge2" class="edge"><title>Node1&#45;&gt;Node2</title>
<path fill="none" stroke="midnightblue" d="M94.7935,-91.3351C113.185,-99.7884 136.511,-109.813 158,-117 169.936,-120.992 183.029,-124.56 195.351,-127.573"/>
<polygon fill="midnightblue" stroke="midnightblue" points="96.2044,-88.1312 85.6617,-87.0811 93.2485,-94.4765 96.2044,-88.1312"/>
</g>
<!-- Node3 -->
<g id="node5" class="node"><title>Node3</title>
<a xlink:href="a00002.html#a6ff99fcec4f0387958fff773969de591" target="_top" xlink:title="Adds a calculated Blank Solution.">
<polygon fill="white" stroke="red" points="188,-84 188,-108 302,-108 302,-84 188,-84"/>
<text text-anchor="middle" x="245" y="-93.2" font-family="Helvetica,sans-Serif" font-size="12.00">Data::addBLKmoy</text>
</a>
</g>
<!-- Node1&#45;&gt;Node3 -->
<g id="edge4" class="edge"><title>Node1&#45;&gt;Node3</title>
<path fill="none" stroke="midnightblue" d="M132.131,-83.1182C150.596,-85.2257 170.247,-87.4684 187.888,-89.4817"/>
<polygon fill="midnightblue" stroke="midnightblue" points="132.346,-79.6201 122.014,-81.9635 131.552,-86.575 132.346,-79.6201"/>
</g>
<!-- Node4 -->
<g id="node7" class="node"><title>Node4</title>
<a xlink:href="a00010.html#ac0d956c3e8bdbc42a3b24975b25c6dfd" target="_top" xlink:title="Computes concentrations on data container.">
<polygon fill="white" stroke="red" points="158.5,-42 158.5,-66 331.5,-66 331.5,-42 158.5,-42"/>
<text text-anchor="middle" x="245" y="-51.2" font-family="Helvetica,sans-Serif" font-size="12.00">Processing::computeConcent</text>
</a>
</g>
<!-- Node1&#45;&gt;Node4 -->
<g id="edge6" class="edge"><title>Node1&#45;&gt;Node4</title>
<path fill="none" stroke="midnightblue" d="M131.969,-66.9003C140.567,-65.919 149.424,-64.9081 158.217,-63.9046"/>
<polygon fill="midnightblue" stroke="midnightblue" points="131.552,-63.425 122.014,-68.0365 132.346,-70.3799 131.552,-63.425"/>
</g>
<!-- Node5 -->
<g id="node9" class="node"><title>Node5</title>
<a xlink:href="a00013.html#ac0ca8e1256ac9b972eab1f02f11ab8ac" target="_top" xlink:title="Gets Intensity Relative Standard Deviation (%)">
<polygon fill="white" stroke="red" points="179.5,-0 179.5,-24 310.5,-24 310.5,-0 179.5,-0"/>
<text text-anchor="middle" x="245" y="-9.2" font-family="Helvetica,sans-Serif" font-size="12.00">Solution::getCpsRSD</text>
</a>
</g>
<!-- Node1&#45;&gt;Node5 -->
<g id="edge8" class="edge"><title>Node1&#45;&gt;Node5</title>
<path fill="none" stroke="midnightblue" d="M94.7935,-58.6649C113.185,-50.2116 136.511,-40.1866 158,-33 167.873,-29.6982 178.537,-26.6863 188.902,-24.0386"/>
<polygon fill="midnightblue" stroke="midnightblue" points="93.2485,-55.5235 85.6617,-62.9189 96.2044,-61.8688 93.2485,-55.5235"/>
</g>
</g>
</svg>
