<?xml version="1.0" encoding="UTF-8" standalone="no"?>
<!DOCTYPE svg PUBLIC "-//W3C//DTD SVG 1.1//EN"
 "http://www.w3.org/Graphics/SVG/1.1/DTD/svg11.dtd">
<!-- Generated by graphviz version 2.26.3 (20100126.1600)
 -->
<!-- Title: ParserInCSV Pages: 1 -->
<svg width="94pt" height="192pt"
 viewBox="0.00 0.00 94.00 192.00" xmlns="http://www.w3.org/2000/svg" xmlns:xlink="http://www.w3.org/1999/xlink">
<g id="graph1" class="graph" transform="scale(1 1) rotate(0) translate(4 188)">
<title>ParserInCSV</title>
<polygon fill="white" stroke="white" points="-4,5 -4,-188 91,-188 91,5 -4,5"/>
<!-- Node1 -->
<g id="node1" class="node"><title>Node1</title>
<polygon fill="#bfbfbf" stroke="black" points="-0.5,-1 -0.5,-73 86.5,-73 86.5,-1 -0.5,-1"/>
<text text-anchor="middle" x="43" y="-58.2" font-family="Helvetica,sans-Serif" font-size="12.00">ParserInCSV</text>
<polyline fill="none" stroke="black" points="-0.5,-49 86.5,-49 "/>
<text text-anchor="middle" x="43" y="-34.2" font-family="Helvetica,sans-Serif" font-size="12.00"> </text>
<polyline fill="none" stroke="black" points="-0.5,-25 86.5,-25 "/>
<text text-anchor="start" x="7.5" y="-10.2" font-family="Helvetica,sans-Serif" font-size="12.00">+ parse()</text>
</g>
<!-- Node2 -->
<g id="node2" class="node"><title>Node2</title>
<a xlink:href="a00006.html" target="_top" xlink:title="{Parser\n||+ parse()\l}">
<polygon fill="white" stroke="black" points="11,-111 11,-183 75,-183 75,-111 11,-111"/>
<text text-anchor="middle" x="43" y="-168.2" font-family="Helvetica,sans-Serif" font-size="12.00">Parser</text>
<polyline fill="none" stroke="black" points="11,-159 75,-159 "/>
<text text-anchor="middle" x="43" y="-144.2" font-family="Helvetica,sans-Serif" font-size="12.00"> </text>
<polyline fill="none" stroke="black" points="11,-135 75,-135 "/>
<text text-anchor="start" x="19" y="-120.2" font-family="Helvetica,sans-Serif" font-size="12.00">+ parse()</text>
</a>
</g>
<!-- Node2&#45;&gt;Node1 -->
<g id="edge2" class="edge"><title>Node2&#45;&gt;Node1</title>
<path fill="none" stroke="midnightblue" d="M43,-100.752C43,-91.5127 43,-81.9353 43,-73.099"/>
<polygon fill="none" stroke="midnightblue" points="39.5001,-100.982 43,-110.982 46.5001,-100.982 39.5001,-100.982"/>
</g>
</g>
</svg>
