<?xml version="1.0" encoding="UTF-8" standalone="no"?>
<!DOCTYPE svg PUBLIC "-//W3C//DTD SVG 1.1//EN"
 "http://www.w3.org/Graphics/SVG/1.1/DTD/svg11.dtd">
<!-- Generated by graphviz version 2.26.3 (20100126.1600)
 -->
<!-- Title: parser.h Pages: 1 -->
<svg width="218pt" height="158pt"
 viewBox="0.00 0.00 218.00 158.00" xmlns="http://www.w3.org/2000/svg" xmlns:xlink="http://www.w3.org/1999/xlink">
<g id="graph1" class="graph" transform="scale(1 1) rotate(0) translate(4 154)">
<title>parser.h</title>
<polygon fill="white" stroke="white" points="-4,5 -4,-154 215,-154 215,5 -4,5"/>
<!-- Node1 -->
<g id="node1" class="node"><title>Node1</title>
<polygon fill="#bfbfbf" stroke="black" points="37,-125 37,-149 97,-149 97,-125 37,-125"/>
<text text-anchor="middle" x="67" y="-134.2" font-family="Helvetica,sans-Serif" font-size="12.00">parser.h</text>
</g>
<!-- Node2 -->
<g id="node3" class="node"><title>Node2</title>
<a xlink:href="a00018.html" target="_top" target="_top" xlink:title="data.h">
<polygon fill="white" stroke="red" points="42,-63 42,-87 92,-87 92,-63 42,-63"/>
<text text-anchor="middle" x="67" y="-72.2" font-family="Helvetica,sans-Serif" font-size="12.00">data.h</text>
</a>
</g>
<!-- Node1&#45;&gt;Node2 -->
<g id="edge2" class="edge"><title>Node1&#45;&gt;Node2</title>
<path fill="none" stroke="midnightblue" d="M61.4963,-124.751C60.301,-116.938 59.9655,-106.581 60.4898,-97.3399"/>
<polygon fill="midnightblue" stroke="midnightblue" points="63.9889,-97.5221 61.5002,-87.2238 57.0236,-96.8264 63.9889,-97.5221"/>
</g>
<!-- Node3 -->
<g id="node5" class="node"><title>Node3</title>
<polygon fill="white" stroke="#bfbfbf" points="-0.5,-1 -0.5,-25 46.5,-25 46.5,-1 -0.5,-1"/>
<text text-anchor="middle" x="23" y="-10.2" font-family="Helvetica,sans-Serif" font-size="12.00">QtGui</text>
</g>
<!-- Node1&#45;&gt;Node3 -->
<g id="edge10" class="edge"><title>Node1&#45;&gt;Node3</title>
<path fill="none" stroke="midnightblue" d="M55.9375,-124.66C48.1912,-115.287 38.3111,-101.71 33,-88 26.4326,-71.0465 24.0435,-50.5021 23.2344,-35.2053"/>
<polygon fill="midnightblue" stroke="midnightblue" points="26.7293,-34.9943 22.8873,-25.1206 19.7334,-35.2351 26.7293,-34.9943"/>
</g>
<!-- Node4 -->
<g id="node7" class="node"><title>Node4</title>
<polygon fill="white" stroke="#bfbfbf" points="82.5,-1 82.5,-25 137.5,-25 137.5,-1 82.5,-1"/>
<text text-anchor="middle" x="110" y="-10.2" font-family="Helvetica,sans-Serif" font-size="12.00">QtCore</text>
</g>
<!-- Node1&#45;&gt;Node4 -->
<g id="edge12" class="edge"><title>Node1&#45;&gt;Node4</title>
<path fill="none" stroke="midnightblue" d="M78.116,-124.68C85.889,-115.318 95.779,-101.745 101,-88 107.445,-71.032 109.552,-50.4888 110.128,-35.1961"/>
<polygon fill="midnightblue" stroke="midnightblue" points="113.628,-35.1785 110.316,-25.1148 106.63,-35.0475 113.628,-35.1785"/>
</g>
<!-- Node5 -->
<g id="node12" class="node"><title>Node5</title>
<polygon fill="white" stroke="#bfbfbf" points="148,-63 148,-87 210,-87 210,-63 148,-63"/>
<text text-anchor="middle" x="179" y="-72.2" font-family="Helvetica,sans-Serif" font-size="12.00">iostream</text>
</g>
<!-- Node1&#45;&gt;Node5 -->
<g id="edge14" class="edge"><title>Node1&#45;&gt;Node5</title>
<path fill="none" stroke="midnightblue" d="M88.8606,-124.899C105.82,-115.51 129.535,-102.382 148.383,-91.9485"/>
<polygon fill="midnightblue" stroke="midnightblue" points="150.141,-94.9762 157.195,-87.0709 146.75,-88.852 150.141,-94.9762"/>
</g>
<!-- Node2&#45;&gt;Node1 -->
<g id="edge8" class="edge"><title>Node2&#45;&gt;Node1</title>
<path fill="none" stroke="midnightblue" d="M72.4998,-87.2238C73.697,-95.0306 74.0343,-105.386 73.5119,-114.63"/>
<polygon fill="midnightblue" stroke="midnightblue" points="70.0123,-114.453 72.5037,-124.751 76.9778,-115.147 70.0123,-114.453"/>
</g>
<!-- Node2&#45;&gt;Node3 -->
<g id="edge4" class="edge"><title>Node2&#45;&gt;Node3</title>
<path fill="none" stroke="midnightblue" d="M58.307,-62.7508C52.4011,-54.4289 44.4459,-43.2192 37.5818,-33.5471"/>
<polygon fill="midnightblue" stroke="midnightblue" points="40.3167,-31.3532 31.6749,-25.2238 34.6082,-35.4045 40.3167,-31.3532"/>
</g>
<!-- Node2&#45;&gt;Node4 -->
<g id="edge6" class="edge"><title>Node2&#45;&gt;Node4</title>
<path fill="none" stroke="midnightblue" d="M75.4954,-62.7508C81.2671,-54.4289 89.0415,-43.2192 95.7496,-33.5471"/>
<polygon fill="midnightblue" stroke="midnightblue" points="98.6992,-35.4356 101.522,-25.2238 92.9472,-31.4463 98.6992,-35.4356"/>
</g>
</g>
</svg>
