<?xml version="1.0" encoding="UTF-8" standalone="no"?>
<!DOCTYPE svg PUBLIC "-//W3C//DTD SVG 1.1//EN"
 "http://www.w3.org/Graphics/SVG/1.1/DTD/svg11.dtd">
<!-- Generated by graphviz version 2.26.3 (20100126.1600)
 -->
<!-- Title: Application::listISChange Pages: 1 -->
<svg width="518pt" height="52pt"
 viewBox="0.00 0.00 518.00 52.00" xmlns="http://www.w3.org/2000/svg" xmlns:xlink="http://www.w3.org/1999/xlink">
<g id="graph1" class="graph" transform="scale(1 1) rotate(0) translate(4 48)">
<title>Application::listISChange</title>
<polygon fill="white" stroke="white" points="-4,5 -4,-48 515,-48 515,5 -4,5"/>
<!-- Node1 -->
<g id="node1" class="node"><title>Node1</title>
<polygon fill="#bfbfbf" stroke="black" points="0,-20 0,-44 152,-44 152,-20 0,-20"/>
<text text-anchor="middle" x="76" y="-29.2" font-family="Helvetica,sans-Serif" font-size="12.00">Application::listISChange</text>
</g>
<!-- Node2 -->
<g id="node3" class="node"><title>Node2</title>
<a xlink:href="a00001.html#a934cebb73a90017ac0ffb8ba9b0f251b" target="_top" xlink:title="Creation of HCI actions.">
<polygon fill="white" stroke="red" points="354.5,-20 354.5,-44 509.5,-44 509.5,-20 354.5,-20"/>
<text text-anchor="middle" x="432" y="-29.2" font-family="Helvetica,sans-Serif" font-size="12.00">Application::createActions</text>
</a>
</g>
<!-- Node1&#45;&gt;Node2 -->
<g id="edge2" class="edge"><title>Node1&#45;&gt;Node2</title>
<path fill="none" stroke="midnightblue" d="M162.359,-32.8483C171.021,-32.9102 179.684,-32.9629 188,-33 245.777,-33.2579 260.223,-33.2534 318,-33 329.776,-32.9484 342.237,-32.8667 354.427,-32.7718"/>
<polygon fill="midnightblue" stroke="midnightblue" points="162.238,-29.3474 152.212,-32.7718 162.185,-36.3472 162.238,-29.3474"/>
</g>
<!-- Node3 -->
<g id="node5" class="node"><title>Node3</title>
<a xlink:href="a00001.html#ab7f9356b1eaa23c179500675d92a49d5" target="_top" xlink:title="Slot of clicking on open data file button.">
<polygon fill="white" stroke="black" points="188,-0 188,-24 318,-24 318,-0 188,-0"/>
<text text-anchor="middle" x="253" y="-9.2" font-family="Helvetica,sans-Serif" font-size="12.00">Application::openFile</text>
</a>
</g>
<!-- Node1&#45;&gt;Node3 -->
<g id="edge4" class="edge"><title>Node1&#45;&gt;Node3</title>
<path fill="none" stroke="midnightblue" d="M162.184,-22.2617C170.81,-21.287 179.466,-20.309 187.822,-19.3647"/>
<polygon fill="midnightblue" stroke="midnightblue" points="161.635,-18.8014 152.091,-23.4021 162.421,-25.7571 161.635,-18.8014"/>
</g>
<!-- Node3&#45;&gt;Node2 -->
<g id="edge6" class="edge"><title>Node3&#45;&gt;Node2</title>
<path fill="none" stroke="midnightblue" d="M328.207,-20.403C336.88,-21.3721 345.738,-22.3618 354.442,-23.3343"/>
<polygon fill="midnightblue" stroke="midnightblue" points="328.456,-16.9092 318.129,-19.277 327.679,-23.8659 328.456,-16.9092"/>
</g>
</g>
</svg>
