<?xml version="1.0" encoding="UTF-8" standalone="no"?>
<!DOCTYPE svg PUBLIC "-//W3C//DTD SVG 1.1//EN"
 "http://www.w3.org/Graphics/SVG/1.1/DTD/svg11.dtd">
<!-- Generated by graphviz version 2.26.3 (20100126.1600)
 -->
<!-- Title: Processing::passQC Pages: 1 -->
<svg width="326pt" height="368pt"
 viewBox="0.00 0.00 326.00 368.00" xmlns="http://www.w3.org/2000/svg" xmlns:xlink="http://www.w3.org/1999/xlink">
<g id="graph1" class="graph" transform="scale(1 1) rotate(0) translate(4 364)">
<title>Processing::passQC</title>
<polygon fill="white" stroke="white" points="-4,5 -4,-364 323,-364 323,5 -4,5"/>
<!-- Node1 -->
<g id="node1" class="node"><title>Node1</title>
<polygon fill="#bfbfbf" stroke="black" points="0,-168 0,-192 126,-192 126,-168 0,-168"/>
<text text-anchor="middle" x="63" y="-177.2" font-family="Helvetica,sans-Serif" font-size="12.00">Processing::passQC</text>
</g>
<!-- Node2 -->
<g id="node3" class="node"><title>Node2</title>
<a xlink:href="a00002.html#a84179b0c71fb3e69cfa177e92004ee79" target="_top" xlink:title="Gets the Number of Solutions.">
<polygon fill="white" stroke="black" points="183,-336 183,-360 297,-360 297,-336 183,-336"/>
<text text-anchor="middle" x="240" y="-345.2" font-family="Helvetica,sans-Serif" font-size="12.00">Data::solutionSize</text>
</a>
</g>
<!-- Node1&#45;&gt;Node2 -->
<g id="edge2" class="edge"><title>Node1&#45;&gt;Node2</title>
<path fill="none" stroke="midnightblue" d="M67.6069,-192.039C79.0284,-220.228 111.435,-290.859 162,-327 165.628,-329.593 169.558,-331.866 173.659,-333.858"/>
<polygon fill="midnightblue" stroke="midnightblue" points="172.288,-337.078 182.859,-337.786 175.037,-330.64 172.288,-337.078"/>
</g>
<!-- Node3 -->
<g id="node5" class="node"><title>Node3</title>
<a xlink:href="a00002.html#a7b1a07606090591e7fffb48be72bd734" target="_top" xlink:title="Gets a solution identified by its Id.">
<polygon fill="white" stroke="black" points="185.5,-294 185.5,-318 294.5,-318 294.5,-294 185.5,-294"/>
<text text-anchor="middle" x="240" y="-303.2" font-family="Helvetica,sans-Serif" font-size="12.00">Data::getSolution</text>
</a>
</g>
<!-- Node1&#45;&gt;Node3 -->
<g id="edge4" class="edge"><title>Node1&#45;&gt;Node3</title>
<path fill="none" stroke="midnightblue" d="M70.9626,-192.12C86.0345,-214.08 120.929,-260.442 162,-285 166.216,-287.521 170.74,-289.746 175.406,-291.707"/>
<polygon fill="midnightblue" stroke="midnightblue" points="174.544,-295.122 185.135,-295.376 177.013,-288.573 174.544,-295.122"/>
</g>
<!-- Node4 -->
<g id="node7" class="node"><title>Node4</title>
<a xlink:href="a00013.html#a7e480d4e590046701d82e74491ff944a" target="_top" xlink:title="Gets type of the solution.">
<polygon fill="white" stroke="black" points="185,-252 185,-276 295,-276 295,-252 185,-252"/>
<text text-anchor="middle" x="240" y="-261.2" font-family="Helvetica,sans-Serif" font-size="12.00">Solution::getType</text>
</a>
</g>
<!-- Node1&#45;&gt;Node4 -->
<g id="edge6" class="edge"><title>Node1&#45;&gt;Node4</title>
<path fill="none" stroke="midnightblue" d="M78.6129,-192.075C97.4389,-206.112 130.491,-229.123 162,-243 166.693,-245.067 171.636,-246.971 176.662,-248.718"/>
<polygon fill="midnightblue" stroke="midnightblue" points="175.795,-252.117 186.387,-251.884 177.962,-245.46 175.795,-252.117"/>
</g>
<!-- Node5 -->
<g id="node9" class="node"><title>Node5</title>
<a xlink:href="a00002.html#acd1f2adc01b25ef7bded9b6d2b331278" target="_top" xlink:title="Gets the Number of elements.">
<polygon fill="white" stroke="black" points="196,-210 196,-234 284,-234 284,-210 196,-210"/>
<text text-anchor="middle" x="240" y="-219.2" font-family="Helvetica,sans-Serif" font-size="12.00">Data::isoSize</text>
</a>
</g>
<!-- Node1&#45;&gt;Node5 -->
<g id="edge8" class="edge"><title>Node1&#45;&gt;Node5</title>
<path fill="none" stroke="midnightblue" d="M113.721,-192.036C136.324,-197.399 162.973,-203.723 185.952,-209.175"/>
<polygon fill="midnightblue" stroke="midnightblue" points="185.348,-212.629 195.886,-211.532 186.965,-205.818 185.348,-212.629"/>
</g>
<!-- Node6 -->
<g id="node11" class="node"><title>Node6</title>
<a xlink:href="a00013.html#af9f7e1dfafa0cd431387737664e3ac7e" target="_top" xlink:title="Gets Concentration.">
<polygon fill="white" stroke="black" points="176,-168 176,-192 304,-192 304,-168 176,-168"/>
<text text-anchor="middle" x="240" y="-177.2" font-family="Helvetica,sans-Serif" font-size="12.00">Solution::getConcent</text>
</a>
</g>
<!-- Node1&#45;&gt;Node6 -->
<g id="edge10" class="edge"><title>Node1&#45;&gt;Node6</title>
<path fill="none" stroke="midnightblue" d="M126.401,-180C139.081,-180 152.511,-180 165.525,-180"/>
<polygon fill="midnightblue" stroke="midnightblue" points="165.851,-183.5 175.851,-180 165.851,-176.5 165.851,-183.5"/>
</g>
<!-- Node7 -->
<g id="node13" class="node"><title>Node7</title>
<a xlink:href="a00013.html#a1adae3ea7b071d2a311b62371b959633" target="_top" xlink:title="Gets Concentration Relative Standard Deviation (%)">
<polygon fill="white" stroke="black" points="162.5,-126 162.5,-150 317.5,-150 317.5,-126 162.5,-126"/>
<text text-anchor="middle" x="240" y="-135.2" font-family="Helvetica,sans-Serif" font-size="12.00">Solution::getConcentRSD</text>
</a>
</g>
<!-- Node1&#45;&gt;Node7 -->
<g id="edge12" class="edge"><title>Node1&#45;&gt;Node7</title>
<path fill="none" stroke="midnightblue" d="M113.721,-167.964C134.181,-163.11 157.957,-157.468 179.324,-152.398"/>
<polygon fill="midnightblue" stroke="midnightblue" points="180.35,-155.752 189.271,-150.037 178.734,-148.941 180.35,-155.752"/>
</g>
<!-- Node8 -->
<g id="node15" class="node"><title>Node8</title>
<a xlink:href="a00013.html#a08617ee6ca1993e92372e265829508f0" target="_top" xlink:title="Gets the Name.">
<polygon fill="white" stroke="black" points="182,-84 182,-108 298,-108 298,-84 182,-84"/>
<text text-anchor="middle" x="240" y="-93.2" font-family="Helvetica,sans-Serif" font-size="12.00">Solution::getName</text>
</a>
</g>
<!-- Node1&#45;&gt;Node8 -->
<g id="edge14" class="edge"><title>Node1&#45;&gt;Node8</title>
<path fill="none" stroke="midnightblue" d="M78.6129,-167.925C97.4389,-153.888 130.491,-130.877 162,-117 166.693,-114.933 171.636,-113.029 176.662,-111.282"/>
<polygon fill="midnightblue" stroke="midnightblue" points="177.962,-114.54 186.387,-108.116 175.795,-107.883 177.962,-114.54"/>
</g>
<!-- Node9 -->
<g id="node17" class="node"><title>Node9</title>
<a xlink:href="a00002.html#a4baa9866aaea800c81e4502b9483e4ec" target="_top" xlink:title="Gets an element identified by its Id.">
<polygon fill="white" stroke="black" points="200,-42 200,-66 280,-66 280,-42 200,-42"/>
<text text-anchor="middle" x="240" y="-51.2" font-family="Helvetica,sans-Serif" font-size="12.00">Data::getIso</text>
</a>
</g>
<!-- Node1&#45;&gt;Node9 -->
<g id="edge16" class="edge"><title>Node1&#45;&gt;Node9</title>
<path fill="none" stroke="midnightblue" d="M70.9626,-167.88C86.0345,-145.92 120.929,-99.558 162,-75 170.576,-69.8722 180.42,-65.972 190.162,-63.0134"/>
<polygon fill="midnightblue" stroke="midnightblue" points="191.106,-66.384 199.82,-60.3579 189.25,-59.6344 191.106,-66.384"/>
</g>
<!-- Node10 -->
<g id="node19" class="node"><title>Node10</title>
<a xlink:href="a00005.html#a82faf6c27cd36339a0a12cae9beb89af" target="_top" xlink:title="Gets the complete Name of the istope, used to display the element to HCI.">
<polygon fill="white" stroke="red" points="182,-0 182,-24 298,-24 298,-0 182,-0"/>
<text text-anchor="middle" x="240" y="-9.2" font-family="Helvetica,sans-Serif" font-size="12.00">Element::getName</text>
</a>
</g>
<!-- Node1&#45;&gt;Node10 -->
<g id="edge18" class="edge"><title>Node1&#45;&gt;Node10</title>
<path fill="none" stroke="midnightblue" d="M67.6069,-167.961C79.0284,-139.772 111.435,-69.1408 162,-33 165.245,-30.681 168.731,-28.6181 172.365,-26.783"/>
<polygon fill="midnightblue" stroke="midnightblue" points="173.921,-29.9218 181.65,-22.6746 171.089,-23.5205 173.921,-29.9218"/>
</g>
</g>
</svg>
