<?xml version="1.0" encoding="UTF-8" standalone="no"?>
<!DOCTYPE svg PUBLIC "-//W3C//DTD SVG 1.1//EN"
 "http://www.w3.org/Graphics/SVG/1.1/DTD/svg11.dtd">
<!-- Generated by graphviz version 2.26.3 (20100126.1600)
 -->
<!-- Title: Displaying::dispTableOutput Pages: 1 -->
<svg width="510pt" height="364pt"
 viewBox="0.00 0.00 510.00 364.00" xmlns="http://www.w3.org/2000/svg" xmlns:xlink="http://www.w3.org/1999/xlink">
<g id="graph1" class="graph" transform="scale(1 1) rotate(0) translate(4 360)">
<title>Displaying::dispTableOutput</title>
<polygon fill="white" stroke="white" points="-4,5 -4,-360 507,-360 507,5 -4,5"/>
<!-- Node1 -->
<g id="node1" class="node"><title>Node1</title>
<polygon fill="#bfbfbf" stroke="black" points="0,-166 0,-190 168,-190 168,-166 0,-166"/>
<text text-anchor="middle" x="84" y="-175.2" font-family="Helvetica,sans-Serif" font-size="12.00">Displaying::dispTableOutput</text>
</g>
<!-- Node2 -->
<g id="node3" class="node"><title>Node2</title>
<a xlink:href="a00002.html#acd1f2adc01b25ef7bded9b6d2b331278" target="_top" xlink:title="Gets the Number of elements.">
<polygon fill="white" stroke="black" points="238,-332 238,-356 326,-356 326,-332 238,-332"/>
<text text-anchor="middle" x="282" y="-341.2" font-family="Helvetica,sans-Serif" font-size="12.00">Data::isoSize</text>
</a>
</g>
<!-- Node1&#45;&gt;Node2 -->
<g id="edge2" class="edge"><title>Node1&#45;&gt;Node2</title>
<path fill="none" stroke="midnightblue" d="M90.5859,-190.286C106.282,-218.353 148.748,-287.49 204,-323 211.372,-327.738 219.791,-331.414 228.309,-334.264"/>
<polygon fill="midnightblue" stroke="midnightblue" points="227.332,-337.625 237.916,-337.144 229.342,-330.92 227.332,-337.625"/>
</g>
<!-- Node3 -->
<g id="node5" class="node"><title>Node3</title>
<a xlink:href="a00002.html#a4baa9866aaea800c81e4502b9483e4ec" target="_top" xlink:title="Gets an element identified by its Id.">
<polygon fill="white" stroke="black" points="242,-290 242,-314 322,-314 322,-290 242,-290"/>
<text text-anchor="middle" x="282" y="-299.2" font-family="Helvetica,sans-Serif" font-size="12.00">Data::getIso</text>
</a>
</g>
<!-- Node1&#45;&gt;Node3 -->
<g id="edge4" class="edge"><title>Node1&#45;&gt;Node3</title>
<path fill="none" stroke="midnightblue" d="M94.6189,-190.148C114.118,-211.696 157.879,-256.627 204,-281 212.65,-285.571 222.379,-289.211 231.955,-292.087"/>
<polygon fill="midnightblue" stroke="midnightblue" points="231.257,-295.525 241.828,-294.814 233.121,-288.778 231.257,-295.525"/>
</g>
<!-- Node4 -->
<g id="node7" class="node"><title>Node4</title>
<a xlink:href="a00005.html#a82faf6c27cd36339a0a12cae9beb89af" target="_top" xlink:title="Gets the complete Name of the istope, used to display the element to HCI.">
<polygon fill="white" stroke="red" points="224,-248 224,-272 340,-272 340,-248 224,-248"/>
<text text-anchor="middle" x="282" y="-257.2" font-family="Helvetica,sans-Serif" font-size="12.00">Element::getName</text>
</a>
</g>
<!-- Node1&#45;&gt;Node4 -->
<g id="edge6" class="edge"><title>Node1&#45;&gt;Node4</title>
<path fill="none" stroke="midnightblue" d="M104.637,-190.16C128.079,-203.573 167.783,-225.093 204,-239 209.535,-241.126 215.37,-243.122 221.254,-244.974"/>
<polygon fill="midnightblue" stroke="midnightblue" points="220.575,-248.424 231.159,-247.951 222.59,-241.72 220.575,-248.424"/>
</g>
<!-- Node5 -->
<g id="node9" class="node"><title>Node5</title>
<a xlink:href="a00002.html#a7b1a07606090591e7fffb48be72bd734" target="_top" xlink:title="Gets a solution identified by its Id.">
<polygon fill="white" stroke="black" points="227.5,-206 227.5,-230 336.5,-230 336.5,-206 227.5,-206"/>
<text text-anchor="middle" x="282" y="-215.2" font-family="Helvetica,sans-Serif" font-size="12.00">Data::getSolution</text>
</a>
</g>
<!-- Node1&#45;&gt;Node5 -->
<g id="edge8" class="edge"><title>Node1&#45;&gt;Node5</title>
<path fill="none" stroke="midnightblue" d="M143.407,-190.001C166.73,-194.713 193.563,-200.134 217.369,-204.943"/>
<polygon fill="midnightblue" stroke="midnightblue" points="216.872,-208.414 227.367,-206.963 218.259,-201.552 216.872,-208.414"/>
</g>
<!-- Node6 -->
<g id="node11" class="node"><title>Node6</title>
<a xlink:href="a00013.html#a6cb75c8a1aa020796506362920216816" target="_top" xlink:title="Gets Intensity.">
<polygon fill="white" stroke="black" points="396.5,-146 396.5,-170 501.5,-170 501.5,-146 396.5,-146"/>
<text text-anchor="middle" x="449" y="-155.2" font-family="Helvetica,sans-Serif" font-size="12.00">Solution::getCps</text>
</a>
</g>
<!-- Node1&#45;&gt;Node6 -->
<g id="edge10" class="edge"><title>Node1&#45;&gt;Node6</title>
<path fill="none" stroke="midnightblue" d="M168.197,-173.386C234.669,-169.744 325.943,-164.743 386.151,-161.444"/>
<polygon fill="midnightblue" stroke="midnightblue" points="386.484,-164.931 396.278,-160.889 386.101,-157.941 386.484,-164.931"/>
</g>
<!-- Node7 -->
<g id="node13" class="node"><title>Node7</title>
<a xlink:href="a00013.html#ac0ca8e1256ac9b972eab1f02f11ab8ac" target="_top" xlink:title="Gets Intensity Relative Standard Deviation (%)">
<polygon fill="white" stroke="red" points="216.5,-126 216.5,-150 347.5,-150 347.5,-126 216.5,-126"/>
<text text-anchor="middle" x="282" y="-135.2" font-family="Helvetica,sans-Serif" font-size="12.00">Solution::getCpsRSD</text>
</a>
</g>
<!-- Node1&#45;&gt;Node7 -->
<g id="edge12" class="edge"><title>Node1&#45;&gt;Node7</title>
<path fill="none" stroke="midnightblue" d="M143.407,-165.999C165.137,-161.609 189.915,-156.603 212.452,-152.05"/>
<polygon fill="midnightblue" stroke="midnightblue" points="213.185,-155.473 222.293,-150.062 211.798,-148.612 213.185,-155.473"/>
</g>
<!-- Node8 -->
<g id="node16" class="node"><title>Node8</title>
<a xlink:href="a00013.html#af9f7e1dfafa0cd431387737664e3ac7e" target="_top" xlink:title="Gets Concentration.">
<polygon fill="white" stroke="black" points="218,-84 218,-108 346,-108 346,-84 218,-84"/>
<text text-anchor="middle" x="282" y="-93.2" font-family="Helvetica,sans-Serif" font-size="12.00">Solution::getConcent</text>
</a>
</g>
<!-- Node1&#45;&gt;Node8 -->
<g id="edge16" class="edge"><title>Node1&#45;&gt;Node8</title>
<path fill="none" stroke="midnightblue" d="M104.637,-165.84C128.079,-152.427 167.783,-130.907 204,-117 209.535,-114.874 215.37,-112.878 221.254,-111.026"/>
<polygon fill="midnightblue" stroke="midnightblue" points="222.59,-114.28 231.159,-108.049 220.575,-107.576 222.59,-114.28"/>
</g>
<!-- Node9 -->
<g id="node18" class="node"><title>Node9</title>
<a xlink:href="a00010.html#a3c8e2bd5d31b4a61b8d1e54f219fa015" target="_top" xlink:title="Gets LOQ corresponding to the Id element given.">
<polygon fill="white" stroke="black" points="220,-42 220,-66 344,-66 344,-42 220,-42"/>
<text text-anchor="middle" x="282" y="-51.2" font-family="Helvetica,sans-Serif" font-size="12.00">Processing::getLOQ</text>
</a>
</g>
<!-- Node1&#45;&gt;Node9 -->
<g id="edge18" class="edge"><title>Node1&#45;&gt;Node9</title>
<path fill="none" stroke="midnightblue" d="M94.6189,-165.852C114.118,-144.304 157.879,-99.373 204,-75 207.696,-73.0466 211.59,-71.2633 215.584,-69.6371"/>
<polygon fill="midnightblue" stroke="midnightblue" points="216.888,-72.8865 225.042,-66.1214 214.449,-66.3251 216.888,-72.8865"/>
</g>
<!-- Node10 -->
<g id="node20" class="node"><title>Node10</title>
<a xlink:href="a00013.html#a1adae3ea7b071d2a311b62371b959633" target="_top" xlink:title="Gets Concentration Relative Standard Deviation (%)">
<polygon fill="white" stroke="black" points="204.5,-0 204.5,-24 359.5,-24 359.5,-0 204.5,-0"/>
<text text-anchor="middle" x="282" y="-9.2" font-family="Helvetica,sans-Serif" font-size="12.00">Solution::getConcentRSD</text>
</a>
</g>
<!-- Node1&#45;&gt;Node10 -->
<g id="edge20" class="edge"><title>Node1&#45;&gt;Node10</title>
<path fill="none" stroke="midnightblue" d="M90.5859,-165.714C106.282,-137.647 148.748,-68.5105 204,-33 206.772,-31.2182 209.693,-29.5865 212.711,-28.0925"/>
<polygon fill="midnightblue" stroke="midnightblue" points="214.26,-31.2353 222.009,-24.0107 211.446,-24.8258 214.26,-31.2353"/>
</g>
<!-- Node7&#45;&gt;Node6 -->
<g id="edge14" class="edge"><title>Node7&#45;&gt;Node6</title>
<path fill="none" stroke="midnightblue" d="M347.524,-145.847C360.286,-147.376 373.636,-148.974 386.305,-150.492"/>
<polygon fill="midnightblue" stroke="midnightblue" points="385.948,-153.974 396.294,-151.688 386.781,-147.023 385.948,-153.974"/>
</g>
</g>
</svg>
