<?xml version="1.0" encoding="UTF-8" standalone="no"?>
<!DOCTYPE svg PUBLIC "-//W3C//DTD SVG 1.1//EN"
 "http://www.w3.org/Graphics/SVG/1.1/DTD/svg11.dtd">
<!-- Generated by graphviz version 2.26.3 (20100126.1600)
 -->
<!-- Title: Solution::getCpsRSD Pages: 1 -->
<svg width="344pt" height="116pt"
 viewBox="0.00 0.00 344.00 116.00" xmlns="http://www.w3.org/2000/svg" xmlns:xlink="http://www.w3.org/1999/xlink">
<g id="graph1" class="graph" transform="scale(1 1) rotate(0) translate(4 112)">
<title>Solution::getCpsRSD</title>
<polygon fill="white" stroke="white" points="-4,5 -4,-112 341,-112 341,5 -4,5"/>
<!-- Node1 -->
<g id="node1" class="node"><title>Node1</title>
<polygon fill="#bfbfbf" stroke="black" points="0.5,-42 0.5,-66 131.5,-66 131.5,-42 0.5,-42"/>
<text text-anchor="middle" x="66" y="-51.2" font-family="Helvetica,sans-Serif" font-size="12.00">Solution::getCpsRSD</text>
</g>
<!-- Node2 -->
<g id="node3" class="node"><title>Node2</title>
<a xlink:href="a00003.html#a30730fad4ea063bd1a253de59a279ecc" target="_top" xlink:title="displays input data on the input Table">
<polygon fill="white" stroke="red" points="172.5,-84 172.5,-108 331.5,-108 331.5,-84 172.5,-84"/>
<text text-anchor="middle" x="252" y="-93.2" font-family="Helvetica,sans-Serif" font-size="12.00">Displaying::dispTableInput</text>
</a>
</g>
<!-- Node1&#45;&gt;Node2 -->
<g id="edge2" class="edge"><title>Node1&#45;&gt;Node2</title>
<path fill="none" stroke="midnightblue" d="M129.144,-68.2584C151.754,-73.3638 176.997,-79.0638 198.692,-83.9627"/>
<polygon fill="midnightblue" stroke="midnightblue" points="129.825,-64.8242 119.3,-66.0355 128.284,-71.6522 129.825,-64.8242"/>
</g>
<!-- Node3 -->
<g id="node5" class="node"><title>Node3</title>
<a xlink:href="a00003.html#a773c819165ab712b4fd073ddddcd8695" target="_top" xlink:title="display output data on the output Table">
<polygon fill="white" stroke="red" points="168,-42 168,-66 336,-66 336,-42 168,-42"/>
<text text-anchor="middle" x="252" y="-51.2" font-family="Helvetica,sans-Serif" font-size="12.00">Displaying::dispTableOutput</text>
</a>
</g>
<!-- Node1&#45;&gt;Node3 -->
<g id="edge4" class="edge"><title>Node1&#45;&gt;Node3</title>
<path fill="none" stroke="midnightblue" d="M141.593,-54C150.223,-54 159.06,-54 167.792,-54"/>
<polygon fill="midnightblue" stroke="midnightblue" points="141.577,-50.5001 131.577,-54 141.577,-57.5001 141.577,-50.5001"/>
</g>
<!-- Node4 -->
<g id="node7" class="node"><title>Node4</title>
<a xlink:href="a00003.html#a2eb8d02c398ddd7708260ec230ceafcc" target="_top" xlink:title="Plots Calibration curves.">
<polygon fill="white" stroke="red" points="180.5,-0 180.5,-24 323.5,-24 323.5,-0 180.5,-0"/>
<text text-anchor="middle" x="252" y="-9.2" font-family="Helvetica,sans-Serif" font-size="12.00">Displaying::plotElement</text>
</a>
</g>
<!-- Node1&#45;&gt;Node4 -->
<g id="edge6" class="edge"><title>Node1&#45;&gt;Node4</title>
<path fill="none" stroke="midnightblue" d="M129.144,-39.7416C151.754,-34.6362 176.997,-28.9362 198.692,-24.0373"/>
<polygon fill="midnightblue" stroke="midnightblue" points="128.284,-36.3478 119.3,-41.9645 129.825,-43.1758 128.284,-36.3478"/>
</g>
</g>
</svg>
