<?xml version="1.0" encoding="UTF-8" standalone="no"?>
<!DOCTYPE svg PUBLIC "-//W3C//DTD SVG 1.1//EN"
 "http://www.w3.org/Graphics/SVG/1.1/DTD/svg11.dtd">
<!-- Generated by graphviz version 2.26.3 (20100126.1600)
 -->
<!-- Title: Data::addSolution Pages: 1 -->
<svg width="418pt" height="132pt"
 viewBox="0.00 0.00 418.00 132.13" xmlns="http://www.w3.org/2000/svg" xmlns:xlink="http://www.w3.org/1999/xlink">
<g id="graph1" class="graph" transform="scale(1 1) rotate(0) translate(4 128.133)">
<title>Data::addSolution</title>
<polygon fill="white" stroke="white" points="-4,5 -4,-128.133 415,-128.133 415,5 -4,5"/>
<!-- Node1 -->
<g id="node1" class="node"><title>Node1</title>
<polygon fill="#bfbfbf" stroke="black" points="0.5,-63 0.5,-87 113.5,-87 113.5,-63 0.5,-63"/>
<text text-anchor="middle" x="57" y="-72.2" font-family="Helvetica,sans-Serif" font-size="12.00">Data::addSolution</text>
</g>
<!-- Node2 -->
<g id="node3" class="node"><title>Node2</title>
<a xlink:href="a00001.html#a68965449404743bf1add056784d6cf81" target="_top" xlink:title="Slot of clicking on proceed button.">
<polygon fill="white" stroke="red" points="310,-84 310,-108 410,-108 410,-84 310,-84"/>
<text text-anchor="middle" x="360" y="-93.2" font-family="Helvetica,sans-Serif" font-size="12.00">Application::run</text>
</a>
</g>
<!-- Node1&#45;&gt;Node2 -->
<g id="edge2" class="edge"><title>Node1&#45;&gt;Node2</title>
<path fill="none" stroke="midnightblue" d="M86.421,-92.1815C104.184,-101.547 127.642,-112.186 150,-117 203.876,-128.601 219.284,-123.584 274,-117 288.954,-115.201 305.062,-111.701 319.248,-108.068"/>
<polygon fill="midnightblue" stroke="midnightblue" points="87.6384,-88.8594 77.1816,-87.1548 84.2931,-95.0083 87.6384,-88.8594"/>
</g>
<!-- Node3 -->
<g id="node5" class="node"><title>Node3</title>
<a xlink:href="a00002.html#a6fc1d983c7fa16eebd0d0b12cb505a30" target="_top" xlink:title="Copies data contain from the given parameter.">
<polygon fill="white" stroke="red" points="162.5,-84 162.5,-108 261.5,-108 261.5,-84 162.5,-84"/>
<text text-anchor="middle" x="212" y="-93.2" font-family="Helvetica,sans-Serif" font-size="12.00">Data::copyData</text>
</a>
</g>
<!-- Node1&#45;&gt;Node3 -->
<g id="edge4" class="edge"><title>Node1&#45;&gt;Node3</title>
<path fill="none" stroke="midnightblue" d="M124.036,-84.0823C136.893,-85.8242 150.141,-87.6192 162.331,-89.2706"/>
<polygon fill="midnightblue" stroke="midnightblue" points="124.216,-80.5747 113.836,-82.7004 123.276,-87.5114 124.216,-80.5747"/>
</g>
<!-- Node4 -->
<g id="node8" class="node"><title>Node4</title>
<a xlink:href="a00002.html#a6ff99fcec4f0387958fff773969de591" target="_top" xlink:title="Adds a calculated Blank Solution.">
<polygon fill="white" stroke="red" points="155,-42 155,-66 269,-66 269,-42 155,-42"/>
<text text-anchor="middle" x="212" y="-51.2" font-family="Helvetica,sans-Serif" font-size="12.00">Data::addBLKmoy</text>
</a>
</g>
<!-- Node1&#45;&gt;Node4 -->
<g id="edge8" class="edge"><title>Node1&#45;&gt;Node4</title>
<path fill="none" stroke="midnightblue" d="M124.019,-65.92C134.313,-64.5253 144.859,-63.0965 154.911,-61.7346"/>
<polygon fill="midnightblue" stroke="midnightblue" points="123.276,-62.4886 113.836,-67.2996 124.216,-69.4253 123.276,-62.4886"/>
</g>
<!-- Node5 -->
<g id="node11" class="node"><title>Node5</title>
<a xlink:href="a00007.html#ad7b814e406fa54ff255b66488a9dde4a" target="_top" xlink:title="Parsing Function.">
<polygon fill="white" stroke="black" points="150.5,-0 150.5,-24 273.5,-24 273.5,-0 150.5,-0"/>
<text text-anchor="middle" x="212" y="-9.2" font-family="Helvetica,sans-Serif" font-size="12.00">ParserInCSV::parse</text>
</a>
</g>
<!-- Node1&#45;&gt;Node5 -->
<g id="edge12" class="edge"><title>Node1&#45;&gt;Node5</title>
<path fill="none" stroke="midnightblue" d="M91.1892,-58.595C108.618,-50.4796 130.252,-40.7822 150,-33 157.824,-29.9167 166.306,-26.8612 174.41,-24.0751"/>
<polygon fill="midnightblue" stroke="midnightblue" points="89.543,-55.5013 81.9777,-62.9186 92.5173,-61.838 89.543,-55.5013"/>
</g>
<!-- Node3&#45;&gt;Node2 -->
<g id="edge6" class="edge"><title>Node3&#45;&gt;Node2</title>
<path fill="none" stroke="midnightblue" d="M271.709,-96C284.391,-96 297.655,-96 309.933,-96"/>
<polygon fill="midnightblue" stroke="midnightblue" points="271.694,-92.5001 261.694,-96 271.694,-99.5001 271.694,-92.5001"/>
</g>
<!-- Node4&#45;&gt;Node2 -->
<g id="edge10" class="edge"><title>Node4&#45;&gt;Node2</title>
<path fill="none" stroke="midnightblue" d="M264.432,-68.8794C281.851,-73.8225 301.017,-79.2615 317.583,-83.9627"/>
<polygon fill="midnightblue" stroke="midnightblue" points="264.987,-65.3986 254.411,-66.0355 263.075,-72.1327 264.987,-65.3986"/>
</g>
</g>
</svg>
