<?xml version="1.0" encoding="UTF-8" standalone="no"?>
<!DOCTYPE svg PUBLIC "-//W3C//DTD SVG 1.1//EN"
 "http://www.w3.org/Graphics/SVG/1.1/DTD/svg11.dtd">
<!-- Generated by graphviz version 2.26.3 (20100126.1600)
 -->
<!-- Title: Displaying::plotEvol Pages: 1 -->
<svg width="284pt" height="242pt"
 viewBox="0.00 0.00 284.00 242.00" xmlns="http://www.w3.org/2000/svg" xmlns:xlink="http://www.w3.org/1999/xlink">
<g id="graph1" class="graph" transform="scale(1 1) rotate(0) translate(4 238)">
<title>Displaying::plotEvol</title>
<polygon fill="white" stroke="white" points="-4,5 -4,-238 281,-238 281,5 -4,5"/>
<!-- Node1 -->
<g id="node1" class="node"><title>Node1</title>
<polygon fill="#bfbfbf" stroke="black" points="0.5,-105 0.5,-129 123.5,-129 123.5,-105 0.5,-105"/>
<text text-anchor="middle" x="62" y="-114.2" font-family="Helvetica,sans-Serif" font-size="12.00">Displaying::plotEvol</text>
</g>
<!-- Node2 -->
<g id="node3" class="node"><title>Node2</title>
<a xlink:href="a00002.html#a4baa9866aaea800c81e4502b9483e4ec" target="_top" xlink:title="Gets an element identified by its Id.">
<polygon fill="white" stroke="black" points="178,-210 178,-234 258,-234 258,-210 178,-210"/>
<text text-anchor="middle" x="218" y="-219.2" font-family="Helvetica,sans-Serif" font-size="12.00">Data::getIso</text>
</a>
</g>
<!-- Node1&#45;&gt;Node2 -->
<g id="edge2" class="edge"><title>Node1&#45;&gt;Node2</title>
<path fill="none" stroke="midnightblue" d="M73.2842,-129.143C90.4816,-147.036 124.964,-180.566 160,-201 163.005,-202.753 166.181,-204.399 169.437,-205.937"/>
<polygon fill="midnightblue" stroke="midnightblue" points="168.18,-209.207 178.746,-209.985 170.972,-202.788 168.18,-209.207"/>
</g>
<!-- Node3 -->
<g id="node5" class="node"><title>Node3</title>
<a xlink:href="a00005.html#a82faf6c27cd36339a0a12cae9beb89af" target="_top" xlink:title="Gets the complete Name of the istope, used to display the element to HCI.">
<polygon fill="white" stroke="red" points="160,-168 160,-192 276,-192 276,-168 160,-168"/>
<text text-anchor="middle" x="218" y="-177.2" font-family="Helvetica,sans-Serif" font-size="12.00">Element::getName</text>
</a>
</g>
<!-- Node1&#45;&gt;Node3 -->
<g id="edge4" class="edge"><title>Node1&#45;&gt;Node3</title>
<path fill="none" stroke="midnightblue" d="M88.8648,-129.008C108.461,-137.645 135.725,-149.413 160,-159 164.554,-160.798 169.331,-162.624 174.106,-164.411"/>
<polygon fill="midnightblue" stroke="midnightblue" points="173.241,-167.822 183.834,-167.999 175.664,-161.254 173.241,-167.822"/>
</g>
<!-- Node4 -->
<g id="node7" class="node"><title>Node4</title>
<a xlink:href="a00002.html#a84179b0c71fb3e69cfa177e92004ee79" target="_top" xlink:title="Gets the Number of Solutions.">
<polygon fill="white" stroke="black" points="161,-126 161,-150 275,-150 275,-126 161,-126"/>
<text text-anchor="middle" x="218" y="-135.2" font-family="Helvetica,sans-Serif" font-size="12.00">Data::solutionSize</text>
</a>
</g>
<!-- Node1&#45;&gt;Node4 -->
<g id="edge6" class="edge"><title>Node1&#45;&gt;Node4</title>
<path fill="none" stroke="midnightblue" d="M123.655,-125.3C132.566,-126.499 141.774,-127.739 150.787,-128.952"/>
<polygon fill="midnightblue" stroke="midnightblue" points="150.475,-132.442 160.852,-130.307 151.409,-125.504 150.475,-132.442"/>
</g>
<!-- Node5 -->
<g id="node9" class="node"><title>Node5</title>
<a xlink:href="a00002.html#a7b1a07606090591e7fffb48be72bd734" target="_top" xlink:title="Gets a solution identified by its Id.">
<polygon fill="white" stroke="black" points="163.5,-84 163.5,-108 272.5,-108 272.5,-84 163.5,-84"/>
<text text-anchor="middle" x="218" y="-93.2" font-family="Helvetica,sans-Serif" font-size="12.00">Data::getSolution</text>
</a>
</g>
<!-- Node1&#45;&gt;Node5 -->
<g id="edge8" class="edge"><title>Node1&#45;&gt;Node5</title>
<path fill="none" stroke="midnightblue" d="M123.655,-108.7C133.389,-107.39 143.479,-106.032 153.281,-104.712"/>
<polygon fill="midnightblue" stroke="midnightblue" points="153.92,-108.158 163.363,-103.355 152.986,-101.22 153.92,-108.158"/>
</g>
<!-- Node6 -->
<g id="node11" class="node"><title>Node6</title>
<a xlink:href="a00013.html#a08617ee6ca1993e92372e265829508f0" target="_top" xlink:title="Gets the Name.">
<polygon fill="white" stroke="black" points="160,-42 160,-66 276,-66 276,-42 160,-42"/>
<text text-anchor="middle" x="218" y="-51.2" font-family="Helvetica,sans-Serif" font-size="12.00">Solution::getName</text>
</a>
</g>
<!-- Node1&#45;&gt;Node6 -->
<g id="edge10" class="edge"><title>Node1&#45;&gt;Node6</title>
<path fill="none" stroke="midnightblue" d="M88.8648,-104.992C108.461,-96.3547 135.725,-84.5873 160,-75 164.554,-73.2015 169.331,-71.3756 174.106,-69.5895"/>
<polygon fill="midnightblue" stroke="midnightblue" points="175.664,-72.7456 183.834,-66.0006 173.241,-66.1783 175.664,-72.7456"/>
</g>
<!-- Node7 -->
<g id="node13" class="node"><title>Node7</title>
<a xlink:href="a00013.html#a6cb75c8a1aa020796506362920216816" target="_top" xlink:title="Gets Intensity.">
<polygon fill="white" stroke="black" points="165.5,-0 165.5,-24 270.5,-24 270.5,-0 165.5,-0"/>
<text text-anchor="middle" x="218" y="-9.2" font-family="Helvetica,sans-Serif" font-size="12.00">Solution::getCps</text>
</a>
</g>
<!-- Node1&#45;&gt;Node7 -->
<g id="edge12" class="edge"><title>Node1&#45;&gt;Node7</title>
<path fill="none" stroke="midnightblue" d="M73.2842,-104.857C90.4816,-86.9643 124.964,-53.4344 160,-33 163.005,-31.2473 166.181,-29.6013 169.437,-28.0632"/>
<polygon fill="midnightblue" stroke="midnightblue" points="170.972,-31.2124 178.746,-24.0147 168.18,-24.7932 170.972,-31.2124"/>
</g>
</g>
</svg>
