<?xml version="1.0" encoding="UTF-8" standalone="no"?>
<!DOCTYPE svg PUBLIC "-//W3C//DTD SVG 1.1//EN"
 "http://www.w3.org/Graphics/SVG/1.1/DTD/svg11.dtd">
<!-- Generated by graphviz version 2.26.3 (20100126.1600)
 -->
<!-- Title: Displaying::plotEvol Pages: 1 -->
<svg width="328pt" height="74pt"
 viewBox="0.00 0.00 328.00 74.00" xmlns="http://www.w3.org/2000/svg" xmlns:xlink="http://www.w3.org/1999/xlink">
<g id="graph1" class="graph" transform="scale(1 1) rotate(0) translate(4 70)">
<title>Displaying::plotEvol</title>
<polygon fill="white" stroke="white" points="-4,5 -4,-70 325,-70 325,5 -4,5"/>
<!-- Node1 -->
<g id="node1" class="node"><title>Node1</title>
<polygon fill="#bfbfbf" stroke="black" points="0.5,-21 0.5,-45 123.5,-45 123.5,-21 0.5,-21"/>
<text text-anchor="middle" x="62" y="-30.2" font-family="Helvetica,sans-Serif" font-size="12.00">Displaying::plotEvol</text>
</g>
<!-- Node2 -->
<g id="node3" class="node"><title>Node2</title>
<a xlink:href="a00001.html#a782111e122dd130f507d3fcf4cf3799f" target="_top" xlink:title="Slot of clicking on Elements list in Evolution curve view.">
<polygon fill="white" stroke="red" points="170.5,-42 170.5,-66 309.5,-66 309.5,-42 170.5,-42"/>
<text text-anchor="middle" x="240" y="-51.2" font-family="Helvetica,sans-Serif" font-size="12.00">Application::onListEvol</text>
</a>
</g>
<!-- Node1&#45;&gt;Node2 -->
<g id="edge2" class="edge"><title>Node1&#45;&gt;Node2</title>
<path fill="none" stroke="midnightblue" d="M133.785,-41.469C145.872,-42.8951 158.4,-44.373 170.43,-45.7923"/>
<polygon fill="midnightblue" stroke="midnightblue" points="134.097,-37.9817 123.756,-40.2858 133.277,-44.9335 134.097,-37.9817"/>
</g>
<!-- Node3 -->
<g id="node5" class="node"><title>Node3</title>
<a xlink:href="a00001.html#aed862c3c1e225b452efec5af99221025" target="_top" xlink:title="Slot of choosing the evolution plot to diplay.">
<polygon fill="white" stroke="red" points="160,-0 160,-24 320,-24 320,-0 160,-0"/>
<text text-anchor="middle" x="240" y="-9.2" font-family="Helvetica,sans-Serif" font-size="12.00">Application::listEvolChoice</text>
</a>
</g>
<!-- Node1&#45;&gt;Node3 -->
<g id="edge4" class="edge"><title>Node1&#45;&gt;Node3</title>
<path fill="none" stroke="midnightblue" d="M133.727,-24.5378C142.326,-23.5234 151.148,-22.4825 159.856,-21.4552"/>
<polygon fill="midnightblue" stroke="midnightblue" points="133.277,-21.0665 123.756,-25.7142 134.097,-28.0183 133.277,-21.0665"/>
</g>
</g>
</svg>
