<?xml version="1.0" encoding="UTF-8" standalone="no"?>
<!DOCTYPE svg PUBLIC "-//W3C//DTD SVG 1.1//EN"
 "http://www.w3.org/Graphics/SVG/1.1/DTD/svg11.dtd">
<!-- Generated by graphviz version 2.26.3 (20100126.1600)
 -->
<!-- Title: Data Pages: 1 -->
<svg width="130pt" height="464pt"
 viewBox="0.00 0.00 130.00 464.00" xmlns="http://www.w3.org/2000/svg" xmlns:xlink="http://www.w3.org/1999/xlink">
<g id="graph1" class="graph" transform="scale(1 1) rotate(0) translate(4 460)">
<title>Data</title>
<polygon fill="white" stroke="white" points="-4,5 -4,-460 127,-460 127,5 -4,5"/>
<!-- Node1 -->
<g id="node1" class="node"><title>Node1</title>
<polygon fill="#bfbfbf" stroke="black" points="-0.5,-1 -0.5,-329 122.5,-329 122.5,-1 -0.5,-1"/>
<text text-anchor="middle" x="61" y="-314.2" font-family="Helvetica,sans-Serif" font-size="12.00">Data</text>
<polyline fill="none" stroke="black" points="-0.5,-305 122.5,-305 "/>
<text text-anchor="start" x="7.5" y="-290.2" font-family="Helvetica,sans-Serif" font-size="12.00">+ ZERO</text>
<text text-anchor="start" x="7.5" y="-274.2" font-family="Helvetica,sans-Serif" font-size="12.00">&#45; elementList</text>
<text text-anchor="start" x="7.5" y="-258.2" font-family="Helvetica,sans-Serif" font-size="12.00">&#45; solutionList</text>
<text text-anchor="start" x="7.5" y="-242.2" font-family="Helvetica,sans-Serif" font-size="12.00">&#45; mapBlk</text>
<text text-anchor="start" x="7.5" y="-226.2" font-family="Helvetica,sans-Serif" font-size="12.00">&#45; mapIsoLR</text>
<text text-anchor="start" x="7.5" y="-210.2" font-family="Helvetica,sans-Serif" font-size="12.00">&#45; mapIsoMR</text>
<text text-anchor="start" x="7.5" y="-194.2" font-family="Helvetica,sans-Serif" font-size="12.00">&#45; mapIsoHR</text>
<polyline fill="none" stroke="black" points="-0.5,-185 122.5,-185 "/>
<text text-anchor="start" x="7.5" y="-170.2" font-family="Helvetica,sans-Serif" font-size="12.00">+ Data()</text>
<text text-anchor="start" x="7.5" y="-154.2" font-family="Helvetica,sans-Serif" font-size="12.00">+ loadParser()</text>
<text text-anchor="start" x="7.5" y="-138.2" font-family="Helvetica,sans-Serif" font-size="12.00">+ addIso()</text>
<text text-anchor="start" x="7.5" y="-122.2" font-family="Helvetica,sans-Serif" font-size="12.00">+ getIso()</text>
<text text-anchor="start" x="7.5" y="-106.2" font-family="Helvetica,sans-Serif" font-size="12.00">+ isoSize()</text>
<text text-anchor="start" x="7.5" y="-90.2" font-family="Helvetica,sans-Serif" font-size="12.00">+ addSolution()</text>
<text text-anchor="start" x="7.5" y="-74.2" font-family="Helvetica,sans-Serif" font-size="12.00">+ getSolution()</text>
<text text-anchor="start" x="7.5" y="-58.2" font-family="Helvetica,sans-Serif" font-size="12.00">+ containsSolution()</text>
<text text-anchor="start" x="7.5" y="-42.2" font-family="Helvetica,sans-Serif" font-size="12.00">+ solutionSize()</text>
<text text-anchor="start" x="7.5" y="-26.2" font-family="Helvetica,sans-Serif" font-size="12.00">+ mapBLK()</text>
<text text-anchor="start" x="7.5" y="-10.2" font-family="Helvetica,sans-Serif" font-size="12.00">and 7 more...</text>
</g>
<!-- Node2 -->
<g id="node2" class="node"><title>Node2</title>
<a xlink:href="a00006.html" target="_top" xlink:title="{Parser\n||+ parse()\l}">
<polygon fill="white" stroke="black" points="29,-383 29,-455 93,-455 93,-383 29,-383"/>
<text text-anchor="middle" x="61" y="-440.2" font-family="Helvetica,sans-Serif" font-size="12.00">Parser</text>
<polyline fill="none" stroke="black" points="29,-431 93,-431 "/>
<text text-anchor="middle" x="61" y="-416.2" font-family="Helvetica,sans-Serif" font-size="12.00"> </text>
<polyline fill="none" stroke="black" points="29,-407 93,-407 "/>
<text text-anchor="start" x="37" y="-392.2" font-family="Helvetica,sans-Serif" font-size="12.00">+ parse()</text>
</a>
</g>
<!-- Node2&#45;&gt;Node1 -->
<g id="edge2" class="edge"><title>Node2&#45;&gt;Node1</title>
<path fill="none" stroke="#404040" d="M61,-382.878C61,-370.872 61,-356.591 61,-341.166"/>
<polygon fill="none" stroke="#404040" points="61.0001,-341.166 57,-335.166 61,-329.166 65,-335.166 61.0001,-341.166"/>
<text text-anchor="middle" x="79.5" y="-353.2" font-family="Helvetica,sans-Serif" font-size="12.00"> parser</text>
</g>
</g>
</svg>
