<?xml version="1.0" encoding="UTF-8" standalone="no"?>
<!DOCTYPE svg PUBLIC "-//W3C//DTD SVG 1.1//EN"
 "http://www.w3.org/Graphics/SVG/1.1/DTD/svg11.dtd">
<!-- Generated by graphviz version 2.26.3 (20100126.1600)
 -->
<!-- Title: Element::getResol Pages: 1 -->
<svg width="470pt" height="196pt"
 viewBox="0.00 0.00 470.00 196.00" xmlns="http://www.w3.org/2000/svg" xmlns:xlink="http://www.w3.org/1999/xlink">
<g id="graph1" class="graph" transform="scale(1 1) rotate(0) translate(4 192)">
<title>Element::getResol</title>
<polygon fill="white" stroke="white" points="-4,5 -4,-192 467,-192 467,5 -4,5"/>
<!-- Node1 -->
<g id="node1" class="node"><title>Node1</title>
<polygon fill="#bfbfbf" stroke="black" points="0.5,-84 0.5,-108 115.5,-108 115.5,-84 0.5,-84"/>
<text text-anchor="middle" x="58" y="-93.2" font-family="Helvetica,sans-Serif" font-size="12.00">Element::getResol</text>
</g>
<!-- Node2 -->
<g id="node3" class="node"><title>Node2</title>
<a xlink:href="a00002.html#a386e9b359ac336356d6bdf0c1d7c4f37" target="_top" xlink:title="Adds an element to the data set.">
<polygon fill="white" stroke="red" points="197,-164 197,-188 281,-188 281,-164 197,-164"/>
<text text-anchor="middle" x="239" y="-173.2" font-family="Helvetica,sans-Serif" font-size="12.00">Data::addIso</text>
</a>
</g>
<!-- Node1&#45;&gt;Node2 -->
<g id="edge2" class="edge"><title>Node1&#45;&gt;Node2</title>
<path fill="none" stroke="midnightblue" d="M84.7453,-113.589C103.102,-125.096 128.333,-139.828 152,-150 166.194,-156.1 182.27,-161.34 196.707,-165.484"/>
<polygon fill="midnightblue" stroke="midnightblue" points="86.3865,-110.485 76.0706,-108.07 82.629,-116.391 86.3865,-110.485"/>
</g>
<!-- Node3 -->
<g id="node5" class="node"><title>Node3</title>
<a xlink:href="a00002.html#a6fc1d983c7fa16eebd0d0b12cb505a30" target="_top" xlink:title="Copies data contain from the given parameter.">
<polygon fill="white" stroke="red" points="362.5,-144 362.5,-168 461.5,-168 461.5,-144 362.5,-144"/>
<text text-anchor="middle" x="412" y="-153.2" font-family="Helvetica,sans-Serif" font-size="12.00">Data::copyData</text>
</a>
</g>
<!-- Node1&#45;&gt;Node3 -->
<g id="edge6" class="edge"><title>Node1&#45;&gt;Node3</title>
<path fill="none" stroke="midnightblue" d="M119.014,-110.29C129.969,-112.668 141.302,-115.005 152,-117 224.915,-130.596 310.023,-142.645 362.465,-149.634"/>
<polygon fill="midnightblue" stroke="midnightblue" points="119.608,-106.837 109.09,-108.105 118.103,-113.674 119.608,-106.837"/>
</g>
<!-- Node4 -->
<g id="node8" class="node"><title>Node4</title>
<a xlink:href="a00003.html#a5948e8f752a67b250665cee57abdadb2" target="_top" xlink:title="Generates lists : of Elements, HR&#45;MR&#45;LR Elements and Blanks.">
<polygon fill="white" stroke="red" points="167.5,-84 167.5,-108 310.5,-108 310.5,-84 167.5,-84"/>
<text text-anchor="middle" x="239" y="-93.2" font-family="Helvetica,sans-Serif" font-size="12.00">Displaying::displayLists</text>
</a>
</g>
<!-- Node1&#45;&gt;Node4 -->
<g id="edge8" class="edge"><title>Node1&#45;&gt;Node4</title>
<path fill="none" stroke="midnightblue" d="M125.976,-96C139.538,-96 153.821,-96 167.498,-96"/>
<polygon fill="midnightblue" stroke="midnightblue" points="125.767,-92.5001 115.767,-96 125.767,-99.5001 125.767,-92.5001"/>
</g>
<!-- Node5 -->
<g id="node10" class="node"><title>Node5</title>
<a xlink:href="a00010.html#aa96b9a34a756e39a01581416199328d3" target="_top" xlink:title="Applies Internal Standard Correction.">
<polygon fill="white" stroke="red" points="166,-42 166,-66 312,-66 312,-42 166,-42"/>
<text text-anchor="middle" x="239" y="-51.2" font-family="Helvetica,sans-Serif" font-size="12.00">Processing::correctionIS</text>
</a>
</g>
<!-- Node1&#45;&gt;Node5 -->
<g id="edge10" class="edge"><title>Node1&#45;&gt;Node5</title>
<path fill="none" stroke="midnightblue" d="M119.743,-81.6729C141.669,-76.5851 166.108,-70.9143 187.125,-66.0373"/>
<polygon fill="midnightblue" stroke="midnightblue" points="118.817,-78.2946 109.867,-83.9645 120.4,-85.1134 118.817,-78.2946"/>
</g>
<!-- Node6 -->
<g id="node12" class="node"><title>Node6</title>
<a xlink:href="a00010.html#ac0d956c3e8bdbc42a3b24975b25c6dfd" target="_top" xlink:title="Computes concentrations on data container.">
<polygon fill="white" stroke="red" points="152.5,-0 152.5,-24 325.5,-24 325.5,-0 152.5,-0"/>
<text text-anchor="middle" x="239" y="-9.2" font-family="Helvetica,sans-Serif" font-size="12.00">Processing::computeConcent</text>
</a>
</g>
<!-- Node1&#45;&gt;Node6 -->
<g id="edge12" class="edge"><title>Node1&#45;&gt;Node6</title>
<path fill="none" stroke="midnightblue" d="M80.5689,-77.5138C98.8211,-63.4233 125.72,-44.5366 152,-33 159.967,-29.5025 168.612,-26.5303 177.257,-24.0208"/>
<polygon fill="midnightblue" stroke="midnightblue" points="78.0338,-75.0552 72.3439,-83.9925 82.3653,-80.5542 78.0338,-75.0552"/>
</g>
<!-- Node2&#45;&gt;Node3 -->
<g id="edge4" class="edge"><title>Node2&#45;&gt;Node3</title>
<path fill="none" stroke="midnightblue" d="M291.4,-169.942C313.962,-167.334 340.21,-164.299 362.446,-161.729"/>
<polygon fill="midnightblue" stroke="midnightblue" points="290.852,-166.482 281.321,-171.107 291.656,-173.436 290.852,-166.482"/>
</g>
</g>
</svg>
