<?xml version="1.0" encoding="UTF-8" standalone="no"?>
<!DOCTYPE svg PUBLIC "-//W3C//DTD SVG 1.1//EN"
 "http://www.w3.org/Graphics/SVG/1.1/DTD/svg11.dtd">
<!-- Generated by graphviz version 2.26.3 (20100126.1600)
 -->
<!-- Title: Solution::getName Pages: 1 -->
<svg width="328pt" height="410pt"
 viewBox="0.00 0.00 328.00 410.00" xmlns="http://www.w3.org/2000/svg" xmlns:xlink="http://www.w3.org/1999/xlink">
<g id="graph1" class="graph" transform="scale(1 1) rotate(0) translate(4 406)">
<title>Solution::getName</title>
<polygon fill="white" stroke="white" points="-4,5 -4,-406 325,-406 325,5 -4,5"/>
<!-- Node1 -->
<g id="node1" class="node"><title>Node1</title>
<polygon fill="#bfbfbf" stroke="black" points="0,-189 0,-213 116,-213 116,-189 0,-189"/>
<text text-anchor="middle" x="58" y="-198.2" font-family="Helvetica,sans-Serif" font-size="12.00">Solution::getName</text>
</g>
<!-- Node2 -->
<g id="node3" class="node"><title>Node2</title>
<a xlink:href="a00002.html#a6fc1d983c7fa16eebd0d0b12cb505a30" target="_top" xlink:title="Copies data contain from the given parameter.">
<polygon fill="white" stroke="red" points="186.5,-378 186.5,-402 285.5,-402 285.5,-378 186.5,-378"/>
<text text-anchor="middle" x="236" y="-387.2" font-family="Helvetica,sans-Serif" font-size="12.00">Data::copyData</text>
</a>
</g>
<!-- Node1&#45;&gt;Node2 -->
<g id="edge2" class="edge"><title>Node1&#45;&gt;Node2</title>
<path fill="none" stroke="midnightblue" d="M64.0598,-223.004C75.2021,-259.215 102.464,-331.121 152,-369 161.911,-376.579 174.225,-381.451 186.343,-384.574"/>
<polygon fill="midnightblue" stroke="midnightblue" points="67.4107,-221.993 61.2254,-213.391 60.6965,-223.973 67.4107,-221.993"/>
</g>
<!-- Node3 -->
<g id="node5" class="node"><title>Node3</title>
<a xlink:href="a00002.html#a735dfe532fe9312409a554618267ae35" target="_top" xlink:title="Return the id of first occurence of a solution with the given name or &#45;1.">
<polygon fill="white" stroke="red" points="167.5,-336 167.5,-360 304.5,-360 304.5,-336 167.5,-336"/>
<text text-anchor="middle" x="236" y="-345.2" font-family="Helvetica,sans-Serif" font-size="12.00">Data::containsSolution</text>
</a>
</g>
<!-- Node1&#45;&gt;Node3 -->
<g id="edge4" class="edge"><title>Node1&#45;&gt;Node3</title>
<path fill="none" stroke="midnightblue" d="M68.0333,-222.317C82.507,-250.682 111.967,-300.346 152,-327 157.255,-330.499 163.047,-333.415 169.058,-335.845"/>
<polygon fill="midnightblue" stroke="midnightblue" points="71.1168,-220.657 63.546,-213.245 64.8424,-223.76 71.1168,-220.657"/>
</g>
<!-- Node4 -->
<g id="node7" class="node"><title>Node4</title>
<a xlink:href="a00003.html#a5948e8f752a67b250665cee57abdadb2" target="_top" xlink:title="Generates lists : of Elements, HR&#45;MR&#45;LR Elements and Blanks.">
<polygon fill="white" stroke="red" points="164.5,-294 164.5,-318 307.5,-318 307.5,-294 164.5,-294"/>
<text text-anchor="middle" x="236" y="-303.2" font-family="Helvetica,sans-Serif" font-size="12.00">Displaying::displayLists</text>
</a>
</g>
<!-- Node1&#45;&gt;Node4 -->
<g id="edge6" class="edge"><title>Node1&#45;&gt;Node4</title>
<path fill="none" stroke="midnightblue" d="M74.6468,-220.618C92.0277,-239.849 121.031,-268.596 152,-285 158.642,-288.518 165.894,-291.463 173.264,-293.925"/>
<polygon fill="midnightblue" stroke="midnightblue" points="77.1811,-218.2 67.9376,-213.022 71.9346,-222.834 77.1811,-218.2"/>
</g>
<!-- Node5 -->
<g id="node9" class="node"><title>Node5</title>
<a xlink:href="a00003.html#a5a779d21b88a5d08e8989d401acad7b8" target="_top" xlink:title="Generates list of solutions.">
<polygon fill="white" stroke="red" points="152,-252 152,-276 320,-276 320,-252 152,-252"/>
<text text-anchor="middle" x="236" y="-261.2" font-family="Helvetica,sans-Serif" font-size="12.00">Displaying::displaySolutions</text>
</a>
</g>
<!-- Node1&#45;&gt;Node5 -->
<g id="edge8" class="edge"><title>Node1&#45;&gt;Node5</title>
<path fill="none" stroke="midnightblue" d="M91.2106,-217.553C108.948,-225.952 131.33,-235.86 152,-243 161.52,-246.288 171.81,-249.294 181.816,-251.939"/>
<polygon fill="midnightblue" stroke="midnightblue" points="92.4044,-214.243 81.8749,-213.068 89.3736,-220.553 92.4044,-214.243"/>
</g>
<!-- Node6 -->
<g id="node11" class="node"><title>Node6</title>
<a xlink:href="a00003.html#a5b87ca7ad17830b56f9609f54991dd77" target="_top" xlink:title="Plots Evolution curve.">
<polygon fill="white" stroke="red" points="174.5,-210 174.5,-234 297.5,-234 297.5,-210 174.5,-210"/>
<text text-anchor="middle" x="236" y="-219.2" font-family="Helvetica,sans-Serif" font-size="12.00">Displaying::plotEvol</text>
</a>
</g>
<!-- Node1&#45;&gt;Node6 -->
<g id="edge10" class="edge"><title>Node1&#45;&gt;Node6</title>
<path fill="none" stroke="midnightblue" d="M126.46,-209.077C142.178,-210.931 158.8,-212.892 174.216,-214.711"/>
<polygon fill="midnightblue" stroke="midnightblue" points="126.625,-205.572 116.284,-207.876 125.805,-212.524 126.625,-205.572"/>
</g>
<!-- Node7 -->
<g id="node13" class="node"><title>Node7</title>
<a xlink:href="a00003.html#a2eb8d02c398ddd7708260ec230ceafcc" target="_top" xlink:title="Plots Calibration curves.">
<polygon fill="white" stroke="red" points="164.5,-168 164.5,-192 307.5,-192 307.5,-168 164.5,-168"/>
<text text-anchor="middle" x="236" y="-177.2" font-family="Helvetica,sans-Serif" font-size="12.00">Displaying::plotElement</text>
</a>
</g>
<!-- Node1&#45;&gt;Node7 -->
<g id="edge12" class="edge"><title>Node1&#45;&gt;Node7</title>
<path fill="none" stroke="midnightblue" d="M126.507,-192.918C138.86,-191.46 151.77,-189.937 164.214,-188.469"/>
<polygon fill="midnightblue" stroke="midnightblue" points="125.805,-189.476 116.284,-194.124 126.625,-196.428 125.805,-189.476"/>
</g>
<!-- Node8 -->
<g id="node15" class="node"><title>Node8</title>
<a xlink:href="a00009.html#aac066ac6d6c2c4d2391343af917c92b4" target="_top" xlink:title="Parsing Function.">
<polygon fill="white" stroke="black" points="170,-126 170,-150 302,-150 302,-126 170,-126"/>
<text text-anchor="middle" x="236" y="-135.2" font-family="Helvetica,sans-Serif" font-size="12.00">ParserOutCSV::parse</text>
</a>
</g>
<!-- Node1&#45;&gt;Node8 -->
<g id="edge14" class="edge"><title>Node1&#45;&gt;Node8</title>
<path fill="none" stroke="midnightblue" d="M91.2106,-184.447C108.948,-176.048 131.33,-166.14 152,-159 161.52,-155.712 171.81,-152.706 181.816,-150.061"/>
<polygon fill="midnightblue" stroke="midnightblue" points="89.3736,-181.447 81.8749,-188.932 92.4044,-187.757 89.3736,-181.447"/>
</g>
<!-- Node9 -->
<g id="node17" class="node"><title>Node9</title>
<a xlink:href="a00008.html#a8bdd62cece3dc339c2096c85044fad66" target="_top" xlink:title="Parsing Function.">
<polygon fill="white" stroke="black" points="166,-84 166,-108 306,-108 306,-84 166,-84"/>
<text text-anchor="middle" x="236" y="-93.2" font-family="Helvetica,sans-Serif" font-size="12.00">ParserInSTDQC::parse</text>
</a>
</g>
<!-- Node1&#45;&gt;Node9 -->
<g id="edge16" class="edge"><title>Node1&#45;&gt;Node9</title>
<path fill="none" stroke="midnightblue" d="M74.6468,-181.382C92.0277,-162.151 121.031,-133.404 152,-117 158.642,-113.482 165.894,-110.537 173.264,-108.075"/>
<polygon fill="midnightblue" stroke="midnightblue" points="71.9346,-179.166 67.9376,-188.978 77.1811,-183.8 71.9346,-179.166"/>
</g>
<!-- Node10 -->
<g id="node19" class="node"><title>Node10</title>
<a xlink:href="a00010.html#a092b32603577be8f4482f2d5d5f7ff30" target="_top" xlink:title="Quality control after data processing.">
<polygon fill="white" stroke="red" points="173,-42 173,-66 299,-66 299,-42 173,-42"/>
<text text-anchor="middle" x="236" y="-51.2" font-family="Helvetica,sans-Serif" font-size="12.00">Processing::passQC</text>
</a>
</g>
<!-- Node1&#45;&gt;Node10 -->
<g id="edge18" class="edge"><title>Node1&#45;&gt;Node10</title>
<path fill="none" stroke="midnightblue" d="M68.0333,-179.683C82.507,-151.318 111.967,-101.654 152,-75 158.381,-70.7512 165.554,-67.3619 172.949,-64.6582"/>
<polygon fill="midnightblue" stroke="midnightblue" points="64.8424,-178.24 63.546,-188.755 71.1168,-181.343 64.8424,-178.24"/>
</g>
<!-- Node11 -->
<g id="node21" class="node"><title>Node11</title>
<a xlink:href="a00010.html#a5fbd5c910da7cec1497168d1d217f1ed" target="_top" xlink:title="Computes a calibration line.">
<polygon fill="white" stroke="red" points="160,-0 160,-24 312,-24 312,-0 160,-0"/>
<text text-anchor="middle" x="236" y="-9.2" font-family="Helvetica,sans-Serif" font-size="12.00">Processing::computeLine</text>
</a>
</g>
<!-- Node1&#45;&gt;Node11 -->
<g id="edge20" class="edge"><title>Node1&#45;&gt;Node11</title>
<path fill="none" stroke="midnightblue" d="M64.0598,-178.996C75.2021,-142.785 102.464,-70.879 152,-33 156.657,-29.4389 161.845,-26.4754 167.293,-24.0102"/>
<polygon fill="midnightblue" stroke="midnightblue" points="60.6965,-178.027 61.2254,-188.609 67.4107,-180.007 60.6965,-178.027"/>
</g>
</g>
</svg>
