<?xml version="1.0" encoding="UTF-8" standalone="no"?>
<!DOCTYPE svg PUBLIC "-//W3C//DTD SVG 1.1//EN"
 "http://www.w3.org/Graphics/SVG/1.1/DTD/svg11.dtd">
<!-- Generated by graphviz version 2.26.3 (20100126.1600)
 -->
<!-- Title: Data::executeParsing Pages: 1 -->
<svg width="306pt" height="116pt"
 viewBox="0.00 0.00 306.00 116.00" xmlns="http://www.w3.org/2000/svg" xmlns:xlink="http://www.w3.org/1999/xlink">
<g id="graph1" class="graph" transform="scale(1 1) rotate(0) translate(4 112)">
<title>Data::executeParsing</title>
<polygon fill="white" stroke="white" points="-4,5 -4,-112 303,-112 303,5 -4,5"/>
<!-- Node1 -->
<g id="node1" class="node"><title>Node1</title>
<polygon fill="#bfbfbf" stroke="black" points="0.5,-42 0.5,-66 131.5,-66 131.5,-42 0.5,-42"/>
<text text-anchor="middle" x="66" y="-51.2" font-family="Helvetica,sans-Serif" font-size="12.00">Data::executeParsing</text>
</g>
<!-- Node2 -->
<g id="node3" class="node"><title>Node2</title>
<a xlink:href="a00001.html#a68965449404743bf1add056784d6cf81" target="_top" xlink:title="Slot of clicking on proceed button.">
<polygon fill="white" stroke="red" points="183,-84 183,-108 283,-108 283,-84 183,-84"/>
<text text-anchor="middle" x="233" y="-93.2" font-family="Helvetica,sans-Serif" font-size="12.00">Application::run</text>
</a>
</g>
<!-- Node1&#45;&gt;Node2 -->
<g id="edge2" class="edge"><title>Node1&#45;&gt;Node2</title>
<path fill="none" stroke="midnightblue" d="M123.789,-68.5337C143.806,-73.568 166.008,-79.1516 185.138,-83.9627"/>
<polygon fill="midnightblue" stroke="midnightblue" points="124.407,-65.0803 113.855,-66.0355 122.7,-71.8689 124.407,-65.0803"/>
</g>
<!-- Node3 -->
<g id="node5" class="node"><title>Node3</title>
<a xlink:href="a00001.html#ab7f9356b1eaa23c179500675d92a49d5" target="_top" xlink:title="Slot of clicking on open data file button.">
<polygon fill="white" stroke="red" points="168,-42 168,-66 298,-66 298,-42 168,-42"/>
<text text-anchor="middle" x="233" y="-51.2" font-family="Helvetica,sans-Serif" font-size="12.00">Application::openFile</text>
</a>
</g>
<!-- Node1&#45;&gt;Node3 -->
<g id="edge4" class="edge"><title>Node1&#45;&gt;Node3</title>
<path fill="none" stroke="midnightblue" d="M141.723,-54C150.477,-54 159.345,-54 167.939,-54"/>
<polygon fill="midnightblue" stroke="midnightblue" points="141.524,-50.5001 131.524,-54 141.523,-57.5001 141.524,-50.5001"/>
</g>
<!-- Node4 -->
<g id="node7" class="node"><title>Node4</title>
<a xlink:href="a00001.html#ac44667af46d1e4888f05cab6407ba541" target="_top" xlink:title="Slot of clicking on save output button.">
<polygon fill="white" stroke="red" points="169,-0 169,-24 297,-24 297,-0 169,-0"/>
<text text-anchor="middle" x="233" y="-9.2" font-family="Helvetica,sans-Serif" font-size="12.00">Application::saveFile</text>
</a>
</g>
<!-- Node1&#45;&gt;Node4 -->
<g id="edge6" class="edge"><title>Node1&#45;&gt;Node4</title>
<path fill="none" stroke="midnightblue" d="M123.789,-39.4663C143.806,-34.432 166.008,-28.8484 185.138,-24.0373"/>
<polygon fill="midnightblue" stroke="midnightblue" points="122.7,-36.1311 113.855,-41.9645 124.407,-42.9197 122.7,-36.1311"/>
</g>
</g>
</svg>
