<?xml version="1.0" encoding="UTF-8" standalone="no"?>
<!DOCTYPE svg PUBLIC "-//W3C//DTD SVG 1.1//EN"
 "http://www.w3.org/Graphics/SVG/1.1/DTD/svg11.dtd">
<!-- Generated by graphviz version 2.26.3 (20100126.1600)
 -->
<!-- Title: Data::mapLR Pages: 1 -->
<svg width="414pt" height="52pt"
 viewBox="0.00 0.00 414.00 52.00" xmlns="http://www.w3.org/2000/svg" xmlns:xlink="http://www.w3.org/1999/xlink">
<g id="graph1" class="graph" transform="scale(1 1) rotate(0) translate(4 48)">
<title>Data::mapLR</title>
<polygon fill="white" stroke="white" points="-4,5 -4,-48 411,-48 411,5 -4,5"/>
<!-- Node1 -->
<g id="node1" class="node"><title>Node1</title>
<polygon fill="#bfbfbf" stroke="black" points="0.5,-0 0.5,-24 87.5,-24 87.5,-0 0.5,-0"/>
<text text-anchor="middle" x="44" y="-9.2" font-family="Helvetica,sans-Serif" font-size="12.00">Data::mapLR</text>
</g>
<!-- Node2 -->
<g id="node3" class="node"><title>Node2</title>
<a xlink:href="a00001.html#a9c0b6e60ede4b6f2c60abe874f351994" target="_top" xlink:title="Slot of choosing Internal standard plot plot to diplay.">
<polygon fill="white" stroke="red" points="124,-20 124,-44 270,-44 270,-20 124,-20"/>
<text text-anchor="middle" x="197" y="-29.2" font-family="Helvetica,sans-Serif" font-size="12.00">Application::onISChoice</text>
</a>
</g>
<!-- Node1&#45;&gt;Node2 -->
<g id="edge2" class="edge"><title>Node1&#45;&gt;Node2</title>
<path fill="none" stroke="midnightblue" d="M97.9076,-19.0467C106.348,-20.15 115.191,-21.306 123.973,-22.454"/>
<polygon fill="midnightblue" stroke="midnightblue" points="98.213,-15.557 87.8437,-17.7312 97.3056,-22.4979 98.213,-15.557"/>
</g>
<!-- Node3 -->
<g id="node5" class="node"><title>Node3</title>
<a xlink:href="a00001.html#a68965449404743bf1add056784d6cf81" target="_top" xlink:title="Slot of clicking on proceed button.">
<polygon fill="white" stroke="red" points="306,-0 306,-24 406,-24 406,-0 306,-0"/>
<text text-anchor="middle" x="356" y="-9.2" font-family="Helvetica,sans-Serif" font-size="12.00">Application::run</text>
</a>
</g>
<!-- Node1&#45;&gt;Node3 -->
<g id="edge6" class="edge"><title>Node1&#45;&gt;Node3</title>
<path fill="none" stroke="midnightblue" d="M97.7496,-11.2359C106.523,-11.1377 115.514,-11.053 124,-11 188.888,-10.5945 205.112,-10.6228 270,-11 281.646,-11.0677 294.18,-11.187 305.978,-11.3201"/>
<polygon fill="midnightblue" stroke="midnightblue" points="97.5526,-7.73789 87.5948,-11.3563 97.6356,-14.7374 97.5526,-7.73789"/>
</g>
<!-- Node2&#45;&gt;Node3 -->
<g id="edge4" class="edge"><title>Node2&#45;&gt;Node3</title>
<path fill="none" stroke="midnightblue" d="M280.492,-21.4978C289.043,-20.4222 297.533,-19.3544 305.563,-18.3442"/>
<polygon fill="midnightblue" stroke="midnightblue" points="279.935,-18.0403 270.45,-22.7611 280.808,-24.9856 279.935,-18.0403"/>
</g>
</g>
</svg>
