<?xml version="1.0" encoding="UTF-8" standalone="no"?>
<!DOCTYPE svg PUBLIC "-//W3C//DTD SVG 1.1//EN"
 "http://www.w3.org/Graphics/SVG/1.1/DTD/svg11.dtd">
<!-- Generated by graphviz version 2.26.3 (20100126.1600)
 -->
<!-- Title: main.cpp Pages: 1 -->
<svg width="228pt" height="96pt"
 viewBox="0.00 0.00 228.00 96.00" xmlns="http://www.w3.org/2000/svg" xmlns:xlink="http://www.w3.org/1999/xlink">
<g id="graph1" class="graph" transform="scale(1 1) rotate(0) translate(4 92)">
<title>main.cpp</title>
<polygon fill="white" stroke="white" points="-4,5 -4,-92 225,-92 225,5 -4,5"/>
<!-- Node1 -->
<g id="node1" class="node"><title>Node1</title>
<polygon fill="#bfbfbf" stroke="black" points="85.5,-63 85.5,-87 150.5,-87 150.5,-63 85.5,-63"/>
<text text-anchor="middle" x="118" y="-72.2" font-family="Helvetica,sans-Serif" font-size="12.00">main.cpp</text>
</g>
<!-- Node2 -->
<g id="node3" class="node"><title>Node2</title>
<polygon fill="white" stroke="#bfbfbf" points="-0.5,-1 -0.5,-25 118.5,-25 118.5,-1 -0.5,-1"/>
<text text-anchor="middle" x="59" y="-10.2" font-family="Helvetica,sans-Serif" font-size="12.00">QtGui/QApplication</text>
</g>
<!-- Node1&#45;&gt;Node2 -->
<g id="edge2" class="edge"><title>Node1&#45;&gt;Node2</title>
<path fill="none" stroke="midnightblue" d="M106.343,-62.7508C98.1818,-54.1741 87.1013,-42.5302 77.7118,-32.6633"/>
<polygon fill="midnightblue" stroke="midnightblue" points="80.0614,-30.0552 70.6323,-25.2238 74.9905,-34.8807 80.0614,-30.0552"/>
</g>
<!-- Node3 -->
<g id="node5" class="node"><title>Node3</title>
<a xlink:href="a00015.html" target="_top" xlink:title="application.h">
<polygon fill="white" stroke="red" points="135.5,-1 135.5,-25 220.5,-25 220.5,-1 135.5,-1"/>
<text text-anchor="middle" x="178" y="-10.2" font-family="Helvetica,sans-Serif" font-size="12.00">application.h</text>
</a>
</g>
<!-- Node1&#45;&gt;Node3 -->
<g id="edge4" class="edge"><title>Node1&#45;&gt;Node3</title>
<path fill="none" stroke="midnightblue" d="M129.854,-62.7508C138.154,-54.1741 149.422,-42.5302 158.971,-32.6633"/>
<polygon fill="midnightblue" stroke="midnightblue" points="161.731,-34.8438 166.171,-25.2238 156.701,-29.9758 161.731,-34.8438"/>
</g>
</g>
</svg>
