<?xml version="1.0" encoding="UTF-8" standalone="no"?>
<!DOCTYPE svg PUBLIC "-//W3C//DTD SVG 1.1//EN"
 "http://www.w3.org/Graphics/SVG/1.1/DTD/svg11.dtd">
<!-- Generated by graphviz version 2.26.3 (20100126.1600)
 -->
<!-- Title: Solution::getCpsRSD Pages: 1 -->
<svg width="298pt" height="74pt"
 viewBox="0.00 0.00 298.00 74.00" xmlns="http://www.w3.org/2000/svg" xmlns:xlink="http://www.w3.org/1999/xlink">
<g id="graph1" class="graph" transform="scale(1 1) rotate(0) translate(4 70)">
<title>Solution::getCpsRSD</title>
<polygon fill="white" stroke="white" points="-4,5 -4,-70 295,-70 295,5 -4,5"/>
<!-- Node1 -->
<g id="node1" class="node"><title>Node1</title>
<polygon fill="#bfbfbf" stroke="black" points="0.5,-21 0.5,-45 131.5,-45 131.5,-21 0.5,-21"/>
<text text-anchor="middle" x="66" y="-30.2" font-family="Helvetica,sans-Serif" font-size="12.00">Solution::getCpsRSD</text>
</g>
<!-- Node2 -->
<g id="node3" class="node"><title>Node2</title>
<a xlink:href="a00013.html#a0fe4de8b637ba6637d653b91df95fcd0" target="_top" xlink:title="Gets Intensity Standard Deviation.">
<polygon fill="white" stroke="black" points="168,-42 168,-66 290,-66 290,-42 168,-42"/>
<text text-anchor="middle" x="229" y="-51.2" font-family="Helvetica,sans-Serif" font-size="12.00">Solution::getCpsSD</text>
</a>
</g>
<!-- Node1&#45;&gt;Node2 -->
<g id="edge2" class="edge"><title>Node1&#45;&gt;Node2</title>
<path fill="none" stroke="midnightblue" d="M131.828,-41.481C140.402,-42.5855 149.216,-43.721 157.871,-44.8361"/>
<polygon fill="midnightblue" stroke="midnightblue" points="157.569,-48.3261 167.934,-46.1327 158.464,-41.3835 157.569,-48.3261"/>
</g>
<!-- Node3 -->
<g id="node5" class="node"><title>Node3</title>
<a xlink:href="a00013.html#a6cb75c8a1aa020796506362920216816" target="_top" xlink:title="Gets Intensity.">
<polygon fill="white" stroke="black" points="176.5,-0 176.5,-24 281.5,-24 281.5,-0 176.5,-0"/>
<text text-anchor="middle" x="229" y="-9.2" font-family="Helvetica,sans-Serif" font-size="12.00">Solution::getCps</text>
</a>
</g>
<!-- Node1&#45;&gt;Node3 -->
<g id="edge4" class="edge"><title>Node1&#45;&gt;Node3</title>
<path fill="none" stroke="midnightblue" d="M131.828,-24.519C143.193,-23.0548 154.981,-21.5362 166.261,-20.0829"/>
<polygon fill="midnightblue" stroke="midnightblue" points="166.98,-23.5193 176.451,-18.7701 166.086,-16.5766 166.98,-23.5193"/>
</g>
</g>
</svg>
