<?xml version="1.0" encoding="UTF-8" standalone="no"?>
<!DOCTYPE svg PUBLIC "-//W3C//DTD SVG 1.1//EN"
 "http://www.w3.org/Graphics/SVG/1.1/DTD/svg11.dtd">
<!-- Generated by graphviz version 2.26.3 (20100126.1600)
 -->
<!-- Title: Processing::computeLimits Pages: 1 -->
<svg width="314pt" height="116pt"
 viewBox="0.00 0.00 314.00 116.00" xmlns="http://www.w3.org/2000/svg" xmlns:xlink="http://www.w3.org/1999/xlink">
<g id="graph1" class="graph" transform="scale(1 1) rotate(0) translate(4 112)">
<title>Processing::computeLimits</title>
<polygon fill="white" stroke="white" points="-4,5 -4,-112 311,-112 311,5 -4,5"/>
<!-- Node1 -->
<g id="node1" class="node"><title>Node1</title>
<polygon fill="#bfbfbf" stroke="black" points="0,-42 0,-66 160,-66 160,-42 0,-42"/>
<text text-anchor="middle" x="80" y="-51.2" font-family="Helvetica,sans-Serif" font-size="12.00">Processing::computeLimits</text>
</g>
<!-- Node2 -->
<g id="node3" class="node"><title>Node2</title>
<a xlink:href="a00002.html#acd1f2adc01b25ef7bded9b6d2b331278" target="_top" xlink:title="Gets the Number of elements.">
<polygon fill="white" stroke="black" points="207,-84 207,-108 295,-108 295,-84 207,-84"/>
<text text-anchor="middle" x="251" y="-93.2" font-family="Helvetica,sans-Serif" font-size="12.00">Data::isoSize</text>
</a>
</g>
<!-- Node1&#45;&gt;Node2 -->
<g id="edge2" class="edge"><title>Node1&#45;&gt;Node2</title>
<path fill="none" stroke="midnightblue" d="M129.002,-66.0355C150.312,-71.2697 175.347,-77.4185 197.174,-82.7796"/>
<polygon fill="midnightblue" stroke="midnightblue" points="196.406,-86.1948 206.952,-85.1812 198.075,-79.3969 196.406,-86.1948"/>
</g>
<!-- Node3 -->
<g id="node5" class="node"><title>Node3</title>
<a xlink:href="a00002.html#a7b1a07606090591e7fffb48be72bd734" target="_top" xlink:title="Gets a solution identified by its Id.">
<polygon fill="white" stroke="black" points="196.5,-42 196.5,-66 305.5,-66 305.5,-42 196.5,-42"/>
<text text-anchor="middle" x="251" y="-51.2" font-family="Helvetica,sans-Serif" font-size="12.00">Data::getSolution</text>
</a>
</g>
<!-- Node1&#45;&gt;Node3 -->
<g id="edge4" class="edge"><title>Node1&#45;&gt;Node3</title>
<path fill="none" stroke="midnightblue" d="M160.243,-54C168.879,-54 177.588,-54 186.014,-54"/>
<polygon fill="midnightblue" stroke="midnightblue" points="186.128,-57.5001 196.128,-54 186.128,-50.5001 186.128,-57.5001"/>
</g>
<!-- Node4 -->
<g id="node7" class="node"><title>Node4</title>
<a xlink:href="a00010.html#a987c411b18bf6bd14b73a547649d407c" target="_top" xlink:title="Computes the average of a vector.">
<polygon fill="white" stroke="black" points="201.5,-0 201.5,-24 300.5,-24 300.5,-0 201.5,-0"/>
<text text-anchor="middle" x="251" y="-9.2" font-family="Helvetica,sans-Serif" font-size="12.00">Processing::avr</text>
</a>
</g>
<!-- Node1&#45;&gt;Node4 -->
<g id="edge6" class="edge"><title>Node1&#45;&gt;Node4</title>
<path fill="none" stroke="midnightblue" d="M129.002,-41.9645C148.678,-37.1316 171.53,-31.5189 192.1,-26.4666"/>
<polygon fill="midnightblue" stroke="midnightblue" points="193.115,-29.8216 201.991,-24.0373 191.445,-23.0236 193.115,-29.8216"/>
</g>
</g>
</svg>
