<?xml version="1.0" encoding="UTF-8" standalone="no"?>
<!DOCTYPE svg PUBLIC "-//W3C//DTD SVG 1.1//EN"
 "http://www.w3.org/Graphics/SVG/1.1/DTD/svg11.dtd">
<!-- Generated by graphviz version 2.26.3 (20100126.1600)
 -->
<!-- Title: ParserOutCSV Pages: 1 -->
<svg width="104pt" height="192pt"
 viewBox="0.00 0.00 104.00 192.00" xmlns="http://www.w3.org/2000/svg" xmlns:xlink="http://www.w3.org/1999/xlink">
<g id="graph1" class="graph" transform="scale(1 1) rotate(0) translate(4 188)">
<title>ParserOutCSV</title>
<polygon fill="white" stroke="white" points="-4,5 -4,-188 101,-188 101,5 -4,5"/>
<!-- Node1 -->
<g id="node1" class="node"><title>Node1</title>
<polygon fill="#bfbfbf" stroke="black" points="0,-1 0,-73 96,-73 96,-1 0,-1"/>
<text text-anchor="middle" x="48" y="-58.2" font-family="Helvetica,sans-Serif" font-size="12.00">ParserOutCSV</text>
<polyline fill="none" stroke="black" points="0,-49 96,-49 "/>
<text text-anchor="middle" x="48" y="-34.2" font-family="Helvetica,sans-Serif" font-size="12.00"> </text>
<polyline fill="none" stroke="black" points="0,-25 96,-25 "/>
<text text-anchor="start" x="8" y="-10.2" font-family="Helvetica,sans-Serif" font-size="12.00">+ parse()</text>
</g>
<!-- Node2 -->
<g id="node2" class="node"><title>Node2</title>
<a xlink:href="a00006.html" target="_top" xlink:title="{Parser\n||+ parse()\l}">
<polygon fill="white" stroke="black" points="16,-111 16,-183 80,-183 80,-111 16,-111"/>
<text text-anchor="middle" x="48" y="-168.2" font-family="Helvetica,sans-Serif" font-size="12.00">Parser</text>
<polyline fill="none" stroke="black" points="16,-159 80,-159 "/>
<text text-anchor="middle" x="48" y="-144.2" font-family="Helvetica,sans-Serif" font-size="12.00"> </text>
<polyline fill="none" stroke="black" points="16,-135 80,-135 "/>
<text text-anchor="start" x="24" y="-120.2" font-family="Helvetica,sans-Serif" font-size="12.00">+ parse()</text>
</a>
</g>
<!-- Node2&#45;&gt;Node1 -->
<g id="edge2" class="edge"><title>Node2&#45;&gt;Node1</title>
<path fill="none" stroke="midnightblue" d="M48,-100.752C48,-91.5127 48,-81.9353 48,-73.099"/>
<polygon fill="none" stroke="midnightblue" points="44.5001,-100.982 48,-110.982 51.5001,-100.982 44.5001,-100.982"/>
</g>
</g>
</svg>
