<?xml version="1.0" encoding="UTF-8" standalone="no"?>
<!DOCTYPE svg PUBLIC "-//W3C//DTD SVG 1.1//EN"
 "http://www.w3.org/Graphics/SVG/1.1/DTD/svg11.dtd">
<!-- Generated by graphviz version 2.26.3 (20100126.1600)
 -->
<!-- Title: processing.h Pages: 1 -->
<svg width="242pt" height="158pt"
 viewBox="0.00 0.00 242.00 158.00" xmlns="http://www.w3.org/2000/svg" xmlns:xlink="http://www.w3.org/1999/xlink">
<g id="graph1" class="graph" transform="scale(1 1) rotate(0) translate(4 154)">
<title>processing.h</title>
<polygon fill="white" stroke="white" points="-4,5 -4,-154 239,-154 239,5 -4,5"/>
<!-- Node1 -->
<g id="node1" class="node"><title>Node1</title>
<polygon fill="#bfbfbf" stroke="black" points="65.5,-125 65.5,-149 150.5,-149 150.5,-125 65.5,-125"/>
<text text-anchor="middle" x="108" y="-134.2" font-family="Helvetica,sans-Serif" font-size="12.00">processing.h</text>
</g>
<!-- Node2 -->
<g id="node3" class="node"><title>Node2</title>
<a xlink:href="a00020.html" target="_top" xlink:title="displaying.h">
<polygon fill="white" stroke="red" points="-0.5,-63 -0.5,-87 80.5,-87 80.5,-63 -0.5,-63"/>
<text text-anchor="middle" x="40" y="-72.2" font-family="Helvetica,sans-Serif" font-size="12.00">displaying.h</text>
</a>
</g>
<!-- Node1&#45;&gt;Node2 -->
<g id="edge2" class="edge"><title>Node1&#45;&gt;Node2</title>
<path fill="none" stroke="midnightblue" d="M87.0425,-117.892C76.0831,-107.899 62.9929,-95.9641 53.4067,-87.2238"/>
<polygon fill="midnightblue" stroke="midnightblue" points="84.8177,-120.6 94.5654,-124.751 89.534,-115.427 84.8177,-120.6"/>
</g>
<!-- Node3 -->
<g id="node5" class="node"><title>Node3</title>
<a xlink:href="a00015.html" target="_top" xlink:title="application.h">
<polygon fill="white" stroke="red" points="31.5,-1 31.5,-25 116.5,-25 116.5,-1 31.5,-1"/>
<text text-anchor="middle" x="74" y="-10.2" font-family="Helvetica,sans-Serif" font-size="12.00">application.h</text>
</a>
</g>
<!-- Node1&#45;&gt;Node3 -->
<g id="edge6" class="edge"><title>Node1&#45;&gt;Node3</title>
<path fill="none" stroke="midnightblue" d="M102.696,-114.87C99.0323,-99.8959 93.947,-79.6963 89,-62 85.4551,-49.3192 80.9956,-34.9234 77.8637,-25.0338"/>
<polygon fill="midnightblue" stroke="midnightblue" points="99.3309,-115.847 105.089,-124.74 106.134,-114.197 99.3309,-115.847"/>
</g>
<!-- Node4 -->
<g id="node8" class="node"><title>Node4</title>
<a xlink:href="a00028.html" target="_top" xlink:title="processing.cpp">
<polygon fill="white" stroke="black" points="136,-63 136,-87 234,-87 234,-63 136,-63"/>
<text text-anchor="middle" x="185" y="-72.2" font-family="Helvetica,sans-Serif" font-size="12.00">processing.cpp</text>
</a>
</g>
<!-- Node1&#45;&gt;Node4 -->
<g id="edge8" class="edge"><title>Node1&#45;&gt;Node4</title>
<path fill="none" stroke="midnightblue" d="M131.065,-118.428C143.707,-108.249 159.009,-95.9274 170.081,-87.0128"/>
<polygon fill="midnightblue" stroke="midnightblue" points="128.807,-115.753 123.213,-124.751 133.197,-121.205 128.807,-115.753"/>
</g>
<!-- Node2&#45;&gt;Node3 -->
<g id="edge4" class="edge"><title>Node2&#45;&gt;Node3</title>
<path fill="none" stroke="midnightblue" d="M51.6099,-53.8291C56.84,-44.2918 62.8293,-33.3701 67.2966,-25.2238"/>
<polygon fill="midnightblue" stroke="midnightblue" points="48.4568,-52.2997 46.7173,-62.7508 54.5945,-55.6656 48.4568,-52.2997"/>
</g>
</g>
</svg>
