<?xml version="1.0" encoding="UTF-8" standalone="no"?>
<!DOCTYPE svg PUBLIC "-//W3C//DTD SVG 1.1//EN"
 "http://www.w3.org/Graphics/SVG/1.1/DTD/svg11.dtd">
<!-- Generated by graphviz version 2.26.3 (20100126.1600)
 -->
<!-- Title: Displaying::dispTableInput Pages: 1 -->
<svg width="502pt" height="322pt"
 viewBox="0.00 0.00 502.00 322.00" xmlns="http://www.w3.org/2000/svg" xmlns:xlink="http://www.w3.org/1999/xlink">
<g id="graph1" class="graph" transform="scale(1 1) rotate(0) translate(4 318)">
<title>Displaying::dispTableInput</title>
<polygon fill="white" stroke="white" points="-4,5 -4,-318 499,-318 499,5 -4,5"/>
<!-- Node1 -->
<g id="node1" class="node"><title>Node1</title>
<polygon fill="#bfbfbf" stroke="black" points="0.5,-144 0.5,-168 159.5,-168 159.5,-144 0.5,-144"/>
<text text-anchor="middle" x="80" y="-153.2" font-family="Helvetica,sans-Serif" font-size="12.00">Displaying::dispTableInput</text>
</g>
<!-- Node2 -->
<g id="node3" class="node"><title>Node2</title>
<a xlink:href="a00002.html#acd1f2adc01b25ef7bded9b6d2b331278" target="_top" xlink:title="Gets the Number of elements.">
<polygon fill="white" stroke="black" points="230,-290 230,-314 318,-314 318,-290 230,-290"/>
<text text-anchor="middle" x="274" y="-299.2" font-family="Helvetica,sans-Serif" font-size="12.00">Data::isoSize</text>
</a>
</g>
<!-- Node1&#45;&gt;Node2 -->
<g id="edge2" class="edge"><title>Node1&#45;&gt;Node2</title>
<path fill="none" stroke="midnightblue" d="M87.6866,-168.057C104.288,-193.09 146.061,-250.871 196,-281 203.336,-285.426 211.613,-288.935 219.964,-291.714"/>
<polygon fill="midnightblue" stroke="midnightblue" points="219.165,-295.128 229.749,-294.651 221.177,-288.424 219.165,-295.128"/>
</g>
<!-- Node3 -->
<g id="node5" class="node"><title>Node3</title>
<a xlink:href="a00002.html#a4baa9866aaea800c81e4502b9483e4ec" target="_top" xlink:title="Gets an element identified by its Id.">
<polygon fill="white" stroke="black" points="234,-248 234,-272 314,-272 314,-248 234,-248"/>
<text text-anchor="middle" x="274" y="-257.2" font-family="Helvetica,sans-Serif" font-size="12.00">Data::getIso</text>
</a>
</g>
<!-- Node1&#45;&gt;Node3 -->
<g id="edge4" class="edge"><title>Node1&#45;&gt;Node3</title>
<path fill="none" stroke="midnightblue" d="M93.6034,-168.261C114.274,-186.274 155.487,-219.827 196,-239 204.749,-243.141 214.451,-246.575 223.955,-249.383"/>
<polygon fill="midnightblue" stroke="midnightblue" points="223.169,-252.797 233.74,-252.086 225.033,-246.05 223.169,-252.797"/>
</g>
<!-- Node4 -->
<g id="node7" class="node"><title>Node4</title>
<a xlink:href="a00005.html#a82faf6c27cd36339a0a12cae9beb89af" target="_top" xlink:title="Gets the complete Name of the istope, used to display the element to HCI.">
<polygon fill="white" stroke="red" points="216,-206 216,-230 332,-230 332,-206 216,-206"/>
<text text-anchor="middle" x="274" y="-215.2" font-family="Helvetica,sans-Serif" font-size="12.00">Element::getName</text>
</a>
</g>
<!-- Node1&#45;&gt;Node4 -->
<g id="edge6" class="edge"><title>Node1&#45;&gt;Node4</title>
<path fill="none" stroke="midnightblue" d="M112.278,-168.158C135.429,-176.694 167.444,-188.124 196,-197 202.813,-199.118 209.999,-201.223 217.14,-203.237"/>
<polygon fill="midnightblue" stroke="midnightblue" points="216.239,-206.62 226.811,-205.92 218.11,-199.874 216.239,-206.62"/>
</g>
<!-- Node5 -->
<g id="node9" class="node"><title>Node5</title>
<a xlink:href="a00002.html#a7b1a07606090591e7fffb48be72bd734" target="_top" xlink:title="Gets a solution identified by its Id.">
<polygon fill="white" stroke="black" points="219.5,-164 219.5,-188 328.5,-188 328.5,-164 219.5,-164"/>
<text text-anchor="middle" x="274" y="-173.2" font-family="Helvetica,sans-Serif" font-size="12.00">Data::getSolution</text>
</a>
</g>
<!-- Node1&#45;&gt;Node5 -->
<g id="edge8" class="edge"><title>Node1&#45;&gt;Node5</title>
<path fill="none" stroke="midnightblue" d="M159.747,-164.221C176.207,-165.918 193.352,-167.686 209.202,-169.32"/>
<polygon fill="midnightblue" stroke="midnightblue" points="209.105,-172.828 219.412,-170.372 209.823,-165.865 209.105,-172.828"/>
</g>
<!-- Node6 -->
<g id="node11" class="node"><title>Node6</title>
<a xlink:href="a00013.html#a6cb75c8a1aa020796506362920216816" target="_top" xlink:title="Gets Intensity.">
<polygon fill="white" stroke="black" points="388.5,-104 388.5,-128 493.5,-128 493.5,-104 388.5,-104"/>
<text text-anchor="middle" x="441" y="-113.2" font-family="Helvetica,sans-Serif" font-size="12.00">Solution::getCps</text>
</a>
</g>
<!-- Node1&#45;&gt;Node6 -->
<g id="edge10" class="edge"><title>Node1&#45;&gt;Node6</title>
<path fill="none" stroke="midnightblue" d="M159.67,-147.172C225.425,-139.886 317.465,-129.688 378.119,-122.967"/>
<polygon fill="midnightblue" stroke="midnightblue" points="378.766,-126.417 388.32,-121.837 377.995,-119.46 378.766,-126.417"/>
</g>
<!-- Node7 -->
<g id="node13" class="node"><title>Node7</title>
<a xlink:href="a00013.html#ac0ca8e1256ac9b972eab1f02f11ab8ac" target="_top" xlink:title="Gets Intensity Relative Standard Deviation (%)">
<polygon fill="white" stroke="red" points="208.5,-84 208.5,-108 339.5,-108 339.5,-84 208.5,-84"/>
<text text-anchor="middle" x="274" y="-93.2" font-family="Helvetica,sans-Serif" font-size="12.00">Solution::getCpsRSD</text>
</a>
</g>
<!-- Node1&#45;&gt;Node7 -->
<g id="edge12" class="edge"><title>Node1&#45;&gt;Node7</title>
<path fill="none" stroke="midnightblue" d="M119.259,-143.858C149.862,-134.393 192.521,-121.2 225.3,-111.062"/>
<polygon fill="midnightblue" stroke="midnightblue" points="226.612,-114.32 235.131,-108.021 224.543,-107.632 226.612,-114.32"/>
</g>
<!-- Node8 -->
<g id="node16" class="node"><title>Node8</title>
<a xlink:href="a00013.html#af9f7e1dfafa0cd431387737664e3ac7e" target="_top" xlink:title="Gets Concentration.">
<polygon fill="white" stroke="black" points="210,-42 210,-66 338,-66 338,-42 210,-42"/>
<text text-anchor="middle" x="274" y="-51.2" font-family="Helvetica,sans-Serif" font-size="12.00">Solution::getConcent</text>
</a>
</g>
<!-- Node1&#45;&gt;Node8 -->
<g id="edge16" class="edge"><title>Node1&#45;&gt;Node8</title>
<path fill="none" stroke="midnightblue" d="M94.0055,-143.762C114.859,-126.138 155.929,-93.6832 196,-75 200.377,-72.9592 204.988,-71.0874 209.691,-69.3762"/>
<polygon fill="midnightblue" stroke="midnightblue" points="211.074,-72.6034 219.427,-66.0863 208.833,-65.9718 211.074,-72.6034"/>
</g>
<!-- Node9 -->
<g id="node18" class="node"><title>Node9</title>
<a xlink:href="a00013.html#a1adae3ea7b071d2a311b62371b959633" target="_top" xlink:title="Gets Concentration Relative Standard Deviation (%)">
<polygon fill="white" stroke="black" points="196.5,-0 196.5,-24 351.5,-24 351.5,-0 196.5,-0"/>
<text text-anchor="middle" x="274" y="-9.2" font-family="Helvetica,sans-Serif" font-size="12.00">Solution::getConcentRSD</text>
</a>
</g>
<!-- Node1&#45;&gt;Node9 -->
<g id="edge18" class="edge"><title>Node1&#45;&gt;Node9</title>
<path fill="none" stroke="midnightblue" d="M87.9918,-143.762C104.856,-118.938 146.621,-62.5214 196,-33 199.041,-31.1818 202.242,-29.518 205.541,-27.9958"/>
<polygon fill="midnightblue" stroke="midnightblue" points="207.141,-31.1219 215.048,-24.07 204.469,-24.6518 207.141,-31.1219"/>
</g>
<!-- Node7&#45;&gt;Node6 -->
<g id="edge14" class="edge"><title>Node7&#45;&gt;Node6</title>
<path fill="none" stroke="midnightblue" d="M339.524,-103.847C352.286,-105.376 365.636,-106.974 378.305,-108.492"/>
<polygon fill="midnightblue" stroke="midnightblue" points="377.948,-111.974 388.294,-109.688 378.781,-105.023 377.948,-111.974"/>
</g>
</g>
</svg>
