<?xml version="1.0" encoding="UTF-8" standalone="no"?>
<!DOCTYPE svg PUBLIC "-//W3C//DTD SVG 1.1//EN"
 "http://www.w3.org/Graphics/SVG/1.1/DTD/svg11.dtd">
<!-- Generated by graphviz version 2.26.3 (20100126.1600)
 -->
<!-- Title: ParserInSTDQC::parse Pages: 1 -->
<svg width="338pt" height="368pt"
 viewBox="0.00 0.00 338.00 368.00" xmlns="http://www.w3.org/2000/svg" xmlns:xlink="http://www.w3.org/1999/xlink">
<g id="graph1" class="graph" transform="scale(1 1) rotate(0) translate(4 364)">
<title>ParserInSTDQC::parse</title>
<polygon fill="white" stroke="white" points="-4,5 -4,-364 335,-364 335,5 -4,5"/>
<!-- Node1 -->
<g id="node1" class="node"><title>Node1</title>
<polygon fill="#bfbfbf" stroke="black" points="0,-168 0,-192 140,-192 140,-168 0,-168"/>
<text text-anchor="middle" x="70" y="-177.2" font-family="Helvetica,sans-Serif" font-size="12.00">ParserInSTDQC::parse</text>
</g>
<!-- Node2 -->
<g id="node3" class="node"><title>Node2</title>
<a xlink:href="a00002.html#a84179b0c71fb3e69cfa177e92004ee79" target="_top" xlink:title="Gets the Number of Solutions.">
<polygon fill="white" stroke="black" points="196,-336 196,-360 310,-360 310,-336 196,-336"/>
<text text-anchor="middle" x="253" y="-345.2" font-family="Helvetica,sans-Serif" font-size="12.00">Data::solutionSize</text>
</a>
</g>
<!-- Node1&#45;&gt;Node2 -->
<g id="edge2" class="edge"><title>Node1&#45;&gt;Node2</title>
<path fill="none" stroke="midnightblue" d="M75.1871,-192.029C87.9661,-220.199 123.766,-290.791 176,-327 179.301,-329.288 182.841,-331.327 186.524,-333.144"/>
<polygon fill="midnightblue" stroke="midnightblue" points="185.353,-336.451 195.92,-337.22 188.139,-330.03 185.353,-336.451"/>
</g>
<!-- Node3 -->
<g id="node5" class="node"><title>Node3</title>
<a xlink:href="a00002.html#a7b1a07606090591e7fffb48be72bd734" target="_top" xlink:title="Gets a solution identified by its Id.">
<polygon fill="white" stroke="black" points="198.5,-294 198.5,-318 307.5,-318 307.5,-294 198.5,-294"/>
<text text-anchor="middle" x="253" y="-303.2" font-family="Helvetica,sans-Serif" font-size="12.00">Data::getSolution</text>
</a>
</g>
<!-- Node1&#45;&gt;Node3 -->
<g id="edge4" class="edge"><title>Node1&#45;&gt;Node3</title>
<path fill="none" stroke="midnightblue" d="M78.7433,-192.087C95.2348,-213.992 133.15,-260.269 176,-285 179.955,-287.282 184.167,-289.325 188.505,-291.152"/>
<polygon fill="midnightblue" stroke="midnightblue" points="187.561,-294.538 198.153,-294.817 190.047,-287.994 187.561,-294.538"/>
</g>
<!-- Node4 -->
<g id="node7" class="node"><title>Node4</title>
<a xlink:href="a00013.html#a7e480d4e590046701d82e74491ff944a" target="_top" xlink:title="Gets type of the solution.">
<polygon fill="white" stroke="black" points="198,-252 198,-276 308,-276 308,-252 198,-252"/>
<text text-anchor="middle" x="253" y="-261.2" font-family="Helvetica,sans-Serif" font-size="12.00">Solution::getType</text>
</a>
</g>
<!-- Node1&#45;&gt;Node4 -->
<g id="edge6" class="edge"><title>Node1&#45;&gt;Node4</title>
<path fill="none" stroke="midnightblue" d="M87.2283,-192.236C107.588,-206.211 142.892,-228.953 176,-243 180.943,-245.097 186.154,-247.04 191.438,-248.829"/>
<polygon fill="midnightblue" stroke="midnightblue" points="190.396,-252.17 200.987,-251.879 192.526,-245.502 190.396,-252.17"/>
</g>
<!-- Node5 -->
<g id="node9" class="node"><title>Node5</title>
<a xlink:href="a00013.html#a08617ee6ca1993e92372e265829508f0" target="_top" xlink:title="Gets the Name.">
<polygon fill="white" stroke="black" points="195,-210 195,-234 311,-234 311,-210 195,-210"/>
<text text-anchor="middle" x="253" y="-219.2" font-family="Helvetica,sans-Serif" font-size="12.00">Solution::getName</text>
</a>
</g>
<!-- Node1&#45;&gt;Node5 -->
<g id="edge8" class="edge"><title>Node1&#45;&gt;Node5</title>
<path fill="none" stroke="midnightblue" d="M122.44,-192.036C143.689,-196.912 168.398,-202.583 190.567,-207.671"/>
<polygon fill="midnightblue" stroke="midnightblue" points="190.022,-211.137 200.552,-209.963 191.588,-204.314 190.022,-211.137"/>
</g>
<!-- Node6 -->
<g id="node11" class="node"><title>Node6</title>
<a xlink:href="a00002.html#acd1f2adc01b25ef7bded9b6d2b331278" target="_top" xlink:title="Gets the Number of elements.">
<polygon fill="white" stroke="black" points="209,-168 209,-192 297,-192 297,-168 209,-168"/>
<text text-anchor="middle" x="253" y="-177.2" font-family="Helvetica,sans-Serif" font-size="12.00">Data::isoSize</text>
</a>
</g>
<!-- Node1&#45;&gt;Node6 -->
<g id="edge10" class="edge"><title>Node1&#45;&gt;Node6</title>
<path fill="none" stroke="midnightblue" d="M140.229,-180C159.615,-180 180.348,-180 198.682,-180"/>
<polygon fill="midnightblue" stroke="midnightblue" points="198.883,-183.5 208.883,-180 198.883,-176.5 198.883,-183.5"/>
</g>
<!-- Node7 -->
<g id="node13" class="node"><title>Node7</title>
<a xlink:href="a00002.html#a4baa9866aaea800c81e4502b9483e4ec" target="_top" xlink:title="Gets an element identified by its Id.">
<polygon fill="white" stroke="black" points="213,-126 213,-150 293,-150 293,-126 213,-126"/>
<text text-anchor="middle" x="253" y="-135.2" font-family="Helvetica,sans-Serif" font-size="12.00">Data::getIso</text>
</a>
</g>
<!-- Node1&#45;&gt;Node7 -->
<g id="edge12" class="edge"><title>Node1&#45;&gt;Node7</title>
<path fill="none" stroke="midnightblue" d="M122.44,-167.964C147.69,-162.17 177.824,-155.254 202.777,-149.527"/>
<polygon fill="midnightblue" stroke="midnightblue" points="203.805,-152.882 212.769,-147.233 202.24,-146.059 203.805,-152.882"/>
</g>
<!-- Node8 -->
<g id="node15" class="node"><title>Node8</title>
<a xlink:href="a00005.html#a982ccc1c2f9f57d58ad5f98eedb53706" target="_top" xlink:title="Gets the Name of the element.">
<polygon fill="white" stroke="black" points="189,-84 189,-108 317,-108 317,-84 189,-84"/>
<text text-anchor="middle" x="253" y="-93.2" font-family="Helvetica,sans-Serif" font-size="12.00">Element::getElement</text>
</a>
</g>
<!-- Node1&#45;&gt;Node8 -->
<g id="edge14" class="edge"><title>Node1&#45;&gt;Node8</title>
<path fill="none" stroke="midnightblue" d="M87.2283,-167.764C107.588,-153.789 142.892,-131.047 176,-117 180.943,-114.903 186.154,-112.96 191.438,-111.171"/>
<polygon fill="midnightblue" stroke="midnightblue" points="192.526,-114.498 200.987,-108.121 190.396,-107.83 192.526,-114.498"/>
</g>
<!-- Node9 -->
<g id="node17" class="node"><title>Node9</title>
<a xlink:href="a00013.html#adc74f58993747169c721739962ec2a5a" target="_top" xlink:title="Sets Concentration.">
<polygon fill="white" stroke="black" points="189,-42 189,-66 317,-66 317,-42 189,-42"/>
<text text-anchor="middle" x="253" y="-51.2" font-family="Helvetica,sans-Serif" font-size="12.00">Solution::setConcent</text>
</a>
</g>
<!-- Node1&#45;&gt;Node9 -->
<g id="edge16" class="edge"><title>Node1&#45;&gt;Node9</title>
<path fill="none" stroke="midnightblue" d="M78.7433,-167.913C95.2348,-146.008 133.15,-99.7312 176,-75 179.251,-73.1234 182.677,-71.4087 186.204,-69.8429"/>
<polygon fill="midnightblue" stroke="midnightblue" points="187.739,-72.9986 195.725,-66.0361 185.14,-66.4989 187.739,-72.9986"/>
</g>
<!-- Node10 -->
<g id="node19" class="node"><title>Node10</title>
<a xlink:href="a00013.html#a60ca23e0e5593012162a2669841c952e" target="_top" xlink:title="Sets Concentration Relative Standard Deviation (%)">
<polygon fill="white" stroke="black" points="176,-0 176,-24 330,-24 330,-0 176,-0"/>
<text text-anchor="middle" x="253" y="-9.2" font-family="Helvetica,sans-Serif" font-size="12.00">Solution::setConcentRSD</text>
</a>
</g>
<!-- Node1&#45;&gt;Node10 -->
<g id="edge18" class="edge"><title>Node1&#45;&gt;Node10</title>
<path fill="none" stroke="midnightblue" d="M75.1871,-167.971C87.9661,-139.801 123.766,-69.2091 176,-33 178.402,-31.3348 180.931,-29.8015 183.55,-28.3896"/>
<polygon fill="midnightblue" stroke="midnightblue" points="185.201,-31.4806 192.745,-24.0418 182.208,-25.1523 185.201,-31.4806"/>
</g>
</g>
</svg>
