<?xml version="1.0" encoding="UTF-8" standalone="no"?>
<!DOCTYPE svg PUBLIC "-//W3C//DTD SVG 1.1//EN"
 "http://www.w3.org/Graphics/SVG/1.1/DTD/svg11.dtd">
<!-- Generated by graphviz version 2.26.3 (20100126.1600)
 -->
<!-- Title: Data::getSolution Pages: 1 -->
<!--zoomable 864 -->
<svg id="main" version="1.1" xmlns="http://www.w3.org/2000/svg" xmlns:xlink="http://www.w3.org/1999/xlink" xml:space="preserve" onload="init(evt)">
        <defs>
                <circle id="rim" cx="0" cy="0" r="7"/>
                <circle id="rim2" cx="0" cy="0" r="3.5"/>
                <g id="zoomPlus">
                        <use xlink:href="#rim" fill="#404040">
                                <set attributeName="fill" to="#808080" begin="zoomplus.mouseover" end="zoomplus.mouseout"/>
                        </use>
                        <path d="M-4,0h8M0,-4v8" fill="none" stroke="white" stroke-width="1.5" pointer-events="none"/>
                </g>
                <g id="zoomMin">
                        <use xlink:href="#rim" fill="#404040">
                                <set attributeName="fill" to="#808080" begin="zoomminus.mouseover" end="zoomminus.mouseout"/>
                        </use>
                        <path d="M-4,0h8" fill="none" stroke="white" stroke-width="1.5" pointer-events="none"/>
                </g>
                <g id="dirArrow">
                        <path fill="none" stroke="white" stroke-width="1.5" d="M0,-3.0v7 M-2.5,-0.5L0,-3.0L2.5,-0.5"/>
                </g>
               <g id="resetDef">
                       <use xlink:href="#rim2" fill="#404040">
                               <set attributeName="fill" to="#808080" begin="reset.mouseover" end="reset.mouseout"/>
                       </use>
               </g>
        </defs>

<script type="text/javascript">
var viewWidth = 494;
var viewHeight = 864;
var sectionId = 'dynsection-15';
</script>
<script xlink:href="svgpan.js"/>
<svg id="graph" class="graph">
<g id="viewport">
<title>Data::getSolution</title>
<polygon fill="white" stroke="white" points="-4,5 -4,-860 491,-860 491,5 -4,5"/>
<!-- Node1 -->
<g id="node1" class="node"><title>Node1</title>
<polygon fill="#bfbfbf" stroke="black" points="0.5,-416 0.5,-440 109.5,-440 109.5,-416 0.5,-416"/>
<text text-anchor="middle" x="55" y="-425.2" font-family="Helvetica,sans-Serif" font-size="12.00">Data::getSolution</text>
</g>
<!-- Node2 -->
<g id="node3" class="node"><title>Node2</title>
<a xlink:href="a00001.html#a68965449404743bf1add056784d6cf81" target="_top" xlink:title="Slot of clicking on proceed button.">
<polygon fill="white" stroke="red" points="371,-601 371,-625 471,-625 471,-601 371,-601"/>
<text text-anchor="middle" x="421" y="-610.2" font-family="Helvetica,sans-Serif" font-size="12.00">Application::run</text>
</a>
</g>
<!-- Node1&#45;&gt;Node2 -->
<g id="edge2" class="edge"><title>Node1&#45;&gt;Node2</title>
<path fill="none" stroke="midnightblue" d="M67.3452,-449.091C82.6455,-473.27 111.027,-512.232 146,-533 214.061,-573.416 244.487,-547.264 320,-571 346.269,-579.257 375.182,-591.635 395.317,-600.816"/>
<polygon fill="midnightblue" stroke="midnightblue" points="70.1747,-447.01 61.9588,-440.32 64.2099,-450.673 70.1747,-447.01"/>
</g>
<!-- Node3 -->
<g id="node5" class="node"><title>Node3</title>
<a xlink:href="a00001.html#ab7f9356b1eaa23c179500675d92a49d5" target="_top" xlink:title="Slot of clicking on open data file button.">
<polygon fill="white" stroke="red" points="356,-374 356,-398 486,-398 486,-374 356,-374"/>
<text text-anchor="middle" x="421" y="-383.2" font-family="Helvetica,sans-Serif" font-size="12.00">Application::openFile</text>
</a>
</g>
<!-- Node1&#45;&gt;Node3 -->
<g id="edge4" class="edge"><title>Node1&#45;&gt;Node3</title>
<path fill="none" stroke="midnightblue" d="M74.8964,-408.819C92.1401,-393.62 118.574,-373.567 146,-365 226.668,-339.801 326.822,-359.332 381.248,-373.892"/>
<polygon fill="midnightblue" stroke="midnightblue" points="72.2456,-406.499 67.2055,-415.818 76.9571,-411.676 72.2456,-406.499"/>
</g>
<!-- Node4 -->
<g id="node7" class="node"><title>Node4</title>
<a xlink:href="a00002.html#a6fc1d983c7fa16eebd0d0b12cb505a30" target="_top" xlink:title="Copies data contain from the given parameter.">
<polygon fill="white" stroke="black" points="183.5,-458 183.5,-482 282.5,-482 282.5,-458 183.5,-458"/>
<text text-anchor="middle" x="233" y="-467.2" font-family="Helvetica,sans-Serif" font-size="12.00">Data::copyData</text>
</a>
</g>
<!-- Node1&#45;&gt;Node4 -->
<g id="edge6" class="edge"><title>Node1&#45;&gt;Node4</title>
<path fill="none" stroke="midnightblue" d="M115.891,-442.367C137.838,-447.546 162.327,-453.324 183.214,-458.253"/>
<polygon fill="midnightblue" stroke="midnightblue" points="116.544,-438.926 106.008,-440.036 114.937,-445.739 116.544,-438.926"/>
</g>
<!-- Node5 -->
<g id="node11" class="node"><title>Node5</title>
<a xlink:href="a00002.html#a6ff99fcec4f0387958fff773969de591" target="_top" xlink:title="Adds a calculated Blank Solution.">
<polygon fill="white" stroke="black" points="176,-416 176,-440 290,-440 290,-416 176,-416"/>
<text text-anchor="middle" x="233" y="-425.2" font-family="Helvetica,sans-Serif" font-size="12.00">Data::addBLKmoy</text>
</a>
</g>
<!-- Node1&#45;&gt;Node5 -->
<g id="edge12" class="edge"><title>Node1&#45;&gt;Node5</title>
<path fill="none" stroke="midnightblue" d="M119.87,-428C138.204,-428 158.016,-428 175.86,-428"/>
<polygon fill="midnightblue" stroke="midnightblue" points="119.858,-424.5 109.858,-428 119.858,-431.5 119.858,-424.5"/>
</g>
<!-- Node6 -->
<g id="node15" class="node"><title>Node6</title>
<a xlink:href="a00002.html#a735dfe532fe9312409a554618267ae35" target="_top" xlink:title="Return the id of first occurence of a solution with the given name or &#45;1.">
<polygon fill="white" stroke="black" points="164.5,-832 164.5,-856 301.5,-856 301.5,-832 164.5,-832"/>
<text text-anchor="middle" x="233" y="-841.2" font-family="Helvetica,sans-Serif" font-size="12.00">Data::containsSolution</text>
</a>
</g>
<!-- Node1&#45;&gt;Node6 -->
<g id="edge18" class="edge"><title>Node1&#45;&gt;Node6</title>
<path fill="none" stroke="midnightblue" d="M57.1135,-450.546C64.6546,-526.176 92.6773,-769.119 146,-823 151.246,-828.301 157.584,-832.353 164.419,-835.437"/>
<polygon fill="midnightblue" stroke="midnightblue" points="60.5657,-449.884 56.1134,-440.27 53.5986,-450.562 60.5657,-449.884"/>
</g>
<!-- Node7 -->
<g id="node18" class="node"><title>Node7</title>
<a xlink:href="a00003.html#a30730fad4ea063bd1a253de59a279ecc" target="_top" xlink:title="displays input data on the input Table">
<polygon fill="white" stroke="red" points="153.5,-374 153.5,-398 312.5,-398 312.5,-374 153.5,-374"/>
<text text-anchor="middle" x="233" y="-383.2" font-family="Helvetica,sans-Serif" font-size="12.00">Displaying::dispTableInput</text>
</a>
</g>
<!-- Node1&#45;&gt;Node7 -->
<g id="edge22" class="edge"><title>Node1&#45;&gt;Node7</title>
<path fill="none" stroke="midnightblue" d="M116.011,-413.604C137.498,-408.534 161.409,-402.892 181.985,-398.037"/>
<polygon fill="midnightblue" stroke="midnightblue" points="114.937,-410.261 106.008,-415.964 116.544,-417.074 114.937,-410.261"/>
</g>
<!-- Node8 -->
<g id="node22" class="node"><title>Node8</title>
<a xlink:href="a00003.html#a773c819165ab712b4fd073ddddcd8695" target="_top" xlink:title="display output data on the output Table">
<polygon fill="white" stroke="red" points="149,-500 149,-524 317,-524 317,-500 149,-500"/>
<text text-anchor="middle" x="233" y="-509.2" font-family="Helvetica,sans-Serif" font-size="12.00">Displaying::dispTableOutput</text>
</a>
</g>
<!-- Node1&#45;&gt;Node8 -->
<g id="edge28" class="edge"><title>Node1&#45;&gt;Node8</title>
<path fill="none" stroke="midnightblue" d="M76.7507,-446.519C94.3663,-460.628 120.381,-479.523 146,-491 153.799,-494.494 162.263,-497.456 170.745,-499.953"/>
<polygon fill="midnightblue" stroke="midnightblue" points="78.7733,-443.652 68.8163,-440.031 74.3421,-449.071 78.7733,-443.652"/>
</g>
<!-- Node9 -->
<g id="node26" class="node"><title>Node9</title>
<a xlink:href="a00003.html#a5948e8f752a67b250665cee57abdadb2" target="_top" xlink:title="Generates lists : of Elements, HR&#45;MR&#45;LR Elements and Blanks.">
<polygon fill="white" stroke="black" points="161.5,-294 161.5,-318 304.5,-318 304.5,-294 161.5,-294"/>
<text text-anchor="middle" x="233" y="-303.2" font-family="Helvetica,sans-Serif" font-size="12.00">Displaying::displayLists</text>
</a>
</g>
<!-- Node1&#45;&gt;Node9 -->
<g id="edge34" class="edge"><title>Node1&#45;&gt;Node9</title>
<path fill="none" stroke="midnightblue" d="M69.275,-407.5C85.4713,-385.723 113.848,-351.769 146,-332 155.4,-326.22 166.165,-321.657 176.844,-318.078"/>
<polygon fill="midnightblue" stroke="midnightblue" points="66.3369,-405.59 63.2962,-415.739 72.0023,-409.701 66.3369,-405.59"/>
</g>
<!-- Node10 -->
<g id="node29" class="node"><title>Node10</title>
<a xlink:href="a00003.html#a5a779d21b88a5d08e8989d401acad7b8" target="_top" xlink:title="Generates list of solutions.">
<polygon fill="white" stroke="black" points="149,-252 149,-276 317,-276 317,-252 149,-252"/>
<text text-anchor="middle" x="233" y="-261.2" font-family="Helvetica,sans-Serif" font-size="12.00">Displaying::displaySolutions</text>
</a>
</g>
<!-- Node1&#45;&gt;Node10 -->
<g id="edge38" class="edge"><title>Node1&#45;&gt;Node10</title>
<path fill="none" stroke="midnightblue" d="M62.7823,-406.126C75.2441,-374.361 102.764,-315.897 146,-285 150.93,-281.477 156.378,-278.54 162.07,-276.092"/>
<polygon fill="midnightblue" stroke="midnightblue" points="59.3891,-405.205 59.1324,-415.796 65.9381,-407.677 59.3891,-405.205"/>
</g>
<!-- Node11 -->
<g id="node32" class="node"><title>Node11</title>
<a xlink:href="a00003.html#a836d9f49a3480b021e2c2fa22e05d6b1" target="_top" xlink:title="Plots internal standard curve.">
<polygon fill="white" stroke="red" points="178,-210 178,-234 288,-234 288,-210 178,-210"/>
<text text-anchor="middle" x="233" y="-219.2" font-family="Helvetica,sans-Serif" font-size="12.00">Displaying::plotIS</text>
</a>
</g>
<!-- Node1&#45;&gt;Node11 -->
<g id="edge42" class="edge"><title>Node1&#45;&gt;Node11</title>
<path fill="none" stroke="midnightblue" d="M59.4241,-406.005C68.4703,-366.933 92.882,-285.539 146,-243 155.096,-235.715 166.33,-230.897 177.668,-227.724"/>
<polygon fill="midnightblue" stroke="midnightblue" points="55.9916,-405.318 57.2689,-415.836 62.8292,-406.817 55.9916,-405.318"/>
</g>
<!-- Node12 -->
<g id="node34" class="node"><title>Node12</title>
<a xlink:href="a00003.html#a5b87ca7ad17830b56f9609f54991dd77" target="_top" xlink:title="Plots Evolution curve.">
<polygon fill="white" stroke="red" points="171.5,-168 171.5,-192 294.5,-192 294.5,-168 171.5,-168"/>
<text text-anchor="middle" x="233" y="-177.2" font-family="Helvetica,sans-Serif" font-size="12.00">Displaying::plotEvol</text>
</a>
</g>
<!-- Node1&#45;&gt;Node12 -->
<g id="edge44" class="edge"><title>Node1&#45;&gt;Node12</title>
<path fill="none" stroke="midnightblue" d="M57.2125,-405.95C62.9992,-360.409 82.8145,-255.661 146,-201 153.286,-194.697 162.145,-190.216 171.389,-187.043"/>
<polygon fill="midnightblue" stroke="midnightblue" points="53.7287,-405.609 56.0508,-415.946 60.6819,-406.417 53.7287,-405.609"/>
</g>
<!-- Node13 -->
<g id="node36" class="node"><title>Node13</title>
<a xlink:href="a00003.html#a2eb8d02c398ddd7708260ec230ceafcc" target="_top" xlink:title="Plots Calibration curves.">
<polygon fill="white" stroke="red" points="161.5,-790 161.5,-814 304.5,-814 304.5,-790 161.5,-790"/>
<text text-anchor="middle" x="233" y="-799.2" font-family="Helvetica,sans-Serif" font-size="12.00">Displaying::plotElement</text>
</a>
</g>
<!-- Node1&#45;&gt;Node13 -->
<g id="edge46" class="edge"><title>Node1&#45;&gt;Node13</title>
<path fill="none" stroke="midnightblue" d="M57.7575,-450.397C66.8294,-520.47 97.9424,-733.679 146,-781 150.429,-785.361 155.597,-788.871 161.167,-791.691"/>
<polygon fill="midnightblue" stroke="midnightblue" points="61.1792,-449.558 56.4482,-440.078 54.2349,-450.439 61.1792,-449.558"/>
</g>
<!-- Node14 -->
<g id="node39" class="node"><title>Node14</title>
<a xlink:href="a00007.html#ad7b814e406fa54ff255b66488a9dde4a" target="_top" xlink:title="Parsing Function.">
<polygon fill="white" stroke="black" points="171.5,-126 171.5,-150 294.5,-150 294.5,-126 171.5,-126"/>
<text text-anchor="middle" x="233" y="-135.2" font-family="Helvetica,sans-Serif" font-size="12.00">ParserInCSV::parse</text>
</a>
</g>
<!-- Node1&#45;&gt;Node14 -->
<g id="edge50" class="edge"><title>Node1&#45;&gt;Node14</title>
<path fill="none" stroke="midnightblue" d="M59.6448,-405.722C72.1987,-347.582 108.401,-193.381 146,-159 153.109,-152.499 161.878,-147.915 171.085,-144.701"/>
<polygon fill="midnightblue" stroke="midnightblue" points="56.1779,-405.199 57.5182,-415.709 63.0243,-406.657 56.1779,-405.199"/>
</g>
<!-- Node15 -->
<g id="node41" class="node"><title>Node15</title>
<a xlink:href="a00009.html#aac066ac6d6c2c4d2391343af917c92b4" target="_top" xlink:title="Parsing Function.">
<polygon fill="white" stroke="black" points="167,-84 167,-108 299,-108 299,-84 167,-84"/>
<text text-anchor="middle" x="233" y="-93.2" font-family="Helvetica,sans-Serif" font-size="12.00">ParserOutCSV::parse</text>
</a>
</g>
<!-- Node1&#45;&gt;Node15 -->
<g id="edge52" class="edge"><title>Node1&#45;&gt;Node15</title>
<path fill="none" stroke="midnightblue" d="M58.5606,-405.771C69.2809,-341.568 103.17,-157.83 146,-117 151.961,-111.318 159.182,-107.088 166.887,-103.953"/>
<polygon fill="midnightblue" stroke="midnightblue" points="55.0499,-405.551 56.8832,-415.986 61.9574,-406.686 55.0499,-405.551"/>
</g>
<!-- Node16 -->
<g id="node43" class="node"><title>Node16</title>
<a xlink:href="a00008.html#a8bdd62cece3dc339c2096c85044fad66" target="_top" xlink:title="Parsing Function.">
<polygon fill="white" stroke="black" points="163,-42 163,-66 303,-66 303,-42 163,-42"/>
<text text-anchor="middle" x="233" y="-51.2" font-family="Helvetica,sans-Serif" font-size="12.00">ParserInSTDQC::parse</text>
</a>
</g>
<!-- Node1&#45;&gt;Node16 -->
<g id="edge54" class="edge"><title>Node1&#45;&gt;Node16</title>
<path fill="none" stroke="midnightblue" d="M57.7575,-405.603C66.8294,-335.53 97.9424,-122.321 146,-75 150.871,-70.2032 156.638,-66.435 162.849,-63.4834"/>
<polygon fill="midnightblue" stroke="midnightblue" points="54.2349,-405.561 56.4482,-415.922 61.1792,-406.442 54.2349,-405.561"/>
</g>
<!-- Node17 -->
<g id="node45" class="node"><title>Node17</title>
<a xlink:href="a00010.html#a409d37b18750104739ee43e169371a0b" target="_top" xlink:title="Applies Blank Substraction.">
<polygon fill="white" stroke="black" points="155.5,-748 155.5,-772 310.5,-772 310.5,-748 155.5,-748"/>
<text text-anchor="middle" x="233" y="-757.2" font-family="Helvetica,sans-Serif" font-size="12.00">Processing::subtructBlank</text>
</a>
</g>
<!-- Node1&#45;&gt;Node17 -->
<g id="edge56" class="edge"><title>Node1&#45;&gt;Node17</title>
<path fill="none" stroke="midnightblue" d="M58.5606,-450.229C69.2809,-514.432 103.17,-698.17 146,-739 149.599,-742.431 153.657,-745.332 158.004,-747.782"/>
<polygon fill="midnightblue" stroke="midnightblue" points="61.9574,-449.314 56.8832,-440.014 55.0499,-450.449 61.9574,-449.314"/>
</g>
<!-- Node18 -->
<g id="node48" class="node"><title>Node18</title>
<a xlink:href="a00010.html#aa96b9a34a756e39a01581416199328d3" target="_top" xlink:title="Applies Internal Standard Correction.">
<polygon fill="white" stroke="black" points="160,-706 160,-730 306,-730 306,-706 160,-706"/>
<text text-anchor="middle" x="233" y="-715.2" font-family="Helvetica,sans-Serif" font-size="12.00">Processing::correctionIS</text>
</a>
</g>
<!-- Node1&#45;&gt;Node18 -->
<g id="edge60" class="edge"><title>Node1&#45;&gt;Node18</title>
<path fill="none" stroke="midnightblue" d="M59.6448,-450.278C72.1987,-508.418 108.401,-662.619 146,-697 150.128,-700.775 154.816,-703.903 159.823,-706.492"/>
<polygon fill="midnightblue" stroke="midnightblue" points="63.0243,-449.343 57.5182,-440.291 56.1779,-450.801 63.0243,-449.343"/>
</g>
<!-- Node19 -->
<g id="node51" class="node"><title>Node19</title>
<a xlink:href="a00010.html#ac0d956c3e8bdbc42a3b24975b25c6dfd" target="_top" xlink:title="Computes concentrations on data container.">
<polygon fill="white" stroke="black" points="146.5,-664 146.5,-688 319.5,-688 319.5,-664 146.5,-664"/>
<text text-anchor="middle" x="233" y="-673.2" font-family="Helvetica,sans-Serif" font-size="12.00">Processing::computeConcent</text>
</a>
</g>
<!-- Node1&#45;&gt;Node19 -->
<g id="edge64" class="edge"><title>Node1&#45;&gt;Node19</title>
<path fill="none" stroke="midnightblue" d="M57.2125,-450.05C62.9992,-495.591 82.8145,-600.339 146,-655 149.995,-658.456 154.464,-661.365 159.21,-663.811"/>
<polygon fill="midnightblue" stroke="midnightblue" points="60.6819,-449.583 56.0508,-440.054 53.7287,-450.391 60.6819,-449.583"/>
</g>
<!-- Node20 -->
<g id="node54" class="node"><title>Node20</title>
<a xlink:href="a00010.html#a092b32603577be8f4482f2d5d5f7ff30" target="_top" xlink:title="Quality control after data processing.">
<polygon fill="white" stroke="black" points="170,-622 170,-646 296,-646 296,-622 170,-622"/>
<text text-anchor="middle" x="233" y="-631.2" font-family="Helvetica,sans-Serif" font-size="12.00">Processing::passQC</text>
</a>
</g>
<!-- Node1&#45;&gt;Node20 -->
<g id="edge68" class="edge"><title>Node1&#45;&gt;Node20</title>
<path fill="none" stroke="midnightblue" d="M59.4241,-449.995C68.4703,-489.067 92.882,-570.461 146,-613 153.034,-618.633 161.347,-622.792 169.998,-625.855"/>
<polygon fill="midnightblue" stroke="midnightblue" points="62.8292,-449.183 57.2689,-440.164 55.9916,-450.682 62.8292,-449.183"/>
</g>
<!-- Node21 -->
<g id="node57" class="node"><title>Node21</title>
<a xlink:href="a00010.html#a5fbd5c910da7cec1497168d1d217f1ed" target="_top" xlink:title="Computes a calibration line.">
<polygon fill="white" stroke="red" points="157,-0 157,-24 309,-24 309,-0 157,-0"/>
<text text-anchor="middle" x="233" y="-9.2" font-family="Helvetica,sans-Serif" font-size="12.00">Processing::computeLine</text>
</a>
</g>
<!-- Node1&#45;&gt;Node21 -->
<g id="edge72" class="edge"><title>Node1&#45;&gt;Node21</title>
<path fill="none" stroke="midnightblue" d="M57.1135,-405.454C64.6546,-329.824 92.6773,-86.8812 146,-33 149.388,-29.5763 153.232,-26.6739 157.37,-24.2167"/>
<polygon fill="midnightblue" stroke="midnightblue" points="53.5986,-405.438 56.1134,-415.73 60.5657,-406.116 53.5986,-405.438"/>
</g>
<!-- Node22 -->
<g id="node59" class="node"><title>Node22</title>
<a xlink:href="a00010.html#ac6f31cca949dba1d4aa18b746311dd2f" target="_top" xlink:title="Computes limits &#45; of detection (LOD), of Quantification (LOQ)">
<polygon fill="white" stroke="black" points="153,-580 153,-604 313,-604 313,-580 153,-580"/>
<text text-anchor="middle" x="233" y="-589.2" font-family="Helvetica,sans-Serif" font-size="12.00">Processing::computeLimits</text>
</a>
</g>
<!-- Node1&#45;&gt;Node22 -->
<g id="edge74" class="edge"><title>Node1&#45;&gt;Node22</title>
<path fill="none" stroke="midnightblue" d="M63.4044,-449.278C76.4911,-479.673 104.611,-535.241 146,-566 153.845,-571.83 162.993,-576.361 172.352,-579.88"/>
<polygon fill="midnightblue" stroke="midnightblue" points="66.6195,-447.894 59.5451,-440.007 60.157,-450.584 66.6195,-447.894"/>
</g>
<!-- Node4&#45;&gt;Node2 -->
<g id="edge8" class="edge"><title>Node4&#45;&gt;Node2</title>
<path fill="none" stroke="midnightblue" d="M292.285,-478.867C301.985,-481.819 311.597,-485.755 320,-491 365.717,-519.54 400.634,-575.892 414.49,-600.74"/>
<polygon fill="midnightblue" stroke="midnightblue" points="293.167,-475.48 282.599,-476.23 291.329,-482.234 293.167,-475.48"/>
</g>
<!-- Node4&#45;&gt;Node3 -->
<g id="edge10" class="edge"><title>Node4&#45;&gt;Node3</title>
<path fill="none" stroke="midnightblue" d="M292.387,-458.374C301.789,-455.765 311.28,-452.659 320,-449 352.206,-435.487 385.906,-412.359 405.093,-398.201"/>
<polygon fill="midnightblue" stroke="midnightblue" points="291.448,-455.002 282.657,-460.916 293.217,-461.775 291.448,-455.002"/>
</g>
<!-- Node5&#45;&gt;Node2 -->
<g id="edge14" class="edge"><title>Node5&#45;&gt;Node2</title>
<path fill="none" stroke="midnightblue" d="M299.962,-438.364C307.097,-441.125 313.948,-444.608 320,-449 375.477,-489.265 406.87,-570.208 417.177,-600.861"/>
<polygon fill="midnightblue" stroke="midnightblue" points="300.697,-434.918 290.103,-435.031 298.454,-441.549 300.697,-434.918"/>
</g>
<!-- Node5&#45;&gt;Node3 -->
<g id="edge16" class="edge"><title>Node5&#45;&gt;Node3</title>
<path fill="none" stroke="midnightblue" d="M296.823,-413.742C319.676,-408.636 345.19,-402.936 367.119,-398.037"/>
<polygon fill="midnightblue" stroke="midnightblue" points="295.87,-410.368 286.873,-415.964 297.396,-417.2 295.87,-410.368"/>
</g>
<!-- Node6&#45;&gt;Node2 -->
<g id="edge20" class="edge"><title>Node6&#45;&gt;Node2</title>
<path fill="none" stroke="midnightblue" d="M311.029,-829.108C314.185,-827.294 317.196,-825.266 320,-823 386.392,-769.347 411.954,-661.477 418.889,-625.212"/>
<polygon fill="midnightblue" stroke="midnightblue" points="309.208,-826.104 301.797,-833.675 312.312,-832.378 309.208,-826.104"/>
</g>
<!-- Node7&#45;&gt;Node2 -->
<g id="edge24" class="edge"><title>Node7&#45;&gt;Node2</title>
<path fill="none" stroke="midnightblue" d="M314.452,-403.011C316.373,-404.251 318.227,-405.578 320,-407 385.411,-459.453 411.54,-564.926 418.761,-600.762"/>
<polygon fill="midnightblue" stroke="midnightblue" points="316.095,-399.919 305.654,-398.118 312.692,-406.037 316.095,-399.919"/>
</g>
<!-- Node7&#45;&gt;Node3 -->
<g id="edge26" class="edge"><title>Node7&#45;&gt;Node3</title>
<path fill="none" stroke="midnightblue" d="M322.919,-386C334.058,-386 345.274,-386 355.939,-386"/>
<polygon fill="midnightblue" stroke="midnightblue" points="322.729,-382.5 312.729,-386 322.729,-389.5 322.729,-382.5"/>
</g>
<!-- Node8&#45;&gt;Node2 -->
<g id="edge30" class="edge"><title>Node8&#45;&gt;Node2</title>
<path fill="none" stroke="midnightblue" d="M293.949,-527.247C302.885,-530.327 311.824,-533.902 320,-538 354.561,-555.32 389.613,-584.543 407.955,-600.93"/>
<polygon fill="midnightblue" stroke="midnightblue" points="294.883,-523.87 284.291,-524.098 292.714,-530.525 294.883,-523.87"/>
</g>
<!-- Node8&#45;&gt;Node3 -->
<g id="edge32" class="edge"><title>Node8&#45;&gt;Node3</title>
<path fill="none" stroke="midnightblue" d="M309.374,-496.313C313.045,-494.711 316.61,-492.945 320,-491 361.905,-466.96 397.502,-420.344 412.877,-398.221"/>
<polygon fill="midnightblue" stroke="midnightblue" points="308.094,-493.056 300.067,-499.97 310.654,-499.571 308.094,-493.056"/>
</g>
<!-- Node9&#45;&gt;Node3 -->
<g id="edge36" class="edge"><title>Node9&#45;&gt;Node3</title>
<path fill="none" stroke="midnightblue" d="M289.417,-321.058C299.719,-324.314 310.279,-327.996 320,-332 349.233,-344.04 381.114,-361.955 401.078,-373.803"/>
<polygon fill="midnightblue" stroke="midnightblue" points="290.241,-317.65 279.654,-318.07 288.192,-324.343 290.241,-317.65"/>
</g>
<!-- Node10&#45;&gt;Node3 -->
<g id="edge40" class="edge"><title>Node10&#45;&gt;Node3</title>
<path fill="none" stroke="midnightblue" d="M309.328,-279.767C313.012,-281.349 316.591,-283.088 320,-285 361.094,-308.047 396.824,-352.519 412.516,-373.918"/>
<polygon fill="midnightblue" stroke="midnightblue" points="310.587,-276.501 299.998,-276.152 308.057,-283.029 310.587,-276.501"/>
</g>
<!-- Node13&#45;&gt;Node2 -->
<g id="edge48" class="edge"><title>Node13&#45;&gt;Node2</title>
<path fill="none" stroke="midnightblue" d="M313.485,-785.263C315.739,-783.947 317.918,-782.528 320,-781 376.241,-739.719 407.175,-656.822 417.268,-625.431"/>
<polygon fill="midnightblue" stroke="midnightblue" points="311.79,-782.198 304.463,-789.851 314.963,-788.438 311.79,-782.198"/>
</g>
<!-- Node17&#45;&gt;Node2 -->
<g id="edge58" class="edge"><title>Node17&#45;&gt;Node2</title>
<path fill="none" stroke="midnightblue" d="M311.377,-743.824C314.358,-742.354 317.246,-740.75 320,-739 366.618,-709.384 401.298,-650.734 414.807,-625.274"/>
<polygon fill="midnightblue" stroke="midnightblue" points="309.951,-740.628 302.196,-747.846 312.76,-747.039 309.951,-740.628"/>
</g>
<!-- Node18&#45;&gt;Node2 -->
<g id="edge62" class="edge"><title>Node18&#45;&gt;Node2</title>
<path fill="none" stroke="midnightblue" d="M307.447,-702.5C311.769,-700.843 315.986,-699.015 320,-697 357.299,-678.273 392.883,-643.396 410.144,-625.027"/>
<polygon fill="midnightblue" stroke="midnightblue" points="306.133,-699.252 297.853,-705.862 308.448,-705.858 306.133,-699.252"/>
</g>
<!-- Node19&#45;&gt;Node2 -->
<g id="edge66" class="edge"><title>Node19&#45;&gt;Node2</title>
<path fill="none" stroke="midnightblue" d="M298.515,-661.362C305.81,-659.385 313.094,-657.254 320,-655 346.177,-646.457 375.103,-634.117 395.266,-625.022"/>
<polygon fill="midnightblue" stroke="midnightblue" points="297.381,-658.041 288.595,-663.962 299.155,-664.813 297.381,-658.041"/>
</g>
<!-- Node20&#45;&gt;Node2 -->
<g id="edge70" class="edge"><title>Node20&#45;&gt;Node2</title>
<path fill="none" stroke="midnightblue" d="M306.254,-625.817C327.86,-623.404 351.005,-620.819 370.809,-618.606"/>
<polygon fill="midnightblue" stroke="midnightblue" points="305.674,-622.36 296.124,-626.949 306.451,-629.317 305.674,-622.36"/>
</g>
<!-- Node22&#45;&gt;Node2 -->
<g id="edge76" class="edge"><title>Node22&#45;&gt;Node2</title>
<path fill="none" stroke="midnightblue" d="M323.157,-602.071C339.529,-603.9 356.057,-605.746 370.749,-607.387"/>
<polygon fill="midnightblue" stroke="midnightblue" points="323.328,-598.568 313.002,-600.936 322.551,-605.525 323.328,-598.568"/>
</g>
</g>
</svg>
        <g id="navigator" transform="translate(0 0)" fill="#404254">
                <rect fill="#f2f5e9" fill-opacity="0.5" stroke="#606060" stroke-width=".5" x="0" y="0" width="60" height="60"/>
                <use id="zoomplus" xlink:href="#zoomPlus" x="17" y="9" onmousedown="handleZoom(evt,'in')"/>
                <use id="zoomminus" xlink:href="#zoomMin" x="42" y="9" onmousedown="handleZoom(evt,'out')"/>
                <use id="reset" xlink:href="#resetDef" x="30" y="36" onmousedown="handleReset()"/>
                <g id="arrowUp" xlink:href="#dirArrow" transform="translate(30 24)" onmousedown="handlePan(0,-1)">
                  <use xlink:href="#rim" fill="#404040">
                        <set attributeName="fill" to="#808080" begin="arrowUp.mouseover" end="arrowUp.mouseout"/>
                  </use>
                  <path fill="none" stroke="white" stroke-width="1.5" d="M0,-3.0v7 M-2.5,-0.5L0,-3.0L2.5,-0.5"/>
                </g>
                <g id="arrowRight" xlink:href="#dirArrow" transform="rotate(90) translate(36 -43)" onmousedown="handlePan(1,0)">
                  <use xlink:href="#rim" fill="#404040">
                        <set attributeName="fill" to="#808080" begin="arrowRight.mouseover" end="arrowRight.mouseout"/>
                  </use>
                  <path fill="none" stroke="white" stroke-width="1.5" d="M0,-3.0v7 M-2.5,-0.5L0,-3.0L2.5,-0.5"/>
                </g>
                <g id="arrowDown" xlink:href="#dirArrow" transform="rotate(180) translate(-30 -48)" onmousedown="handlePan(0,1)">
                  <use xlink:href="#rim" fill="#404040">
                        <set attributeName="fill" to="#808080" begin="arrowDown.mouseover" end="arrowDown.mouseout"/>
                  </use>
                  <path fill="none" stroke="white" stroke-width="1.5" d="M0,-3.0v7 M-2.5,-0.5L0,-3.0L2.5,-0.5"/>
                </g>
                <g id="arrowLeft" xlink:href="#dirArrow" transform="rotate(270) translate(-36 17)" onmousedown="handlePan(-1,0)">
                  <use xlink:href="#rim" fill="#404040">
                        <set attributeName="fill" to="#808080" begin="arrowLeft.mouseover" end="arrowLeft.mouseout"/>
                  </use>
                  <path fill="none" stroke="white" stroke-width="1.5" d="M0,-3.0v7 M-2.5,-0.5L0,-3.0L2.5,-0.5"/>
                </g>
        </g>
        <svg viewBox="0 0 15 15" width="100%" height="30px" preserveAspectRatio="xMaxYMin meet">
         <g id="arrow_out" transform="scale(0.3 0.3)">
          <a xlink:href="a00002_a7b1a07606090591e7fffb48be72bd734_icgraph_org.svg" target="_base">
           <rect id="button" ry="5" rx="5" y="6" x="6" height="38" width="38"
                fill="#f2f5e9" fill-opacity="0.5" stroke="#606060" stroke-width="1.0"/>
           <path id="arrow"
             d="M 11.500037,31.436501 C 11.940474,20.09759 22.043105,11.32322 32.158766,21.979434 L 37.068811,17.246167 C 37.068811,17.246167 37.088388,32 37.088388,32 L 22.160133,31.978069 C 22.160133,31.978069 26.997745,27.140456 26.997745,27.140456 C 18.528582,18.264221 13.291696,25.230495 11.500037,31.436501 z"
             style="fill:#404040;"/>
          </a>
         </g>
        </svg>
</svg>
