<?xml version="1.0" encoding="UTF-8" standalone="no"?>
<!DOCTYPE svg PUBLIC "-//W3C//DTD SVG 1.1//EN"
 "http://www.w3.org/Graphics/SVG/1.1/DTD/svg11.dtd">
<!-- Generated by graphviz version 2.26.3 (20100126.1600)
 -->
<!-- Title: Solution::setConcent Pages: 1 -->
<svg width="346pt" height="116pt"
 viewBox="0.00 0.00 346.00 116.00" xmlns="http://www.w3.org/2000/svg" xmlns:xlink="http://www.w3.org/1999/xlink">
<g id="graph1" class="graph" transform="scale(1 1) rotate(0) translate(4 112)">
<title>Solution::setConcent</title>
<polygon fill="white" stroke="white" points="-4,5 -4,-112 343,-112 343,5 -4,5"/>
<!-- Node1 -->
<g id="node1" class="node"><title>Node1</title>
<polygon fill="#bfbfbf" stroke="black" points="0,-42 0,-66 128,-66 128,-42 0,-42"/>
<text text-anchor="middle" x="64" y="-51.2" font-family="Helvetica,sans-Serif" font-size="12.00">Solution::setConcent</text>
</g>
<!-- Node2 -->
<g id="node3" class="node"><title>Node2</title>
<a xlink:href="a00002.html#a6fc1d983c7fa16eebd0d0b12cb505a30" target="_top" xlink:title="Copies data contain from the given parameter.">
<polygon fill="white" stroke="red" points="201.5,-84 201.5,-108 300.5,-108 300.5,-84 201.5,-84"/>
<text text-anchor="middle" x="251" y="-93.2" font-family="Helvetica,sans-Serif" font-size="12.00">Data::copyData</text>
</a>
</g>
<!-- Node1&#45;&gt;Node2 -->
<g id="edge2" class="edge"><title>Node1&#45;&gt;Node2</title>
<path fill="none" stroke="midnightblue" d="M127.363,-68.2312C151.474,-73.6465 178.579,-79.7342 201.252,-84.8266"/>
<polygon fill="midnightblue" stroke="midnightblue" points="128.111,-64.8121 117.587,-66.0355 126.577,-71.6419 128.111,-64.8121"/>
</g>
<!-- Node3 -->
<g id="node5" class="node"><title>Node3</title>
<a xlink:href="a00008.html#a8bdd62cece3dc339c2096c85044fad66" target="_top" xlink:title="Parsing Function.">
<polygon fill="white" stroke="black" points="181,-42 181,-66 321,-66 321,-42 181,-42"/>
<text text-anchor="middle" x="251" y="-51.2" font-family="Helvetica,sans-Serif" font-size="12.00">ParserInSTDQC::parse</text>
</a>
</g>
<!-- Node1&#45;&gt;Node3 -->
<g id="edge4" class="edge"><title>Node1&#45;&gt;Node3</title>
<path fill="none" stroke="midnightblue" d="M138.213,-54C152.286,-54 166.969,-54 180.909,-54"/>
<polygon fill="midnightblue" stroke="midnightblue" points="138.093,-50.5001 128.093,-54 138.093,-57.5001 138.093,-50.5001"/>
</g>
<!-- Node4 -->
<g id="node7" class="node"><title>Node4</title>
<a xlink:href="a00010.html#ac0d956c3e8bdbc42a3b24975b25c6dfd" target="_top" xlink:title="Computes concentrations on data container.">
<polygon fill="white" stroke="red" points="164.5,-0 164.5,-24 337.5,-24 337.5,-0 164.5,-0"/>
<text text-anchor="middle" x="251" y="-9.2" font-family="Helvetica,sans-Serif" font-size="12.00">Processing::computeConcent</text>
</a>
</g>
<!-- Node1&#45;&gt;Node4 -->
<g id="edge6" class="edge"><title>Node1&#45;&gt;Node4</title>
<path fill="none" stroke="midnightblue" d="M127.484,-39.7416C150.215,-34.6362 175.593,-28.9362 197.405,-24.0373"/>
<polygon fill="midnightblue" stroke="midnightblue" points="126.577,-36.3581 117.587,-41.9645 128.111,-43.1879 126.577,-36.3581"/>
</g>
</g>
</svg>
