<?xml version="1.0" encoding="UTF-8" standalone="no"?>
<!DOCTYPE svg PUBLIC "-//W3C//DTD SVG 1.1//EN"
 "http://www.w3.org/Graphics/SVG/1.1/DTD/svg11.dtd">
<!-- Generated by graphviz version 2.26.3 (20100126.1600)
 -->
<!-- Title: Data::isoSize Pages: 1 -->
<svg width="472pt" height="612pt"
 viewBox="0.00 0.00 472.00 612.00" xmlns="http://www.w3.org/2000/svg" xmlns:xlink="http://www.w3.org/1999/xlink">
<g id="graph1" class="graph" transform="scale(1 1) rotate(0) translate(4 608)">
<title>Data::isoSize</title>
<polygon fill="white" stroke="white" points="-4,5 -4,-608 469,-608 469,5 -4,5"/>
<!-- Node1 -->
<g id="node1" class="node"><title>Node1</title>
<polygon fill="#bfbfbf" stroke="black" points="0,-290 0,-314 88,-314 88,-290 0,-290"/>
<text text-anchor="middle" x="44" y="-299.2" font-family="Helvetica,sans-Serif" font-size="12.00">Data::isoSize</text>
</g>
<!-- Node2 -->
<g id="node3" class="node"><title>Node2</title>
<a xlink:href="a00001.html#a68965449404743bf1add056784d6cf81" target="_top" xlink:title="Slot of clicking on proceed button.">
<polygon fill="white" stroke="red" points="349,-374 349,-398 449,-398 449,-374 349,-374"/>
<text text-anchor="middle" x="399" y="-383.2" font-family="Helvetica,sans-Serif" font-size="12.00">Application::run</text>
</a>
</g>
<!-- Node1&#45;&gt;Node2 -->
<g id="edge2" class="edge"><title>Node1&#45;&gt;Node2</title>
<path fill="none" stroke="midnightblue" d="M48.6309,-324.318C57.0107,-358.269 78.2471,-421.81 124,-449 190.48,-488.508 223.654,-470.286 298,-449 332.57,-439.102 366.806,-413.555 385.191,-398.204"/>
<polygon fill="midnightblue" stroke="midnightblue" points="52.0055,-323.376 46.3472,-314.419 45.1847,-324.949 52.0055,-323.376"/>
</g>
<!-- Node3 -->
<g id="node5" class="node"><title>Node3</title>
<a xlink:href="a00001.html#ab7f9356b1eaa23c179500675d92a49d5" target="_top" xlink:title="Slot of clicking on open data file button.">
<polygon fill="white" stroke="red" points="334,-185 334,-209 464,-209 464,-185 334,-185"/>
<text text-anchor="middle" x="399" y="-194.2" font-family="Helvetica,sans-Serif" font-size="12.00">Application::openFile</text>
</a>
</g>
<!-- Node1&#45;&gt;Node3 -->
<g id="edge4" class="edge"><title>Node1&#45;&gt;Node3</title>
<path fill="none" stroke="midnightblue" d="M45.7808,-279.788C50.4237,-238.537 66.864,-150.859 124,-113 188.466,-70.2842 225.273,-86.7092 298,-113 337.894,-127.421 373.134,-165.23 389.423,-184.828"/>
<polygon fill="midnightblue" stroke="midnightblue" points="42.2831,-279.593 44.779,-289.889 49.2489,-280.284 42.2831,-279.593"/>
</g>
<!-- Node4 -->
<g id="node7" class="node"><title>Node4</title>
<a xlink:href="a00002.html#a6fc1d983c7fa16eebd0d0b12cb505a30" target="_top" xlink:title="Copies data contain from the given parameter.">
<polygon fill="white" stroke="black" points="161.5,-164 161.5,-188 260.5,-188 260.5,-164 161.5,-164"/>
<text text-anchor="middle" x="211" y="-173.2" font-family="Helvetica,sans-Serif" font-size="12.00">Data::copyData</text>
</a>
</g>
<!-- Node1&#45;&gt;Node4 -->
<g id="edge6" class="edge"><title>Node1&#45;&gt;Node4</title>
<path fill="none" stroke="midnightblue" d="M54.461,-280.713C67.4187,-256.628 91.7838,-218.028 124,-197 135.06,-189.781 148.366,-185.041 161.209,-181.929"/>
<polygon fill="midnightblue" stroke="midnightblue" points="51.2668,-279.269 49.7642,-289.757 57.4791,-282.496 51.2668,-279.269"/>
</g>
<!-- Node5 -->
<g id="node11" class="node"><title>Node5</title>
<a xlink:href="a00002.html#a6ff99fcec4f0387958fff773969de591" target="_top" xlink:title="Adds a calculated Blank Solution.">
<polygon fill="white" stroke="black" points="154,-290 154,-314 268,-314 268,-290 154,-290"/>
<text text-anchor="middle" x="211" y="-299.2" font-family="Helvetica,sans-Serif" font-size="12.00">Data::addBLKmoy</text>
</a>
</g>
<!-- Node1&#45;&gt;Node5 -->
<g id="edge12" class="edge"><title>Node1&#45;&gt;Node5</title>
<path fill="none" stroke="midnightblue" d="M98.4946,-302C116.224,-302 135.947,-302 153.864,-302"/>
<polygon fill="midnightblue" stroke="midnightblue" points="98.3145,-298.5 88.3145,-302 98.3145,-305.5 98.3145,-298.5"/>
</g>
<!-- Node6 -->
<g id="node15" class="node"><title>Node6</title>
<a xlink:href="a00003.html#a30730fad4ea063bd1a253de59a279ecc" target="_top" xlink:title="displays input data on the input Table">
<polygon fill="white" stroke="red" points="131.5,-248 131.5,-272 290.5,-272 290.5,-248 131.5,-248"/>
<text text-anchor="middle" x="211" y="-257.2" font-family="Helvetica,sans-Serif" font-size="12.00">Displaying::dispTableInput</text>
</a>
</g>
<!-- Node1&#45;&gt;Node6 -->
<g id="edge18" class="edge"><title>Node1&#45;&gt;Node6</title>
<path fill="none" stroke="midnightblue" d="M98.3326,-287.582C106.914,-285.35 115.693,-283.093 124,-281 135.752,-278.039 148.42,-274.933 160.354,-272.045"/>
<polygon fill="midnightblue" stroke="midnightblue" points="97.1814,-284.266 88.3908,-290.18 98.9508,-291.038 97.1814,-284.266"/>
</g>
<!-- Node7 -->
<g id="node19" class="node"><title>Node7</title>
<a xlink:href="a00003.html#a773c819165ab712b4fd073ddddcd8695" target="_top" xlink:title="display output data on the output Table">
<polygon fill="white" stroke="red" points="127,-206 127,-230 295,-230 295,-206 127,-206"/>
<text text-anchor="middle" x="211" y="-215.2" font-family="Helvetica,sans-Serif" font-size="12.00">Displaying::dispTableOutput</text>
</a>
</g>
<!-- Node1&#45;&gt;Node7 -->
<g id="edge24" class="edge"><title>Node1&#45;&gt;Node7</title>
<path fill="none" stroke="midnightblue" d="M63.1461,-282.984C78.4104,-268.859 100.977,-250.177 124,-239 131.268,-235.471 139.174,-232.51 147.157,-230.03"/>
<polygon fill="midnightblue" stroke="midnightblue" points="60.7114,-280.469 55.8657,-289.891 65.5293,-285.548 60.7114,-280.469"/>
</g>
<!-- Node8 -->
<g id="node23" class="node"><title>Node8</title>
<a xlink:href="a00003.html#a5948e8f752a67b250665cee57abdadb2" target="_top" xlink:title="Generates lists : of Elements, HR&#45;MR&#45;LR Elements and Blanks.">
<polygon fill="white" stroke="black" points="139.5,-122 139.5,-146 282.5,-146 282.5,-122 139.5,-122"/>
<text text-anchor="middle" x="211" y="-131.2" font-family="Helvetica,sans-Serif" font-size="12.00">Displaying::displayLists</text>
</a>
</g>
<!-- Node1&#45;&gt;Node8 -->
<g id="edge30" class="edge"><title>Node1&#45;&gt;Node8</title>
<path fill="none" stroke="midnightblue" d="M49.756,-280.047C59.4426,-247.569 82.1698,-187.106 124,-155 128.684,-151.405 133.894,-148.415 139.371,-145.928"/>
<polygon fill="midnightblue" stroke="midnightblue" points="46.3209,-279.332 46.9622,-289.907 53.0558,-281.24 46.3209,-279.332"/>
</g>
<!-- Node9 -->
<g id="node26" class="node"><title>Node9</title>
<a xlink:href="a00009.html#aac066ac6d6c2c4d2391343af917c92b4" target="_top" xlink:title="Parsing Function.">
<polygon fill="white" stroke="black" points="145,-42 145,-66 277,-66 277,-42 145,-42"/>
<text text-anchor="middle" x="211" y="-51.2" font-family="Helvetica,sans-Serif" font-size="12.00">ParserOutCSV::parse</text>
</a>
</g>
<!-- Node1&#45;&gt;Node9 -->
<g id="edge34" class="edge"><title>Node1&#45;&gt;Node9</title>
<path fill="none" stroke="midnightblue" d="M45.5479,-279.843C49.8543,-235.421 65.8361,-135.024 124,-80 130.184,-74.1499 137.63,-69.6109 145.531,-66.0903"/>
<polygon fill="midnightblue" stroke="midnightblue" points="42.0554,-279.607 44.686,-289.87 49.0297,-280.206 42.0554,-279.607"/>
</g>
<!-- Node10 -->
<g id="node28" class="node"><title>Node10</title>
<a xlink:href="a00008.html#a8bdd62cece3dc339c2096c85044fad66" target="_top" xlink:title="Parsing Function.">
<polygon fill="white" stroke="black" points="141,-0 141,-24 281,-24 281,-0 141,-0"/>
<text text-anchor="middle" x="211" y="-9.2" font-family="Helvetica,sans-Serif" font-size="12.00">ParserInSTDQC::parse</text>
</a>
</g>
<!-- Node1&#45;&gt;Node10 -->
<g id="edge36" class="edge"><title>Node1&#45;&gt;Node10</title>
<path fill="none" stroke="midnightblue" d="M47.6974,-279.753C57.784,-221.69 87.4797,-67.6613 124,-33 128.846,-28.4005 134.519,-24.7537 140.604,-21.8693"/>
<polygon fill="midnightblue" stroke="midnightblue" points="44.2276,-279.28 45.9949,-289.726 51.1278,-280.458 44.2276,-279.28"/>
</g>
<!-- Node11 -->
<g id="node30" class="node"><title>Node11</title>
<a xlink:href="a00010.html#a409d37b18750104739ee43e169371a0b" target="_top" xlink:title="Applies Blank Substraction.">
<polygon fill="white" stroke="black" points="133.5,-416 133.5,-440 288.5,-440 288.5,-416 133.5,-416"/>
<text text-anchor="middle" x="211" y="-425.2" font-family="Helvetica,sans-Serif" font-size="12.00">Processing::subtructBlank</text>
</a>
</g>
<!-- Node1&#45;&gt;Node11 -->
<g id="edge38" class="edge"><title>Node1&#45;&gt;Node11</title>
<path fill="none" stroke="midnightblue" d="M54.461,-323.287C67.4187,-347.372 91.7838,-385.972 124,-407 129.465,-410.567 135.478,-413.529 141.713,-415.988"/>
<polygon fill="midnightblue" stroke="midnightblue" points="57.4791,-321.504 49.7642,-314.243 51.2668,-324.731 57.4791,-321.504"/>
</g>
<!-- Node12 -->
<g id="node33" class="node"><title>Node12</title>
<a xlink:href="a00010.html#aa96b9a34a756e39a01581416199328d3" target="_top" xlink:title="Applies Internal Standard Correction.">
<polygon fill="white" stroke="black" points="138,-374 138,-398 284,-398 284,-374 138,-374"/>
<text text-anchor="middle" x="211" y="-383.2" font-family="Helvetica,sans-Serif" font-size="12.00">Processing::correctionIS</text>
</a>
</g>
<!-- Node1&#45;&gt;Node12 -->
<g id="edge42" class="edge"><title>Node1&#45;&gt;Node12</title>
<path fill="none" stroke="midnightblue" d="M63.1461,-321.016C78.4104,-335.141 100.977,-353.823 124,-365 131.268,-368.529 139.174,-371.49 147.157,-373.97"/>
<polygon fill="midnightblue" stroke="midnightblue" points="65.5293,-318.452 55.8657,-314.109 60.7114,-323.531 65.5293,-318.452"/>
</g>
<!-- Node13 -->
<g id="node36" class="node"><title>Node13</title>
<a xlink:href="a00010.html#aab8fde82e21bbe6c59a743bac8480c49" target="_top" xlink:title="Computes calibration lines.">
<polygon fill="white" stroke="black" points="142,-332 142,-356 280,-356 280,-332 142,-332"/>
<text text-anchor="middle" x="211" y="-341.2" font-family="Helvetica,sans-Serif" font-size="12.00">Processing::calibration</text>
</a>
</g>
<!-- Node1&#45;&gt;Node13 -->
<g id="edge46" class="edge"><title>Node1&#45;&gt;Node13</title>
<path fill="none" stroke="midnightblue" d="M98.3326,-316.418C106.914,-318.65 115.693,-320.907 124,-323 135.752,-325.961 148.42,-329.067 160.354,-331.955"/>
<polygon fill="midnightblue" stroke="midnightblue" points="98.9508,-312.962 88.3908,-313.82 97.1814,-319.734 98.9508,-312.962"/>
</g>
<!-- Node14 -->
<g id="node39" class="node"><title>Node14</title>
<a xlink:href="a00010.html#ac0d956c3e8bdbc42a3b24975b25c6dfd" target="_top" xlink:title="Computes concentrations on data container.">
<polygon fill="white" stroke="black" points="124.5,-580 124.5,-604 297.5,-604 297.5,-580 124.5,-580"/>
<text text-anchor="middle" x="211" y="-589.2" font-family="Helvetica,sans-Serif" font-size="12.00">Processing::computeConcent</text>
</a>
</g>
<!-- Node1&#45;&gt;Node14 -->
<g id="edge50" class="edge"><title>Node1&#45;&gt;Node14</title>
<path fill="none" stroke="midnightblue" d="M47.6974,-324.247C57.784,-382.31 87.4797,-536.339 124,-571 127.719,-574.53 131.925,-577.499 136.431,-579.992"/>
<polygon fill="midnightblue" stroke="midnightblue" points="51.1278,-323.542 45.9949,-314.274 44.2276,-324.72 51.1278,-323.542"/>
</g>
<!-- Node15 -->
<g id="node42" class="node"><title>Node15</title>
<a xlink:href="a00010.html#a092b32603577be8f4482f2d5d5f7ff30" target="_top" xlink:title="Quality control after data processing.">
<polygon fill="white" stroke="black" points="148,-538 148,-562 274,-562 274,-538 148,-538"/>
<text text-anchor="middle" x="211" y="-547.2" font-family="Helvetica,sans-Serif" font-size="12.00">Processing::passQC</text>
</a>
</g>
<!-- Node1&#45;&gt;Node15 -->
<g id="edge54" class="edge"><title>Node1&#45;&gt;Node15</title>
<path fill="none" stroke="midnightblue" d="M45.0869,-324.268C48.5576,-369.828 63.1004,-474.015 124,-529 130.804,-535.143 139.093,-539.571 147.821,-542.746"/>
<polygon fill="midnightblue" stroke="midnightblue" points="48.5618,-323.766 44.4216,-314.013 41.5765,-324.219 48.5618,-323.766"/>
</g>
<!-- Node16 -->
<g id="node45" class="node"><title>Node16</title>
<a xlink:href="a00010.html#ac6f31cca949dba1d4aa18b746311dd2f" target="_top" xlink:title="Computes limits &#45; of detection (LOD), of Quantification (LOQ)">
<polygon fill="white" stroke="black" points="131,-496 131,-520 291,-520 291,-496 131,-496"/>
<text text-anchor="middle" x="211" y="-505.2" font-family="Helvetica,sans-Serif" font-size="12.00">Processing::computeLimits</text>
</a>
</g>
<!-- Node1&#45;&gt;Node16 -->
<g id="edge58" class="edge"><title>Node1&#45;&gt;Node16</title>
<path fill="none" stroke="midnightblue" d="M47.6694,-324.122C55.1236,-362.035 75.6253,-439.445 124,-482 130.628,-487.831 138.52,-492.355 146.805,-495.865"/>
<polygon fill="midnightblue" stroke="midnightblue" points="51.081,-323.322 45.8291,-314.12 44.1966,-324.589 51.081,-323.322"/>
</g>
<!-- Node4&#45;&gt;Node2 -->
<g id="edge8" class="edge"><title>Node4&#45;&gt;Node2</title>
<path fill="none" stroke="midnightblue" d="M270.569,-183.27C280.398,-186.391 289.981,-190.796 298,-197 359.207,-244.35 387.628,-339.526 396.135,-373.552"/>
<polygon fill="midnightblue" stroke="midnightblue" points="271.277,-179.835 260.707,-180.558 269.421,-186.584 271.277,-179.835"/>
</g>
<!-- Node4&#45;&gt;Node3 -->
<g id="edge10" class="edge"><title>Node4&#45;&gt;Node3</title>
<path fill="none" stroke="midnightblue" d="M270.853,-182.686C290.966,-184.932 313.492,-187.449 333.982,-189.737"/>
<polygon fill="midnightblue" stroke="midnightblue" points="271.214,-179.204 260.887,-181.572 270.437,-186.161 271.214,-179.204"/>
</g>
<!-- Node5&#45;&gt;Node2 -->
<g id="edge14" class="edge"><title>Node5&#45;&gt;Node2</title>
<path fill="none" stroke="midnightblue" d="M278.044,-315.861C284.884,-317.962 291.647,-320.334 298,-323 330.206,-336.513 363.906,-359.641 383.093,-373.799"/>
<polygon fill="midnightblue" stroke="midnightblue" points="278.585,-312.375 268.007,-312.975 276.65,-319.102 278.585,-312.375"/>
</g>
<!-- Node5&#45;&gt;Node3 -->
<g id="edge16" class="edge"><title>Node5&#45;&gt;Node3</title>
<path fill="none" stroke="midnightblue" d="M277.659,-289.274C284.693,-286.947 291.604,-284.211 298,-281 335.299,-262.273 370.883,-227.396 388.144,-209.027"/>
<polygon fill="midnightblue" stroke="midnightblue" points="276.579,-285.944 268.029,-292.2 278.614,-292.642 276.579,-285.944"/>
</g>
<!-- Node6&#45;&gt;Node2 -->
<g id="edge20" class="edge"><title>Node6&#45;&gt;Node2</title>
<path fill="none" stroke="midnightblue" d="M287.374,-275.687C291.045,-277.289 294.61,-279.055 298,-281 339.905,-305.04 375.502,-351.656 390.877,-373.779"/>
<polygon fill="midnightblue" stroke="midnightblue" points="288.654,-272.429 278.067,-272.03 286.094,-278.944 288.654,-272.429"/>
</g>
<!-- Node6&#45;&gt;Node3 -->
<g id="edge22" class="edge"><title>Node6&#45;&gt;Node3</title>
<path fill="none" stroke="midnightblue" d="M276.515,-245.362C283.81,-243.385 291.094,-241.254 298,-239 324.177,-230.457 353.103,-218.117 373.266,-209.022"/>
<polygon fill="midnightblue" stroke="midnightblue" points="275.381,-242.041 266.595,-247.962 277.155,-248.813 275.381,-242.041"/>
</g>
<!-- Node7&#45;&gt;Node2 -->
<g id="edge26" class="edge"><title>Node7&#45;&gt;Node2</title>
<path fill="none" stroke="midnightblue" d="M290.485,-234.422C293.085,-235.826 295.6,-237.348 298,-239 349.523,-274.463 382.621,-345.486 394.291,-373.871"/>
<polygon fill="midnightblue" stroke="midnightblue" points="291.893,-231.217 281.357,-230.096 288.895,-237.542 291.893,-231.217"/>
</g>
<!-- Node7&#45;&gt;Node3 -->
<g id="edge28" class="edge"><title>Node7&#45;&gt;Node3</title>
<path fill="none" stroke="midnightblue" d="M305.193,-207.478C314.891,-206.395 324.587,-205.312 333.867,-204.275"/>
<polygon fill="midnightblue" stroke="midnightblue" points="304.652,-204.017 295.102,-208.606 305.429,-210.974 304.652,-204.017"/>
</g>
<!-- Node8&#45;&gt;Node3 -->
<g id="edge32" class="edge"><title>Node8&#45;&gt;Node3</title>
<path fill="none" stroke="midnightblue" d="M276.515,-148.638C283.81,-150.615 291.094,-152.746 298,-155 324.177,-163.543 353.103,-175.883 373.266,-184.978"/>
<polygon fill="midnightblue" stroke="midnightblue" points="277.155,-145.187 266.595,-146.038 275.381,-151.959 277.155,-145.187"/>
</g>
<!-- Node11&#45;&gt;Node2 -->
<g id="edge40" class="edge"><title>Node11&#45;&gt;Node2</title>
<path fill="none" stroke="midnightblue" d="M274.702,-413.769C298.941,-408.353 326.191,-402.266 348.986,-397.173"/>
<polygon fill="midnightblue" stroke="midnightblue" points="273.87,-410.368 264.873,-415.964 275.396,-417.2 273.87,-410.368"/>
</g>
<!-- Node12&#45;&gt;Node2 -->
<g id="edge44" class="edge"><title>Node12&#45;&gt;Node2</title>
<path fill="none" stroke="midnightblue" d="M294.468,-386C313.043,-386 332.173,-386 348.909,-386"/>
<polygon fill="midnightblue" stroke="midnightblue" points="294.224,-382.5 284.224,-386 294.224,-389.5 294.224,-382.5"/>
</g>
<!-- Node13&#45;&gt;Node2 -->
<g id="edge48" class="edge"><title>Node13&#45;&gt;Node2</title>
<path fill="none" stroke="midnightblue" d="M274.702,-358.231C298.941,-363.647 326.191,-369.734 348.986,-374.827"/>
<polygon fill="midnightblue" stroke="midnightblue" points="275.396,-354.8 264.873,-356.036 273.87,-361.632 275.396,-354.8"/>
</g>
<!-- Node14&#45;&gt;Node2 -->
<g id="edge52" class="edge"><title>Node14&#45;&gt;Node2</title>
<path fill="none" stroke="midnightblue" d="M292.208,-574.985C294.21,-573.747 296.146,-572.421 298,-571 358.41,-524.698 387.329,-431.508 396.051,-398.189"/>
<polygon fill="midnightblue" stroke="midnightblue" points="290.231,-572.073 283.055,-579.868 293.526,-578.249 290.231,-572.073"/>
</g>
<!-- Node15&#45;&gt;Node2 -->
<g id="edge56" class="edge"><title>Node15&#45;&gt;Node2</title>
<path fill="none" stroke="midnightblue" d="M283.506,-536.899C288.605,-534.666 293.5,-532.054 298,-529 348.547,-494.689 381.983,-426.102 394.017,-398.214"/>
<polygon fill="midnightblue" stroke="midnightblue" points="282.21,-533.647 274.15,-540.523 284.739,-540.175 282.21,-533.647"/>
</g>
<!-- Node16&#45;&gt;Node2 -->
<g id="edge60" class="edge"><title>Node16&#45;&gt;Node2</title>
<path fill="none" stroke="midnightblue" d="M275.224,-492.595C283.137,-489.61 290.921,-486.102 298,-482 337.141,-459.317 372.992,-418.549 389.474,-398.219"/>
<polygon fill="midnightblue" stroke="midnightblue" points="273.83,-489.375 265.548,-495.982 276.143,-495.982 273.83,-489.375"/>
</g>
</g>
</svg>
