<?xml version="1.0" encoding="UTF-8" standalone="no"?>
<!DOCTYPE svg PUBLIC "-//W3C//DTD SVG 1.1//EN"
 "http://www.w3.org/Graphics/SVG/1.1/DTD/svg11.dtd">
<!-- Generated by graphviz version 2.26.3 (20100126.1600)
 -->
<!-- Title: data.h Pages: 1 -->
<svg width="324pt" height="220pt"
 viewBox="0.00 0.00 323.80 220.00" xmlns="http://www.w3.org/2000/svg" xmlns:xlink="http://www.w3.org/1999/xlink">
<g id="graph1" class="graph" transform="scale(1 1) rotate(0) translate(4 216)">
<title>data.h</title>
<polygon fill="white" stroke="white" points="-4,5 -4,-216 320.799,-216 320.799,5 -4,5"/>
<!-- Node1 -->
<g id="node1" class="node"><title>Node1</title>
<polygon fill="#bfbfbf" stroke="black" points="90.7991,-187 90.7991,-211 140.799,-211 140.799,-187 90.7991,-187"/>
<text text-anchor="middle" x="115.799" y="-196.2" font-family="Helvetica,sans-Serif" font-size="12.00">data.h</text>
</g>
<!-- Node2 -->
<g id="node3" class="node"><title>Node2</title>
<a xlink:href="a00020.html" target="_top" target="_top" xlink:title="displaying.h">
<polygon fill="white" stroke="red" points="12.2991,-63 12.2991,-87 93.2991,-87 93.2991,-63 12.2991,-63"/>
<text text-anchor="middle" x="52.7991" y="-72.2" font-family="Helvetica,sans-Serif" font-size="12.00">displaying.h</text>
</a>
</g>
<!-- Node1&#45;&gt;Node2 -->
<g id="edge2" class="edge"><title>Node1&#45;&gt;Node2</title>
<path fill="none" stroke="midnightblue" d="M82.4639,-180.79C72.1497,-172.481 61.9972,-161.847 55.7991,-150 45.2237,-129.787 43.4615,-102.642 46.2079,-87.165"/>
<polygon fill="midnightblue" stroke="midnightblue" points="80.5901,-183.759 90.6978,-186.935 84.7766,-178.149 80.5901,-183.759"/>
</g>
<!-- Node3 -->
<g id="node5" class="node"><title>Node3</title>
<a xlink:href="a00015.html" target="_top" target="_top" xlink:title="application.h">
<polygon fill="white" stroke="red" points="44.2991,-1 44.2991,-25 129.299,-25 129.299,-1 44.2991,-1"/>
<text text-anchor="middle" x="86.7991" y="-10.2" font-family="Helvetica,sans-Serif" font-size="12.00">application.h</text>
</a>
</g>
<!-- Node1&#45;&gt;Node3 -->
<g id="edge20" class="edge"><title>Node1&#45;&gt;Node3</title>
<path fill="none" stroke="midnightblue" d="M86.1884,-181.263C58.0325,-162.327 17.9427,-129.373 3.79907,-88 0.0611008,-77.0657 -1.93009,-72.0353 3.79907,-62 13.7546,-44.5616 32.6142,-32.7051 49.8427,-25.0291"/>
<polygon fill="midnightblue" stroke="midnightblue" points="84.5727,-184.388 94.8626,-186.911 88.3925,-178.522 84.5727,-184.388"/>
</g>
<!-- Node4 -->
<g id="node8" class="node"><title>Node4</title>
<a xlink:href="a00027.html" target="_top" target="_top" xlink:title="parser.h">
<polygon fill="white" stroke="red" points="175.799,-125 175.799,-149 235.799,-149 235.799,-125 175.799,-125"/>
<text text-anchor="middle" x="205.799" y="-134.2" font-family="Helvetica,sans-Serif" font-size="12.00">parser.h</text>
</a>
</g>
<!-- Node1&#45;&gt;Node4 -->
<g id="edge8" class="edge"><title>Node1&#45;&gt;Node4</title>
<path fill="none" stroke="midnightblue" d="M136.119,-180.719C150.069,-170.484 168.424,-158.012 182.894,-149.013"/>
<polygon fill="midnightblue" stroke="midnightblue" points="133.976,-177.951 128.076,-186.751 138.176,-183.551 133.976,-177.951"/>
</g>
<!-- Node5 -->
<g id="node12" class="node"><title>Node5</title>
<a xlink:href="a00029.html" target="_top" target="_top" xlink:title="processing.h">
<polygon fill="white" stroke="red" points="73.2991,-125 73.2991,-149 158.299,-149 158.299,-125 73.2991,-125"/>
<text text-anchor="middle" x="115.799" y="-134.2" font-family="Helvetica,sans-Serif" font-size="12.00">processing.h</text>
</a>
</g>
<!-- Node1&#45;&gt;Node5 -->
<g id="edge14" class="edge"><title>Node1&#45;&gt;Node5</title>
<path fill="none" stroke="midnightblue" d="M115.799,-176.63C115.799,-167.386 115.799,-157.031 115.799,-149.224"/>
<polygon fill="midnightblue" stroke="midnightblue" points="112.299,-176.751 115.799,-186.751 119.299,-176.751 112.299,-176.751"/>
</g>
<!-- Node6 -->
<g id="node17" class="node"><title>Node6</title>
<a xlink:href="a00017.html" target="_top" target="_top" xlink:title="data.cpp">
<polygon fill="white" stroke="black" points="253.799,-125 253.799,-149 315.799,-149 315.799,-125 253.799,-125"/>
<text text-anchor="middle" x="284.799" y="-134.2" font-family="Helvetica,sans-Serif" font-size="12.00">data.cpp</text>
</a>
</g>
<!-- Node1&#45;&gt;Node6 -->
<g id="edge22" class="edge"><title>Node1&#45;&gt;Node6</title>
<path fill="none" stroke="midnightblue" d="M150.827,-186.15C181.103,-175.043 224.458,-159.137 253.569,-148.457"/>
<polygon fill="midnightblue" stroke="midnightblue" points="149.283,-182.988 141.1,-189.718 151.694,-189.56 149.283,-182.988"/>
</g>
<!-- Node2&#45;&gt;Node1 -->
<g id="edge6" class="edge"><title>Node2&#45;&gt;Node1</title>
<path fill="none" stroke="midnightblue" d="M60.2522,-97.4302C62.4861,-112.981 65.2892,-133.735 73.7991,-150 81.6541,-165.014 95.8604,-178.08 105.878,-186.935"/>
<polygon fill="midnightblue" stroke="midnightblue" points="63.6507,-96.507 58.6529,-87.165 56.7342,-97.5847 63.6507,-96.507"/>
</g>
<!-- Node2&#45;&gt;Node3 -->
<g id="edge4" class="edge"><title>Node2&#45;&gt;Node3</title>
<path fill="none" stroke="midnightblue" d="M64.4089,-53.8291C69.639,-44.2918 75.6284,-33.3701 80.0957,-25.2238"/>
<polygon fill="midnightblue" stroke="midnightblue" points="61.2559,-52.2997 59.5164,-62.7508 67.3936,-55.6656 61.2559,-52.2997"/>
</g>
<!-- Node4&#45;&gt;Node1 -->
<g id="edge10" class="edge"><title>Node4&#45;&gt;Node1</title>
<path fill="none" stroke="midnightblue" d="M185.449,-155.303C171.625,-165.444 153.484,-177.777 139.084,-186.751"/>
<polygon fill="midnightblue" stroke="midnightblue" points="187.932,-157.816 193.828,-149.013 183.73,-152.218 187.932,-157.816"/>
</g>
<!-- Node4&#45;&gt;Node3 -->
<g id="edge12" class="edge"><title>Node4&#45;&gt;Node3</title>
<path fill="none" stroke="midnightblue" d="M186.872,-117.278C162.048,-91.411 119.234,-46.7973 98.5964,-25.293"/>
<polygon fill="midnightblue" stroke="midnightblue" points="184.504,-119.865 193.954,-124.657 189.555,-115.019 184.504,-119.865"/>
</g>
<!-- Node5&#45;&gt;Node2 -->
<g id="edge16" class="edge"><title>Node5&#45;&gt;Node2</title>
<path fill="none" stroke="midnightblue" d="M96.0862,-117.6C85.9938,-107.668 74.0151,-95.8792 65.22,-87.2238"/>
<polygon fill="midnightblue" stroke="midnightblue" points="93.7699,-120.231 103.352,-124.751 98.6799,-115.242 93.7699,-120.231"/>
</g>
<!-- Node5&#45;&gt;Node3 -->
<g id="edge18" class="edge"><title>Node5&#45;&gt;Node3</title>
<path fill="none" stroke="midnightblue" d="M112.374,-115.07C109.864,-100.041 106.146,-79.7005 101.799,-62 98.7014,-49.3857 94.2582,-35.222 91.0117,-25.3791"/>
<polygon fill="midnightblue" stroke="midnightblue" points="108.923,-115.651 113.98,-124.961 115.832,-114.529 108.923,-115.651"/>
</g>
</g>
</svg>
