<?xml version="1.0" encoding="UTF-8" standalone="no"?>
<!DOCTYPE svg PUBLIC "-//W3C//DTD SVG 1.1//EN"
 "http://www.w3.org/Graphics/SVG/1.1/DTD/svg11.dtd">
<!-- Generated by graphviz version 2.26.3 (20100126.1600)
 -->
<!-- Title: Element::getName Pages: 1 -->
<svg width="328pt" height="368pt"
 viewBox="0.00 0.00 328.00 368.00" xmlns="http://www.w3.org/2000/svg" xmlns:xlink="http://www.w3.org/1999/xlink">
<g id="graph1" class="graph" transform="scale(1 1) rotate(0) translate(4 364)">
<title>Element::getName</title>
<polygon fill="white" stroke="white" points="-4,5 -4,-364 325,-364 325,5 -4,5"/>
<!-- Node1 -->
<g id="node1" class="node"><title>Node1</title>
<polygon fill="#bfbfbf" stroke="black" points="0,-168 0,-192 116,-192 116,-168 0,-168"/>
<text text-anchor="middle" x="58" y="-177.2" font-family="Helvetica,sans-Serif" font-size="12.00">Element::getName</text>
</g>
<!-- Node2 -->
<g id="node3" class="node"><title>Node2</title>
<a xlink:href="a00003.html#a30730fad4ea063bd1a253de59a279ecc" target="_top" xlink:title="displays input data on the input Table">
<polygon fill="white" stroke="red" points="156.5,-336 156.5,-360 315.5,-360 315.5,-336 156.5,-336"/>
<text text-anchor="middle" x="236" y="-345.2" font-family="Helvetica,sans-Serif" font-size="12.00">Displaying::dispTableInput</text>
</a>
</g>
<!-- Node1&#45;&gt;Node2 -->
<g id="edge2" class="edge"><title>Node1&#45;&gt;Node2</title>
<path fill="none" stroke="midnightblue" d="M65.7443,-201.533C78.5259,-233.911 107.172,-294.764 152,-327 156.882,-330.51 162.289,-333.437 167.938,-335.875"/>
<polygon fill="midnightblue" stroke="midnightblue" points="68.98,-200.195 62.1515,-192.094 62.4378,-202.685 68.98,-200.195"/>
</g>
<!-- Node3 -->
<g id="node5" class="node"><title>Node3</title>
<a xlink:href="a00003.html#a773c819165ab712b4fd073ddddcd8695" target="_top" xlink:title="display output data on the output Table">
<polygon fill="white" stroke="red" points="152,-294 152,-318 320,-318 320,-294 152,-294"/>
<text text-anchor="middle" x="236" y="-303.2" font-family="Helvetica,sans-Serif" font-size="12.00">Displaying::dispTableOutput</text>
</a>
</g>
<!-- Node1&#45;&gt;Node3 -->
<g id="edge4" class="edge"><title>Node1&#45;&gt;Node3</title>
<path fill="none" stroke="midnightblue" d="M70.8196,-200.583C86.842,-224.556 116.518,-263.596 152,-285 157.792,-288.494 164.144,-291.409 170.679,-293.839"/>
<polygon fill="midnightblue" stroke="midnightblue" points="73.7523,-198.673 65.3637,-192.202 67.8857,-202.492 73.7523,-198.673"/>
</g>
<!-- Node4 -->
<g id="node7" class="node"><title>Node4</title>
<a xlink:href="a00003.html#a5948e8f752a67b250665cee57abdadb2" target="_top" xlink:title="Generates lists : of Elements, HR&#45;MR&#45;LR Elements and Blanks.">
<polygon fill="white" stroke="red" points="164.5,-252 164.5,-276 307.5,-276 307.5,-252 164.5,-252"/>
<text text-anchor="middle" x="236" y="-261.2" font-family="Helvetica,sans-Serif" font-size="12.00">Displaying::displayLists</text>
</a>
</g>
<!-- Node1&#45;&gt;Node4 -->
<g id="edge6" class="edge"><title>Node1&#45;&gt;Node4</title>
<path fill="none" stroke="midnightblue" d="M80.9182,-198.676C99.1781,-212.707 125.921,-231.425 152,-243 159.832,-246.476 168.34,-249.445 176.836,-251.961"/>
<polygon fill="midnightblue" stroke="midnightblue" points="82.7056,-195.63 72.6758,-192.216 78.3877,-201.139 82.7056,-195.63"/>
</g>
<!-- Node5 -->
<g id="node9" class="node"><title>Node5</title>
<a xlink:href="a00003.html#a836d9f49a3480b021e2c2fa22e05d6b1" target="_top" xlink:title="Plots internal standard curve.">
<polygon fill="white" stroke="red" points="181,-210 181,-234 291,-234 291,-210 181,-210"/>
<text text-anchor="middle" x="236" y="-219.2" font-family="Helvetica,sans-Serif" font-size="12.00">Displaying::plotIS</text>
</a>
</g>
<!-- Node1&#45;&gt;Node5 -->
<g id="edge8" class="edge"><title>Node1&#45;&gt;Node5</title>
<path fill="none" stroke="midnightblue" d="M119.011,-194.396C140.498,-199.466 164.409,-205.108 184.985,-209.963"/>
<polygon fill="midnightblue" stroke="midnightblue" points="119.544,-190.926 109.008,-192.036 117.937,-197.739 119.544,-190.926"/>
</g>
<!-- Node6 -->
<g id="node11" class="node"><title>Node6</title>
<a xlink:href="a00003.html#a5b87ca7ad17830b56f9609f54991dd77" target="_top" xlink:title="Plots Evolution curve.">
<polygon fill="white" stroke="red" points="174.5,-168 174.5,-192 297.5,-192 297.5,-168 174.5,-168"/>
<text text-anchor="middle" x="236" y="-177.2" font-family="Helvetica,sans-Serif" font-size="12.00">Displaying::plotEvol</text>
</a>
</g>
<!-- Node1&#45;&gt;Node6 -->
<g id="edge10" class="edge"><title>Node1&#45;&gt;Node6</title>
<path fill="none" stroke="midnightblue" d="M126.46,-180C142.178,-180 158.8,-180 174.216,-180"/>
<polygon fill="midnightblue" stroke="midnightblue" points="126.284,-176.5 116.284,-180 126.284,-183.5 126.284,-176.5"/>
</g>
<!-- Node7 -->
<g id="node13" class="node"><title>Node7</title>
<a xlink:href="a00003.html#a2eb8d02c398ddd7708260ec230ceafcc" target="_top" xlink:title="Plots Calibration curves.">
<polygon fill="white" stroke="red" points="164.5,-126 164.5,-150 307.5,-150 307.5,-126 164.5,-126"/>
<text text-anchor="middle" x="236" y="-135.2" font-family="Helvetica,sans-Serif" font-size="12.00">Displaying::plotElement</text>
</a>
</g>
<!-- Node1&#45;&gt;Node7 -->
<g id="edge12" class="edge"><title>Node1&#45;&gt;Node7</title>
<path fill="none" stroke="midnightblue" d="M119.011,-165.604C140.498,-160.534 164.409,-154.892 184.985,-150.037"/>
<polygon fill="midnightblue" stroke="midnightblue" points="117.937,-162.261 109.008,-167.964 119.544,-169.074 117.937,-162.261"/>
</g>
<!-- Node8 -->
<g id="node15" class="node"><title>Node8</title>
<a xlink:href="a00007.html#ad7b814e406fa54ff255b66488a9dde4a" target="_top" xlink:title="Parsing Function.">
<polygon fill="white" stroke="black" points="174.5,-84 174.5,-108 297.5,-108 297.5,-84 174.5,-84"/>
<text text-anchor="middle" x="236" y="-93.2" font-family="Helvetica,sans-Serif" font-size="12.00">ParserInCSV::parse</text>
</a>
</g>
<!-- Node1&#45;&gt;Node8 -->
<g id="edge14" class="edge"><title>Node1&#45;&gt;Node8</title>
<path fill="none" stroke="midnightblue" d="M80.9182,-161.324C99.1781,-147.293 125.921,-128.575 152,-117 159.832,-113.524 168.34,-110.555 176.836,-108.039"/>
<polygon fill="midnightblue" stroke="midnightblue" points="78.3877,-158.861 72.6758,-167.784 82.7056,-164.37 78.3877,-158.861"/>
</g>
<!-- Node9 -->
<g id="node17" class="node"><title>Node9</title>
<a xlink:href="a00009.html#aac066ac6d6c2c4d2391343af917c92b4" target="_top" xlink:title="Parsing Function.">
<polygon fill="white" stroke="black" points="170,-42 170,-66 302,-66 302,-42 170,-42"/>
<text text-anchor="middle" x="236" y="-51.2" font-family="Helvetica,sans-Serif" font-size="12.00">ParserOutCSV::parse</text>
</a>
</g>
<!-- Node1&#45;&gt;Node9 -->
<g id="edge16" class="edge"><title>Node1&#45;&gt;Node9</title>
<path fill="none" stroke="midnightblue" d="M70.8196,-159.417C86.842,-135.444 116.518,-96.4041 152,-75 157.792,-71.5059 164.144,-68.5913 170.679,-66.1605"/>
<polygon fill="midnightblue" stroke="midnightblue" points="67.8857,-157.508 65.3637,-167.798 73.7523,-161.327 67.8857,-157.508"/>
</g>
<!-- Node10 -->
<g id="node19" class="node"><title>Node10</title>
<a xlink:href="a00010.html#a092b32603577be8f4482f2d5d5f7ff30" target="_top" xlink:title="Quality control after data processing.">
<polygon fill="white" stroke="red" points="173,-0 173,-24 299,-24 299,-0 173,-0"/>
<text text-anchor="middle" x="236" y="-9.2" font-family="Helvetica,sans-Serif" font-size="12.00">Processing::passQC</text>
</a>
</g>
<!-- Node1&#45;&gt;Node10 -->
<g id="edge18" class="edge"><title>Node1&#45;&gt;Node10</title>
<path fill="none" stroke="midnightblue" d="M65.7443,-158.467C78.5259,-126.089 107.172,-65.2357 152,-33 158.224,-28.5242 165.302,-24.9983 172.647,-22.2214"/>
<polygon fill="midnightblue" stroke="midnightblue" points="62.4378,-157.315 62.1515,-167.906 68.98,-159.805 62.4378,-157.315"/>
</g>
</g>
</svg>
