<?xml version="1.0" encoding="UTF-8" standalone="no"?>
<!DOCTYPE svg PUBLIC "-//W3C//DTD SVG 1.1//EN"
 "http://www.w3.org/Graphics/SVG/1.1/DTD/svg11.dtd">
<!-- Generated by graphviz version 2.26.3 (20100126.1600)
 -->
<!-- Title: Data::solutionSize Pages: 1 -->
<svg width="498pt" height="696pt"
 viewBox="0.00 0.00 498.00 696.00" xmlns="http://www.w3.org/2000/svg" xmlns:xlink="http://www.w3.org/1999/xlink">
<g id="graph1" class="graph" transform="scale(1 1) rotate(0) translate(4 692)">
<title>Data::solutionSize</title>
<polygon fill="white" stroke="white" points="-4,5 -4,-692 495,-692 495,5 -4,5"/>
<!-- Node1 -->
<g id="node1" class="node"><title>Node1</title>
<polygon fill="#bfbfbf" stroke="black" points="0,-332 0,-356 114,-356 114,-332 0,-332"/>
<text text-anchor="middle" x="57" y="-341.2" font-family="Helvetica,sans-Serif" font-size="12.00">Data::solutionSize</text>
</g>
<!-- Node2 -->
<g id="node3" class="node"><title>Node2</title>
<a xlink:href="a00001.html#a68965449404743bf1add056784d6cf81" target="_top" xlink:title="Slot of clicking on proceed button.">
<polygon fill="white" stroke="red" points="375,-500 375,-524 475,-524 475,-500 375,-500"/>
<text text-anchor="middle" x="425" y="-509.2" font-family="Helvetica,sans-Serif" font-size="12.00">Application::run</text>
</a>
</g>
<!-- Node1&#45;&gt;Node2 -->
<g id="edge2" class="edge"><title>Node1&#45;&gt;Node2</title>
<path fill="none" stroke="midnightblue" d="M58.1998,-366.399C62.1257,-414.448 78.856,-526.949 150,-575 214.086,-618.284 249.654,-596.286 324,-575 358.57,-565.102 392.806,-539.555 411.191,-524.204"/>
<polygon fill="midnightblue" stroke="midnightblue" points="61.6723,-365.882 57.481,-356.152 54.6894,-366.372 61.6723,-365.882"/>
</g>
<!-- Node3 -->
<g id="node5" class="node"><title>Node3</title>
<a xlink:href="a00001.html#ab7f9356b1eaa23c179500675d92a49d5" target="_top" xlink:title="Slot of clicking on open data file button.">
<polygon fill="white" stroke="red" points="360,-292 360,-316 490,-316 490,-292 360,-292"/>
<text text-anchor="middle" x="425" y="-301.2" font-family="Helvetica,sans-Serif" font-size="12.00">Application::openFile</text>
</a>
</g>
<!-- Node1&#45;&gt;Node3 -->
<g id="edge4" class="edge"><title>Node1&#45;&gt;Node3</title>
<path fill="none" stroke="midnightblue" d="M113.856,-329.714C125.736,-327.137 138.229,-324.725 150,-323 221.382,-312.538 304.055,-307.809 359.969,-305.689"/>
<polygon fill="midnightblue" stroke="midnightblue" points="113.045,-326.309 104.049,-331.906 114.572,-333.14 113.045,-326.309"/>
</g>
<!-- Node4 -->
<g id="node7" class="node"><title>Node4</title>
<a xlink:href="a00002.html#a6fc1d983c7fa16eebd0d0b12cb505a30" target="_top" xlink:title="Copies data contain from the given parameter.">
<polygon fill="white" stroke="black" points="187.5,-332 187.5,-356 286.5,-356 286.5,-332 187.5,-332"/>
<text text-anchor="middle" x="237" y="-341.2" font-family="Helvetica,sans-Serif" font-size="12.00">Data::copyData</text>
</a>
</g>
<!-- Node1&#45;&gt;Node4 -->
<g id="edge6" class="edge"><title>Node1&#45;&gt;Node4</title>
<path fill="none" stroke="midnightblue" d="M124.525,-344C145.378,-344 167.951,-344 187.364,-344"/>
<polygon fill="midnightblue" stroke="midnightblue" points="124.448,-340.5 114.448,-344 124.448,-347.5 124.448,-340.5"/>
</g>
<!-- Node5 -->
<g id="node11" class="node"><title>Node5</title>
<a xlink:href="a00002.html#a6ff99fcec4f0387958fff773969de591" target="_top" xlink:title="Adds a calculated Blank Solution.">
<polygon fill="white" stroke="black" points="180,-374 180,-398 294,-398 294,-374 180,-374"/>
<text text-anchor="middle" x="237" y="-383.2" font-family="Helvetica,sans-Serif" font-size="12.00">Data::addBLKmoy</text>
</a>
</g>
<!-- Node1&#45;&gt;Node5 -->
<g id="edge12" class="edge"><title>Node1&#45;&gt;Node5</title>
<path fill="none" stroke="midnightblue" d="M118.402,-358.327C140.207,-363.415 164.51,-369.086 185.412,-373.963"/>
<polygon fill="midnightblue" stroke="midnightblue" points="119.115,-354.899 108.581,-356.036 117.524,-361.716 119.115,-354.899"/>
</g>
<!-- Node6 -->
<g id="node15" class="node"><title>Node6</title>
<a xlink:href="a00002.html#a735dfe532fe9312409a554618267ae35" target="_top" xlink:title="Return the id of first occurence of a solution with the given name or &#45;1.">
<polygon fill="white" stroke="black" points="168.5,-542 168.5,-566 305.5,-566 305.5,-542 168.5,-542"/>
<text text-anchor="middle" x="237" y="-551.2" font-family="Helvetica,sans-Serif" font-size="12.00">Data::containsSolution</text>
</a>
</g>
<!-- Node1&#45;&gt;Node6 -->
<g id="edge18" class="edge"><title>Node1&#45;&gt;Node6</title>
<path fill="none" stroke="midnightblue" d="M61.4647,-366.216C70.6661,-406.033 95.6108,-489.449 150,-533 155.458,-537.37 161.685,-540.853 168.243,-543.625"/>
<polygon fill="midnightblue" stroke="midnightblue" points="64.8793,-365.447 59.3202,-356.428 58.0415,-366.945 64.8793,-365.447"/>
</g>
<!-- Node7 -->
<g id="node18" class="node"><title>Node7</title>
<a xlink:href="a00003.html#a5948e8f752a67b250665cee57abdadb2" target="_top" xlink:title="Generates lists : of Elements, HR&#45;MR&#45;LR Elements and Blanks.">
<polygon fill="white" stroke="black" points="165.5,-252 165.5,-276 308.5,-276 308.5,-252 165.5,-252"/>
<text text-anchor="middle" x="237" y="-261.2" font-family="Helvetica,sans-Serif" font-size="12.00">Displaying::displayLists</text>
</a>
</g>
<!-- Node1&#45;&gt;Node7 -->
<g id="edge22" class="edge"><title>Node1&#45;&gt;Node7</title>
<path fill="none" stroke="midnightblue" d="M83.6843,-326.236C101.813,-314.744 126.652,-300.099 150,-290 162.443,-284.618 176.344,-279.918 189.32,-276.049"/>
<polygon fill="midnightblue" stroke="midnightblue" points="81.3729,-323.561 74.859,-331.917 85.1619,-329.447 81.3729,-323.561"/>
</g>
<!-- Node8 -->
<g id="node21" class="node"><title>Node8</title>
<a xlink:href="a00003.html#a5a779d21b88a5d08e8989d401acad7b8" target="_top" xlink:title="Generates list of solutions.">
<polygon fill="white" stroke="black" points="153,-210 153,-234 321,-234 321,-210 153,-210"/>
<text text-anchor="middle" x="237" y="-219.2" font-family="Helvetica,sans-Serif" font-size="12.00">Displaying::displaySolutions</text>
</a>
</g>
<!-- Node1&#45;&gt;Node8 -->
<g id="edge26" class="edge"><title>Node1&#45;&gt;Node8</title>
<path fill="none" stroke="midnightblue" d="M70.2533,-323.489C86.3113,-300.338 115.539,-263.271 150,-243 156.027,-239.455 162.623,-236.507 169.402,-234.056"/>
<polygon fill="midnightblue" stroke="midnightblue" points="67.2689,-321.654 64.5733,-331.901 73.0701,-325.572 67.2689,-321.654"/>
</g>
<!-- Node9 -->
<g id="node24" class="node"><title>Node9</title>
<a xlink:href="a00003.html#a836d9f49a3480b021e2c2fa22e05d6b1" target="_top" xlink:title="Plots internal standard curve.">
<polygon fill="white" stroke="red" points="182,-168 182,-192 292,-192 292,-168 182,-168"/>
<text text-anchor="middle" x="237" y="-177.2" font-family="Helvetica,sans-Serif" font-size="12.00">Displaying::plotIS</text>
</a>
</g>
<!-- Node1&#45;&gt;Node9 -->
<g id="edge30" class="edge"><title>Node1&#45;&gt;Node9</title>
<path fill="none" stroke="midnightblue" d="M65.0889,-322.121C77.9959,-290.351 106.335,-231.878 150,-201 159.388,-194.361 170.618,-189.806 181.841,-186.684"/>
<polygon fill="midnightblue" stroke="midnightblue" points="61.6888,-321.206 61.3035,-331.794 68.2073,-323.757 61.6888,-321.206"/>
</g>
<!-- Node10 -->
<g id="node26" class="node"><title>Node10</title>
<a xlink:href="a00003.html#a5b87ca7ad17830b56f9609f54991dd77" target="_top" xlink:title="Plots Evolution curve.">
<polygon fill="white" stroke="red" points="175.5,-126 175.5,-150 298.5,-150 298.5,-126 175.5,-126"/>
<text text-anchor="middle" x="237" y="-135.2" font-family="Helvetica,sans-Serif" font-size="12.00">Displaying::plotEvol</text>
</a>
</g>
<!-- Node1&#45;&gt;Node10 -->
<g id="edge32" class="edge"><title>Node1&#45;&gt;Node10</title>
<path fill="none" stroke="midnightblue" d="M61.6709,-321.995C71.154,-282.908 96.4679,-201.491 150,-159 157.424,-153.107 166.249,-148.831 175.387,-145.734"/>
<polygon fill="midnightblue" stroke="midnightblue" points="58.2396,-321.3 59.4057,-331.83 65.061,-322.871 58.2396,-321.3"/>
</g>
<!-- Node11 -->
<g id="node28" class="node"><title>Node11</title>
<a xlink:href="a00003.html#a2eb8d02c398ddd7708260ec230ceafcc" target="_top" xlink:title="Plots Calibration curves.">
<polygon fill="white" stroke="red" points="165.5,-500 165.5,-524 308.5,-524 308.5,-500 165.5,-500"/>
<text text-anchor="middle" x="237" y="-509.2" font-family="Helvetica,sans-Serif" font-size="12.00">Displaying::plotElement</text>
</a>
</g>
<!-- Node1&#45;&gt;Node11 -->
<g id="edge34" class="edge"><title>Node1&#45;&gt;Node11</title>
<path fill="none" stroke="midnightblue" d="M64.5645,-365.576C77.0819,-398.01 105.257,-458.937 150,-491 154.926,-494.53 160.37,-497.471 166.06,-499.922"/>
<polygon fill="midnightblue" stroke="midnightblue" points="67.8143,-364.274 61.0494,-356.12 61.2529,-366.713 67.8143,-364.274"/>
</g>
<!-- Node12 -->
<g id="node31" class="node"><title>Node12</title>
<a xlink:href="a00009.html#aac066ac6d6c2c4d2391343af917c92b4" target="_top" xlink:title="Parsing Function.">
<polygon fill="white" stroke="black" points="171,-84 171,-108 303,-108 303,-84 171,-84"/>
<text text-anchor="middle" x="237" y="-93.2" font-family="Helvetica,sans-Serif" font-size="12.00">ParserOutCSV::parse</text>
</a>
</g>
<!-- Node1&#45;&gt;Node12 -->
<g id="edge38" class="edge"><title>Node1&#45;&gt;Node12</title>
<path fill="none" stroke="midnightblue" d="M59.4197,-321.939C65.6319,-276.376 86.4134,-171.589 150,-117 156.13,-111.737 163.36,-107.746 170.989,-104.726"/>
<polygon fill="midnightblue" stroke="midnightblue" points="55.9371,-321.581 58.1644,-331.939 62.8826,-322.453 55.9371,-321.581"/>
</g>
<!-- Node13 -->
<g id="node33" class="node"><title>Node13</title>
<a xlink:href="a00008.html#a8bdd62cece3dc339c2096c85044fad66" target="_top" xlink:title="Parsing Function.">
<polygon fill="white" stroke="black" points="167,-42 167,-66 307,-66 307,-42 167,-42"/>
<text text-anchor="middle" x="237" y="-51.2" font-family="Helvetica,sans-Serif" font-size="12.00">ParserInSTDQC::parse</text>
</a>
</g>
<!-- Node1&#45;&gt;Node13 -->
<g id="edge40" class="edge"><title>Node1&#45;&gt;Node13</title>
<path fill="none" stroke="midnightblue" d="M61.8166,-321.717C74.818,-263.564 112.201,-109.333 150,-75 154.946,-70.5078 160.684,-66.9321 166.81,-64.092"/>
<polygon fill="midnightblue" stroke="midnightblue" points="58.3496,-321.186 59.6131,-331.706 65.1852,-322.694 58.3496,-321.186"/>
</g>
<!-- Node14 -->
<g id="node35" class="node"><title>Node14</title>
<a xlink:href="a00010.html#a409d37b18750104739ee43e169371a0b" target="_top" xlink:title="Applies Blank Substraction.">
<polygon fill="white" stroke="black" points="159.5,-458 159.5,-482 314.5,-482 314.5,-458 159.5,-458"/>
<text text-anchor="middle" x="237" y="-467.2" font-family="Helvetica,sans-Serif" font-size="12.00">Processing::subtructBlank</text>
</a>
</g>
<!-- Node1&#45;&gt;Node14 -->
<g id="edge42" class="edge"><title>Node1&#45;&gt;Node14</title>
<path fill="none" stroke="midnightblue" d="M69.8099,-364.954C85.6309,-389.002 114.811,-427.84 150,-449 155.859,-452.523 162.274,-455.456 168.881,-457.896"/>
<polygon fill="midnightblue" stroke="midnightblue" points="72.5698,-362.773 64.233,-356.234 66.6729,-366.545 72.5698,-362.773"/>
</g>
<!-- Node15 -->
<g id="node38" class="node"><title>Node15</title>
<a xlink:href="a00010.html#aa96b9a34a756e39a01581416199328d3" target="_top" xlink:title="Applies Internal Standard Correction.">
<polygon fill="white" stroke="black" points="164,-416 164,-440 310,-440 310,-416 164,-416"/>
<text text-anchor="middle" x="237" y="-425.2" font-family="Helvetica,sans-Serif" font-size="12.00">Processing::correctionIS</text>
</a>
</g>
<!-- Node1&#45;&gt;Node15 -->
<g id="edge46" class="edge"><title>Node1&#45;&gt;Node15</title>
<path fill="none" stroke="midnightblue" d="M79.2964,-362.497C97.3366,-376.594 123.941,-395.483 150,-407 157.817,-410.454 166.29,-413.394 174.778,-415.88"/>
<polygon fill="midnightblue" stroke="midnightblue" points="81.1688,-359.514 71.1682,-356.015 76.8045,-364.987 81.1688,-359.514"/>
</g>
<!-- Node16 -->
<g id="node41" class="node"><title>Node16</title>
<a xlink:href="a00010.html#ac0d956c3e8bdbc42a3b24975b25c6dfd" target="_top" xlink:title="Computes concentrations on data container.">
<polygon fill="white" stroke="black" points="150.5,-664 150.5,-688 323.5,-688 323.5,-664 150.5,-664"/>
<text text-anchor="middle" x="237" y="-673.2" font-family="Helvetica,sans-Serif" font-size="12.00">Processing::computeConcent</text>
</a>
</g>
<!-- Node1&#45;&gt;Node16 -->
<g id="edge50" class="edge"><title>Node1&#45;&gt;Node16</title>
<path fill="none" stroke="midnightblue" d="M60.7099,-366.234C71.8605,-430.452 106.974,-614.226 150,-655 153.722,-658.527 157.93,-661.494 162.437,-663.986"/>
<polygon fill="midnightblue" stroke="midnightblue" points="64.0984,-365.284 58.964,-356.016 57.1984,-366.463 64.0984,-365.284"/>
</g>
<!-- Node17 -->
<g id="node44" class="node"><title>Node17</title>
<a xlink:href="a00010.html#a092b32603577be8f4482f2d5d5f7ff30" target="_top" xlink:title="Quality control after data processing.">
<polygon fill="white" stroke="black" points="174,-622 174,-646 300,-646 300,-622 174,-622"/>
<text text-anchor="middle" x="237" y="-631.2" font-family="Helvetica,sans-Serif" font-size="12.00">Processing::passQC</text>
</a>
</g>
<!-- Node1&#45;&gt;Node17 -->
<g id="edge54" class="edge"><title>Node1&#45;&gt;Node17</title>
<path fill="none" stroke="midnightblue" d="M58.2529,-366.132C62.3153,-416.532 79.3525,-540.685 150,-608 156.734,-614.416 164.985,-619.256 173.696,-622.905"/>
<polygon fill="midnightblue" stroke="midnightblue" points="61.7345,-365.746 57.5363,-356.019 54.752,-366.241 61.7345,-365.746"/>
</g>
<!-- Node18 -->
<g id="node47" class="node"><title>Node18</title>
<a xlink:href="a00010.html#a5fbd5c910da7cec1497168d1d217f1ed" target="_top" xlink:title="Computes a calibration line.">
<polygon fill="white" stroke="red" points="161,-0 161,-24 313,-24 313,-0 161,-0"/>
<text text-anchor="middle" x="237" y="-9.2" font-family="Helvetica,sans-Serif" font-size="12.00">Processing::computeLine</text>
</a>
</g>
<!-- Node1&#45;&gt;Node18 -->
<g id="edge58" class="edge"><title>Node1&#45;&gt;Node18</title>
<path fill="none" stroke="midnightblue" d="M60.7099,-321.766C71.8605,-257.548 106.974,-73.7745 150,-33 153.722,-29.473 157.93,-26.5063 162.437,-24.0142"/>
<polygon fill="midnightblue" stroke="midnightblue" points="57.1984,-321.537 58.964,-331.984 64.0984,-322.716 57.1984,-321.537"/>
</g>
<!-- Node4&#45;&gt;Node2 -->
<g id="edge8" class="edge"><title>Node4&#45;&gt;Node2</title>
<path fill="none" stroke="midnightblue" d="M296.356,-352.134C306.126,-355.166 315.745,-359.318 324,-365 375.523,-400.463 408.621,-471.486 420.291,-499.871"/>
<polygon fill="midnightblue" stroke="midnightblue" points="297.149,-348.722 286.58,-349.46 295.302,-355.474 297.149,-348.722"/>
</g>
<!-- Node4&#45;&gt;Node3 -->
<g id="edge10" class="edge"><title>Node4&#45;&gt;Node3</title>
<path fill="none" stroke="midnightblue" d="M296.854,-331.265C319.82,-326.379 345.933,-320.823 368.567,-316.007"/>
<polygon fill="midnightblue" stroke="midnightblue" points="295.94,-327.881 286.887,-333.386 297.396,-334.728 295.94,-327.881"/>
</g>
<!-- Node5&#45;&gt;Node2 -->
<g id="edge14" class="edge"><title>Node5&#45;&gt;Node2</title>
<path fill="none" stroke="midnightblue" d="M303.727,-397.91C310.798,-400.391 317.699,-403.385 324,-407 365.905,-431.04 401.502,-477.656 416.877,-499.779"/>
<polygon fill="midnightblue" stroke="midnightblue" points="304.608,-394.518 294.018,-394.836 302.495,-401.191 304.608,-394.518"/>
</g>
<!-- Node5&#45;&gt;Node3 -->
<g id="edge16" class="edge"><title>Node5&#45;&gt;Node3</title>
<path fill="none" stroke="midnightblue" d="M304.316,-371.95C311.058,-369.892 317.724,-367.58 324,-365 355.829,-351.913 389.379,-329.732 408.684,-316.029"/>
<polygon fill="midnightblue" stroke="midnightblue" points="303.07,-368.666 294.423,-374.788 305,-375.395 303.07,-368.666"/>
</g>
<!-- Node6&#45;&gt;Node2 -->
<g id="edge20" class="edge"><title>Node6&#45;&gt;Node2</title>
<path fill="none" stroke="midnightblue" d="M300.702,-539.769C324.941,-534.353 352.191,-528.266 374.986,-523.173"/>
<polygon fill="midnightblue" stroke="midnightblue" points="299.87,-536.368 290.873,-541.964 301.396,-543.2 299.87,-536.368"/>
</g>
<!-- Node7&#45;&gt;Node3 -->
<g id="edge24" class="edge"><title>Node7&#45;&gt;Node3</title>
<path fill="none" stroke="midnightblue" d="M303.316,-278.11C324.541,-282.626 347.835,-287.582 368.309,-291.938"/>
<polygon fill="midnightblue" stroke="midnightblue" points="303.916,-274.659 293.406,-276.001 302.459,-281.506 303.916,-274.659"/>
</g>
<!-- Node8&#45;&gt;Node3 -->
<g id="edge28" class="edge"><title>Node8&#45;&gt;Node3</title>
<path fill="none" stroke="midnightblue" d="M307.327,-236.988C313.038,-238.804 318.66,-240.805 324,-243 355.829,-256.087 389.379,-278.268 408.684,-291.971"/>
<polygon fill="midnightblue" stroke="midnightblue" points="308.252,-233.611 297.668,-234.104 306.249,-240.319 308.252,-233.611"/>
</g>
<!-- Node11&#45;&gt;Node2 -->
<g id="edge36" class="edge"><title>Node11&#45;&gt;Node2</title>
<path fill="none" stroke="midnightblue" d="M318.816,-512C337.9,-512 357.666,-512 374.894,-512"/>
<polygon fill="midnightblue" stroke="midnightblue" points="318.611,-508.5 308.611,-512 318.611,-515.5 318.611,-508.5"/>
</g>
<!-- Node14&#45;&gt;Node2 -->
<g id="edge44" class="edge"><title>Node14&#45;&gt;Node2</title>
<path fill="none" stroke="midnightblue" d="M300.702,-484.231C324.941,-489.647 352.191,-495.734 374.986,-500.827"/>
<polygon fill="midnightblue" stroke="midnightblue" points="301.396,-480.8 290.873,-482.036 299.87,-487.632 301.396,-480.8"/>
</g>
<!-- Node15&#45;&gt;Node2 -->
<g id="edge48" class="edge"><title>Node15&#45;&gt;Node2</title>
<path fill="none" stroke="midnightblue" d="M308.067,-443.132C313.527,-444.906 318.896,-446.858 324,-449 356.206,-462.513 389.906,-485.641 409.093,-499.799"/>
<polygon fill="midnightblue" stroke="midnightblue" points="308.762,-439.685 298.177,-440.128 306.728,-446.383 308.762,-439.685"/>
</g>
<!-- Node16&#45;&gt;Node2 -->
<g id="edge52" class="edge"><title>Node16&#45;&gt;Node2</title>
<path fill="none" stroke="midnightblue" d="M316.457,-659.537C319.065,-658.145 321.59,-656.636 324,-655 374.547,-620.689 407.983,-552.102 420.017,-524.214"/>
<polygon fill="midnightblue" stroke="midnightblue" points="314.873,-656.415 307.309,-663.833 317.848,-662.751 314.873,-656.415"/>
</g>
<!-- Node17&#45;&gt;Node2 -->
<g id="edge56" class="edge"><title>Node17&#45;&gt;Node2</title>
<path fill="none" stroke="midnightblue" d="M301.224,-618.595C309.137,-615.61 316.921,-612.102 324,-608 363.141,-585.317 398.992,-544.549 415.474,-524.219"/>
<polygon fill="midnightblue" stroke="midnightblue" points="299.83,-615.375 291.548,-621.982 302.143,-621.982 299.83,-615.375"/>
</g>
</g>
</svg>
