<?xml version="1.0" encoding="UTF-8" standalone="no"?>
<!DOCTYPE svg PUBLIC "-//W3C//DTD SVG 1.1//EN"
 "http://www.w3.org/Graphics/SVG/1.1/DTD/svg11.dtd">
<!-- Generated by graphviz version 2.26.3 (20100126.1600)
 -->
<!-- Title: Displaying::plotElement Pages: 1 -->
<svg width="342pt" height="74pt"
 viewBox="0.00 0.00 342.00 74.00" xmlns="http://www.w3.org/2000/svg" xmlns:xlink="http://www.w3.org/1999/xlink">
<g id="graph1" class="graph" transform="scale(1 1) rotate(0) translate(4 70)">
<title>Displaying::plotElement</title>
<polygon fill="white" stroke="white" points="-4,5 -4,-70 339,-70 339,5 -4,5"/>
<!-- Node1 -->
<g id="node1" class="node"><title>Node1</title>
<polygon fill="#bfbfbf" stroke="black" points="0.5,-21 0.5,-45 143.5,-45 143.5,-21 0.5,-21"/>
<text text-anchor="middle" x="72" y="-30.2" font-family="Helvetica,sans-Serif" font-size="12.00">Displaying::plotElement</text>
</g>
<!-- Node2 -->
<g id="node3" class="node"><title>Node2</title>
<a xlink:href="a00001.html#a4c314b290d0ecc615133d5bf6799b710" target="_top" xlink:title="Slot of clicking on Elements list in Calibration curve view.">
<polygon fill="white" stroke="red" points="180.5,-42 180.5,-66 333.5,-66 333.5,-42 180.5,-42"/>
<text text-anchor="middle" x="257" y="-51.2" font-family="Helvetica,sans-Serif" font-size="12.00">Application::onListCurves</text>
</a>
</g>
<!-- Node1&#45;&gt;Node2 -->
<g id="edge2" class="edge"><title>Node1&#45;&gt;Node2</title>
<path fill="none" stroke="midnightblue" d="M153.547,-42.2566C162.49,-43.2719 171.572,-44.3028 180.452,-45.3108"/>
<polygon fill="midnightblue" stroke="midnightblue" points="153.857,-38.7695 143.526,-41.1191 153.067,-45.7248 153.857,-38.7695"/>
</g>
<!-- Node3 -->
<g id="node5" class="node"><title>Node3</title>
<a xlink:href="a00001.html#a68965449404743bf1add056784d6cf81" target="_top" xlink:title="Slot of clicking on proceed button.">
<polygon fill="white" stroke="red" points="207,-0 207,-24 307,-24 307,-0 207,-0"/>
<text text-anchor="middle" x="257" y="-9.2" font-family="Helvetica,sans-Serif" font-size="12.00">Application::run</text>
</a>
</g>
<!-- Node1&#45;&gt;Node3 -->
<g id="edge4" class="edge"><title>Node1&#45;&gt;Node3</title>
<path fill="none" stroke="midnightblue" d="M153.534,-23.7447C171.688,-21.684 190.414,-19.5585 206.86,-17.6916"/>
<polygon fill="midnightblue" stroke="midnightblue" points="153.067,-20.2752 143.526,-24.8809 153.857,-27.2305 153.067,-20.2752"/>
</g>
</g>
</svg>
