<?xml version="1.0" encoding="UTF-8" standalone="no"?>
<!DOCTYPE svg PUBLIC "-//W3C//DTD SVG 1.1//EN"
 "http://www.w3.org/Graphics/SVG/1.1/DTD/svg11.dtd">
<!-- Generated by graphviz version 2.26.3 (20100126.1600)
 -->
<!-- Title: Processing::avr Pages: 1 -->
<svg width="304pt" height="116pt"
 viewBox="0.00 0.00 304.00 116.00" xmlns="http://www.w3.org/2000/svg" xmlns:xlink="http://www.w3.org/1999/xlink">
<g id="graph1" class="graph" transform="scale(1 1) rotate(0) translate(4 112)">
<title>Processing::avr</title>
<polygon fill="white" stroke="white" points="-4,5 -4,-112 301,-112 301,5 -4,5"/>
<!-- Node1 -->
<g id="node1" class="node"><title>Node1</title>
<polygon fill="#bfbfbf" stroke="black" points="0.5,-42 0.5,-66 99.5,-66 99.5,-42 0.5,-42"/>
<text text-anchor="middle" x="50" y="-51.2" font-family="Helvetica,sans-Serif" font-size="12.00">Processing::avr</text>
</g>
<!-- Node2 -->
<g id="node3" class="node"><title>Node2</title>
<a xlink:href="a00010.html#a5fbd5c910da7cec1497168d1d217f1ed" target="_top" xlink:title="Computes a calibration line.">
<polygon fill="white" stroke="red" points="140,-84 140,-108 292,-108 292,-84 140,-84"/>
<text text-anchor="middle" x="216" y="-93.2" font-family="Helvetica,sans-Serif" font-size="12.00">Processing::computeLine</text>
</a>
</g>
<!-- Node1&#45;&gt;Node2 -->
<g id="edge2" class="edge"><title>Node1&#45;&gt;Node2</title>
<path fill="none" stroke="midnightblue" d="M107.443,-68.5337C127.34,-73.568 149.409,-79.1516 168.424,-83.9627"/>
<polygon fill="midnightblue" stroke="midnightblue" points="108.122,-65.0953 97.5689,-66.0355 106.405,-71.8815 108.122,-65.0953"/>
</g>
<!-- Node3 -->
<g id="node5" class="node"><title>Node3</title>
<a xlink:href="a00010.html#ac6f31cca949dba1d4aa18b746311dd2f" target="_top" xlink:title="Computes limits &#45; of detection (LOD), of Quantification (LOQ)">
<polygon fill="white" stroke="red" points="136,-42 136,-66 296,-66 296,-42 136,-42"/>
<text text-anchor="middle" x="216" y="-51.2" font-family="Helvetica,sans-Serif" font-size="12.00">Processing::computeLimits</text>
</a>
</g>
<!-- Node1&#45;&gt;Node3 -->
<g id="edge4" class="edge"><title>Node1&#45;&gt;Node3</title>
<path fill="none" stroke="midnightblue" d="M109.884,-54C118.308,-54 127.077,-54 135.805,-54"/>
<polygon fill="midnightblue" stroke="midnightblue" points="109.806,-50.5001 99.8055,-54 109.805,-57.5001 109.806,-50.5001"/>
</g>
<!-- Node4 -->
<g id="node7" class="node"><title>Node4</title>
<a xlink:href="a00010.html#ab0405d28406546aa473efb059588b045" target="_top" xlink:title="Computes the average (first) and the standard deviation (second) of a vector.">
<polygon fill="white" stroke="red" points="165.5,-0 165.5,-24 266.5,-24 266.5,-0 165.5,-0"/>
<text text-anchor="middle" x="216" y="-9.2" font-family="Helvetica,sans-Serif" font-size="12.00">Processing::stat</text>
</a>
</g>
<!-- Node1&#45;&gt;Node4 -->
<g id="edge6" class="edge"><title>Node1&#45;&gt;Node4</title>
<path fill="none" stroke="midnightblue" d="M107.443,-39.4663C127.34,-34.432 149.409,-28.8484 168.424,-24.0373"/>
<polygon fill="midnightblue" stroke="midnightblue" points="106.405,-36.1185 97.5689,-41.9645 108.122,-42.9047 106.405,-36.1185"/>
</g>
</g>
</svg>
