<?xml version="1.0" encoding="UTF-8" standalone="no"?>
<!DOCTYPE svg PUBLIC "-//W3C//DTD SVG 1.1//EN"
 "http://www.w3.org/Graphics/SVG/1.1/DTD/svg11.dtd">
<!-- Generated by graphviz version 2.26.3 (20100126.1600)
 -->
<!-- Title: Data::clear Pages: 1 -->
<svg width="384pt" height="52pt"
 viewBox="0.00 0.00 384.00 52.00" xmlns="http://www.w3.org/2000/svg" xmlns:xlink="http://www.w3.org/1999/xlink">
<g id="graph1" class="graph" transform="scale(1 1) rotate(0) translate(4 48)">
<title>Data::clear</title>
<polygon fill="white" stroke="white" points="-4,5 -4,-48 381,-48 381,5 -4,5"/>
<!-- Node1 -->
<g id="node1" class="node"><title>Node1</title>
<polygon fill="#bfbfbf" stroke="black" points="0,-20 0,-44 74,-44 74,-20 0,-20"/>
<text text-anchor="middle" x="37" y="-29.2" font-family="Helvetica,sans-Serif" font-size="12.00">Data::clear</text>
</g>
<!-- Node2 -->
<g id="node3" class="node"><title>Node2</title>
<a xlink:href="a00001.html#ab7f9356b1eaa23c179500675d92a49d5" target="_top" xlink:title="Slot of clicking on open data file button.">
<polygon fill="white" stroke="red" points="246,-20 246,-44 376,-44 376,-20 246,-20"/>
<text text-anchor="middle" x="311" y="-29.2" font-family="Helvetica,sans-Serif" font-size="12.00">Application::openFile</text>
</a>
</g>
<!-- Node1&#45;&gt;Node2 -->
<g id="edge2" class="edge"><title>Node1&#45;&gt;Node2</title>
<path fill="none" stroke="midnightblue" d="M84.3543,-32.7431C92.891,-32.8502 101.71,-32.9432 110,-33 154.443,-33.3044 165.556,-33.22 210,-33 221.573,-32.9427 233.892,-32.8485 245.803,-32.7402"/>
<polygon fill="midnightblue" stroke="midnightblue" points="84.1817,-29.2406 74.136,-32.607 84.0884,-36.24 84.1817,-29.2406"/>
</g>
<!-- Node3 -->
<g id="node5" class="node"><title>Node3</title>
<a xlink:href="a00002.html#a6fc1d983c7fa16eebd0d0b12cb505a30" target="_top" xlink:title="Copies data contain from the given parameter.">
<polygon fill="white" stroke="red" points="110.5,-0 110.5,-24 209.5,-24 209.5,-0 110.5,-0"/>
<text text-anchor="middle" x="160" y="-9.2" font-family="Helvetica,sans-Serif" font-size="12.00">Data::copyData</text>
</a>
</g>
<!-- Node1&#45;&gt;Node3 -->
<g id="edge4" class="edge"><title>Node1&#45;&gt;Node3</title>
<path fill="none" stroke="midnightblue" d="M84.3291,-24.3042C92.7941,-22.9278 101.638,-21.4898 110.171,-20.1023"/>
<polygon fill="midnightblue" stroke="midnightblue" points="83.5465,-20.8854 74.2378,-25.9451 84.67,-27.7947 83.5465,-20.8854"/>
</g>
<!-- Node3&#45;&gt;Node2 -->
<g id="edge6" class="edge"><title>Node3&#45;&gt;Node2</title>
<path fill="none" stroke="midnightblue" d="M220.04,-19.9523C228.519,-21.0754 237.271,-22.2345 245.841,-23.3697"/>
<polygon fill="midnightblue" stroke="midnightblue" points="220.235,-16.4476 209.862,-18.6042 219.315,-23.387 220.235,-16.4476"/>
</g>
</g>
</svg>
