<?xml version="1.0" encoding="UTF-8" standalone="no"?>
<!DOCTYPE svg PUBLIC "-//W3C//DTD SVG 1.1//EN"
 "http://www.w3.org/Graphics/SVG/1.1/DTD/svg11.dtd">
<!-- Generated by graphviz version 2.26.3 (20100126.1600)
 -->
<!-- Title: Data::addBLKmoy Pages: 1 -->
<svg width="280pt" height="326pt"
 viewBox="0.00 0.00 280.00 326.00" xmlns="http://www.w3.org/2000/svg" xmlns:xlink="http://www.w3.org/1999/xlink">
<g id="graph1" class="graph" transform="scale(1 1) rotate(0) translate(4 322)">
<title>Data::addBLKmoy</title>
<polygon fill="white" stroke="white" points="-4,5 -4,-322 277,-322 277,5 -4,5"/>
<!-- Node1 -->
<g id="node1" class="node"><title>Node1</title>
<polygon fill="#bfbfbf" stroke="black" points="0,-147 0,-171 114,-171 114,-147 0,-147"/>
<text text-anchor="middle" x="57" y="-156.2" font-family="Helvetica,sans-Serif" font-size="12.00">Data::addBLKmoy</text>
</g>
<!-- Node2 -->
<g id="node3" class="node"><title>Node2</title>
<a xlink:href="a00002.html#a7f13913683ead8b0702121ac494f1598" target="_top" xlink:title="Add a solution to the data set.">
<polygon fill="white" stroke="red" points="154.5,-294 154.5,-318 267.5,-318 267.5,-294 154.5,-294"/>
<text text-anchor="middle" x="211" y="-303.2" font-family="Helvetica,sans-Serif" font-size="12.00">Data::addSolution</text>
</a>
</g>
<!-- Node1&#45;&gt;Node2 -->
<g id="edge2" class="edge"><title>Node1&#45;&gt;Node2</title>
<path fill="none" stroke="midnightblue" d="M62.8522,-171.323C75.3492,-196.359 107.043,-253.465 150,-285 152.094,-286.537 154.308,-287.968 156.605,-289.299"/>
<polygon fill="midnightblue" stroke="midnightblue" points="155.286,-292.554 165.788,-293.954 158.451,-286.311 155.286,-292.554"/>
</g>
<!-- Node3 -->
<g id="node5" class="node"><title>Node3</title>
<a xlink:href="a00002.html#acd1f2adc01b25ef7bded9b6d2b331278" target="_top" xlink:title="Gets the Number of elements.">
<polygon fill="white" stroke="black" points="167,-252 167,-276 255,-276 255,-252 167,-252"/>
<text text-anchor="middle" x="211" y="-261.2" font-family="Helvetica,sans-Serif" font-size="12.00">Data::isoSize</text>
</a>
</g>
<!-- Node1&#45;&gt;Node3 -->
<g id="edge4" class="edge"><title>Node1&#45;&gt;Node3</title>
<path fill="none" stroke="midnightblue" d="M67.5366,-171.252C83.6373,-189.283 116.084,-222.988 150,-243 152.984,-244.761 156.138,-246.403 159.377,-247.929"/>
<polygon fill="midnightblue" stroke="midnightblue" points="158.091,-251.186 168.66,-251.926 160.859,-244.756 158.091,-251.186"/>
</g>
<!-- Node4 -->
<g id="node7" class="node"><title>Node4</title>
<a xlink:href="a00002.html#a84179b0c71fb3e69cfa177e92004ee79" target="_top" xlink:title="Gets the Number of Solutions.">
<polygon fill="white" stroke="black" points="154,-210 154,-234 268,-234 268,-210 154,-210"/>
<text text-anchor="middle" x="211" y="-219.2" font-family="Helvetica,sans-Serif" font-size="12.00">Data::solutionSize</text>
</a>
</g>
<!-- Node1&#45;&gt;Node4 -->
<g id="edge6" class="edge"><title>Node1&#45;&gt;Node4</title>
<path fill="none" stroke="midnightblue" d="M81.9914,-171.047C100.561,-179.811 126.618,-191.719 150,-201 154.758,-202.889 159.761,-204.772 164.77,-206.592"/>
<polygon fill="midnightblue" stroke="midnightblue" points="163.753,-209.945 174.348,-209.999 166.099,-203.35 163.753,-209.945"/>
</g>
<!-- Node5 -->
<g id="node9" class="node"><title>Node5</title>
<a xlink:href="a00002.html#a7b1a07606090591e7fffb48be72bd734" target="_top" xlink:title="Gets a solution identified by its Id.">
<polygon fill="white" stroke="black" points="156.5,-168 156.5,-192 265.5,-192 265.5,-168 156.5,-168"/>
<text text-anchor="middle" x="211" y="-177.2" font-family="Helvetica,sans-Serif" font-size="12.00">Data::getSolution</text>
</a>
</g>
<!-- Node1&#45;&gt;Node5 -->
<g id="edge8" class="edge"><title>Node1&#45;&gt;Node5</title>
<path fill="none" stroke="midnightblue" d="M114.344,-166.82C124.778,-168.242 135.727,-169.736 146.355,-171.185"/>
<polygon fill="midnightblue" stroke="midnightblue" points="146.036,-174.674 156.417,-172.557 146.982,-167.738 146.036,-174.674"/>
</g>
<!-- Node6 -->
<g id="node11" class="node"><title>Node6</title>
<a xlink:href="a00013.html#a6cb75c8a1aa020796506362920216816" target="_top" xlink:title="Gets Intensity.">
<polygon fill="white" stroke="black" points="158.5,-126 158.5,-150 263.5,-150 263.5,-126 158.5,-126"/>
<text text-anchor="middle" x="211" y="-135.2" font-family="Helvetica,sans-Serif" font-size="12.00">Solution::getCps</text>
</a>
</g>
<!-- Node1&#45;&gt;Node6 -->
<g id="edge10" class="edge"><title>Node1&#45;&gt;Node6</title>
<path fill="none" stroke="midnightblue" d="M114.344,-151.18C125.409,-149.672 137.054,-148.084 148.28,-146.553"/>
<polygon fill="midnightblue" stroke="midnightblue" points="149.007,-149.986 158.443,-145.167 148.062,-143.05 149.007,-149.986"/>
</g>
<!-- Node7 -->
<g id="node13" class="node"><title>Node7</title>
<a xlink:href="a00013.html#a0fe4de8b637ba6637d653b91df95fcd0" target="_top" xlink:title="Gets Intensity Standard Deviation.">
<polygon fill="white" stroke="black" points="150,-84 150,-108 272,-108 272,-84 150,-84"/>
<text text-anchor="middle" x="211" y="-93.2" font-family="Helvetica,sans-Serif" font-size="12.00">Solution::getCpsSD</text>
</a>
</g>
<!-- Node1&#45;&gt;Node7 -->
<g id="edge12" class="edge"><title>Node1&#45;&gt;Node7</title>
<path fill="none" stroke="midnightblue" d="M81.9914,-146.953C100.561,-138.189 126.618,-126.281 150,-117 154.758,-115.111 159.761,-113.228 164.77,-111.408"/>
<polygon fill="midnightblue" stroke="midnightblue" points="166.099,-114.65 174.348,-108.001 163.753,-108.055 166.099,-114.65"/>
</g>
<!-- Node8 -->
<g id="node15" class="node"><title>Node8</title>
<a xlink:href="a00013.html#a6c810986de58b492514e08849cb0a498" target="_top" xlink:title="Sets Intensity.">
<polygon fill="white" stroke="black" points="159,-42 159,-66 263,-66 263,-42 159,-42"/>
<text text-anchor="middle" x="211" y="-51.2" font-family="Helvetica,sans-Serif" font-size="12.00">Solution::setCps</text>
</a>
</g>
<!-- Node1&#45;&gt;Node8 -->
<g id="edge14" class="edge"><title>Node1&#45;&gt;Node8</title>
<path fill="none" stroke="midnightblue" d="M67.5366,-146.748C83.6373,-128.717 116.084,-95.0122 150,-75 152.984,-73.2391 156.138,-71.5971 159.377,-70.071"/>
<polygon fill="midnightblue" stroke="midnightblue" points="160.859,-73.2437 168.66,-66.0745 158.091,-66.8142 160.859,-73.2437"/>
</g>
<!-- Node9 -->
<g id="node17" class="node"><title>Node9</title>
<a xlink:href="a00013.html#a000b5c9d708b22de23d918a3a3214635" target="_top" xlink:title="Sets Intensity Standard Deviation.">
<polygon fill="white" stroke="black" points="150,-0 150,-24 272,-24 272,-0 150,-0"/>
<text text-anchor="middle" x="211" y="-9.2" font-family="Helvetica,sans-Serif" font-size="12.00">Solution::setCpsSD</text>
</a>
</g>
<!-- Node1&#45;&gt;Node9 -->
<g id="edge16" class="edge"><title>Node1&#45;&gt;Node9</title>
<path fill="none" stroke="midnightblue" d="M62.8522,-146.677C75.3492,-121.641 107.043,-64.535 150,-33 152.094,-31.4631 154.308,-30.0324 156.605,-28.7011"/>
<polygon fill="midnightblue" stroke="midnightblue" points="158.451,-31.6893 165.788,-24.0458 155.286,-25.4458 158.451,-31.6893"/>
</g>
</g>
</svg>
