<?xml version="1.0" encoding="UTF-8" standalone="no"?>
<!DOCTYPE svg PUBLIC "-//W3C//DTD SVG 1.1//EN"
 "http://www.w3.org/Graphics/SVG/1.1/DTD/svg11.dtd">
<!-- Generated by graphviz version 2.26.3 (20100126.1600)
 -->
<!-- Title: Displaying::dispTableInput Pages: 1 -->
<svg width="372pt" height="116pt"
 viewBox="0.00 0.00 372.00 116.00" xmlns="http://www.w3.org/2000/svg" xmlns:xlink="http://www.w3.org/1999/xlink">
<g id="graph1" class="graph" transform="scale(1 1) rotate(0) translate(4 112)">
<title>Displaying::dispTableInput</title>
<polygon fill="white" stroke="white" points="-4,5 -4,-112 369,-112 369,5 -4,5"/>
<!-- Node1 -->
<g id="node1" class="node"><title>Node1</title>
<polygon fill="#bfbfbf" stroke="black" points="0.5,-42 0.5,-66 159.5,-66 159.5,-42 0.5,-42"/>
<text text-anchor="middle" x="80" y="-51.2" font-family="Helvetica,sans-Serif" font-size="12.00">Displaying::dispTableInput</text>
</g>
<!-- Node2 -->
<g id="node3" class="node"><title>Node2</title>
<a xlink:href="a00001.html#a046e614292cb3c01bf90568dbde70d0c" target="_top" xlink:title="Slot of clicking on Solutions list in input data view.">
<polygon fill="white" stroke="red" points="196,-84 196,-108 364,-108 364,-84 196,-84"/>
<text text-anchor="middle" x="280" y="-93.2" font-family="Helvetica,sans-Serif" font-size="12.00">Application::onListViewInput</text>
</a>
</g>
<!-- Node1&#45;&gt;Node2 -->
<g id="edge2" class="edge"><title>Node1&#45;&gt;Node2</title>
<path fill="none" stroke="midnightblue" d="M147.244,-68.1212C171.721,-73.2614 199.142,-79.0198 222.68,-83.9627"/>
<polygon fill="midnightblue" stroke="midnightblue" points="147.818,-64.6655 137.312,-66.0355 146.379,-71.5161 147.818,-64.6655"/>
</g>
<!-- Node3 -->
<g id="node5" class="node"><title>Node3</title>
<a xlink:href="a00001.html#a68965449404743bf1add056784d6cf81" target="_top" xlink:title="Slot of clicking on proceed button.">
<polygon fill="white" stroke="red" points="230,-42 230,-66 330,-66 330,-42 230,-42"/>
<text text-anchor="middle" x="280" y="-51.2" font-family="Helvetica,sans-Serif" font-size="12.00">Application::run</text>
</a>
</g>
<!-- Node1&#45;&gt;Node3 -->
<g id="edge4" class="edge"><title>Node1&#45;&gt;Node3</title>
<path fill="none" stroke="midnightblue" d="M169.718,-54C190.416,-54 211.709,-54 229.997,-54"/>
<polygon fill="midnightblue" stroke="midnightblue" points="169.62,-50.5001 159.62,-54 169.62,-57.5001 169.62,-50.5001"/>
</g>
<!-- Node4 -->
<g id="node7" class="node"><title>Node4</title>
<a xlink:href="a00001.html#ab7f9356b1eaa23c179500675d92a49d5" target="_top" xlink:title="Slot of clicking on open data file button.">
<polygon fill="white" stroke="red" points="215,-0 215,-24 345,-24 345,-0 215,-0"/>
<text text-anchor="middle" x="280" y="-9.2" font-family="Helvetica,sans-Serif" font-size="12.00">Application::openFile</text>
</a>
</g>
<!-- Node1&#45;&gt;Node4 -->
<g id="edge6" class="edge"><title>Node1&#45;&gt;Node4</title>
<path fill="none" stroke="midnightblue" d="M147.244,-39.8788C171.721,-34.7386 199.142,-28.9802 222.68,-24.0373"/>
<polygon fill="midnightblue" stroke="midnightblue" points="146.379,-36.4839 137.312,-41.9645 147.818,-43.3345 146.379,-36.4839"/>
</g>
</g>
</svg>
