<?xml version="1.0" encoding="UTF-8" standalone="no"?>
<!DOCTYPE svg PUBLIC "-//W3C//DTD SVG 1.1//EN"
 "http://www.w3.org/Graphics/SVG/1.1/DTD/svg11.dtd">
<!-- Generated by graphviz version 2.26.3 (20100126.1600)
 -->
<!-- Title: Solution::getConcentRSD Pages: 1 -->
<svg width="368pt" height="242pt"
 viewBox="0.00 0.00 368.00 242.00" xmlns="http://www.w3.org/2000/svg" xmlns:xlink="http://www.w3.org/1999/xlink">
<g id="graph1" class="graph" transform="scale(1 1) rotate(0) translate(4 238)">
<title>Solution::getConcentRSD</title>
<polygon fill="white" stroke="white" points="-4,5 -4,-238 365,-238 365,5 -4,5"/>
<!-- Node1 -->
<g id="node1" class="node"><title>Node1</title>
<polygon fill="#bfbfbf" stroke="black" points="0.5,-105 0.5,-129 155.5,-129 155.5,-105 0.5,-105"/>
<text text-anchor="middle" x="78" y="-114.2" font-family="Helvetica,sans-Serif" font-size="12.00">Solution::getConcentRSD</text>
</g>
<!-- Node2 -->
<g id="node3" class="node"><title>Node2</title>
<a xlink:href="a00002.html#a6fc1d983c7fa16eebd0d0b12cb505a30" target="_top" xlink:title="Copies data contain from the given parameter.">
<polygon fill="white" stroke="red" points="226.5,-210 226.5,-234 325.5,-234 325.5,-210 226.5,-210"/>
<text text-anchor="middle" x="276" y="-219.2" font-family="Helvetica,sans-Serif" font-size="12.00">Data::copyData</text>
</a>
</g>
<!-- Node1&#45;&gt;Node2 -->
<g id="edge2" class="edge"><title>Node1&#45;&gt;Node2</title>
<path fill="none" stroke="midnightblue" d="M98.4965,-136.017C120.162,-155.126 156.104,-184.101 192,-201 202.744,-206.058 214.857,-209.994 226.47,-213.019"/>
<polygon fill="midnightblue" stroke="midnightblue" points="100.703,-133.294 90.922,-129.221 96.0285,-138.504 100.703,-133.294"/>
</g>
<!-- Node3 -->
<g id="node5" class="node"><title>Node3</title>
<a xlink:href="a00003.html#a30730fad4ea063bd1a253de59a279ecc" target="_top" xlink:title="displays input data on the input Table">
<polygon fill="white" stroke="red" points="196.5,-168 196.5,-192 355.5,-192 355.5,-168 196.5,-168"/>
<text text-anchor="middle" x="276" y="-177.2" font-family="Helvetica,sans-Serif" font-size="12.00">Displaying::dispTableInput</text>
</a>
</g>
<!-- Node1&#45;&gt;Node3 -->
<g id="edge4" class="edge"><title>Node1&#45;&gt;Node3</title>
<path fill="none" stroke="midnightblue" d="M117.732,-132.838C139.475,-141.2 167.004,-151.296 192,-159 202.343,-162.188 213.513,-165.244 224.226,-167.99"/>
<polygon fill="midnightblue" stroke="midnightblue" points="118.767,-129.486 108.178,-129.133 116.236,-136.012 118.767,-129.486"/>
</g>
<!-- Node4 -->
<g id="node7" class="node"><title>Node4</title>
<a xlink:href="a00003.html#a773c819165ab712b4fd073ddddcd8695" target="_top" xlink:title="display output data on the output Table">
<polygon fill="white" stroke="red" points="192,-126 192,-150 360,-150 360,-126 192,-126"/>
<text text-anchor="middle" x="276" y="-135.2" font-family="Helvetica,sans-Serif" font-size="12.00">Displaying::dispTableOutput</text>
</a>
</g>
<!-- Node1&#45;&gt;Node4 -->
<g id="edge6" class="edge"><title>Node1&#45;&gt;Node4</title>
<path fill="none" stroke="midnightblue" d="M165.735,-126.305C174.354,-127.219 183.089,-128.146 191.672,-129.056"/>
<polygon fill="midnightblue" stroke="midnightblue" points="166,-122.814 155.687,-125.239 165.262,-129.775 166,-122.814"/>
</g>
<!-- Node5 -->
<g id="node9" class="node"><title>Node5</title>
<a xlink:href="a00003.html#a2eb8d02c398ddd7708260ec230ceafcc" target="_top" xlink:title="Plots Calibration curves.">
<polygon fill="white" stroke="red" points="204.5,-84 204.5,-108 347.5,-108 347.5,-84 204.5,-84"/>
<text text-anchor="middle" x="276" y="-93.2" font-family="Helvetica,sans-Serif" font-size="12.00">Displaying::plotElement</text>
</a>
</g>
<!-- Node1&#45;&gt;Node5 -->
<g id="edge8" class="edge"><title>Node1&#45;&gt;Node5</title>
<path fill="none" stroke="midnightblue" d="M165.921,-107.675C178.771,-106.312 191.873,-104.923 204.347,-103.6"/>
<polygon fill="midnightblue" stroke="midnightblue" points="165.262,-104.225 155.687,-108.761 166,-111.186 165.262,-104.225"/>
</g>
<!-- Node6 -->
<g id="node11" class="node"><title>Node6</title>
<a xlink:href="a00009.html#aac066ac6d6c2c4d2391343af917c92b4" target="_top" xlink:title="Parsing Function.">
<polygon fill="white" stroke="black" points="210,-42 210,-66 342,-66 342,-42 210,-42"/>
<text text-anchor="middle" x="276" y="-51.2" font-family="Helvetica,sans-Serif" font-size="12.00">ParserOutCSV::parse</text>
</a>
</g>
<!-- Node1&#45;&gt;Node6 -->
<g id="edge10" class="edge"><title>Node1&#45;&gt;Node6</title>
<path fill="none" stroke="midnightblue" d="M117.732,-101.162C139.475,-92.7998 167.004,-82.7042 192,-75 202.343,-71.812 213.513,-68.7562 224.226,-66.0103"/>
<polygon fill="midnightblue" stroke="midnightblue" points="116.236,-97.9881 108.178,-104.867 118.767,-104.514 116.236,-97.9881"/>
</g>
<!-- Node7 -->
<g id="node13" class="node"><title>Node7</title>
<a xlink:href="a00010.html#a092b32603577be8f4482f2d5d5f7ff30" target="_top" xlink:title="Quality control after data processing.">
<polygon fill="white" stroke="red" points="213,-0 213,-24 339,-24 339,-0 213,-0"/>
<text text-anchor="middle" x="276" y="-9.2" font-family="Helvetica,sans-Serif" font-size="12.00">Processing::passQC</text>
</a>
</g>
<!-- Node1&#45;&gt;Node7 -->
<g id="edge12" class="edge"><title>Node1&#45;&gt;Node7</title>
<path fill="none" stroke="midnightblue" d="M98.4965,-97.9835C120.162,-78.8739 156.104,-49.8991 192,-33 199.344,-29.5425 207.328,-26.6092 215.354,-24.1329"/>
<polygon fill="midnightblue" stroke="midnightblue" points="96.0285,-95.4956 90.922,-104.779 100.703,-100.706 96.0285,-95.4956"/>
</g>
</g>
</svg>
