<?xml version="1.0" encoding="UTF-8" standalone="no"?>
<!DOCTYPE svg PUBLIC "-//W3C//DTD SVG 1.1//EN"
 "http://www.w3.org/Graphics/SVG/1.1/DTD/svg11.dtd">
<!-- Generated by graphviz version 2.26.3 (20100126.1600)
 -->
<!-- Title: Processing::getLOD Pages: 1 -->
<svg width="312pt" height="74pt"
 viewBox="0.00 0.00 312.00 74.00" xmlns="http://www.w3.org/2000/svg" xmlns:xlink="http://www.w3.org/1999/xlink">
<g id="graph1" class="graph" transform="scale(1 1) rotate(0) translate(4 70)">
<title>Processing::getLOD</title>
<polygon fill="white" stroke="white" points="-4,5 -4,-70 309,-70 309,5 -4,5"/>
<!-- Node1 -->
<g id="node1" class="node"><title>Node1</title>
<polygon fill="#bfbfbf" stroke="black" points="0,-21 0,-45 124,-45 124,-21 0,-21"/>
<text text-anchor="middle" x="62" y="-30.2" font-family="Helvetica,sans-Serif" font-size="12.00">Processing::getLOD</text>
</g>
<!-- Node2 -->
<g id="node3" class="node"><title>Node2</title>
<a xlink:href="a00003.html#a2eb8d02c398ddd7708260ec230ceafcc" target="_top" xlink:title="Plots Calibration curves.">
<polygon fill="white" stroke="red" points="160.5,-42 160.5,-66 303.5,-66 303.5,-42 160.5,-42"/>
<text text-anchor="middle" x="232" y="-51.2" font-family="Helvetica,sans-Serif" font-size="12.00">Displaying::plotElement</text>
</a>
</g>
<!-- Node1&#45;&gt;Node2 -->
<g id="edge2" class="edge"><title>Node1&#45;&gt;Node2</title>
<path fill="none" stroke="midnightblue" d="M134.377,-41.9407C143.018,-43.0081 151.837,-44.0976 160.467,-45.1635"/>
<polygon fill="midnightblue" stroke="midnightblue" points="134.69,-38.4528 124.336,-40.7004 133.832,-45.4 134.69,-38.4528"/>
</g>
<!-- Node3 -->
<g id="node5" class="node"><title>Node3</title>
<a xlink:href="a00009.html#aac066ac6d6c2c4d2391343af917c92b4" target="_top" xlink:title="Parsing Function.">
<polygon fill="white" stroke="black" points="166,-0 166,-24 298,-24 298,-0 166,-0"/>
<text text-anchor="middle" x="232" y="-9.2" font-family="Helvetica,sans-Serif" font-size="12.00">ParserOutCSV::parse</text>
</a>
</g>
<!-- Node1&#45;&gt;Node3 -->
<g id="edge4" class="edge"><title>Node1&#45;&gt;Node3</title>
<path fill="none" stroke="midnightblue" d="M134.306,-24.068C144.812,-22.7703 155.583,-21.4398 165.956,-20.1584"/>
<polygon fill="midnightblue" stroke="midnightblue" points="133.832,-20.6 124.336,-25.2996 134.69,-27.5472 133.832,-20.6"/>
</g>
</g>
</svg>
