<?xml version="1.0" encoding="UTF-8" standalone="no"?>
<!DOCTYPE svg PUBLIC "-//W3C//DTD SVG 1.1//EN"
 "http://www.w3.org/Graphics/SVG/1.1/DTD/svg11.dtd">
<!-- Generated by graphviz version 2.26.3 (20100126.1600)
 -->
<!-- Title: Data::copyData Pages: 1 -->
<!--zoomable 864 -->
<svg id="main" version="1.1" xmlns="http://www.w3.org/2000/svg" xmlns:xlink="http://www.w3.org/1999/xlink" xml:space="preserve" onload="init(evt)">
        <defs>
                <circle id="rim" cx="0" cy="0" r="7"/>
                <circle id="rim2" cx="0" cy="0" r="3.5"/>
                <g id="zoomPlus">
                        <use xlink:href="#rim" fill="#404040">
                                <set attributeName="fill" to="#808080" begin="zoomplus.mouseover" end="zoomplus.mouseout"/>
                        </use>
                        <path d="M-4,0h8M0,-4v8" fill="none" stroke="white" stroke-width="1.5" pointer-events="none"/>
                </g>
                <g id="zoomMin">
                        <use xlink:href="#rim" fill="#404040">
                                <set attributeName="fill" to="#808080" begin="zoomminus.mouseover" end="zoomminus.mouseout"/>
                        </use>
                        <path d="M-4,0h8" fill="none" stroke="white" stroke-width="1.5" pointer-events="none"/>
                </g>
                <g id="dirArrow">
                        <path fill="none" stroke="white" stroke-width="1.5" d="M0,-3.0v7 M-2.5,-0.5L0,-3.0L2.5,-0.5"/>
                </g>
               <g id="resetDef">
                       <use xlink:href="#rim2" fill="#404040">
                               <set attributeName="fill" to="#808080" begin="reset.mouseover" end="reset.mouseout"/>
                       </use>
               </g>
        </defs>

<script type="text/javascript">
var viewWidth = 452;
var viewHeight = 864;
var sectionId = 'dynsection-10';
</script>
<script xlink:href="svgpan.js"/>
<svg id="graph" class="graph">
<g id="viewport">
<title>Data::copyData</title>
<polygon fill="white" stroke="white" points="-4,5 -4,-860 449,-860 449,5 -4,5"/>
<!-- Node1 -->
<g id="node1" class="node"><title>Node1</title>
<polygon fill="#bfbfbf" stroke="black" points="0.5,-420 0.5,-444 99.5,-444 99.5,-420 0.5,-420"/>
<text text-anchor="middle" x="50" y="-429.2" font-family="Helvetica,sans-Serif" font-size="12.00">Data::copyData</text>
</g>
<!-- Node2 -->
<g id="node3" class="node"><title>Node2</title>
<a xlink:href="a00002.html#a44b749f64ffa35e034f9503fdec4917e" target="_top" xlink:title="Clears data contain.">
<polygon fill="white" stroke="black" points="177,-832 177,-856 251,-856 251,-832 177,-832"/>
<text text-anchor="middle" x="214" y="-841.2" font-family="Helvetica,sans-Serif" font-size="12.00">Data::clear</text>
</a>
</g>
<!-- Node1&#45;&gt;Node2 -->
<g id="edge2" class="edge"><title>Node1&#45;&gt;Node2</title>
<path fill="none" stroke="midnightblue" d="M50.9976,-444.111C56.1523,-503.799 81.6497,-766.062 136,-823 144.163,-831.552 155.409,-836.749 166.822,-839.873"/>
<polygon fill="midnightblue" stroke="midnightblue" points="166.297,-843.342 176.821,-842.117 167.83,-836.512 166.297,-843.342"/>
</g>
<!-- Node3 -->
<g id="node5" class="node"><title>Node3</title>
<a xlink:href="a00002.html#acd1f2adc01b25ef7bded9b6d2b331278" target="_top" xlink:title="Gets the Number of elements.">
<polygon fill="white" stroke="black" points="170,-790 170,-814 258,-814 258,-790 170,-790"/>
<text text-anchor="middle" x="214" y="-799.2" font-family="Helvetica,sans-Serif" font-size="12.00">Data::isoSize</text>
</a>
</g>
<!-- Node1&#45;&gt;Node3 -->
<g id="edge4" class="edge"><title>Node1&#45;&gt;Node3</title>
<path fill="none" stroke="midnightblue" d="M51.3602,-444.278C57.8038,-500.284 87.0018,-730.942 136,-781 142.556,-787.697 151.004,-792.329 159.91,-795.517"/>
<polygon fill="midnightblue" stroke="midnightblue" points="159.103,-798.929 169.686,-798.44 161.107,-792.222 159.103,-798.929"/>
</g>
<!-- Node4 -->
<g id="node7" class="node"><title>Node4</title>
<a xlink:href="a00002.html#a386e9b359ac336356d6bdf0c1d7c4f37" target="_top" xlink:title="Adds an element to the data set.">
<polygon fill="white" stroke="black" points="172,-748 172,-772 256,-772 256,-748 172,-748"/>
<text text-anchor="middle" x="214" y="-757.2" font-family="Helvetica,sans-Serif" font-size="12.00">Data::addIso</text>
</a>
</g>
<!-- Node1&#45;&gt;Node4 -->
<g id="edge6" class="edge"><title>Node1&#45;&gt;Node4</title>
<path fill="none" stroke="midnightblue" d="M51.9344,-444.252C60.2158,-495.277 94.1705,-690.274 136,-734 143.104,-741.426 152.382,-746.732 162.05,-750.523"/>
<polygon fill="midnightblue" stroke="midnightblue" points="161.186,-753.926 171.78,-753.83 163.439,-747.298 161.186,-753.926"/>
</g>
<!-- Node5 -->
<g id="node9" class="node"><title>Node5</title>
<a xlink:href="a00005.html#ab8c2c9824162b3a151e84cb2f2c5df6f" target="_top" xlink:title="Gets the resolution (value of Resolution enumeration)">
<polygon fill="white" stroke="black" points="328.5,-728 328.5,-752 443.5,-752 443.5,-728 328.5,-728"/>
<text text-anchor="middle" x="386" y="-737.2" font-family="Helvetica,sans-Serif" font-size="12.00">Element::getResol</text>
</a>
</g>
<!-- Node1&#45;&gt;Node5 -->
<g id="edge16" class="edge"><title>Node1&#45;&gt;Node5</title>
<path fill="none" stroke="midnightblue" d="M52.1338,-444.056C60.8095,-491.682 94.938,-665.844 136,-701 162.725,-723.881 253.883,-733.397 318.379,-737.315"/>
<polygon fill="midnightblue" stroke="midnightblue" points="318.302,-740.817 328.487,-737.897 318.705,-733.828 318.302,-740.817"/>
</g>
<!-- Node6 -->
<g id="node11" class="node"><title>Node6</title>
<a xlink:href="a00002.html#a4baa9866aaea800c81e4502b9483e4ec" target="_top" xlink:title="Gets an element identified by its Id.">
<polygon fill="white" stroke="black" points="174,-668 174,-692 254,-692 254,-668 174,-668"/>
<text text-anchor="middle" x="214" y="-677.2" font-family="Helvetica,sans-Serif" font-size="12.00">Data::getIso</text>
</a>
</g>
<!-- Node1&#45;&gt;Node6 -->
<g id="edge10" class="edge"><title>Node1&#45;&gt;Node6</title>
<path fill="none" stroke="midnightblue" d="M50.8552,-444.229C54.183,-482.163 69.6153,-598.891 136,-659 143.878,-666.133 153.927,-670.883 164.171,-674.036"/>
<polygon fill="midnightblue" stroke="midnightblue" points="163.429,-677.46 173.988,-676.596 165.194,-670.686 163.429,-677.46"/>
</g>
<!-- Node7 -->
<g id="node13" class="node"><title>Node7</title>
<a xlink:href="a00005.html#a982ccc1c2f9f57d58ad5f98eedb53706" target="_top" xlink:title="Gets the Name of the element.">
<polygon fill="white" stroke="black" points="150,-626 150,-650 278,-650 278,-626 150,-626"/>
<text text-anchor="middle" x="214" y="-635.2" font-family="Helvetica,sans-Serif" font-size="12.00">Element::getElement</text>
</a>
</g>
<!-- Node1&#45;&gt;Node7 -->
<g id="edge12" class="edge"><title>Node1&#45;&gt;Node7</title>
<path fill="none" stroke="midnightblue" d="M51.9903,-444.071C58.0845,-477.088 79.6211,-569.578 136,-617 137.57,-618.32 139.214,-619.558 140.921,-620.719"/>
<polygon fill="midnightblue" stroke="midnightblue" points="139.491,-623.935 149.901,-625.902 142.99,-617.872 139.491,-623.935"/>
</g>
<!-- Node8 -->
<g id="node15" class="node"><title>Node8</title>
<a xlink:href="a00005.html#ab91c2a260fba46158f20bf25c25958c5" target="_top" xlink:title="Gets the Mass.">
<polygon fill="white" stroke="black" points="154.5,-584 154.5,-608 273.5,-608 273.5,-584 154.5,-584"/>
<text text-anchor="middle" x="214" y="-593.2" font-family="Helvetica,sans-Serif" font-size="12.00">Element::getMasse</text>
</a>
</g>
<!-- Node1&#45;&gt;Node8 -->
<g id="edge14" class="edge"><title>Node1&#45;&gt;Node8</title>
<path fill="none" stroke="midnightblue" d="M53.7653,-444.11C63.0071,-471.779 89.5094,-539.938 136,-575 138.829,-577.133 141.859,-579.05 145.023,-580.773"/>
<polygon fill="midnightblue" stroke="midnightblue" points="143.704,-584.02 154.24,-585.13 146.695,-577.692 143.704,-584.02"/>
</g>
<!-- Node9 -->
<g id="node18" class="node"><title>Node9</title>
<a xlink:href="a00002.html#a84179b0c71fb3e69cfa177e92004ee79" target="_top" xlink:title="Gets the Number of Solutions.">
<polygon fill="white" stroke="black" points="157,-542 157,-566 271,-566 271,-542 157,-542"/>
<text text-anchor="middle" x="214" y="-551.2" font-family="Helvetica,sans-Serif" font-size="12.00">Data::solutionSize</text>
</a>
</g>
<!-- Node1&#45;&gt;Node9 -->
<g id="edge18" class="edge"><title>Node1&#45;&gt;Node9</title>
<path fill="none" stroke="midnightblue" d="M56.8282,-444.012C69.5622,-465.3 99.0248,-509.601 136,-533 139.6,-535.278 143.443,-537.311 147.422,-539.125"/>
<polygon fill="midnightblue" stroke="midnightblue" points="146.318,-542.454 156.9,-542.973 148.951,-535.969 146.318,-542.454"/>
</g>
<!-- Node10 -->
<g id="node20" class="node"><title>Node10</title>
<a xlink:href="a00002.html#a7f13913683ead8b0702121ac494f1598" target="_top" xlink:title="Add a solution to the data set.">
<polygon fill="white" stroke="black" points="157.5,-500 157.5,-524 270.5,-524 270.5,-500 157.5,-500"/>
<text text-anchor="middle" x="214" y="-509.2" font-family="Helvetica,sans-Serif" font-size="12.00">Data::addSolution</text>
</a>
</g>
<!-- Node1&#45;&gt;Node10 -->
<g id="edge20" class="edge"><title>Node1&#45;&gt;Node10</title>
<path fill="none" stroke="midnightblue" d="M66.4504,-444.004C83.2765,-455.872 110.494,-473.954 136,-486 144.246,-489.895 153.235,-493.465 162.082,-496.63"/>
<polygon fill="midnightblue" stroke="midnightblue" points="160.989,-499.955 171.584,-499.901 163.268,-493.336 160.989,-499.955"/>
</g>
<!-- Node11 -->
<g id="node22" class="node"><title>Node11</title>
<a xlink:href="a00013.html#a7e480d4e590046701d82e74491ff944a" target="_top" xlink:title="Gets type of the solution.">
<polygon fill="white" stroke="black" points="331,-480 331,-504 441,-504 441,-480 331,-480"/>
<text text-anchor="middle" x="386" y="-489.2" font-family="Helvetica,sans-Serif" font-size="12.00">Solution::getType</text>
</a>
</g>
<!-- Node1&#45;&gt;Node11 -->
<g id="edge30" class="edge"><title>Node1&#45;&gt;Node11</title>
<path fill="none" stroke="midnightblue" d="M96.2572,-444.058C109.08,-447.192 123.038,-450.411 136,-453 198.264,-465.435 269.916,-476.261 320.505,-483.331"/>
<polygon fill="midnightblue" stroke="midnightblue" points="320.265,-486.831 330.651,-484.738 321.226,-479.897 320.265,-486.831"/>
</g>
<!-- Node12 -->
<g id="node24" class="node"><title>Node12</title>
<a xlink:href="a00002.html#a7b1a07606090591e7fffb48be72bd734" target="_top" xlink:title="Gets a solution identified by its Id.">
<polygon fill="white" stroke="black" points="159.5,-420 159.5,-444 268.5,-444 268.5,-420 159.5,-420"/>
<text text-anchor="middle" x="214" y="-429.2" font-family="Helvetica,sans-Serif" font-size="12.00">Data::getSolution</text>
</a>
</g>
<!-- Node1&#45;&gt;Node12 -->
<g id="edge24" class="edge"><title>Node1&#45;&gt;Node12</title>
<path fill="none" stroke="midnightblue" d="M99.6505,-432C115.265,-432 132.743,-432 149.246,-432"/>
<polygon fill="midnightblue" stroke="midnightblue" points="149.369,-435.5 159.369,-432 149.369,-428.5 149.369,-435.5"/>
</g>
<!-- Node13 -->
<g id="node26" class="node"><title>Node13</title>
<a xlink:href="a00013.html#a08617ee6ca1993e92372e265829508f0" target="_top" xlink:title="Gets the Name.">
<polygon fill="white" stroke="black" points="156,-378 156,-402 272,-402 272,-378 156,-378"/>
<text text-anchor="middle" x="214" y="-387.2" font-family="Helvetica,sans-Serif" font-size="12.00">Solution::getName</text>
</a>
</g>
<!-- Node1&#45;&gt;Node13 -->
<g id="edge26" class="edge"><title>Node1&#45;&gt;Node13</title>
<path fill="none" stroke="midnightblue" d="M96.9958,-419.964C115.781,-415.154 137.584,-409.57 157.242,-404.536"/>
<polygon fill="midnightblue" stroke="midnightblue" points="158.178,-407.909 166.997,-402.037 156.442,-401.128 158.178,-407.909"/>
</g>
<!-- Node14 -->
<g id="node28" class="node"><title>Node14</title>
<a xlink:href="a00013.html#a50dfabf4a7bd3d4b5b638639e3927406" target="_top" xlink:title="Gets the Number of Elements.">
<polygon fill="white" stroke="black" points="140.5,-336 140.5,-360 287.5,-360 287.5,-336 140.5,-336"/>
<text text-anchor="middle" x="214" y="-345.2" font-family="Helvetica,sans-Serif" font-size="12.00">Solution::getNbrElement</text>
</a>
</g>
<!-- Node1&#45;&gt;Node14 -->
<g id="edge28" class="edge"><title>Node1&#45;&gt;Node14</title>
<path fill="none" stroke="midnightblue" d="M63.2766,-419.808C79.3554,-405.657 107.803,-382.538 136,-369 140.279,-366.946 144.789,-365.068 149.396,-363.355"/>
<polygon fill="midnightblue" stroke="midnightblue" points="150.626,-366.633 158.942,-360.068 148.347,-360.014 150.626,-366.633"/>
</g>
<!-- Node15 -->
<g id="node31" class="node"><title>Node15</title>
<a xlink:href="a00013.html#a6c810986de58b492514e08849cb0a498" target="_top" xlink:title="Sets Intensity.">
<polygon fill="white" stroke="black" points="162,-294 162,-318 266,-318 266,-294 162,-294"/>
<text text-anchor="middle" x="214" y="-303.2" font-family="Helvetica,sans-Serif" font-size="12.00">Solution::setCps</text>
</a>
</g>
<!-- Node1&#45;&gt;Node15 -->
<g id="edge32" class="edge"><title>Node1&#45;&gt;Node15</title>
<path fill="none" stroke="midnightblue" d="M56.507,-419.855C68.9331,-397.854 98.2015,-351.429 136,-327 140.98,-323.781 146.443,-321.053 152.093,-318.741"/>
<polygon fill="midnightblue" stroke="midnightblue" points="153.529,-321.943 161.726,-315.23 151.132,-315.366 153.529,-321.943"/>
</g>
<!-- Node16 -->
<g id="node33" class="node"><title>Node16</title>
<a xlink:href="a00013.html#a6cb75c8a1aa020796506362920216816" target="_top" xlink:title="Gets Intensity.">
<polygon fill="white" stroke="black" points="161.5,-252 161.5,-276 266.5,-276 266.5,-252 161.5,-252"/>
<text text-anchor="middle" x="214" y="-261.2" font-family="Helvetica,sans-Serif" font-size="12.00">Solution::getCps</text>
</a>
</g>
<!-- Node1&#45;&gt;Node16 -->
<g id="edge34" class="edge"><title>Node1&#45;&gt;Node16</title>
<path fill="none" stroke="midnightblue" d="M53.5293,-419.976C62.4297,-391.819 88.5334,-321.251 136,-285 140.784,-281.347 146.156,-278.328 151.785,-275.834"/>
<polygon fill="midnightblue" stroke="midnightblue" points="153.37,-278.974 161.442,-272.112 150.852,-272.442 153.37,-278.974"/>
</g>
<!-- Node17 -->
<g id="node35" class="node"><title>Node17</title>
<a xlink:href="a00013.html#a000b5c9d708b22de23d918a3a3214635" target="_top" xlink:title="Sets Intensity Standard Deviation.">
<polygon fill="white" stroke="black" points="153,-210 153,-234 275,-234 275,-210 153,-210"/>
<text text-anchor="middle" x="214" y="-219.2" font-family="Helvetica,sans-Serif" font-size="12.00">Solution::setCpsSD</text>
</a>
</g>
<!-- Node1&#45;&gt;Node17 -->
<g id="edge36" class="edge"><title>Node1&#45;&gt;Node17</title>
<path fill="none" stroke="midnightblue" d="M51.9051,-419.673C57.7815,-385.957 78.8133,-291.499 136,-243 138.513,-240.868 141.223,-238.951 144.071,-237.227"/>
<polygon fill="midnightblue" stroke="midnightblue" points="145.706,-240.321 152.973,-232.612 142.485,-234.107 145.706,-240.321"/>
</g>
<!-- Node18 -->
<g id="node37" class="node"><title>Node18</title>
<a xlink:href="a00013.html#a0fe4de8b637ba6637d653b91df95fcd0" target="_top" xlink:title="Gets Intensity Standard Deviation.">
<polygon fill="white" stroke="black" points="153,-168 153,-192 275,-192 275,-168 153,-168"/>
<text text-anchor="middle" x="214" y="-177.2" font-family="Helvetica,sans-Serif" font-size="12.00">Solution::getCpsSD</text>
</a>
</g>
<!-- Node1&#45;&gt;Node18 -->
<g id="edge38" class="edge"><title>Node1&#45;&gt;Node18</title>
<path fill="none" stroke="midnightblue" d="M50.76,-419.832C53.825,-381.533 68.6088,-262.373 136,-201 138.36,-198.85 140.918,-196.917 143.619,-195.178"/>
<polygon fill="midnightblue" stroke="midnightblue" points="145.551,-198.112 152.666,-190.262 142.208,-191.961 145.551,-198.112"/>
</g>
<!-- Node19 -->
<g id="node39" class="node"><title>Node19</title>
<a xlink:href="a00013.html#adc74f58993747169c721739962ec2a5a" target="_top" xlink:title="Sets Concentration.">
<polygon fill="white" stroke="black" points="150,-126 150,-150 278,-150 278,-126 150,-126"/>
<text text-anchor="middle" x="214" y="-135.2" font-family="Helvetica,sans-Serif" font-size="12.00">Solution::setConcent</text>
</a>
</g>
<!-- Node1&#45;&gt;Node19 -->
<g id="edge40" class="edge"><title>Node1&#45;&gt;Node19</title>
<path fill="none" stroke="midnightblue" d="M52.2212,-419.894C61.2295,-372.05 96.4525,-196.913 136,-159 137.645,-157.423 139.396,-155.961 141.231,-154.607"/>
<polygon fill="midnightblue" stroke="midnightblue" points="143.101,-157.567 149.766,-149.331 139.42,-151.612 143.101,-157.567"/>
</g>
<!-- Node20 -->
<g id="node41" class="node"><title>Node20</title>
<a xlink:href="a00013.html#af9f7e1dfafa0cd431387737664e3ac7e" target="_top" xlink:title="Gets Concentration.">
<polygon fill="white" stroke="black" points="150,-84 150,-108 278,-108 278,-84 150,-84"/>
<text text-anchor="middle" x="214" y="-93.2" font-family="Helvetica,sans-Serif" font-size="12.00">Solution::getConcent</text>
</a>
</g>
<!-- Node1&#45;&gt;Node20 -->
<g id="edge42" class="edge"><title>Node1&#45;&gt;Node20</title>
<path fill="none" stroke="midnightblue" d="M51.6867,-419.871C59.1996,-367.526 91.2263,-161.616 136,-117 137.655,-115.351 139.424,-113.828 141.287,-112.421"/>
<polygon fill="midnightblue" stroke="midnightblue" points="143.368,-115.247 149.98,-106.969 139.648,-109.317 143.368,-115.247"/>
</g>
<!-- Node21 -->
<g id="node43" class="node"><title>Node21</title>
<a xlink:href="a00013.html#a60ca23e0e5593012162a2669841c952e" target="_top" xlink:title="Sets Concentration Relative Standard Deviation (%)">
<polygon fill="white" stroke="black" points="137,-42 137,-66 291,-66 291,-42 137,-42"/>
<text text-anchor="middle" x="214" y="-51.2" font-family="Helvetica,sans-Serif" font-size="12.00">Solution::setConcentRSD</text>
</a>
</g>
<!-- Node1&#45;&gt;Node21 -->
<g id="edge44" class="edge"><title>Node1&#45;&gt;Node21</title>
<path fill="none" stroke="midnightblue" d="M51.2767,-419.823C57.4491,-363.219 85.9645,-126.385 136,-75 137.07,-73.9011 138.191,-72.8577 139.357,-71.8672"/>
<polygon fill="midnightblue" stroke="midnightblue" points="141.451,-74.6733 147.631,-66.0675 137.433,-68.9412 141.451,-74.6733"/>
</g>
<!-- Node22 -->
<g id="node45" class="node"><title>Node22</title>
<a xlink:href="a00013.html#a1adae3ea7b071d2a311b62371b959633" target="_top" xlink:title="Gets Concentration Relative Standard Deviation (%)">
<polygon fill="white" stroke="black" points="136.5,-0 136.5,-24 291.5,-24 291.5,-0 136.5,-0"/>
<text text-anchor="middle" x="214" y="-9.2" font-family="Helvetica,sans-Serif" font-size="12.00">Solution::getConcentRSD</text>
</a>
</g>
<!-- Node1&#45;&gt;Node22 -->
<g id="edge46" class="edge"><title>Node1&#45;&gt;Node22</title>
<path fill="none" stroke="midnightblue" d="M50.9602,-419.643C55.9359,-358.747 80.7108,-91.1661 136,-33 136.924,-32.028 137.888,-31.0993 138.887,-30.2121"/>
<polygon fill="midnightblue" stroke="midnightblue" points="141.141,-32.9005 147.173,-24.1904 137.026,-27.2378 141.141,-32.9005"/>
</g>
<!-- Node4&#45;&gt;Node5 -->
<g id="edge8" class="edge"><title>Node4&#45;&gt;Node5</title>
<path fill="none" stroke="midnightblue" d="M256.076,-755.107C274.793,-752.931 297.306,-750.313 318.293,-747.873"/>
<polygon fill="midnightblue" stroke="midnightblue" points="318.922,-751.323 328.451,-746.692 318.114,-744.37 318.922,-751.323"/>
</g>
<!-- Node10&#45;&gt;Node11 -->
<g id="edge22" class="edge"><title>Node10&#45;&gt;Node11</title>
<path fill="none" stroke="midnightblue" d="M270.796,-505.396C286.759,-503.54 304.246,-501.506 320.665,-499.597"/>
<polygon fill="midnightblue" stroke="midnightblue" points="321.198,-503.059 330.727,-498.427 320.389,-496.106 321.198,-503.059"/>
</g>
</g>
</svg>
        <g id="navigator" transform="translate(0 0)" fill="#404254">
                <rect fill="#f2f5e9" fill-opacity="0.5" stroke="#606060" stroke-width=".5" x="0" y="0" width="60" height="60"/>
                <use id="zoomplus" xlink:href="#zoomPlus" x="17" y="9" onmousedown="handleZoom(evt,'in')"/>
                <use id="zoomminus" xlink:href="#zoomMin" x="42" y="9" onmousedown="handleZoom(evt,'out')"/>
                <use id="reset" xlink:href="#resetDef" x="30" y="36" onmousedown="handleReset()"/>
                <g id="arrowUp" xlink:href="#dirArrow" transform="translate(30 24)" onmousedown="handlePan(0,-1)">
                  <use xlink:href="#rim" fill="#404040">
                        <set attributeName="fill" to="#808080" begin="arrowUp.mouseover" end="arrowUp.mouseout"/>
                  </use>
                  <path fill="none" stroke="white" stroke-width="1.5" d="M0,-3.0v7 M-2.5,-0.5L0,-3.0L2.5,-0.5"/>
                </g>
                <g id="arrowRight" xlink:href="#dirArrow" transform="rotate(90) translate(36 -43)" onmousedown="handlePan(1,0)">
                  <use xlink:href="#rim" fill="#404040">
                        <set attributeName="fill" to="#808080" begin="arrowRight.mouseover" end="arrowRight.mouseout"/>
                  </use>
                  <path fill="none" stroke="white" stroke-width="1.5" d="M0,-3.0v7 M-2.5,-0.5L0,-3.0L2.5,-0.5"/>
                </g>
                <g id="arrowDown" xlink:href="#dirArrow" transform="rotate(180) translate(-30 -48)" onmousedown="handlePan(0,1)">
                  <use xlink:href="#rim" fill="#404040">
                        <set attributeName="fill" to="#808080" begin="arrowDown.mouseover" end="arrowDown.mouseout"/>
                  </use>
                  <path fill="none" stroke="white" stroke-width="1.5" d="M0,-3.0v7 M-2.5,-0.5L0,-3.0L2.5,-0.5"/>
                </g>
                <g id="arrowLeft" xlink:href="#dirArrow" transform="rotate(270) translate(-36 17)" onmousedown="handlePan(-1,0)">
                  <use xlink:href="#rim" fill="#404040">
                        <set attributeName="fill" to="#808080" begin="arrowLeft.mouseover" end="arrowLeft.mouseout"/>
                  </use>
                  <path fill="none" stroke="white" stroke-width="1.5" d="M0,-3.0v7 M-2.5,-0.5L0,-3.0L2.5,-0.5"/>
                </g>
        </g>
        <svg viewBox="0 0 15 15" width="100%" height="30px" preserveAspectRatio="xMaxYMin meet">
         <g id="arrow_out" transform="scale(0.3 0.3)">
          <a xlink:href="a00002_a6fc1d983c7fa16eebd0d0b12cb505a30_cgraph_org.svg" target="_base">
           <rect id="button" ry="5" rx="5" y="6" x="6" height="38" width="38"
                fill="#f2f5e9" fill-opacity="0.5" stroke="#606060" stroke-width="1.0"/>
           <path id="arrow"
             d="M 11.500037,31.436501 C 11.940474,20.09759 22.043105,11.32322 32.158766,21.979434 L 37.068811,17.246167 C 37.068811,17.246167 37.088388,32 37.088388,32 L 22.160133,31.978069 C 22.160133,31.978069 26.997745,27.140456 26.997745,27.140456 C 18.528582,18.264221 13.291696,25.230495 11.500037,31.436501 z"
             style="fill:#404040;"/>
          </a>
         </g>
        </svg>
</svg>
