<?xml version="1.0" encoding="UTF-8" standalone="no"?>
<!DOCTYPE svg PUBLIC "-//W3C//DTD SVG 1.1//EN"
 "http://www.w3.org/Graphics/SVG/1.1/DTD/svg11.dtd">
<!-- Generated by graphviz version 2.26.3 (20100126.1600)
 -->
<!-- Title: Processing::computeConcent Pages: 1 -->
<svg width="408pt" height="768pt"
 viewBox="0.00 0.00 408.00 768.00" xmlns="http://www.w3.org/2000/svg" xmlns:xlink="http://www.w3.org/1999/xlink">
<g id="graph1" class="graph" transform="scale(1 1) rotate(0) translate(4 764)">
<title>Processing::computeConcent</title>
<polygon fill="white" stroke="white" points="-4,5 -4,-764 405,-764 405,5 -4,5"/>
<!-- Node1 -->
<g id="node1" class="node"><title>Node1</title>
<polygon fill="#bfbfbf" stroke="black" points="0.5,-400 0.5,-424 173.5,-424 173.5,-400 0.5,-400"/>
<text text-anchor="middle" x="87" y="-409.2" font-family="Helvetica,sans-Serif" font-size="12.00">Processing::computeConcent</text>
</g>
<!-- Node2 -->
<g id="node3" class="node"><title>Node2</title>
<a xlink:href="a00002.html#a84179b0c71fb3e69cfa177e92004ee79" target="_top" xlink:title="Gets the Number of Solutions.">
<polygon fill="white" stroke="black" points="248,-736 248,-760 362,-760 362,-736 248,-736"/>
<text text-anchor="middle" x="305" y="-745.2" font-family="Helvetica,sans-Serif" font-size="12.00">Data::solutionSize</text>
</a>
</g>
<!-- Node1&#45;&gt;Node2 -->
<g id="edge2" class="edge"><title>Node1&#45;&gt;Node2</title>
<path fill="none" stroke="midnightblue" d="M87.8183,-424.273C91.6595,-471.523 112.109,-643.193 210,-727 217.973,-733.826 227.673,-738.576 237.792,-741.855"/>
<polygon fill="midnightblue" stroke="midnightblue" points="237.007,-745.269 247.579,-744.568 238.877,-738.524 237.007,-745.269"/>
</g>
<!-- Node3 -->
<g id="node5" class="node"><title>Node3</title>
<a xlink:href="a00002.html#a7b1a07606090591e7fffb48be72bd734" target="_top" xlink:title="Gets a solution identified by its Id.">
<polygon fill="white" stroke="black" points="250.5,-694 250.5,-718 359.5,-718 359.5,-694 250.5,-694"/>
<text text-anchor="middle" x="305" y="-703.2" font-family="Helvetica,sans-Serif" font-size="12.00">Data::getSolution</text>
</a>
</g>
<!-- Node1&#45;&gt;Node3 -->
<g id="edge4" class="edge"><title>Node1&#45;&gt;Node3</title>
<path fill="none" stroke="midnightblue" d="M88.5994,-424.123C94.9508,-467.165 122.464,-613.848 210,-685 218.82,-692.169 229.567,-697.02 240.618,-700.277"/>
<polygon fill="midnightblue" stroke="midnightblue" points="239.814,-703.684 250.367,-702.746 241.533,-696.898 239.814,-703.684"/>
</g>
<!-- Node4 -->
<g id="node7" class="node"><title>Node4</title>
<a xlink:href="a00013.html#a7e480d4e590046701d82e74491ff944a" target="_top" xlink:title="Gets type of the solution.">
<polygon fill="white" stroke="black" points="250,-652 250,-676 360,-676 360,-652 250,-652"/>
<text text-anchor="middle" x="305" y="-661.2" font-family="Helvetica,sans-Serif" font-size="12.00">Solution::getType</text>
</a>
</g>
<!-- Node1&#45;&gt;Node4 -->
<g id="edge6" class="edge"><title>Node1&#45;&gt;Node4</title>
<path fill="none" stroke="midnightblue" d="M89.6571,-424.135C98.8002,-462.853 132.749,-584.331 210,-643 218.754,-649.648 229.197,-654.274 239.903,-657.475"/>
<polygon fill="midnightblue" stroke="midnightblue" points="239.211,-660.911 249.77,-660.031 240.967,-654.135 239.211,-660.911"/>
</g>
<!-- Node5 -->
<g id="node9" class="node"><title>Node5</title>
<a xlink:href="a00010.html#aba81f76cd6cc8d50659adcab7580da7a" target="_top" xlink:title="Processing::computeIsRSD_s">
<polygon fill="white" stroke="black" points="217,-610 217,-634 393,-634 393,-610 217,-610"/>
<text text-anchor="middle" x="305" y="-619.2" font-family="Helvetica,sans-Serif" font-size="12.00">Processing::computeIsRSD_s</text>
</a>
</g>
<!-- Node1&#45;&gt;Node5 -->
<g id="edge8" class="edge"><title>Node1&#45;&gt;Node5</title>
<path fill="none" stroke="midnightblue" d="M91.1135,-424.062C103.319,-457.923 142.734,-554.415 210,-601 212.265,-602.569 214.627,-604.023 217.065,-605.371"/>
<polygon fill="midnightblue" stroke="midnightblue" points="215.659,-608.579 226.183,-609.8 218.718,-602.282 215.659,-608.579"/>
</g>
<!-- Node6 -->
<g id="node11" class="node"><title>Node6</title>
<a xlink:href="a00013.html#a0fe4de8b637ba6637d653b91df95fcd0" target="_top" xlink:title="Gets Intensity Standard Deviation.">
<polygon fill="white" stroke="black" points="244,-568 244,-592 366,-592 366,-568 244,-568"/>
<text text-anchor="middle" x="305" y="-577.2" font-family="Helvetica,sans-Serif" font-size="12.00">Solution::getCpsSD</text>
</a>
</g>
<!-- Node1&#45;&gt;Node6 -->
<g id="edge10" class="edge"><title>Node1&#45;&gt;Node6</title>
<path fill="none" stroke="midnightblue" d="M93.4407,-424.205C109.18,-452.754 152.548,-524.107 210,-559 217.448,-563.523 225.751,-567.076 234.263,-569.866"/>
<polygon fill="midnightblue" stroke="midnightblue" points="233.347,-573.245 243.928,-572.703 235.319,-566.528 233.347,-573.245"/>
</g>
<!-- Node7 -->
<g id="node13" class="node"><title>Node7</title>
<a xlink:href="a00013.html#a6cb75c8a1aa020796506362920216816" target="_top" xlink:title="Gets Intensity.">
<polygon fill="white" stroke="black" points="252.5,-526 252.5,-550 357.5,-550 357.5,-526 252.5,-526"/>
<text text-anchor="middle" x="305" y="-535.2" font-family="Helvetica,sans-Serif" font-size="12.00">Solution::getCps</text>
</a>
</g>
<!-- Node1&#45;&gt;Node7 -->
<g id="edge12" class="edge"><title>Node1&#45;&gt;Node7</title>
<path fill="none" stroke="midnightblue" d="M97.4781,-424.246C117.155,-446.411 161.998,-493.092 210,-517 220.057,-522.009 231.301,-525.833 242.437,-528.749"/>
<polygon fill="midnightblue" stroke="midnightblue" points="241.621,-532.152 252.162,-531.085 243.256,-525.346 241.621,-532.152"/>
</g>
<!-- Node8 -->
<g id="node15" class="node"><title>Node8</title>
<a xlink:href="a00010.html#a1f2aced69b89e42bc45785b086068bde" target="_top" xlink:title="Processing::computeAlpha">
<polygon fill="white" stroke="black" points="225,-484 225,-508 385,-508 385,-484 225,-484"/>
<text text-anchor="middle" x="305" y="-493.2" font-family="Helvetica,sans-Serif" font-size="12.00">Processing::computeAlpha</text>
</a>
</g>
<!-- Node1&#45;&gt;Node8 -->
<g id="edge14" class="edge"><title>Node1&#45;&gt;Node8</title>
<path fill="none" stroke="midnightblue" d="M106.743,-424.126C130.465,-438.212 171.849,-461.27 210,-475 216.407,-477.306 223.152,-479.406 229.969,-481.309"/>
<polygon fill="midnightblue" stroke="midnightblue" points="229.416,-484.783 239.979,-483.955 231.206,-478.015 229.416,-484.783"/>
</g>
<!-- Node9 -->
<g id="node17" class="node"><title>Node9</title>
<a xlink:href="a00002.html#acd1f2adc01b25ef7bded9b6d2b331278" target="_top" xlink:title="Gets the Number of elements.">
<polygon fill="white" stroke="black" points="261,-442 261,-466 349,-466 349,-442 261,-442"/>
<text text-anchor="middle" x="305" y="-451.2" font-family="Helvetica,sans-Serif" font-size="12.00">Data::isoSize</text>
</a>
</g>
<!-- Node1&#45;&gt;Node9 -->
<g id="edge16" class="edge"><title>Node1&#45;&gt;Node9</title>
<path fill="none" stroke="midnightblue" d="M149.47,-424.036C181.46,-430.199 220.033,-437.63 250.761,-443.55"/>
<polygon fill="midnightblue" stroke="midnightblue" points="250.379,-447.041 260.861,-445.496 251.704,-440.167 250.379,-447.041"/>
</g>
<!-- Node10 -->
<g id="node19" class="node"><title>Node10</title>
<a xlink:href="a00002.html#a4baa9866aaea800c81e4502b9483e4ec" target="_top" xlink:title="Gets an element identified by its Id.">
<polygon fill="white" stroke="black" points="265,-400 265,-424 345,-424 345,-400 265,-400"/>
<text text-anchor="middle" x="305" y="-409.2" font-family="Helvetica,sans-Serif" font-size="12.00">Data::getIso</text>
</a>
</g>
<!-- Node1&#45;&gt;Node10 -->
<g id="edge18" class="edge"><title>Node1&#45;&gt;Node10</title>
<path fill="none" stroke="midnightblue" d="M173.786,-412C201.195,-412 230.561,-412 254.548,-412"/>
<polygon fill="midnightblue" stroke="midnightblue" points="254.82,-415.5 264.82,-412 254.82,-408.5 254.82,-415.5"/>
</g>
<!-- Node11 -->
<g id="node21" class="node"><title>Node11</title>
<a xlink:href="a00005.html#ab8c2c9824162b3a151e84cb2f2c5df6f" target="_top" xlink:title="Gets the resolution (value of Resolution enumeration)">
<polygon fill="white" stroke="black" points="247.5,-358 247.5,-382 362.5,-382 362.5,-358 247.5,-358"/>
<text text-anchor="middle" x="305" y="-367.2" font-family="Helvetica,sans-Serif" font-size="12.00">Element::getResol</text>
</a>
</g>
<!-- Node1&#45;&gt;Node11 -->
<g id="edge20" class="edge"><title>Node1&#45;&gt;Node11</title>
<path fill="none" stroke="midnightblue" d="M149.47,-399.964C176.924,-394.675 209.226,-388.452 237.257,-383.051"/>
<polygon fill="midnightblue" stroke="midnightblue" points="238.217,-386.431 247.374,-381.102 236.893,-379.557 238.217,-386.431"/>
</g>
<!-- Node12 -->
<g id="node23" class="node"><title>Node12</title>
<a xlink:href="a00013.html#adc74f58993747169c721739962ec2a5a" target="_top" xlink:title="Sets Concentration.">
<polygon fill="white" stroke="black" points="241,-316 241,-340 369,-340 369,-316 241,-316"/>
<text text-anchor="middle" x="305" y="-325.2" font-family="Helvetica,sans-Serif" font-size="12.00">Solution::setConcent</text>
</a>
</g>
<!-- Node1&#45;&gt;Node12 -->
<g id="edge22" class="edge"><title>Node1&#45;&gt;Node12</title>
<path fill="none" stroke="midnightblue" d="M106.743,-399.874C130.465,-385.788 171.849,-362.73 210,-349 216.775,-346.562 223.927,-344.354 231.143,-342.366"/>
<polygon fill="midnightblue" stroke="midnightblue" points="232.204,-345.706 240.994,-339.792 230.434,-338.934 232.204,-345.706"/>
</g>
<!-- Node13 -->
<g id="node25" class="node"><title>Node13</title>
<a xlink:href="a00010.html#a90d685c4661d6ea8c50f2901d5c96e66" target="_top" xlink:title="Processing::computeSlopeRsdS">
<polygon fill="white" stroke="black" points="210,-274 210,-298 400,-298 400,-274 210,-274"/>
<text text-anchor="middle" x="305" y="-283.2" font-family="Helvetica,sans-Serif" font-size="12.00">Processing::computeSlopeRsdS</text>
</a>
</g>
<!-- Node1&#45;&gt;Node13 -->
<g id="edge24" class="edge"><title>Node1&#45;&gt;Node13</title>
<path fill="none" stroke="midnightblue" d="M97.4781,-399.754C117.155,-377.589 161.998,-330.908 210,-307 214.108,-304.954 218.415,-303.106 222.831,-301.436"/>
<polygon fill="midnightblue" stroke="midnightblue" points="224.324,-304.624 232.64,-298.059 222.045,-298.005 224.324,-304.624"/>
</g>
<!-- Node14 -->
<g id="node27" class="node"><title>Node14</title>
<a xlink:href="a00010.html#a8b631f1b4ad86fbe19702dd38774fc79" target="_top" xlink:title="Processing::concentRSD\l_blank_IS_s">
<polygon fill="white" stroke="black" points="229.5,-216 229.5,-256 380.5,-256 380.5,-216 229.5,-216"/>
<text text-anchor="start" x="237.5" y="-241.2" font-family="Helvetica,sans-Serif" font-size="12.00">Processing::concentRSD</text>
<text text-anchor="middle" x="305" y="-225.2" font-family="Helvetica,sans-Serif" font-size="12.00">_blank_IS_s</text>
</a>
</g>
<!-- Node1&#45;&gt;Node14 -->
<g id="edge26" class="edge"><title>Node1&#45;&gt;Node14</title>
<path fill="none" stroke="midnightblue" d="M93.8719,-399.676C110.216,-371.495 154.243,-301.943 210,-265 213.302,-262.812 216.776,-260.784 220.365,-258.903"/>
<polygon fill="midnightblue" stroke="midnightblue" points="221.986,-262.008 229.489,-254.528 218.959,-255.696 221.986,-262.008"/>
</g>
<!-- Node15 -->
<g id="node29" class="node"><title>Node15</title>
<a xlink:href="a00010.html#a201b26b8cfd9ef76744c661c7b23a766" target="_top" xlink:title="Processing::concentRSD\l_blank_s">
<polygon fill="white" stroke="black" points="229.5,-158 229.5,-198 380.5,-198 380.5,-158 229.5,-158"/>
<text text-anchor="start" x="237.5" y="-183.2" font-family="Helvetica,sans-Serif" font-size="12.00">Processing::concentRSD</text>
<text text-anchor="middle" x="305" y="-167.2" font-family="Helvetica,sans-Serif" font-size="12.00">_blank_s</text>
</a>
</g>
<!-- Node1&#45;&gt;Node15 -->
<g id="edge28" class="edge"><title>Node1&#45;&gt;Node15</title>
<path fill="none" stroke="midnightblue" d="M90.7513,-399.973C102.366,-364.728 141.159,-260.796 210,-207 213.195,-204.503 216.605,-202.22 220.163,-200.133"/>
<polygon fill="midnightblue" stroke="midnightblue" points="222.055,-203.092 229.275,-195.338 218.795,-196.898 222.055,-203.092"/>
</g>
<!-- Node16 -->
<g id="node31" class="node"><title>Node16</title>
<a xlink:href="a00010.html#a9135a309a55a8456b0f16c3522bd98fd" target="_top" xlink:title="Processing::concentRSD\l_y_intercept_IS_s">
<polygon fill="white" stroke="black" points="229.5,-100 229.5,-140 380.5,-140 380.5,-100 229.5,-100"/>
<text text-anchor="start" x="237.5" y="-125.2" font-family="Helvetica,sans-Serif" font-size="12.00">Processing::concentRSD</text>
<text text-anchor="middle" x="305" y="-109.2" font-family="Helvetica,sans-Serif" font-size="12.00">_y_intercept_IS_s</text>
</a>
</g>
<!-- Node1&#45;&gt;Node16 -->
<g id="edge30" class="edge"><title>Node1&#45;&gt;Node16</title>
<path fill="none" stroke="midnightblue" d="M89.0479,-399.971C96.7387,-358.535 127.773,-220.366 210,-149 213.223,-146.202 216.711,-143.675 220.383,-141.391"/>
<polygon fill="midnightblue" stroke="midnightblue" points="222.185,-144.394 229.244,-136.492 218.799,-138.267 222.185,-144.394"/>
</g>
<!-- Node17 -->
<g id="node33" class="node"><title>Node17</title>
<a xlink:href="a00010.html#ac856677cd16c468c2dacdb1d8d853926" target="_top" xlink:title="Processing::concentRSD\l_y_intercept_s">
<polygon fill="white" stroke="black" points="229.5,-42 229.5,-82 380.5,-82 380.5,-42 229.5,-42"/>
<text text-anchor="start" x="237.5" y="-67.2" font-family="Helvetica,sans-Serif" font-size="12.00">Processing::concentRSD</text>
<text text-anchor="middle" x="305" y="-51.2" font-family="Helvetica,sans-Serif" font-size="12.00">_y_intercept_s</text>
</a>
</g>
<!-- Node1&#45;&gt;Node17 -->
<g id="edge32" class="edge"><title>Node1&#45;&gt;Node17</title>
<path fill="none" stroke="midnightblue" d="M87.9459,-399.733C92.2563,-352.469 114.202,-180.349 210,-91 213.192,-88.0228 216.682,-85.3509 220.379,-82.9529"/>
<polygon fill="midnightblue" stroke="midnightblue" points="222.389,-85.8359 229.34,-77.8401 218.919,-79.7559 222.389,-85.8359"/>
</g>
<!-- Node18 -->
<g id="node35" class="node"><title>Node18</title>
<a xlink:href="a00013.html#a60ca23e0e5593012162a2669841c952e" target="_top" xlink:title="Sets Concentration Relative Standard Deviation (%)">
<polygon fill="white" stroke="black" points="228,-0 228,-24 382,-24 382,-0 228,-0"/>
<text text-anchor="middle" x="305" y="-9.2" font-family="Helvetica,sans-Serif" font-size="12.00">Solution::setConcentRSD</text>
</a>
</g>
<!-- Node1&#45;&gt;Node18 -->
<g id="edge34" class="edge"><title>Node1&#45;&gt;Node18</title>
<path fill="none" stroke="midnightblue" d="M89.2874,-399.771C100.576,-340.693 152.13,-85.5512 210,-33 212.79,-30.4663 215.816,-28.2148 219.014,-26.2154"/>
<polygon fill="midnightblue" stroke="midnightblue" points="220.676,-29.2955 227.842,-21.4915 217.374,-23.1235 220.676,-29.2955"/>
</g>
</g>
</svg>
