<?xml version="1.0" encoding="UTF-8" standalone="no"?>
<!DOCTYPE svg PUBLIC "-//W3C//DTD SVG 1.1//EN"
 "http://www.w3.org/Graphics/SVG/1.1/DTD/svg11.dtd">
<!-- Generated by graphviz version 2.26.3 (20100126.1600)
 -->
<!-- Title: Processing::getLOQ Pages: 1 -->
<svg width="336pt" height="116pt"
 viewBox="0.00 0.00 336.00 116.00" xmlns="http://www.w3.org/2000/svg" xmlns:xlink="http://www.w3.org/1999/xlink">
<g id="graph1" class="graph" transform="scale(1 1) rotate(0) translate(4 112)">
<title>Processing::getLOQ</title>
<polygon fill="white" stroke="white" points="-4,5 -4,-112 333,-112 333,5 -4,5"/>
<!-- Node1 -->
<g id="node1" class="node"><title>Node1</title>
<polygon fill="#bfbfbf" stroke="black" points="0,-42 0,-66 124,-66 124,-42 0,-42"/>
<text text-anchor="middle" x="62" y="-51.2" font-family="Helvetica,sans-Serif" font-size="12.00">Processing::getLOQ</text>
</g>
<!-- Node2 -->
<g id="node3" class="node"><title>Node2</title>
<a xlink:href="a00003.html#a773c819165ab712b4fd073ddddcd8695" target="_top" xlink:title="display output data on the output Table">
<polygon fill="white" stroke="red" points="160,-84 160,-108 328,-108 328,-84 160,-84"/>
<text text-anchor="middle" x="244" y="-93.2" font-family="Helvetica,sans-Serif" font-size="12.00">Displaying::dispTableOutput</text>
</a>
</g>
<!-- Node1&#45;&gt;Node2 -->
<g id="edge2" class="edge"><title>Node1&#45;&gt;Node2</title>
<path fill="none" stroke="midnightblue" d="M124.084,-68.3271C146.131,-73.4149 170.705,-79.0857 191.838,-83.9627"/>
<polygon fill="midnightblue" stroke="midnightblue" points="124.685,-64.8738 114.154,-66.0355 123.111,-71.6946 124.685,-64.8738"/>
</g>
<!-- Node3 -->
<g id="node5" class="node"><title>Node3</title>
<a xlink:href="a00003.html#a2eb8d02c398ddd7708260ec230ceafcc" target="_top" xlink:title="Plots Calibration curves.">
<polygon fill="white" stroke="red" points="172.5,-42 172.5,-66 315.5,-66 315.5,-42 172.5,-42"/>
<text text-anchor="middle" x="244" y="-51.2" font-family="Helvetica,sans-Serif" font-size="12.00">Displaying::plotElement</text>
</a>
</g>
<!-- Node1&#45;&gt;Node3 -->
<g id="edge4" class="edge"><title>Node1&#45;&gt;Node3</title>
<path fill="none" stroke="midnightblue" d="M134.488,-54C146.986,-54 159.971,-54 172.445,-54"/>
<polygon fill="midnightblue" stroke="midnightblue" points="134.125,-50.5001 124.125,-54 134.125,-57.5001 134.125,-50.5001"/>
</g>
<!-- Node4 -->
<g id="node7" class="node"><title>Node4</title>
<a xlink:href="a00009.html#aac066ac6d6c2c4d2391343af917c92b4" target="_top" xlink:title="Parsing Function.">
<polygon fill="white" stroke="black" points="178,-0 178,-24 310,-24 310,-0 178,-0"/>
<text text-anchor="middle" x="244" y="-9.2" font-family="Helvetica,sans-Serif" font-size="12.00">ParserOutCSV::parse</text>
</a>
</g>
<!-- Node1&#45;&gt;Node4 -->
<g id="edge6" class="edge"><title>Node1&#45;&gt;Node4</title>
<path fill="none" stroke="midnightblue" d="M124.084,-39.6729C146.131,-34.5851 170.705,-28.9143 191.838,-24.0373"/>
<polygon fill="midnightblue" stroke="midnightblue" points="123.111,-36.3054 114.154,-41.9645 124.685,-43.1262 123.111,-36.3054"/>
</g>
</g>
</svg>
