<?xml version="1.0" encoding="UTF-8" standalone="no"?>
<!DOCTYPE svg PUBLIC "-//W3C//DTD SVG 1.1//EN"
 "http://www.w3.org/Graphics/SVG/1.1/DTD/svg11.dtd">
<!-- Generated by graphviz version 2.26.3 (20100126.1600)
 -->
<!-- Title: Data::loadParser Pages: 1 -->
<svg width="282pt" height="74pt"
 viewBox="0.00 0.00 282.00 74.00" xmlns="http://www.w3.org/2000/svg" xmlns:xlink="http://www.w3.org/1999/xlink">
<g id="graph1" class="graph" transform="scale(1 1) rotate(0) translate(4 70)">
<title>Data::loadParser</title>
<polygon fill="white" stroke="white" points="-4,5 -4,-70 279,-70 279,5 -4,5"/>
<!-- Node1 -->
<g id="node1" class="node"><title>Node1</title>
<polygon fill="#bfbfbf" stroke="black" points="0.5,-21 0.5,-45 107.5,-45 107.5,-21 0.5,-21"/>
<text text-anchor="middle" x="54" y="-30.2" font-family="Helvetica,sans-Serif" font-size="12.00">Data::loadParser</text>
</g>
<!-- Node2 -->
<g id="node3" class="node"><title>Node2</title>
<a xlink:href="a00001.html#a68965449404743bf1add056784d6cf81" target="_top" xlink:title="Slot of clicking on proceed button.">
<polygon fill="white" stroke="red" points="159,-42 159,-66 259,-66 259,-42 159,-42"/>
<text text-anchor="middle" x="209" y="-51.2" font-family="Helvetica,sans-Serif" font-size="12.00">Application::run</text>
</a>
</g>
<!-- Node1&#45;&gt;Node2 -->
<g id="edge2" class="edge"><title>Node1&#45;&gt;Node2</title>
<path fill="none" stroke="midnightblue" d="M118.07,-41.6805C131.715,-43.5291 145.933,-45.4555 158.962,-47.2206"/>
<polygon fill="midnightblue" stroke="midnightblue" points="118.156,-38.1602 107.776,-40.2858 117.216,-45.0968 118.156,-38.1602"/>
</g>
<!-- Node3 -->
<g id="node5" class="node"><title>Node3</title>
<a xlink:href="a00001.html#ab7f9356b1eaa23c179500675d92a49d5" target="_top" xlink:title="Slot of clicking on open data file button.">
<polygon fill="white" stroke="red" points="144,-0 144,-24 274,-24 274,-0 144,-0"/>
<text text-anchor="middle" x="209" y="-9.2" font-family="Helvetica,sans-Serif" font-size="12.00">Application::openFile</text>
</a>
</g>
<!-- Node1&#45;&gt;Node3 -->
<g id="edge4" class="edge"><title>Node1&#45;&gt;Node3</title>
<path fill="none" stroke="midnightblue" d="M117.749,-24.363C126.359,-23.1966 135.202,-21.9985 143.835,-20.8287"/>
<polygon fill="midnightblue" stroke="midnightblue" points="117.216,-20.9032 107.776,-25.7142 118.156,-27.8398 117.216,-20.9032"/>
</g>
</g>
</svg>
