<?xml version="1.0" encoding="UTF-8" standalone="no"?>
<!DOCTYPE svg PUBLIC "-//W3C//DTD SVG 1.1//EN"
 "http://www.w3.org/Graphics/SVG/1.1/DTD/svg11.dtd">
<!-- Generated by graphviz version 2.26.3 (20100126.1600)
 -->
<!-- Title: Application::openFile Pages: 1 -->
<!--zoomable 629 -->
<svg id="main" version="1.1" xmlns="http://www.w3.org/2000/svg" xmlns:xlink="http://www.w3.org/1999/xlink" xml:space="preserve" onload="init(evt)">
        <defs>
                <circle id="rim" cx="0" cy="0" r="7"/>
                <circle id="rim2" cx="0" cy="0" r="3.5"/>
                <g id="zoomPlus">
                        <use xlink:href="#rim" fill="#404040">
                                <set attributeName="fill" to="#808080" begin="zoomplus.mouseover" end="zoomplus.mouseout"/>
                        </use>
                        <path d="M-4,0h8M0,-4v8" fill="none" stroke="white" stroke-width="1.5" pointer-events="none"/>
                </g>
                <g id="zoomMin">
                        <use xlink:href="#rim" fill="#404040">
                                <set attributeName="fill" to="#808080" begin="zoomminus.mouseover" end="zoomminus.mouseout"/>
                        </use>
                        <path d="M-4,0h8" fill="none" stroke="white" stroke-width="1.5" pointer-events="none"/>
                </g>
                <g id="dirArrow">
                        <path fill="none" stroke="white" stroke-width="1.5" d="M0,-3.0v7 M-2.5,-0.5L0,-3.0L2.5,-0.5"/>
                </g>
               <g id="resetDef">
                       <use xlink:href="#rim2" fill="#404040">
                               <set attributeName="fill" to="#808080" begin="reset.mouseover" end="reset.mouseout"/>
                       </use>
               </g>
        </defs>

<script type="text/javascript">
var viewWidth = 492;
var viewHeight = 629;
var sectionId = 'dynsection-19';
</script>
<script xlink:href="svgpan.js"/>
<svg id="graph" class="graph">
<g id="viewport">
<title>Application::openFile</title>
<polygon fill="white" stroke="white" points="-4,5 -4,-624.72 489,-624.72 489,5 -4,5"/>
<!-- Node1 -->
<g id="node1" class="node"><title>Node1</title>
<polygon fill="#bfbfbf" stroke="black" points="0,-307 0,-331 130,-331 130,-307 0,-307"/>
<text text-anchor="middle" x="65" y="-316.2" font-family="Helvetica,sans-Serif" font-size="12.00">Application::openFile</text>
</g>
<!-- Node2 -->
<g id="node3" class="node"><title>Node2</title>
<a xlink:href="a00002.html#a44b749f64ffa35e034f9503fdec4917e" target="_top" xlink:title="Clears data contain.">
<polygon fill="white" stroke="black" points="390,-573 390,-597 464,-597 464,-573 390,-573"/>
<text text-anchor="middle" x="427" y="-582.2" font-family="Helvetica,sans-Serif" font-size="12.00">Data::clear</text>
</a>
</g>
<!-- Node1&#45;&gt;Node2 -->
<g id="edge2" class="edge"><title>Node1&#45;&gt;Node2</title>
<path fill="none" stroke="midnightblue" d="M67.5704,-331.168C78.1632,-380.04 120.044,-560.961 166,-593 231.293,-638.519 329.79,-617.839 385.236,-600.351"/>
<polygon fill="midnightblue" stroke="midnightblue" points="386.651,-603.571 395.07,-597.14 384.478,-596.917 386.651,-603.571"/>
</g>
<!-- Node3 -->
<g id="node5" class="node"><title>Node3</title>
<a xlink:href="a00002.html#ab93d5c2184e3e548e970506dddfcb9eb" target="_top" xlink:title="Loads a specific parser used to proceed the Data.">
<polygon fill="white" stroke="black" points="196.5,-168 196.5,-192 303.5,-192 303.5,-168 196.5,-168"/>
<text text-anchor="middle" x="250" y="-177.2" font-family="Helvetica,sans-Serif" font-size="12.00">Data::loadParser</text>
</a>
</g>
<!-- Node1&#45;&gt;Node3 -->
<g id="edge4" class="edge"><title>Node1&#45;&gt;Node3</title>
<path fill="none" stroke="midnightblue" d="M72.5759,-306.823C87.5619,-283.731 123.268,-233.438 166,-206 172.27,-201.974 179.204,-198.538 186.319,-195.613"/>
<polygon fill="midnightblue" stroke="midnightblue" points="187.964,-198.734 196.089,-191.935 185.497,-192.183 187.964,-198.734"/>
</g>
<!-- Node4 -->
<g id="node7" class="node"><title>Node4</title>
<a xlink:href="a00002.html#a45e4e0eb52a1bcf3b2bdbd689fbd028a" target="_top" xlink:title="Data::executeParsing">
<polygon fill="white" stroke="red" points="184.5,-126 184.5,-150 315.5,-150 315.5,-126 184.5,-126"/>
<text text-anchor="middle" x="250" y="-135.2" font-family="Helvetica,sans-Serif" font-size="12.00">Data::executeParsing</text>
</a>
</g>
<!-- Node1&#45;&gt;Node4 -->
<g id="edge6" class="edge"><title>Node1&#45;&gt;Node4</title>
<path fill="none" stroke="midnightblue" d="M69.0886,-306.739C79.808,-276.56 111.708,-198.282 166,-159 168.889,-156.91 171.963,-155.027 175.164,-153.331"/>
<polygon fill="midnightblue" stroke="midnightblue" points="176.864,-156.401 184.471,-149.027 173.926,-150.047 176.864,-156.401"/>
</g>
<!-- Node5 -->
<g id="node9" class="node"><title>Node5</title>
<a xlink:href="a00002.html#a6fc1d983c7fa16eebd0d0b12cb505a30" target="_top" xlink:title="Copies data contain from the given parameter.">
<polygon fill="white" stroke="red" points="200.5,-450 200.5,-474 299.5,-474 299.5,-450 200.5,-450"/>
<text text-anchor="middle" x="250" y="-459.2" font-family="Helvetica,sans-Serif" font-size="12.00">Data::copyData</text>
</a>
</g>
<!-- Node1&#45;&gt;Node5 -->
<g id="edge8" class="edge"><title>Node1&#45;&gt;Node5</title>
<path fill="none" stroke="midnightblue" d="M71.5288,-331.23C85.4203,-356.021 120.399,-412.275 166,-441 173.485,-445.715 181.968,-449.372 190.595,-452.209"/>
<polygon fill="midnightblue" stroke="midnightblue" points="189.769,-455.614 200.35,-455.075 191.742,-448.898 189.769,-455.614"/>
</g>
<!-- Node6 -->
<g id="node12" class="node"><title>Node6</title>
<a xlink:href="a00002.html#acd1f2adc01b25ef7bded9b6d2b331278" target="_top" xlink:title="Gets the Number of elements.">
<polygon fill="white" stroke="black" points="383,-471 383,-495 471,-495 471,-471 383,-471"/>
<text text-anchor="middle" x="427" y="-480.2" font-family="Helvetica,sans-Serif" font-size="12.00">Data::isoSize</text>
</a>
</g>
<!-- Node1&#45;&gt;Node6 -->
<g id="edge22" class="edge"><title>Node1&#45;&gt;Node6</title>
<path fill="none" stroke="midnightblue" d="M65.5238,-331.168C68.057,-372.934 82.6729,-510.963 166,-567 227.959,-608.667 264.314,-593.812 334,-567 367.048,-554.285 395.663,-523.787 412.125,-503.255"/>
<polygon fill="midnightblue" stroke="midnightblue" points="415.051,-505.194 418.414,-495.147 409.52,-500.904 415.051,-505.194"/>
</g>
<!-- Node7 -->
<g id="node14" class="node"><title>Node7</title>
<a xlink:href="a00002.html#a84179b0c71fb3e69cfa177e92004ee79" target="_top" xlink:title="Gets the Number of Solutions.">
<polygon fill="white" stroke="black" points="370,-328 370,-352 484,-352 484,-328 370,-328"/>
<text text-anchor="middle" x="427" y="-337.2" font-family="Helvetica,sans-Serif" font-size="12.00">Data::solutionSize</text>
</a>
</g>
<!-- Node1&#45;&gt;Node7 -->
<g id="edge54" class="edge"><title>Node1&#45;&gt;Node7</title>
<path fill="none" stroke="midnightblue" d="M88.1642,-306.959C136.287,-283.705 249.617,-238.189 334,-277 356.336,-287.273 349.815,-304.965 370,-319 372.236,-320.555 374.602,-322.01 377.047,-323.369"/>
<polygon fill="midnightblue" stroke="midnightblue" points="375.651,-326.583 386.166,-327.881 378.755,-320.309 375.651,-326.583"/>
</g>
<!-- Node8 -->
<g id="node16" class="node"><title>Node8</title>
<a xlink:href="a00002.html#a7b1a07606090591e7fffb48be72bd734" target="_top" xlink:title="Gets a solution identified by its Id.">
<polygon fill="white" stroke="black" points="372.5,-408 372.5,-432 481.5,-432 481.5,-408 372.5,-408"/>
<text text-anchor="middle" x="427" y="-417.2" font-family="Helvetica,sans-Serif" font-size="12.00">Data::getSolution</text>
</a>
</g>
<!-- Node1&#45;&gt;Node8 -->
<g id="edge56" class="edge"><title>Node1&#45;&gt;Node8</title>
<path fill="none" stroke="midnightblue" d="M90.6998,-331.13C110.844,-340.282 139.761,-352.647 166,-361 166.601,-361.191 286.548,-388.286 363.607,-405.687"/>
<polygon fill="midnightblue" stroke="midnightblue" points="363.187,-409.18 373.712,-407.969 364.729,-402.352 363.187,-409.18"/>
</g>
<!-- Node9 -->
<g id="node18" class="node"><title>Node9</title>
<a xlink:href="a00013.html#a7e480d4e590046701d82e74491ff944a" target="_top" xlink:title="Gets type of the solution.">
<polygon fill="white" stroke="black" points="372,-286 372,-310 482,-310 482,-286 372,-286"/>
<text text-anchor="middle" x="427" y="-295.2" font-family="Helvetica,sans-Serif" font-size="12.00">Solution::getType</text>
</a>
</g>
<!-- Node1&#45;&gt;Node9 -->
<g id="edge58" class="edge"><title>Node1&#45;&gt;Node9</title>
<path fill="none" stroke="midnightblue" d="M78.8448,-306.987C97.2694,-291.876 131.547,-266.731 166,-257 237.856,-236.705 260.937,-241.609 334,-257 356.144,-261.665 379.442,-271.946 397.179,-281.045"/>
<polygon fill="midnightblue" stroke="midnightblue" points="395.943,-284.351 406.419,-285.935 399.218,-278.164 395.943,-284.351"/>
</g>
<!-- Node10 -->
<g id="node20" class="node"><title>Node10</title>
<a xlink:href="a00010.html#a32858e1454e64b27cce64ef1d4fa2f39" target="_top" xlink:title="Initializes Processing contain.">
<polygon fill="white" stroke="black" points="201,-84 201,-108 299,-108 299,-84 201,-84"/>
<text text-anchor="middle" x="250" y="-93.2" font-family="Helvetica,sans-Serif" font-size="12.00">Processing::init</text>
</a>
</g>
<!-- Node1&#45;&gt;Node10 -->
<g id="edge20" class="edge"><title>Node1&#45;&gt;Node10</title>
<path fill="none" stroke="midnightblue" d="M67.3899,-306.768C74.9541,-271.444 101.772,-168.521 166,-117 173.319,-111.129 182.064,-106.872 191.103,-103.792"/>
<polygon fill="midnightblue" stroke="midnightblue" points="192.366,-107.068 200.973,-100.89 190.392,-100.352 192.366,-107.068"/>
</g>
<!-- Node11 -->
<g id="node23" class="node"><title>Node11</title>
<a xlink:href="a00003.html#a30730fad4ea063bd1a253de59a279ecc" target="_top" xlink:title="displays input data on the input Table">
<polygon fill="white" stroke="red" points="170.5,-534 170.5,-558 329.5,-558 329.5,-534 170.5,-534"/>
<text text-anchor="middle" x="250" y="-543.2" font-family="Helvetica,sans-Serif" font-size="12.00">Displaying::dispTableInput</text>
</a>
</g>
<!-- Node1&#45;&gt;Node11 -->
<g id="edge24" class="edge"><title>Node1&#45;&gt;Node11</title>
<path fill="none" stroke="midnightblue" d="M67.2588,-331.213C74.5362,-366.979 100.803,-472.282 166,-525 167.757,-526.421 169.597,-527.747 171.505,-528.985"/>
<polygon fill="midnightblue" stroke="midnightblue" points="169.814,-532.05 180.252,-533.867 173.226,-525.937 169.814,-532.05"/>
</g>
<!-- Node12 -->
<g id="node27" class="node"><title>Node12</title>
<a xlink:href="a00003.html#a773c819165ab712b4fd073ddddcd8695" target="_top" xlink:title="display output data on the output Table">
<polygon fill="white" stroke="red" points="166,-492 166,-516 334,-516 334,-492 166,-492"/>
<text text-anchor="middle" x="250" y="-501.2" font-family="Helvetica,sans-Serif" font-size="12.00">Displaying::dispTableOutput</text>
</a>
</g>
<!-- Node1&#45;&gt;Node12 -->
<g id="edge30" class="edge"><title>Node1&#45;&gt;Node12</title>
<path fill="none" stroke="midnightblue" d="M68.8426,-331.112C79.1949,-361.702 110.687,-442.51 166,-483 168.123,-484.554 170.348,-485.993 172.651,-487.327"/>
<polygon fill="midnightblue" stroke="midnightblue" points="171.367,-490.599 181.874,-491.963 174.511,-484.345 171.367,-490.599"/>
</g>
<!-- Node13 -->
<g id="node31" class="node"><title>Node13</title>
<a xlink:href="a00003.html#a5948e8f752a67b250665cee57abdadb2" target="_top" xlink:title="Generates lists : of Elements, HR&#45;MR&#45;LR Elements and Blanks.">
<polygon fill="white" stroke="red" points="178.5,-328 178.5,-352 321.5,-352 321.5,-328 178.5,-328"/>
<text text-anchor="middle" x="250" y="-337.2" font-family="Helvetica,sans-Serif" font-size="12.00">Displaying::displayLists</text>
</a>
</g>
<!-- Node1&#45;&gt;Node13 -->
<g id="edge36" class="edge"><title>Node1&#45;&gt;Node13</title>
<path fill="none" stroke="midnightblue" d="M130.224,-326.404C142.537,-327.801 155.558,-329.28 168.301,-330.726"/>
<polygon fill="midnightblue" stroke="midnightblue" points="168.112,-334.227 178.443,-331.877 168.902,-327.272 168.112,-334.227"/>
</g>
<!-- Node14 -->
<g id="node37" class="node"><title>Node14</title>
<a xlink:href="a00003.html#a5a779d21b88a5d08e8989d401acad7b8" target="_top" xlink:title="Generates list of solutions.">
<polygon fill="white" stroke="red" points="166,-286 166,-310 334,-310 334,-286 166,-286"/>
<text text-anchor="middle" x="250" y="-295.2" font-family="Helvetica,sans-Serif" font-size="12.00">Displaying::displaySolutions</text>
</a>
</g>
<!-- Node1&#45;&gt;Node14 -->
<g id="edge46" class="edge"><title>Node1&#45;&gt;Node14</title>
<path fill="none" stroke="midnightblue" d="M130.224,-311.596C138.524,-310.654 147.145,-309.675 155.786,-308.695"/>
<polygon fill="midnightblue" stroke="midnightblue" points="156.38,-312.15 165.921,-307.544 155.59,-305.194 156.38,-312.15"/>
</g>
<!-- Node15 -->
<g id="node45" class="node"><title>Node15</title>
<a xlink:href="a00002.html#a6ff99fcec4f0387958fff773969de591" target="_top" xlink:title="Adds a calculated Blank Solution.">
<polygon fill="white" stroke="red" points="193,-408 193,-432 307,-432 307,-408 193,-408"/>
<text text-anchor="middle" x="250" y="-417.2" font-family="Helvetica,sans-Serif" font-size="12.00">Data::addBLKmoy</text>
</a>
</g>
<!-- Node1&#45;&gt;Node15 -->
<g id="edge60" class="edge"><title>Node1&#45;&gt;Node15</title>
<path fill="none" stroke="midnightblue" d="M78.0691,-331.022C96.4398,-347.353 131.524,-376.511 166,-394 173.913,-398.014 182.564,-401.546 191.208,-404.607"/>
<polygon fill="midnightblue" stroke="midnightblue" points="190.332,-408.005 200.926,-407.865 192.557,-401.368 190.332,-408.005"/>
</g>
<!-- Node16 -->
<g id="node50" class="node"><title>Node16</title>
<a xlink:href="a00001.html#a4d6d25052b873ecee1553e83881a7fca" target="_top" xlink:title="Slot to change Internal standards selection.">
<polygon fill="white" stroke="black" points="174,-42 174,-66 326,-66 326,-42 174,-42"/>
<text text-anchor="middle" x="250" y="-51.2" font-family="Helvetica,sans-Serif" font-size="12.00">Application::listISChange</text>
</a>
</g>
<!-- Node1&#45;&gt;Node16 -->
<g id="edge68" class="edge"><title>Node1&#45;&gt;Node16</title>
<path fill="none" stroke="midnightblue" d="M66.2309,-306.906C70.9466,-267.126 91.5279,-139.226 166,-75 167.537,-73.6747 169.145,-72.4307 170.813,-71.2632"/>
<polygon fill="midnightblue" stroke="midnightblue" points="172.79,-74.16 179.596,-66.0406 169.212,-68.1434 172.79,-74.16"/>
</g>
<!-- Node17 -->
<g id="node52" class="node"><title>Node17</title>
<a xlink:href="a00001.html#a9c0b6e60ede4b6f2c60abe874f351994" target="_top" xlink:title="Slot of choosing Internal standard plot plot to diplay.">
<polygon fill="white" stroke="red" points="177,-0 177,-24 323,-24 323,-0 177,-0"/>
<text text-anchor="middle" x="250" y="-9.2" font-family="Helvetica,sans-Serif" font-size="12.00">Application::onISChoice</text>
</a>
</g>
<!-- Node1&#45;&gt;Node17 -->
<g id="edge70" class="edge"><title>Node1&#45;&gt;Node17</title>
<path fill="none" stroke="midnightblue" d="M65.4175,-306.769C67.6122,-262.626 81.2796,-110.07 166,-33 167.338,-31.783 168.735,-30.634 170.184,-29.5493"/>
<polygon fill="midnightblue" stroke="midnightblue" points="172.382,-32.3018 178.982,-24.0142 168.654,-26.3768 172.382,-32.3018"/>
</g>
<!-- Node5&#45;&gt;Node2 -->
<g id="edge10" class="edge"><title>Node5&#45;&gt;Node2</title>
<path fill="none" stroke="midnightblue" d="M299.877,-469.388C311.599,-472.473 323.675,-476.835 334,-483 368.512,-503.606 397.724,-540.998 413.765,-564.333"/>
<polygon fill="midnightblue" stroke="midnightblue" points="410.968,-566.447 419.438,-572.811 416.785,-562.554 410.968,-566.447"/>
</g>
<!-- Node5&#45;&gt;Node6 -->
<g id="edge12" class="edge"><title>Node5&#45;&gt;Node6</title>
<path fill="none" stroke="midnightblue" d="M299.775,-467.906C322.488,-470.6 349.44,-473.798 372.677,-476.555"/>
<polygon fill="midnightblue" stroke="midnightblue" points="372.381,-480.044 382.723,-477.747 373.205,-473.093 372.381,-480.044"/>
</g>
<!-- Node5&#45;&gt;Node7 -->
<g id="edge14" class="edge"><title>Node5&#45;&gt;Node7</title>
<path fill="none" stroke="midnightblue" d="M299.573,-454.951C311.43,-451.854 323.642,-447.401 334,-441 354.914,-428.075 353.452,-417.182 370,-399 382.307,-385.478 396.604,-370.681 407.801,-359.288"/>
<polygon fill="midnightblue" stroke="midnightblue" points="410.46,-361.577 414.995,-352.002 405.479,-356.659 410.46,-361.577"/>
</g>
<!-- Node5&#45;&gt;Node8 -->
<g id="edge16" class="edge"><title>Node5&#45;&gt;Node8</title>
<path fill="none" stroke="midnightblue" d="M299.775,-450.189C320.524,-445.265 344.811,-439.503 366.571,-434.339"/>
<polygon fill="midnightblue" stroke="midnightblue" points="367.448,-437.728 376.37,-432.014 365.832,-430.917 367.448,-437.728"/>
</g>
<!-- Node5&#45;&gt;Node9 -->
<g id="edge18" class="edge"><title>Node5&#45;&gt;Node9</title>
<path fill="none" stroke="midnightblue" d="M299.586,-458.354C312.128,-455.253 324.669,-449.947 334,-441 374.805,-401.872 331.366,-360.273 370,-319 371.036,-317.893 372.135,-316.845 373.288,-315.851"/>
<polygon fill="midnightblue" stroke="midnightblue" points="375.371,-318.665 381.552,-310.06 371.354,-312.932 375.371,-318.665"/>
</g>
<!-- Node11&#45;&gt;Node6 -->
<g id="edge26" class="edge"><title>Node11&#45;&gt;Node6</title>
<path fill="none" stroke="midnightblue" d="M304.195,-533.97C314.2,-531.322 324.487,-528.307 334,-525 354.472,-517.883 376.618,-507.976 394.161,-499.571"/>
<polygon fill="midnightblue" stroke="midnightblue" points="395.93,-502.603 403.394,-495.083 392.87,-496.307 395.93,-502.603"/>
</g>
<!-- Node11&#45;&gt;Node8 -->
<g id="edge28" class="edge"><title>Node11&#45;&gt;Node8</title>
<path fill="none" stroke="midnightblue" d="M318.672,-533.944C324.128,-531.489 329.327,-528.54 334,-525 359.706,-505.527 348.555,-486.086 370,-462 378.073,-452.933 388.401,-444.61 398.042,-437.808"/>
<polygon fill="midnightblue" stroke="midnightblue" points="400.295,-440.51 406.619,-432.01 396.374,-434.711 400.295,-440.51"/>
</g>
<!-- Node12&#45;&gt;Node6 -->
<g id="edge32" class="edge"><title>Node12&#45;&gt;Node6</title>
<path fill="none" stroke="midnightblue" d="M334.094,-494.023C347.195,-492.468 360.425,-490.899 372.631,-489.451"/>
<polygon fill="midnightblue" stroke="midnightblue" points="373.101,-492.919 382.619,-488.266 372.276,-485.968 373.101,-492.919"/>
</g>
<!-- Node12&#45;&gt;Node8 -->
<g id="edge34" class="edge"><title>Node12&#45;&gt;Node8</title>
<path fill="none" stroke="midnightblue" d="M309.18,-491.996C317.673,-489.475 326.177,-486.495 334,-483 348.052,-476.722 380.128,-454.237 402.662,-437.916"/>
<polygon fill="midnightblue" stroke="midnightblue" points="404.75,-440.726 410.774,-432.01 400.629,-435.067 404.75,-440.726"/>
</g>
<!-- Node13&#45;&gt;Node6 -->
<g id="edge38" class="edge"><title>Node13&#45;&gt;Node6</title>
<path fill="none" stroke="midnightblue" d="M270.049,-352.066C287.752,-363.176 313.814,-380.67 334,-399 352.201,-415.528 351.988,-424.267 370,-441 379.264,-449.606 390.286,-458.077 400.158,-465.133"/>
<polygon fill="midnightblue" stroke="midnightblue" points="398.262,-468.077 408.464,-470.936 402.271,-462.339 398.262,-468.077"/>
</g>
<!-- Node13&#45;&gt;Node7 -->
<g id="edge40" class="edge"><title>Node13&#45;&gt;Node7</title>
<path fill="none" stroke="midnightblue" d="M321.738,-340C334.24,-340 347.206,-340 359.587,-340"/>
<polygon fill="midnightblue" stroke="midnightblue" points="359.827,-343.5 369.827,-340 359.827,-336.5 359.827,-343.5"/>
</g>
<!-- Node13&#45;&gt;Node8 -->
<g id="edge42" class="edge"><title>Node13&#45;&gt;Node8</title>
<path fill="none" stroke="midnightblue" d="M295.586,-352.061C308.238,-355.957 321.836,-360.668 334,-366 357.298,-376.213 382.14,-390.851 400.283,-402.311"/>
<polygon fill="midnightblue" stroke="midnightblue" points="398.809,-405.523 409.116,-407.974 402.587,-399.63 398.809,-405.523"/>
</g>
<!-- Node13&#45;&gt;Node9 -->
<g id="edge44" class="edge"><title>Node13&#45;&gt;Node9</title>
<path fill="none" stroke="midnightblue" d="M300.721,-327.964C321.181,-323.11 344.957,-317.468 366.324,-312.398"/>
<polygon fill="midnightblue" stroke="midnightblue" points="367.35,-315.752 376.271,-310.037 365.734,-308.941 367.35,-315.752"/>
</g>
<!-- Node14&#45;&gt;Node7 -->
<g id="edge48" class="edge"><title>Node14&#45;&gt;Node7</title>
<path fill="none" stroke="midnightblue" d="M300.721,-310.036C321.181,-314.89 344.957,-320.532 366.324,-325.602"/>
<polygon fill="midnightblue" stroke="midnightblue" points="365.734,-329.059 376.271,-327.963 367.35,-322.248 365.734,-329.059"/>
</g>
<!-- Node14&#45;&gt;Node8 -->
<g id="edge50" class="edge"><title>Node14&#45;&gt;Node8</title>
<path fill="none" stroke="midnightblue" d="M315.399,-310.034C321.919,-312.489 328.246,-315.444 334,-319 354.914,-331.925 353.452,-342.818 370,-361 382.307,-374.522 396.604,-389.319 407.801,-400.712"/>
<polygon fill="midnightblue" stroke="midnightblue" points="405.479,-403.341 414.995,-407.998 410.46,-398.423 405.479,-403.341"/>
</g>
<!-- Node14&#45;&gt;Node9 -->
<g id="edge52" class="edge"><title>Node14&#45;&gt;Node9</title>
<path fill="none" stroke="midnightblue" d="M334.094,-298C343.426,-298 352.824,-298 361.871,-298"/>
<polygon fill="midnightblue" stroke="midnightblue" points="361.913,-301.5 371.913,-298 361.913,-294.5 361.913,-301.5"/>
</g>
<!-- Node15&#45;&gt;Node6 -->
<g id="edge62" class="edge"><title>Node15&#45;&gt;Node6</title>
<path fill="none" stroke="midnightblue" d="M304.195,-432.03C314.2,-434.678 324.487,-437.693 334,-441 354.472,-448.117 376.618,-458.024 394.161,-466.429"/>
<polygon fill="midnightblue" stroke="midnightblue" points="392.87,-469.693 403.394,-470.917 395.93,-463.397 392.87,-469.693"/>
</g>
<!-- Node15&#45;&gt;Node7 -->
<g id="edge64" class="edge"><title>Node15&#45;&gt;Node7</title>
<path fill="none" stroke="midnightblue" d="M276.882,-407.85C307.338,-394.085 357.119,-371.584 390.932,-356.302"/>
<polygon fill="midnightblue" stroke="midnightblue" points="392.774,-359.311 400.444,-352.002 389.89,-352.932 392.774,-359.311"/>
</g>
<!-- Node15&#45;&gt;Node8 -->
<g id="edge66" class="edge"><title>Node15&#45;&gt;Node8</title>
<path fill="none" stroke="midnightblue" d="M307.467,-420C324.931,-420 344.241,-420 362.155,-420"/>
<polygon fill="midnightblue" stroke="midnightblue" points="362.229,-423.5 372.229,-420 362.229,-416.5 362.229,-423.5"/>
</g>
</g>
</svg>
        <g id="navigator" transform="translate(0 0)" fill="#404254">
                <rect fill="#f2f5e9" fill-opacity="0.5" stroke="#606060" stroke-width=".5" x="0" y="0" width="60" height="60"/>
                <use id="zoomplus" xlink:href="#zoomPlus" x="17" y="9" onmousedown="handleZoom(evt,'in')"/>
                <use id="zoomminus" xlink:href="#zoomMin" x="42" y="9" onmousedown="handleZoom(evt,'out')"/>
                <use id="reset" xlink:href="#resetDef" x="30" y="36" onmousedown="handleReset()"/>
                <g id="arrowUp" xlink:href="#dirArrow" transform="translate(30 24)" onmousedown="handlePan(0,-1)">
                  <use xlink:href="#rim" fill="#404040">
                        <set attributeName="fill" to="#808080" begin="arrowUp.mouseover" end="arrowUp.mouseout"/>
                  </use>
                  <path fill="none" stroke="white" stroke-width="1.5" d="M0,-3.0v7 M-2.5,-0.5L0,-3.0L2.5,-0.5"/>
                </g>
                <g id="arrowRight" xlink:href="#dirArrow" transform="rotate(90) translate(36 -43)" onmousedown="handlePan(1,0)">
                  <use xlink:href="#rim" fill="#404040">
                        <set attributeName="fill" to="#808080" begin="arrowRight.mouseover" end="arrowRight.mouseout"/>
                  </use>
                  <path fill="none" stroke="white" stroke-width="1.5" d="M0,-3.0v7 M-2.5,-0.5L0,-3.0L2.5,-0.5"/>
                </g>
                <g id="arrowDown" xlink:href="#dirArrow" transform="rotate(180) translate(-30 -48)" onmousedown="handlePan(0,1)">
                  <use xlink:href="#rim" fill="#404040">
                        <set attributeName="fill" to="#808080" begin="arrowDown.mouseover" end="arrowDown.mouseout"/>
                  </use>
                  <path fill="none" stroke="white" stroke-width="1.5" d="M0,-3.0v7 M-2.5,-0.5L0,-3.0L2.5,-0.5"/>
                </g>
                <g id="arrowLeft" xlink:href="#dirArrow" transform="rotate(270) translate(-36 17)" onmousedown="handlePan(-1,0)">
                  <use xlink:href="#rim" fill="#404040">
                        <set attributeName="fill" to="#808080" begin="arrowLeft.mouseover" end="arrowLeft.mouseout"/>
                  </use>
                  <path fill="none" stroke="white" stroke-width="1.5" d="M0,-3.0v7 M-2.5,-0.5L0,-3.0L2.5,-0.5"/>
                </g>
        </g>
        <svg viewBox="0 0 15 15" width="100%" height="30px" preserveAspectRatio="xMaxYMin meet">
         <g id="arrow_out" transform="scale(0.3 0.3)">
          <a xlink:href="a00001_ab7f9356b1eaa23c179500675d92a49d5_cgraph_org.svg" target="_base">
           <rect id="button" ry="5" rx="5" y="6" x="6" height="38" width="38"
                fill="#f2f5e9" fill-opacity="0.5" stroke="#606060" stroke-width="1.0"/>
           <path id="arrow"
             d="M 11.500037,31.436501 C 11.940474,20.09759 22.043105,11.32322 32.158766,21.979434 L 37.068811,17.246167 C 37.068811,17.246167 37.088388,32 37.088388,32 L 22.160133,31.978069 C 22.160133,31.978069 26.997745,27.140456 26.997745,27.140456 C 18.528582,18.264221 13.291696,25.230495 11.500037,31.436501 z"
             style="fill:#404040;"/>
          </a>
         </g>
        </svg>
</svg>
