<?xml version="1.0" encoding="UTF-8" standalone="no"?>
<!DOCTYPE svg PUBLIC "-//W3C//DTD SVG 1.1//EN"
 "http://www.w3.org/Graphics/SVG/1.1/DTD/svg11.dtd">
<!-- Generated by graphviz version 2.26.3 (20100126.1600)
 -->
<!-- Title: ParserInCSV::parse Pages: 1 -->
<svg width="290pt" height="326pt"
 viewBox="0.00 0.00 290.00 326.00" xmlns="http://www.w3.org/2000/svg" xmlns:xlink="http://www.w3.org/1999/xlink">
<g id="graph1" class="graph" transform="scale(1 1) rotate(0) translate(4 322)">
<title>ParserInCSV::parse</title>
<polygon fill="white" stroke="white" points="-4,5 -4,-322 287,-322 287,5 -4,5"/>
<!-- Node1 -->
<g id="node1" class="node"><title>Node1</title>
<polygon fill="#bfbfbf" stroke="black" points="0.5,-147 0.5,-171 123.5,-171 123.5,-147 0.5,-147"/>
<text text-anchor="middle" x="62" y="-156.2" font-family="Helvetica,sans-Serif" font-size="12.00">ParserInCSV::parse</text>
</g>
<!-- Node2 -->
<g id="node3" class="node"><title>Node2</title>
<a xlink:href="a00002.html#a7f13913683ead8b0702121ac494f1598" target="_top" xlink:title="Add a solution to the data set.">
<polygon fill="white" stroke="red" points="164.5,-294 164.5,-318 277.5,-318 277.5,-294 164.5,-294"/>
<text text-anchor="middle" x="221" y="-303.2" font-family="Helvetica,sans-Serif" font-size="12.00">Data::addSolution</text>
</a>
</g>
<!-- Node1&#45;&gt;Node2 -->
<g id="edge2" class="edge"><title>Node1&#45;&gt;Node2</title>
<path fill="none" stroke="midnightblue" d="M68.3448,-171.314C81.8418,-196.334 115.813,-253.411 160,-285 162.229,-286.594 164.59,-288.075 167.036,-289.45"/>
<polygon fill="midnightblue" stroke="midnightblue" points="165.673,-292.68 176.188,-293.979 168.778,-286.407 165.673,-292.68"/>
</g>
<!-- Node3 -->
<g id="node5" class="node"><title>Node3</title>
<a xlink:href="a00002.html#a386e9b359ac336356d6bdf0c1d7c4f37" target="_top" xlink:title="Adds an element to the data set.">
<polygon fill="white" stroke="red" points="179,-252 179,-276 263,-276 263,-252 179,-252"/>
<text text-anchor="middle" x="221" y="-261.2" font-family="Helvetica,sans-Serif" font-size="12.00">Data::addIso</text>
</a>
</g>
<!-- Node1&#45;&gt;Node3 -->
<g id="edge4" class="edge"><title>Node1&#45;&gt;Node3</title>
<path fill="none" stroke="midnightblue" d="M73.2428,-171.215C90.3875,-189.199 124.803,-222.844 160,-243 163.057,-244.751 166.284,-246.388 169.592,-247.914"/>
<polygon fill="midnightblue" stroke="midnightblue" points="168.486,-251.246 179.06,-251.919 171.213,-244.799 168.486,-251.246"/>
</g>
<!-- Node4 -->
<g id="node7" class="node"><title>Node4</title>
<a xlink:href="a00002.html#a4baa9866aaea800c81e4502b9483e4ec" target="_top" xlink:title="Gets an element identified by its Id.">
<polygon fill="white" stroke="black" points="181,-210 181,-234 261,-234 261,-210 181,-210"/>
<text text-anchor="middle" x="221" y="-219.2" font-family="Helvetica,sans-Serif" font-size="12.00">Data::getIso</text>
</a>
</g>
<!-- Node1&#45;&gt;Node4 -->
<g id="edge6" class="edge"><title>Node1&#45;&gt;Node4</title>
<path fill="none" stroke="midnightblue" d="M88.8193,-171.124C108.393,-179.818 135.65,-191.605 160,-201 164.839,-202.867 169.924,-204.746 175.007,-206.571"/>
<polygon fill="midnightblue" stroke="midnightblue" points="174.12,-209.97 184.715,-209.998 176.45,-203.369 174.12,-209.97"/>
</g>
<!-- Node5 -->
<g id="node9" class="node"><title>Node5</title>
<a xlink:href="a00005.html#a82faf6c27cd36339a0a12cae9beb89af" target="_top" xlink:title="Gets the complete Name of the istope, used to display the element to HCI.">
<polygon fill="white" stroke="red" points="163,-168 163,-192 279,-192 279,-168 163,-168"/>
<text text-anchor="middle" x="221" y="-177.2" font-family="Helvetica,sans-Serif" font-size="12.00">Element::getName</text>
</a>
</g>
<!-- Node1&#45;&gt;Node5 -->
<g id="edge8" class="edge"><title>Node1&#45;&gt;Node5</title>
<path fill="none" stroke="midnightblue" d="M123.929,-167.179C133.442,-168.436 143.309,-169.739 152.946,-171.012"/>
<polygon fill="midnightblue" stroke="midnightblue" points="152.51,-174.484 162.882,-172.324 153.426,-167.545 152.51,-174.484"/>
</g>
<!-- Node6 -->
<g id="node11" class="node"><title>Node6</title>
<a xlink:href="a00002.html#a7b1a07606090591e7fffb48be72bd734" target="_top" xlink:title="Gets a solution identified by its Id.">
<polygon fill="white" stroke="black" points="166.5,-126 166.5,-150 275.5,-150 275.5,-126 166.5,-126"/>
<text text-anchor="middle" x="221" y="-135.2" font-family="Helvetica,sans-Serif" font-size="12.00">Data::getSolution</text>
</a>
</g>
<!-- Node1&#45;&gt;Node6 -->
<g id="edge10" class="edge"><title>Node1&#45;&gt;Node6</title>
<path fill="none" stroke="midnightblue" d="M123.929,-150.821C134.567,-149.416 145.648,-147.952 156.356,-146.538"/>
<polygon fill="midnightblue" stroke="midnightblue" points="157.025,-149.98 166.481,-145.201 156.109,-143.04 157.025,-149.98"/>
</g>
<!-- Node7 -->
<g id="node13" class="node"><title>Node7</title>
<a xlink:href="a00013.html#a6c810986de58b492514e08849cb0a498" target="_top" xlink:title="Sets Intensity.">
<polygon fill="white" stroke="black" points="169,-84 169,-108 273,-108 273,-84 169,-84"/>
<text text-anchor="middle" x="221" y="-93.2" font-family="Helvetica,sans-Serif" font-size="12.00">Solution::setCps</text>
</a>
</g>
<!-- Node1&#45;&gt;Node7 -->
<g id="edge12" class="edge"><title>Node1&#45;&gt;Node7</title>
<path fill="none" stroke="midnightblue" d="M88.8193,-146.876C108.393,-138.182 135.65,-126.395 160,-117 164.839,-115.133 169.924,-113.254 175.007,-111.429"/>
<polygon fill="midnightblue" stroke="midnightblue" points="176.45,-114.631 184.715,-108.002 174.12,-108.03 176.45,-114.631"/>
</g>
<!-- Node8 -->
<g id="node15" class="node"><title>Node8</title>
<a xlink:href="a00013.html#a6cb75c8a1aa020796506362920216816" target="_top" xlink:title="Gets Intensity.">
<polygon fill="white" stroke="black" points="168.5,-42 168.5,-66 273.5,-66 273.5,-42 168.5,-42"/>
<text text-anchor="middle" x="221" y="-51.2" font-family="Helvetica,sans-Serif" font-size="12.00">Solution::getCps</text>
</a>
</g>
<!-- Node1&#45;&gt;Node8 -->
<g id="edge14" class="edge"><title>Node1&#45;&gt;Node8</title>
<path fill="none" stroke="midnightblue" d="M73.2428,-146.785C90.3875,-128.801 124.803,-95.1564 160,-75 163.057,-73.2493 166.284,-71.6118 169.592,-70.0861"/>
<polygon fill="midnightblue" stroke="midnightblue" points="171.213,-73.2006 179.06,-66.0812 168.486,-66.7537 171.213,-73.2006"/>
</g>
<!-- Node9 -->
<g id="node17" class="node"><title>Node9</title>
<a xlink:href="a00013.html#a000b5c9d708b22de23d918a3a3214635" target="_top" xlink:title="Sets Intensity Standard Deviation.">
<polygon fill="white" stroke="black" points="160,-0 160,-24 282,-24 282,-0 160,-0"/>
<text text-anchor="middle" x="221" y="-9.2" font-family="Helvetica,sans-Serif" font-size="12.00">Solution::setCpsSD</text>
</a>
</g>
<!-- Node1&#45;&gt;Node9 -->
<g id="edge16" class="edge"><title>Node1&#45;&gt;Node9</title>
<path fill="none" stroke="midnightblue" d="M68.3448,-146.686C81.8418,-121.666 115.813,-64.5888 160,-33 162.229,-31.4062 164.59,-29.9252 167.036,-28.55"/>
<polygon fill="midnightblue" stroke="midnightblue" points="168.778,-31.5934 176.188,-24.021 165.673,-25.3197 168.778,-31.5934"/>
</g>
</g>
</svg>
