<?xml version="1.0" encoding="UTF-8" standalone="no"?>
<!DOCTYPE svg PUBLIC "-//W3C//DTD SVG 1.1//EN"
 "http://www.w3.org/Graphics/SVG/1.1/DTD/svg11.dtd">
<!-- Generated by graphviz version 2.26.3 (20100126.1600)
 -->
<!-- Title: application.h Pages: 1 -->
<svg width="188pt" height="96pt"
 viewBox="0.00 0.00 188.00 96.00" xmlns="http://www.w3.org/2000/svg" xmlns:xlink="http://www.w3.org/1999/xlink">
<g id="graph1" class="graph" transform="scale(1 1) rotate(0) translate(4 92)">
<title>application.h</title>
<polygon fill="white" stroke="white" points="-4,5 -4,-92 185,-92 185,5 -4,5"/>
<!-- Node1 -->
<g id="node1" class="node"><title>Node1</title>
<polygon fill="#bfbfbf" stroke="black" points="55.5,-63 55.5,-87 140.5,-87 140.5,-63 55.5,-63"/>
<text text-anchor="middle" x="98" y="-72.2" font-family="Helvetica,sans-Serif" font-size="12.00">application.h</text>
</g>
<!-- Node2 -->
<g id="node3" class="node"><title>Node2</title>
<a xlink:href="a00014.html" target="_top" target="_top" xlink:title="application.cpp">
<polygon fill="white" stroke="black" points="0,-1 0,-25 98,-25 98,-1 0,-1"/>
<text text-anchor="middle" x="49" y="-10.2" font-family="Helvetica,sans-Serif" font-size="12.00">application.cpp</text>
</a>
</g>
<!-- Node1&#45;&gt;Node2 -->
<g id="edge2" class="edge"><title>Node1&#45;&gt;Node2</title>
<path fill="none" stroke="midnightblue" d="M81.9715,-54.719C74.2722,-44.9771 65.3001,-33.6246 58.6607,-25.2238"/>
<polygon fill="midnightblue" stroke="midnightblue" points="79.3726,-57.0754 88.3192,-62.7508 84.8646,-52.735 79.3726,-57.0754"/>
</g>
<!-- Node3 -->
<g id="node5" class="node"><title>Node3</title>
<a xlink:href="a00025.html" target="_top" target="_top" xlink:title="main.cpp">
<polygon fill="white" stroke="black" points="115.5,-1 115.5,-25 180.5,-25 180.5,-1 115.5,-1"/>
<text text-anchor="middle" x="148" y="-10.2" font-family="Helvetica,sans-Serif" font-size="12.00">main.cpp</text>
</a>
</g>
<!-- Node1&#45;&gt;Node3 -->
<g id="edge4" class="edge"><title>Node1&#45;&gt;Node3</title>
<path fill="none" stroke="midnightblue" d="M114.356,-54.719C122.212,-44.9771 131.367,-33.6246 138.142,-25.2238"/>
<polygon fill="midnightblue" stroke="midnightblue" points="111.431,-52.7695 107.878,-62.7508 116.88,-57.1638 111.431,-52.7695"/>
</g>
</g>
</svg>
