<?xml version="1.0" encoding="UTF-8" standalone="no"?>
<!DOCTYPE svg PUBLIC "-//W3C//DTD SVG 1.1//EN"
 "http://www.w3.org/Graphics/SVG/1.1/DTD/svg11.dtd">
<!-- Generated by graphviz version 2.26.3 (20100126.1600)
 -->
<!-- Title: Data::copyData Pages: 1 -->
<svg width="274pt" height="74pt"
 viewBox="0.00 0.00 274.00 74.00" xmlns="http://www.w3.org/2000/svg" xmlns:xlink="http://www.w3.org/1999/xlink">
<g id="graph1" class="graph" transform="scale(1 1) rotate(0) translate(4 70)">
<title>Data::copyData</title>
<polygon fill="white" stroke="white" points="-4,5 -4,-70 271,-70 271,5 -4,5"/>
<!-- Node1 -->
<g id="node1" class="node"><title>Node1</title>
<polygon fill="#bfbfbf" stroke="black" points="0.5,-21 0.5,-45 99.5,-45 99.5,-21 0.5,-21"/>
<text text-anchor="middle" x="50" y="-30.2" font-family="Helvetica,sans-Serif" font-size="12.00">Data::copyData</text>
</g>
<!-- Node2 -->
<g id="node3" class="node"><title>Node2</title>
<a xlink:href="a00001.html#a68965449404743bf1add056784d6cf81" target="_top" xlink:title="Slot of clicking on proceed button.">
<polygon fill="white" stroke="red" points="151,-42 151,-66 251,-66 251,-42 151,-42"/>
<text text-anchor="middle" x="201" y="-51.2" font-family="Helvetica,sans-Serif" font-size="12.00">Application::run</text>
</a>
</g>
<!-- Node1&#45;&gt;Node2 -->
<g id="edge2" class="edge"><title>Node1&#45;&gt;Node2</title>
<path fill="none" stroke="midnightblue" d="M110.056,-41.3522C123.605,-43.2364 137.846,-45.217 150.933,-47.037"/>
<polygon fill="midnightblue" stroke="midnightblue" points="110.248,-37.8453 99.8615,-39.9344 109.284,-44.7786 110.248,-37.8453"/>
</g>
<!-- Node3 -->
<g id="node5" class="node"><title>Node3</title>
<a xlink:href="a00001.html#ab7f9356b1eaa23c179500675d92a49d5" target="_top" xlink:title="Slot of clicking on open data file button.">
<polygon fill="white" stroke="red" points="136,-0 136,-24 266,-24 266,-0 136,-0"/>
<text text-anchor="middle" x="201" y="-9.2" font-family="Helvetica,sans-Serif" font-size="12.00">Application::openFile</text>
</a>
</g>
<!-- Node1&#45;&gt;Node3 -->
<g id="edge4" class="edge"><title>Node1&#45;&gt;Node3</title>
<path fill="none" stroke="midnightblue" d="M110.04,-24.6501C118.519,-23.4708 127.271,-22.2537 135.841,-21.0618"/>
<polygon fill="midnightblue" stroke="midnightblue" points="109.284,-21.2214 99.8615,-26.0656 110.248,-28.1547 109.284,-21.2214"/>
</g>
</g>
</svg>
