<?xml version="1.0" encoding="UTF-8" standalone="no"?>
<!DOCTYPE svg PUBLIC "-//W3C//DTD SVG 1.1//EN"
 "http://www.w3.org/Graphics/SVG/1.1/DTD/svg11.dtd">
<!-- Generated by graphviz version 2.26.3 (20100126.1600)
 -->
<!-- Title: Solution::setCpsSD Pages: 1 -->
<svg width="290pt" height="116pt"
 viewBox="0.00 0.00 290.00 116.00" xmlns="http://www.w3.org/2000/svg" xmlns:xlink="http://www.w3.org/1999/xlink">
<g id="graph1" class="graph" transform="scale(1 1) rotate(0) translate(4 112)">
<title>Solution::setCpsSD</title>
<polygon fill="white" stroke="white" points="-4,5 -4,-112 287,-112 287,5 -4,5"/>
<!-- Node1 -->
<g id="node1" class="node"><title>Node1</title>
<polygon fill="#bfbfbf" stroke="black" points="0,-42 0,-66 122,-66 122,-42 0,-42"/>
<text text-anchor="middle" x="61" y="-51.2" font-family="Helvetica,sans-Serif" font-size="12.00">Solution::setCpsSD</text>
</g>
<!-- Node2 -->
<g id="node3" class="node"><title>Node2</title>
<a xlink:href="a00002.html#a6fc1d983c7fa16eebd0d0b12cb505a30" target="_top" xlink:title="Copies data contain from the given parameter.">
<polygon fill="white" stroke="red" points="170.5,-84 170.5,-108 269.5,-108 269.5,-84 170.5,-84"/>
<text text-anchor="middle" x="220" y="-93.2" font-family="Helvetica,sans-Serif" font-size="12.00">Data::copyData</text>
</a>
</g>
<!-- Node1&#45;&gt;Node2 -->
<g id="edge2" class="edge"><title>Node1&#45;&gt;Node2</title>
<path fill="none" stroke="midnightblue" d="M116.282,-68.6027C135.272,-73.619 156.3,-79.1736 174.43,-83.9627"/>
<polygon fill="midnightblue" stroke="midnightblue" points="117.125,-65.2056 106.563,-66.0355 115.338,-71.9734 117.125,-65.2056"/>
</g>
<!-- Node3 -->
<g id="node5" class="node"><title>Node3</title>
<a xlink:href="a00002.html#a6ff99fcec4f0387958fff773969de591" target="_top" xlink:title="Adds a calculated Blank Solution.">
<polygon fill="white" stroke="red" points="163,-42 163,-66 277,-66 277,-42 163,-42"/>
<text text-anchor="middle" x="220" y="-51.2" font-family="Helvetica,sans-Serif" font-size="12.00">Data::addBLKmoy</text>
</a>
</g>
<!-- Node1&#45;&gt;Node3 -->
<g id="edge4" class="edge"><title>Node1&#45;&gt;Node3</title>
<path fill="none" stroke="midnightblue" d="M132.182,-54C142.432,-54 152.869,-54 162.801,-54"/>
<polygon fill="midnightblue" stroke="midnightblue" points="132.019,-50.5001 122.019,-54 132.019,-57.5001 132.019,-50.5001"/>
</g>
<!-- Node4 -->
<g id="node7" class="node"><title>Node4</title>
<a xlink:href="a00007.html#ad7b814e406fa54ff255b66488a9dde4a" target="_top" xlink:title="Parsing Function.">
<polygon fill="white" stroke="black" points="158.5,-0 158.5,-24 281.5,-24 281.5,-0 158.5,-0"/>
<text text-anchor="middle" x="220" y="-9.2" font-family="Helvetica,sans-Serif" font-size="12.00">ParserInCSV::parse</text>
</a>
</g>
<!-- Node1&#45;&gt;Node4 -->
<g id="edge6" class="edge"><title>Node1&#45;&gt;Node4</title>
<path fill="none" stroke="midnightblue" d="M116.282,-39.3973C135.272,-34.381 156.3,-28.8264 174.43,-24.0373"/>
<polygon fill="midnightblue" stroke="midnightblue" points="115.338,-36.0266 106.563,-41.9645 117.125,-42.7944 115.338,-36.0266"/>
</g>
</g>
</svg>
