<?xml version="1.0" encoding="UTF-8" standalone="no"?>
<!DOCTYPE svg PUBLIC "-//W3C//DTD SVG 1.1//EN"
 "http://www.w3.org/Graphics/SVG/1.1/DTD/svg11.dtd">
<!-- Generated by graphviz version 2.26.3 (20100126.1600)
 -->
<!-- Title: Processing::calibration Pages: 1 -->
<svg width="334pt" height="74pt"
 viewBox="0.00 0.00 334.00 74.00" xmlns="http://www.w3.org/2000/svg" xmlns:xlink="http://www.w3.org/1999/xlink">
<g id="graph1" class="graph" transform="scale(1 1) rotate(0) translate(4 70)">
<title>Processing::calibration</title>
<polygon fill="white" stroke="white" points="-4,5 -4,-70 331,-70 331,5 -4,5"/>
<!-- Node1 -->
<g id="node1" class="node"><title>Node1</title>
<polygon fill="#bfbfbf" stroke="black" points="0,-21 0,-45 138,-45 138,-21 0,-21"/>
<text text-anchor="middle" x="69" y="-30.2" font-family="Helvetica,sans-Serif" font-size="12.00">Processing::calibration</text>
</g>
<!-- Node2 -->
<g id="node3" class="node"><title>Node2</title>
<a xlink:href="a00002.html#acd1f2adc01b25ef7bded9b6d2b331278" target="_top" xlink:title="Gets the Number of elements.">
<polygon fill="white" stroke="black" points="206,-42 206,-66 294,-66 294,-42 206,-42"/>
<text text-anchor="middle" x="250" y="-51.2" font-family="Helvetica,sans-Serif" font-size="12.00">Data::isoSize</text>
</a>
</g>
<!-- Node1&#45;&gt;Node2 -->
<g id="edge2" class="edge"><title>Node1&#45;&gt;Node2</title>
<path fill="none" stroke="midnightblue" d="M138.203,-41.0291C157.313,-43.2463 177.766,-45.6193 195.885,-47.7214"/>
<polygon fill="midnightblue" stroke="midnightblue" points="195.633,-51.2157 205.97,-48.8916 196.44,-44.2623 195.633,-51.2157"/>
</g>
<!-- Node3 -->
<g id="node5" class="node"><title>Node3</title>
<a xlink:href="a00010.html#a5fbd5c910da7cec1497168d1d217f1ed" target="_top" xlink:title="Computes a calibration line.">
<polygon fill="white" stroke="red" points="174,-0 174,-24 326,-24 326,-0 174,-0"/>
<text text-anchor="middle" x="250" y="-9.2" font-family="Helvetica,sans-Serif" font-size="12.00">Processing::computeLine</text>
</a>
</g>
<!-- Node1&#45;&gt;Node3 -->
<g id="edge4" class="edge"><title>Node1&#45;&gt;Node3</title>
<path fill="none" stroke="midnightblue" d="M138.203,-24.9709C146.596,-23.9972 155.247,-22.9934 163.846,-21.9958"/>
<polygon fill="midnightblue" stroke="midnightblue" points="164.368,-25.4588 173.898,-20.8295 163.561,-18.5054 164.368,-25.4588"/>
</g>
</g>
</svg>
