<?xml version="1.0" encoding="UTF-8" standalone="no"?>
<!DOCTYPE svg PUBLIC "-//W3C//DTD SVG 1.1//EN"
 "http://www.w3.org/Graphics/SVG/1.1/DTD/svg11.dtd">
<!-- Generated by graphviz version 2.26.3 (20100126.1600)
 -->
<!-- Title: Application::createActions Pages: 1 -->
<!--zoomable 570 -->
<svg id="main" version="1.1" xmlns="http://www.w3.org/2000/svg" xmlns:xlink="http://www.w3.org/1999/xlink" xml:space="preserve" onload="init(evt)">
        <defs>
                <circle id="rim" cx="0" cy="0" r="7"/>
                <circle id="rim2" cx="0" cy="0" r="3.5"/>
                <g id="zoomPlus">
                        <use xlink:href="#rim" fill="#404040">
                                <set attributeName="fill" to="#808080" begin="zoomplus.mouseover" end="zoomplus.mouseout"/>
                        </use>
                        <path d="M-4,0h8M0,-4v8" fill="none" stroke="white" stroke-width="1.5" pointer-events="none"/>
                </g>
                <g id="zoomMin">
                        <use xlink:href="#rim" fill="#404040">
                                <set attributeName="fill" to="#808080" begin="zoomminus.mouseover" end="zoomminus.mouseout"/>
                        </use>
                        <path d="M-4,0h8" fill="none" stroke="white" stroke-width="1.5" pointer-events="none"/>
                </g>
                <g id="dirArrow">
                        <path fill="none" stroke="white" stroke-width="1.5" d="M0,-3.0v7 M-2.5,-0.5L0,-3.0L2.5,-0.5"/>
                </g>
               <g id="resetDef">
                       <use xlink:href="#rim2" fill="#404040">
                               <set attributeName="fill" to="#808080" begin="reset.mouseover" end="reset.mouseout"/>
                       </use>
               </g>
        </defs>

<script type="text/javascript">
var viewWidth = 566;
var viewHeight = 570;
var sectionId = 'dynsection-3';
</script>
<script xlink:href="svgpan.js"/>
<svg id="graph" class="graph">
<g id="viewport">
<title>Application::createActions</title>
<polygon fill="white" stroke="white" points="-4,5 -4,-566 563,-566 563,5 -4,5"/>
<!-- Node1 -->
<g id="node1" class="node"><title>Node1</title>
<polygon fill="#bfbfbf" stroke="black" points="0.5,-273 0.5,-297 155.5,-297 155.5,-273 0.5,-273"/>
<text text-anchor="middle" x="78" y="-282.2" font-family="Helvetica,sans-Serif" font-size="12.00">Application::createActions</text>
</g>
<!-- Node2 -->
<g id="node3" class="node"><title>Node2</title>
<a xlink:href="a00001.html#a56af8ea9b34be4e267227d7abaf21a3f" target="_top" xlink:title="Slot of clicking on about button.">
<polygon fill="white" stroke="black" points="224.5,-538 224.5,-562 337.5,-562 337.5,-538 224.5,-538"/>
<text text-anchor="middle" x="281" y="-547.2" font-family="Helvetica,sans-Serif" font-size="12.00">Application::about</text>
</a>
</g>
<!-- Node1&#45;&gt;Node2 -->
<g id="edge2" class="edge"><title>Node1&#45;&gt;Node2</title>
<path fill="none" stroke="midnightblue" d="M79.8816,-297.169C86.7366,-337.182 114.187,-465.725 192,-529 198.64,-534.399 206.43,-538.456 214.591,-541.496"/>
<polygon fill="midnightblue" stroke="midnightblue" points="213.703,-544.887 224.295,-544.617 215.847,-538.223 213.703,-544.887"/>
</g>
<!-- Node3 -->
<g id="node5" class="node"><title>Node3</title>
<a xlink:href="a00001.html#a09fe4d73dbe2cf416979ee1abc56ac1a" target="_top" xlink:title="Slot of clicking on open QC&#45;STD file button.">
<polygon fill="white" stroke="black" points="205,-496 205,-520 357,-520 357,-496 205,-496"/>
<text text-anchor="middle" x="281" y="-505.2" font-family="Helvetica,sans-Serif" font-size="12.00">Application::openSTDQC</text>
</a>
</g>
<!-- Node1&#45;&gt;Node3 -->
<g id="edge4" class="edge"><title>Node1&#45;&gt;Node3</title>
<path fill="none" stroke="midnightblue" d="M81.5462,-297.328C92.1577,-331.978 127.022,-431.025 192,-482 196.904,-485.847 202.36,-489.125 208.09,-491.918"/>
<polygon fill="midnightblue" stroke="midnightblue" points="206.712,-495.136 217.278,-495.921 209.508,-488.718 206.712,-495.136"/>
</g>
<!-- Node4 -->
<g id="node7" class="node"><title>Node4</title>
<a xlink:href="a00001.html#ab7f9356b1eaa23c179500675d92a49d5" target="_top" xlink:title="Slot of clicking on open data file button.">
<polygon fill="white" stroke="red" points="216,-416 216,-440 346,-440 346,-416 216,-416"/>
<text text-anchor="middle" x="281" y="-425.2" font-family="Helvetica,sans-Serif" font-size="12.00">Application::openFile</text>
</a>
</g>
<!-- Node1&#45;&gt;Node4 -->
<g id="edge6" class="edge"><title>Node1&#45;&gt;Node4</title>
<path fill="none" stroke="midnightblue" d="M86.5238,-297.275C103.692,-321.078 144.847,-373.651 192,-402 198.866,-406.128 206.425,-409.633 214.15,-412.602"/>
<polygon fill="midnightblue" stroke="midnightblue" points="213.023,-415.916 223.618,-415.964 215.365,-409.32 213.023,-415.916"/>
</g>
<!-- Node5 -->
<g id="node9" class="node"><title>Node5</title>
<a xlink:href="a00001.html#a4d6d25052b873ecee1553e83881a7fca" target="_top" xlink:title="Slot to change Internal standards selection.">
<polygon fill="white" stroke="black" points="406,-437 406,-461 558,-461 558,-437 406,-437"/>
<text text-anchor="middle" x="482" y="-446.2" font-family="Helvetica,sans-Serif" font-size="12.00">Application::listISChange</text>
</a>
</g>
<!-- Node1&#45;&gt;Node5 -->
<g id="edge30" class="edge"><title>Node1&#45;&gt;Node5</title>
<path fill="none" stroke="midnightblue" d="M81.9394,-297.07C93.113,-329.044 128.389,-415.748 192,-449 266.388,-487.886 366.881,-476.123 427.928,-463.189"/>
<polygon fill="midnightblue" stroke="midnightblue" points="428.733,-466.596 437.746,-461.026 427.227,-459.76 428.733,-466.596"/>
</g>
<!-- Node6 -->
<g id="node11" class="node"><title>Node6</title>
<a xlink:href="a00001.html#a9c0b6e60ede4b6f2c60abe874f351994" target="_top" xlink:title="Slot of choosing Internal standard plot plot to diplay.">
<polygon fill="white" stroke="red" points="409,-376 409,-400 555,-400 555,-376 409,-376"/>
<text text-anchor="middle" x="482" y="-385.2" font-family="Helvetica,sans-Serif" font-size="12.00">Application::onISChoice</text>
</a>
</g>
<!-- Node1&#45;&gt;Node6 -->
<g id="edge28" class="edge"><title>Node1&#45;&gt;Node6</title>
<path fill="none" stroke="midnightblue" d="M89.5845,-297.199C108.769,-316.477 149.28,-353.395 192,-369 258.529,-393.302 339.296,-396.665 398.681,-394.745"/>
<polygon fill="midnightblue" stroke="midnightblue" points="398.906,-398.239 408.766,-394.362 398.64,-391.244 398.906,-398.239"/>
</g>
<!-- Node7 -->
<g id="node13" class="node"><title>Node7</title>
<a xlink:href="a00001.html#a61e6e071e10317692e3464a44fea9b4e" target="_top" xlink:title="Slot of clicking on save plots button.">
<polygon fill="white" stroke="black" points="216,-336 216,-360 346,-360 346,-336 216,-336"/>
<text text-anchor="middle" x="281" y="-345.2" font-family="Helvetica,sans-Serif" font-size="12.00">Application::plotSave</text>
</a>
</g>
<!-- Node1&#45;&gt;Node7 -->
<g id="edge12" class="edge"><title>Node1&#45;&gt;Node7</title>
<path fill="none" stroke="midnightblue" d="M107.668,-297.057C130.481,-306.052 162.916,-318.246 192,-327 199.482,-329.252 207.377,-331.414 215.25,-333.438"/>
<polygon fill="midnightblue" stroke="midnightblue" points="214.626,-336.89 225.177,-335.924 216.326,-330.1 214.626,-336.89"/>
</g>
<!-- Node8 -->
<g id="node15" class="node"><title>Node8</title>
<a xlink:href="a00001.html#ac44667af46d1e4888f05cab6407ba541" target="_top" xlink:title="Slot of clicking on save output button.">
<polygon fill="white" stroke="red" points="217,-294 217,-318 345,-318 345,-294 217,-294"/>
<text text-anchor="middle" x="281" y="-303.2" font-family="Helvetica,sans-Serif" font-size="12.00">Application::saveFile</text>
</a>
</g>
<!-- Node1&#45;&gt;Node8 -->
<g id="edge14" class="edge"><title>Node1&#45;&gt;Node8</title>
<path fill="none" stroke="midnightblue" d="M155.615,-293.029C172.392,-294.765 190.092,-296.596 206.737,-298.318"/>
<polygon fill="midnightblue" stroke="midnightblue" points="206.639,-301.826 216.946,-299.374 207.36,-294.863 206.639,-301.826"/>
</g>
<!-- Node9 -->
<g id="node17" class="node"><title>Node9</title>
<a xlink:href="a00001.html#a68965449404743bf1add056784d6cf81" target="_top" xlink:title="Slot of clicking on proceed button.">
<polygon fill="white" stroke="red" points="231,-252 231,-276 331,-276 331,-252 231,-252"/>
<text text-anchor="middle" x="281" y="-261.2" font-family="Helvetica,sans-Serif" font-size="12.00">Application::run</text>
</a>
</g>
<!-- Node1&#45;&gt;Node9 -->
<g id="edge16" class="edge"><title>Node1&#45;&gt;Node9</title>
<path fill="none" stroke="midnightblue" d="M155.615,-276.971C177.159,-274.742 200.225,-272.356 220.624,-270.246"/>
<polygon fill="midnightblue" stroke="midnightblue" points="221.128,-273.712 230.715,-269.202 220.408,-266.75 221.128,-273.712"/>
</g>
<!-- Node10 -->
<g id="node20" class="node"><title>Node10</title>
<a xlink:href="a00001.html#a046e614292cb3c01bf90568dbde70d0c" target="_top" xlink:title="Slot of clicking on Solutions list in input data view.">
<polygon fill="white" stroke="red" points="197,-210 197,-234 365,-234 365,-210 197,-210"/>
<text text-anchor="middle" x="281" y="-219.2" font-family="Helvetica,sans-Serif" font-size="12.00">Application::onListViewInput</text>
</a>
</g>
<!-- Node1&#45;&gt;Node10 -->
<g id="edge20" class="edge"><title>Node1&#45;&gt;Node10</title>
<path fill="none" stroke="midnightblue" d="M107.668,-272.943C130.481,-263.948 162.916,-251.754 192,-243 199.482,-240.748 207.377,-238.586 215.25,-236.562"/>
<polygon fill="midnightblue" stroke="midnightblue" points="216.326,-239.9 225.177,-234.076 214.626,-233.11 216.326,-239.9"/>
</g>
<!-- Node11 -->
<g id="node22" class="node"><title>Node11</title>
<a xlink:href="a00001.html#a8123f70b34dd0f69ba8ba756e23c0ce0" target="_top" xlink:title="Slot of clicking on Solutions list in output data view.">
<polygon fill="white" stroke="red" points="192.5,-168 192.5,-192 369.5,-192 369.5,-168 192.5,-168"/>
<text text-anchor="middle" x="281" y="-177.2" font-family="Helvetica,sans-Serif" font-size="12.00">Application::onListViewOutput</text>
</a>
</g>
<!-- Node1&#45;&gt;Node11 -->
<g id="edge22" class="edge"><title>Node1&#45;&gt;Node11</title>
<path fill="none" stroke="midnightblue" d="M90.8906,-272.711C110.905,-254.319 151.393,-219.789 192,-201 196.653,-198.847 201.549,-196.903 206.552,-195.149"/>
<polygon fill="midnightblue" stroke="midnightblue" points="207.832,-198.414 216.27,-192.007 205.678,-191.754 207.832,-198.414"/>
</g>
<!-- Node12 -->
<g id="node24" class="node"><title>Node12</title>
<a xlink:href="a00001.html#a4c314b290d0ecc615133d5bf6799b710" target="_top" xlink:title="Slot of clicking on Elements list in Calibration curve view.">
<polygon fill="white" stroke="red" points="204.5,-126 204.5,-150 357.5,-150 357.5,-126 204.5,-126"/>
<text text-anchor="middle" x="281" y="-135.2" font-family="Helvetica,sans-Serif" font-size="12.00">Application::onListCurves</text>
</a>
</g>
<!-- Node1&#45;&gt;Node12 -->
<g id="edge24" class="edge"><title>Node1&#45;&gt;Node12</title>
<path fill="none" stroke="midnightblue" d="M85.4013,-272.717C101.428,-247.238 141.963,-188.556 192,-159 195.195,-157.113 198.549,-155.395 202.005,-153.832"/>
<polygon fill="midnightblue" stroke="midnightblue" points="203.403,-157.042 211.358,-150.043 200.775,-150.554 203.403,-157.042"/>
</g>
<!-- Node13 -->
<g id="node26" class="node"><title>Node13</title>
<a xlink:href="a00001.html#a782111e122dd130f507d3fcf4cf3799f" target="_top" xlink:title="Slot of clicking on Elements list in Evolution curve view.">
<polygon fill="white" stroke="red" points="211.5,-84 211.5,-108 350.5,-108 350.5,-84 211.5,-84"/>
<text text-anchor="middle" x="281" y="-93.2" font-family="Helvetica,sans-Serif" font-size="12.00">Application::onListEvol</text>
</a>
</g>
<!-- Node1&#45;&gt;Node13 -->
<g id="edge26" class="edge"><title>Node1&#45;&gt;Node13</title>
<path fill="none" stroke="midnightblue" d="M82.5042,-272.991C94.8238,-241.873 132.202,-158.188 192,-117 195.126,-114.847 198.444,-112.913 201.891,-111.176"/>
<polygon fill="midnightblue" stroke="midnightblue" points="203.546,-114.271 211.274,-107.023 200.713,-107.87 203.546,-114.271"/>
</g>
<!-- Node14 -->
<g id="node30" class="node"><title>Node14</title>
<a xlink:href="a00001.html#aed862c3c1e225b452efec5af99221025" target="_top" xlink:title="Slot of choosing the evolution plot to diplay.">
<polygon fill="white" stroke="red" points="201,-42 201,-66 361,-66 361,-42 201,-42"/>
<text text-anchor="middle" x="281" y="-51.2" font-family="Helvetica,sans-Serif" font-size="12.00">Application::listEvolChoice</text>
</a>
</g>
<!-- Node1&#45;&gt;Node14 -->
<g id="edge32" class="edge"><title>Node1&#45;&gt;Node14</title>
<path fill="none" stroke="midnightblue" d="M80.8173,-272.999C89.9531,-236.86 122.29,-128.279 192,-75 193.845,-73.5901 195.769,-72.2727 197.758,-71.042"/>
<polygon fill="midnightblue" stroke="midnightblue" points="199.678,-73.9842 206.846,-66.1817 196.377,-67.8116 199.678,-73.9842"/>
</g>
<!-- Node15 -->
<g id="node32" class="node"><title>Node15</title>
<a xlink:href="a00001.html#a6aeb1cc04b171c4578d36c49beb87844" target="_top" xlink:title="Slot of tab change.">
<polygon fill="white" stroke="black" points="231.5,-0 231.5,-24 330.5,-24 330.5,-0 231.5,-0"/>
<text text-anchor="middle" x="281" y="-9.2" font-family="Helvetica,sans-Serif" font-size="12.00">Application::tab</text>
</a>
</g>
<!-- Node1&#45;&gt;Node15 -->
<g id="edge34" class="edge"><title>Node1&#45;&gt;Node15</title>
<path fill="none" stroke="midnightblue" d="M79.7028,-272.729C86.0628,-231.765 112.301,-98.6235 192,-33 200.445,-26.0465 210.792,-21.3148 221.405,-18.1127"/>
<polygon fill="midnightblue" stroke="midnightblue" points="222.376,-21.4768 231.179,-15.5821 220.621,-14.7002 222.376,-21.4768"/>
</g>
<!-- Node4&#45;&gt;Node5 -->
<g id="edge8" class="edge"><title>Node4&#45;&gt;Node5</title>
<path fill="none" stroke="midnightblue" d="M346.259,-434.818C362.017,-436.464 379.099,-438.249 395.657,-439.979"/>
<polygon fill="midnightblue" stroke="midnightblue" points="395.573,-443.489 405.883,-441.047 396.301,-436.527 395.573,-443.489"/>
</g>
<!-- Node4&#45;&gt;Node6 -->
<g id="edge10" class="edge"><title>Node4&#45;&gt;Node6</title>
<path fill="none" stroke="midnightblue" d="M341.307,-415.999C363.367,-411.609 388.52,-406.603 411.399,-402.05"/>
<polygon fill="midnightblue" stroke="midnightblue" points="412.264,-405.446 421.389,-400.062 410.898,-398.581 412.264,-405.446"/>
</g>
<!-- Node9&#45;&gt;Node6 -->
<g id="edge18" class="edge"><title>Node9&#45;&gt;Node6</title>
<path fill="none" stroke="midnightblue" d="M331.123,-271.129C344.262,-274.238 358.079,-278.677 370,-285 409.492,-305.945 445.711,-344.205 465.729,-367.737"/>
<polygon fill="midnightblue" stroke="midnightblue" points="463.257,-370.238 472.347,-375.681 468.636,-365.758 463.257,-370.238"/>
</g>
</g>
</svg>
        <g id="navigator" transform="translate(0 0)" fill="#404254">
                <rect fill="#f2f5e9" fill-opacity="0.5" stroke="#606060" stroke-width=".5" x="0" y="0" width="60" height="60"/>
                <use id="zoomplus" xlink:href="#zoomPlus" x="17" y="9" onmousedown="handleZoom(evt,'in')"/>
                <use id="zoomminus" xlink:href="#zoomMin" x="42" y="9" onmousedown="handleZoom(evt,'out')"/>
                <use id="reset" xlink:href="#resetDef" x="30" y="36" onmousedown="handleReset()"/>
                <g id="arrowUp" xlink:href="#dirArrow" transform="translate(30 24)" onmousedown="handlePan(0,-1)">
                  <use xlink:href="#rim" fill="#404040">
                        <set attributeName="fill" to="#808080" begin="arrowUp.mouseover" end="arrowUp.mouseout"/>
                  </use>
                  <path fill="none" stroke="white" stroke-width="1.5" d="M0,-3.0v7 M-2.5,-0.5L0,-3.0L2.5,-0.5"/>
                </g>
                <g id="arrowRight" xlink:href="#dirArrow" transform="rotate(90) translate(36 -43)" onmousedown="handlePan(1,0)">
                  <use xlink:href="#rim" fill="#404040">
                        <set attributeName="fill" to="#808080" begin="arrowRight.mouseover" end="arrowRight.mouseout"/>
                  </use>
                  <path fill="none" stroke="white" stroke-width="1.5" d="M0,-3.0v7 M-2.5,-0.5L0,-3.0L2.5,-0.5"/>
                </g>
                <g id="arrowDown" xlink:href="#dirArrow" transform="rotate(180) translate(-30 -48)" onmousedown="handlePan(0,1)">
                  <use xlink:href="#rim" fill="#404040">
                        <set attributeName="fill" to="#808080" begin="arrowDown.mouseover" end="arrowDown.mouseout"/>
                  </use>
                  <path fill="none" stroke="white" stroke-width="1.5" d="M0,-3.0v7 M-2.5,-0.5L0,-3.0L2.5,-0.5"/>
                </g>
                <g id="arrowLeft" xlink:href="#dirArrow" transform="rotate(270) translate(-36 17)" onmousedown="handlePan(-1,0)">
                  <use xlink:href="#rim" fill="#404040">
                        <set attributeName="fill" to="#808080" begin="arrowLeft.mouseover" end="arrowLeft.mouseout"/>
                  </use>
                  <path fill="none" stroke="white" stroke-width="1.5" d="M0,-3.0v7 M-2.5,-0.5L0,-3.0L2.5,-0.5"/>
                </g>
        </g>
        <svg viewBox="0 0 15 15" width="100%" height="30px" preserveAspectRatio="xMaxYMin meet">
         <g id="arrow_out" transform="scale(0.3 0.3)">
          <a xlink:href="a00001_a934cebb73a90017ac0ffb8ba9b0f251b_cgraph_org.svg" target="_base">
           <rect id="button" ry="5" rx="5" y="6" x="6" height="38" width="38"
                fill="#f2f5e9" fill-opacity="0.5" stroke="#606060" stroke-width="1.0"/>
           <path id="arrow"
             d="M 11.500037,31.436501 C 11.940474,20.09759 22.043105,11.32322 32.158766,21.979434 L 37.068811,17.246167 C 37.068811,17.246167 37.088388,32 37.088388,32 L 22.160133,31.978069 C 22.160133,31.978069 26.997745,27.140456 26.997745,27.140456 C 18.528582,18.264221 13.291696,25.230495 11.500037,31.436501 z"
             style="fill:#404040;"/>
          </a>
         </g>
        </svg>
</svg>
