<?xml version="1.0" encoding="UTF-8" standalone="no"?>
<!DOCTYPE svg PUBLIC "-//W3C//DTD SVG 1.1//EN"
 "http://www.w3.org/Graphics/SVG/1.1/DTD/svg11.dtd">
<!-- Generated by graphviz version 2.26.3 (20100126.1600)
 -->
<!-- Title: element.h Pages: 1 -->
<svg width="196pt" height="158pt"
 viewBox="0.00 0.00 196.00 158.00" xmlns="http://www.w3.org/2000/svg" xmlns:xlink="http://www.w3.org/1999/xlink">
<g id="graph1" class="graph" transform="scale(1 1) rotate(0) translate(4 154)">
<title>element.h</title>
<polygon fill="white" stroke="white" points="-4,5 -4,-154 193,-154 193,5 -4,5"/>
<!-- Node1 -->
<g id="node1" class="node"><title>Node1</title>
<polygon fill="#bfbfbf" stroke="black" points="43.5,-125 43.5,-149 112.5,-149 112.5,-125 43.5,-125"/>
<text text-anchor="middle" x="78" y="-134.2" font-family="Helvetica,sans-Serif" font-size="12.00">element.h</text>
</g>
<!-- Node2 -->
<g id="node3" class="node"><title>Node2</title>
<a xlink:href="a00018.html" target="_top" xlink:title="data.h">
<polygon fill="white" stroke="red" points="0,-63 0,-87 50,-87 50,-63 0,-63"/>
<text text-anchor="middle" x="25" y="-72.2" font-family="Helvetica,sans-Serif" font-size="12.00">data.h</text>
</a>
</g>
<!-- Node1&#45;&gt;Node2 -->
<g id="edge2" class="edge"><title>Node1&#45;&gt;Node2</title>
<path fill="none" stroke="midnightblue" d="M60.915,-117.014C52.5316,-107.207 42.7033,-95.7095 35.4493,-87.2238"/>
<polygon fill="midnightblue" stroke="midnightblue" points="58.3706,-119.424 67.5289,-124.751 63.6915,-114.875 58.3706,-119.424"/>
</g>
<!-- Node3 -->
<g id="node5" class="node"><title>Node3</title>
<a xlink:href="a00015.html" target="_top" xlink:title="application.h">
<polygon fill="white" stroke="red" points="8.5,-1 8.5,-25 93.5,-25 93.5,-1 8.5,-1"/>
<text text-anchor="middle" x="51" y="-10.2" font-family="Helvetica,sans-Serif" font-size="12.00">application.h</text>
</a>
</g>
<!-- Node1&#45;&gt;Node3 -->
<g id="edge6" class="edge"><title>Node1&#45;&gt;Node3</title>
<path fill="none" stroke="midnightblue" d="M73.1088,-114.537C67.4094,-88.3617 58.1976,-46.0558 53.6767,-25.293"/>
<polygon fill="midnightblue" stroke="midnightblue" points="69.7649,-115.631 75.3124,-124.657 76.6047,-114.141 69.7649,-115.631"/>
</g>
<!-- Node4 -->
<g id="node8" class="node"><title>Node4</title>
<a xlink:href="a00023.html" target="_top" xlink:title="element.cpp">
<polygon fill="white" stroke="black" points="106,-63 106,-87 188,-87 188,-63 106,-63"/>
<text text-anchor="middle" x="147" y="-72.2" font-family="Helvetica,sans-Serif" font-size="12.00">element.cpp</text>
</a>
</g>
<!-- Node1&#45;&gt;Node4 -->
<g id="edge8" class="edge"><title>Node1&#45;&gt;Node4</title>
<path fill="none" stroke="midnightblue" d="M99.2657,-117.892C110.386,-107.899 123.669,-95.9641 133.396,-87.2238"/>
<polygon fill="midnightblue" stroke="midnightblue" points="96.7312,-115.464 91.6322,-124.751 101.41,-120.67 96.7312,-115.464"/>
</g>
<!-- Node2&#45;&gt;Node3 -->
<g id="edge4" class="edge"><title>Node2&#45;&gt;Node3</title>
<path fill="none" stroke="midnightblue" d="M34.1288,-53.2312C38.068,-43.8379 42.5289,-33.2004 45.8739,-25.2238"/>
<polygon fill="midnightblue" stroke="midnightblue" points="30.7764,-52.1753 30.1368,-62.7508 37.2318,-54.8824 30.7764,-52.1753"/>
</g>
</g>
</svg>
