<?xml version="1.0" encoding="UTF-8" standalone="no"?>
<!DOCTYPE svg PUBLIC "-//W3C//DTD SVG 1.1//EN"
 "http://www.w3.org/Graphics/SVG/1.1/DTD/svg11.dtd">
<!-- Generated by graphviz version 2.26.3 (20100126.1600)
 -->
<!-- Title: Application::Application Pages: 1 -->
<svg width="344pt" height="74pt"
 viewBox="0.00 0.00 344.00 74.00" xmlns="http://www.w3.org/2000/svg" xmlns:xlink="http://www.w3.org/1999/xlink">
<g id="graph1" class="graph" transform="scale(1 1) rotate(0) translate(4 70)">
<title>Application::Application</title>
<polygon fill="white" stroke="white" points="-4,5 -4,-70 341,-70 341,5 -4,5"/>
<!-- Node1 -->
<g id="node1" class="node"><title>Node1</title>
<polygon fill="#bfbfbf" stroke="black" points="0.5,-21 0.5,-45 143.5,-45 143.5,-21 0.5,-21"/>
<text text-anchor="middle" x="72" y="-30.2" font-family="Helvetica,sans-Serif" font-size="12.00">Application::Application</text>
</g>
<!-- Node2 -->
<g id="node3" class="node"><title>Node2</title>
<a xlink:href="a00001.html#a934cebb73a90017ac0ffb8ba9b0f251b" target="_top" xlink:title="Creation of HCI actions.">
<polygon fill="white" stroke="red" points="180.5,-42 180.5,-66 335.5,-66 335.5,-42 180.5,-42"/>
<text text-anchor="middle" x="258" y="-51.2" font-family="Helvetica,sans-Serif" font-size="12.00">Application::createActions</text>
</a>
</g>
<!-- Node1&#45;&gt;Node2 -->
<g id="edge2" class="edge"><title>Node1&#45;&gt;Node2</title>
<path fill="none" stroke="midnightblue" d="M143.646,-41.0891C152.346,-42.0713 161.309,-43.0833 170.208,-44.088"/>
<polygon fill="midnightblue" stroke="midnightblue" points="169.882,-47.5733 180.211,-45.2174 170.667,-40.6175 169.882,-47.5733"/>
</g>
<!-- Node3 -->
<g id="node5" class="node"><title>Node3</title>
<a xlink:href="a00001.html#ae5886945446b213b8336089462e1def2" target="_top" xlink:title="Initialize HCI configuration.">
<polygon fill="white" stroke="black" points="198,-0 198,-24 318,-24 318,-0 198,-0"/>
<text text-anchor="middle" x="258" y="-9.2" font-family="Helvetica,sans-Serif" font-size="12.00">Application::initIHM</text>
</a>
</g>
<!-- Node1&#45;&gt;Node3 -->
<g id="edge4" class="edge"><title>Node1&#45;&gt;Node3</title>
<path fill="none" stroke="midnightblue" d="M143.646,-24.9109C158.058,-23.2838 173.192,-21.5751 187.562,-19.9527"/>
<polygon fill="midnightblue" stroke="midnightblue" points="188.324,-23.3889 197.868,-18.789 187.539,-16.4331 188.324,-23.3889"/>
</g>
</g>
</svg>
