<?xml version="1.0" encoding="UTF-8" standalone="no"?>
<!DOCTYPE svg PUBLIC "-//W3C//DTD SVG 1.1//EN"
 "http://www.w3.org/Graphics/SVG/1.1/DTD/svg11.dtd">
<!-- Generated by graphviz version 2.26.3 (20100126.1600)
 -->
<!-- Title: Data::addIso Pages: 1 -->
<svg width="252pt" height="74pt"
 viewBox="0.00 0.00 252.00 74.00" xmlns="http://www.w3.org/2000/svg" xmlns:xlink="http://www.w3.org/1999/xlink">
<g id="graph1" class="graph" transform="scale(1 1) rotate(0) translate(4 70)">
<title>Data::addIso</title>
<polygon fill="white" stroke="white" points="-4,5 -4,-70 249,-70 249,5 -4,5"/>
<!-- Node1 -->
<g id="node1" class="node"><title>Node1</title>
<polygon fill="#bfbfbf" stroke="black" points="0,-21 0,-45 84,-45 84,-21 0,-21"/>
<text text-anchor="middle" x="42" y="-30.2" font-family="Helvetica,sans-Serif" font-size="12.00">Data::addIso</text>
</g>
<!-- Node2 -->
<g id="node3" class="node"><title>Node2</title>
<a xlink:href="a00002.html#a6fc1d983c7fa16eebd0d0b12cb505a30" target="_top" xlink:title="Copies data contain from the given parameter.">
<polygon fill="white" stroke="red" points="132.5,-42 132.5,-66 231.5,-66 231.5,-42 132.5,-42"/>
<text text-anchor="middle" x="182" y="-51.2" font-family="Helvetica,sans-Serif" font-size="12.00">Data::copyData</text>
</a>
</g>
<!-- Node1&#45;&gt;Node2 -->
<g id="edge2" class="edge"><title>Node1&#45;&gt;Node2</title>
<path fill="none" stroke="midnightblue" d="M94.26,-40.839C106.74,-42.7109 120.024,-44.7037 132.381,-46.5572"/>
<polygon fill="midnightblue" stroke="midnightblue" points="94.4132,-37.3229 84.0046,-39.3007 93.3748,-44.2455 94.4132,-37.3229"/>
</g>
<!-- Node3 -->
<g id="node5" class="node"><title>Node3</title>
<a xlink:href="a00007.html#ad7b814e406fa54ff255b66488a9dde4a" target="_top" xlink:title="Parsing Function.">
<polygon fill="white" stroke="black" points="120.5,-0 120.5,-24 243.5,-24 243.5,-0 120.5,-0"/>
<text text-anchor="middle" x="182" y="-9.2" font-family="Helvetica,sans-Serif" font-size="12.00">ParserInCSV::parse</text>
</a>
</g>
<!-- Node1&#45;&gt;Node3 -->
<g id="edge4" class="edge"><title>Node1&#45;&gt;Node3</title>
<path fill="none" stroke="midnightblue" d="M93.9036,-25.2145C102.519,-23.9222 111.527,-22.5709 120.355,-21.2467"/>
<polygon fill="midnightblue" stroke="midnightblue" points="93.3748,-21.7545 84.0046,-26.6993 94.4132,-28.6771 93.3748,-21.7545"/>
</g>
</g>
</svg>
