<?xml version="1.0" encoding="UTF-8" standalone="no"?>
<!DOCTYPE svg PUBLIC "-//W3C//DTD SVG 1.1//EN"
 "http://www.w3.org/Graphics/SVG/1.1/DTD/svg11.dtd">
<!-- Generated by graphviz version 2.26.3 (20100126.1600)
 -->
<!-- Title: Graph Legend Pages: 1 -->
<svg width="576pt" height="184pt"
 viewBox="0.00 0.00 576.00 184.00" xmlns="http://www.w3.org/2000/svg" xmlns:xlink="http://www.w3.org/1999/xlink">
<g id="graph1" class="graph" transform="scale(1 1) rotate(0) translate(4 180)">
<title>Graph Legend</title>
<polygon fill="white" stroke="white" points="-4,5 -4,-180 573,-180 573,5 -4,5"/>
<!-- Node9 -->
<g id="node1" class="node"><title>Node9</title>
<polygon fill="#bfbfbf" stroke="black" points="334,-24 272,-24 272,-1.42109e-14 334,-3.55271e-15 334,-24"/>
<text text-anchor="middle" x="303" y="-9.2" font-family="Helvetica,sans-Serif" font-size="12.00">Inherited</text>
</g>
<!-- Node10 -->
<g id="node2" class="node"><title>Node10</title>
<a xlink:href="$classPublicBase.html" xlink:title="PublicBase">
<polygon fill="none" stroke="black" points="78,-100 3.55271e-14,-100 0,-76 78,-76 78,-100"/>
<text text-anchor="middle" x="39" y="-85.2" font-family="Helvetica,sans-Serif" font-size="12.00">PublicBase</text>
</a>
</g>
<!-- Node10&#45;&gt;Node9 -->
<g id="edge2" class="edge"><title>Node10&#45;&gt;Node9</title>
<path fill="none" stroke="midnightblue" d="M87.8988,-73.9231C141.655,-58.4477 226.405,-34.0502 271.814,-20.9778"/>
<polygon fill="midnightblue" stroke="midnightblue" points="86.8799,-70.5742 78.2384,-76.7041 88.8164,-77.301 86.8799,-70.5742"/>
</g>
<!-- Node11 -->
<g id="node4" class="node"><title>Node11</title>
<a xlink:href="$classTruncated.html" xlink:title="Truncated">
<polygon fill="none" stroke="red" points="74,-176 4,-176 4,-152 74,-152 74,-176"/>
<text text-anchor="middle" x="39" y="-161.2" font-family="Helvetica,sans-Serif" font-size="12.00">Truncated</text>
</a>
</g>
<!-- Node11&#45;&gt;Node10 -->
<g id="edge4" class="edge"><title>Node11&#45;&gt;Node10</title>
<path fill="none" stroke="midnightblue" d="M39,-141.437C39,-128.024 39,-111.52 39,-100.433"/>
<polygon fill="midnightblue" stroke="midnightblue" points="35.5001,-141.789 39,-151.789 42.5001,-141.789 35.5001,-141.789"/>
</g>
<!-- Node13 -->
<g id="node6" class="node"><title>Node13</title>
<a xlink:href="$classProtectedBase.html" xlink:title="ProtectedBase">
<polygon fill="none" stroke="black" points="190,-100 96,-100 96,-76 190,-76 190,-100"/>
<text text-anchor="middle" x="143" y="-85.2" font-family="Helvetica,sans-Serif" font-size="12.00">ProtectedBase</text>
</a>
</g>
<!-- Node13&#45;&gt;Node9 -->
<g id="edge6" class="edge"><title>Node13&#45;&gt;Node9</title>
<path fill="none" stroke="darkgreen" d="M177.625,-71.5532C207.676,-57.2788 250.49,-36.9421 277.502,-24.1117"/>
<polygon fill="darkgreen" stroke="darkgreen" points="175.884,-68.5055 168.352,-75.9576 178.887,-74.8284 175.884,-68.5055"/>
</g>
<!-- Node14 -->
<g id="node8" class="node"><title>Node14</title>
<a xlink:href="$classPrivateBase.html" xlink:title="PrivateBase">
<polygon fill="none" stroke="black" points="290,-100 208,-100 208,-76 290,-76 290,-100"/>
<text text-anchor="middle" x="249" y="-85.2" font-family="Helvetica,sans-Serif" font-size="12.00">PrivateBase</text>
</a>
</g>
<!-- Node14&#45;&gt;Node9 -->
<g id="edge8" class="edge"><title>Node14&#45;&gt;Node9</title>
<path fill="none" stroke="#8b1a1a" d="M263.62,-67.4242C273.38,-53.688 285.894,-36.0747 294.166,-24.4329"/>
<polygon fill="#8b1a1a" stroke="#8b1a1a" points="260.615,-65.6102 257.676,-75.7893 266.321,-69.6647 260.615,-65.6102"/>
</g>
<!-- Node15 -->
<g id="node10" class="node"><title>Node15</title>
<polygon fill="none" stroke="#bfbfbf" points="406,-100 308,-100 308,-76 406,-76 406,-100"/>
<text text-anchor="middle" x="357" y="-85.2" font-family="Helvetica,sans-Serif" font-size="12.00">Undocumented</text>
</g>
<!-- Node15&#45;&gt;Node9 -->
<g id="edge10" class="edge"><title>Node15&#45;&gt;Node9</title>
<path fill="none" stroke="midnightblue" d="M342.38,-67.4242C332.62,-53.688 320.106,-36.0747 311.834,-24.4329"/>
<polygon fill="midnightblue" stroke="midnightblue" points="339.679,-69.6647 348.324,-75.7893 345.385,-65.6102 339.679,-69.6647"/>
</g>
<!-- Node16 -->
<g id="node12" class="node"><title>Node16</title>
<a xlink:href="$classTempl.html" xlink:title="Templ&lt; int &gt;">
<polygon fill="none" stroke="black" points="506,-100 424,-100 424,-76 506,-76 506,-100"/>
<text text-anchor="middle" x="465" y="-85.2" font-family="Helvetica,sans-Serif" font-size="12.00">Templ&lt; int &gt;</text>
</a>
</g>
<!-- Node16&#45;&gt;Node9 -->
<g id="edge12" class="edge"><title>Node16&#45;&gt;Node9</title>
<path fill="none" stroke="midnightblue" d="M429.942,-71.5532C399.515,-57.2788 356.166,-36.9421 328.817,-24.1117"/>
<polygon fill="midnightblue" stroke="midnightblue" points="428.791,-74.879 439.331,-75.9576 431.764,-68.5417 428.791,-74.879"/>
</g>
<!-- Node17 -->
<g id="node14" class="node"><title>Node17</title>
<a xlink:href="$classTempl.html" xlink:title="Templ&lt; T &gt;">
<polygon fill="none" stroke="black" points="503,-176 427,-176 427,-152 503,-152 503,-176"/>
<text text-anchor="middle" x="465" y="-161.2" font-family="Helvetica,sans-Serif" font-size="12.00">Templ&lt; T &gt;</text>
</a>
</g>
<!-- Node17&#45;&gt;Node16 -->
<g id="edge14" class="edge"><title>Node17&#45;&gt;Node16</title>
<path fill="none" stroke="orange" stroke-dasharray="5,2" d="M465,-141.437C465,-128.024 465,-111.52 465,-100.433"/>
<polygon fill="orange" stroke="orange" points="461.5,-141.789 465,-151.789 468.5,-141.789 461.5,-141.789"/>
<text text-anchor="middle" x="481.5" y="-123.2" font-family="Helvetica,sans-Serif" font-size="12.00">&lt; int &gt;</text>
</g>
<!-- Node18 -->
<g id="node16" class="node"><title>Node18</title>
<a xlink:href="$classUsed.html" xlink:title="Used">
<polygon fill="none" stroke="black" points="568,-100 524,-100 524,-76 568,-76 568,-100"/>
<text text-anchor="middle" x="546" y="-85.2" font-family="Helvetica,sans-Serif" font-size="12.00">Used</text>
</a>
</g>
<!-- Node18&#45;&gt;Node9 -->
<g id="edge16" class="edge"><title>Node18&#45;&gt;Node9</title>
<path fill="none" stroke="#9a32cd" stroke-dasharray="5,2" d="M513.957,-75.7907C444.644,-52.1735 373.805,-31.7222 334.133,-20.5951"/>
<polygon fill="#9a32cd" stroke="#9a32cd" points="513.129,-79.2069 523.724,-79.1436 515.402,-72.5862 513.129,-79.2069"/>
<text text-anchor="middle" x="494" y="-47.2" font-family="Helvetica,sans-Serif" font-size="12.00">m_usedClass</text>
</g>
</g>
</svg>
