<?xml version="1.0" encoding="UTF-8" standalone="no"?>
<!DOCTYPE svg PUBLIC "-//W3C//DTD SVG 1.1//EN"
 "http://www.w3.org/Graphics/SVG/1.1/DTD/svg11.dtd">
<!-- Generated by graphviz version 2.26.3 (20100126.1600)
 -->
<!-- Title: Graphical Class Hierarchy Pages: 1 -->
<svg width="200pt" height="116pt"
 viewBox="0.00 0.00 200.00 116.00" xmlns="http://www.w3.org/2000/svg" xmlns:xlink="http://www.w3.org/1999/xlink">
<g id="graph1" class="graph" transform="scale(1 1) rotate(0) translate(4 112)">
<title>Graphical Class Hierarchy</title>
<polygon fill="white" stroke="white" points="-4,5 -4,-112 197,-112 197,5 -4,5"/>
<!-- Node1 -->
<g id="node1" class="node"><title>Node1</title>
<a xlink:href="a00006.html" target="_top" xlink:title="Parser">
<polygon fill="white" stroke="black" points="0,-42 0,-66 52,-66 52,-42 0,-42"/>
<text text-anchor="middle" x="26" y="-51.2" font-family="Helvetica,sans-Serif" font-size="12.00">Parser</text>
</a>
</g>
<!-- Node2 -->
<g id="node3" class="node"><title>Node2</title>
<a xlink:href="a00007.html" target="_top" xlink:title="ParserInCSV">
<polygon fill="white" stroke="black" points="96.5,-84 96.5,-108 183.5,-108 183.5,-84 96.5,-84"/>
<text text-anchor="middle" x="140" y="-93.2" font-family="Helvetica,sans-Serif" font-size="12.00">ParserInCSV</text>
</a>
</g>
<!-- Node1&#45;&gt;Node2 -->
<g id="edge2" class="edge"><title>Node1&#45;&gt;Node2</title>
<path fill="none" stroke="midnightblue" d="M61.7761,-67.1807C76.2471,-72.5121 92.8472,-78.6279 107.022,-83.8501"/>
<polygon fill="midnightblue" stroke="midnightblue" points="62.7473,-63.8086 52.1539,-63.6356 60.3273,-70.377 62.7473,-63.8086"/>
</g>
<!-- Node3 -->
<g id="node5" class="node"><title>Node3</title>
<a xlink:href="a00008.html" target="_top" xlink:title="ParserInSTDQC">
<polygon fill="white" stroke="black" points="88,-42 88,-66 192,-66 192,-42 88,-42"/>
<text text-anchor="middle" x="140" y="-51.2" font-family="Helvetica,sans-Serif" font-size="12.00">ParserInSTDQC</text>
</a>
</g>
<!-- Node1&#45;&gt;Node3 -->
<g id="edge4" class="edge"><title>Node1&#45;&gt;Node3</title>
<path fill="none" stroke="midnightblue" d="M62.3935,-54C70.5162,-54 79.284,-54 87.9013,-54"/>
<polygon fill="midnightblue" stroke="midnightblue" points="62.1539,-50.5001 52.1539,-54 62.1539,-57.5001 62.1539,-50.5001"/>
</g>
<!-- Node4 -->
<g id="node7" class="node"><title>Node4</title>
<a xlink:href="a00009.html" target="_top" xlink:title="ParserOutCSV">
<polygon fill="white" stroke="black" points="92,-0 92,-24 188,-24 188,-0 92,-0"/>
<text text-anchor="middle" x="140" y="-9.2" font-family="Helvetica,sans-Serif" font-size="12.00">ParserOutCSV</text>
</a>
</g>
<!-- Node1&#45;&gt;Node4 -->
<g id="edge6" class="edge"><title>Node1&#45;&gt;Node4</title>
<path fill="none" stroke="midnightblue" d="M61.7761,-40.8193C76.2471,-35.4879 92.8472,-29.3721 107.022,-24.1499"/>
<polygon fill="midnightblue" stroke="midnightblue" points="60.3273,-37.623 52.1539,-44.3644 62.7473,-44.1914 60.3273,-37.623"/>
</g>
</g>
</svg>
